<?xml version="1.0" encoding="UTF-8"?>
<!DOCTYPE svg PUBLIC "-//W3C//DTD SVG 1.1//EN" "http://www.w3.org/Graphics/SVG/1.1/DTD/svg11.dtd">
<svg xmlns="http://www.w3.org/2000/svg" version="1.1" width="860px" height="807px" style="shape-rendering:geometricPrecision; text-rendering:geometricPrecision; image-rendering:optimizeQuality; fill-rule:evenodd; clip-rule:evenodd" xmlns:xlink="http://www.w3.org/1999/xlink">
<g><path style="opacity:0.999" fill="#020202" d="M 417.5,-0.5 C 417.833,-0.5 418.167,-0.5 418.5,-0.5C 468.057,-0.354597 515.724,9.47874 561.5,29C 578.947,36.8547 595.947,45.3547 612.5,54.5C 626.566,52.2011 640.232,53.7011 653.5,59C 755.026,115.111 820.193,199.611 849,312.5C 854.477,335.349 857.977,358.349 859.5,381.5C 859.5,395.833 859.5,410.167 859.5,424.5C 848.861,555.321 790.861,659.154 685.5,736C 628.859,776.382 565.859,799.882 496.5,806.5C 474.167,806.5 451.833,806.5 429.5,806.5C 331.04,797.352 247.874,757.018 180,685.5C 168.117,672.284 157.784,657.95 149,642.5C 147.005,633.542 145.838,624.709 145.5,616C 149.749,578.173 159.249,541.673 174,506.5C 180.942,490.949 187.609,475.282 194,459.5C 200.421,436.611 197.088,415.278 184,395.5C 162.838,363.993 133.338,345.826 95.5,341C 69.5211,338.734 43.5211,336.734 17.5,335C 9.38581,334.787 3.38581,331.287 -0.5,324.5C -0.5,323.167 -0.5,321.833 -0.5,320.5C 1.07157,316.974 2.57157,313.307 4,309.5C 15.3879,296.78 28.5546,286.28 43.5,278C 62.8333,267 82.1667,256 101.5,245C 108.888,240.277 114.055,233.777 117,225.5C 143.146,124.692 204.98,56.1916 302.5,20C 339.867,6.89013 378.2,0.0567996 417.5,-0.5 Z M 260.5,173.5 C 286.552,173.551 300.885,186.551 303.5,212.5C 301.55,237.616 288.05,251.283 263,253.5C 239.692,251.359 226.859,238.692 224.5,215.5C 225.441,191.9 237.441,177.9 260.5,173.5 Z M 164.5,284.5 C 172.865,284.447 181.198,284.947 189.5,286C 190.68,287.317 192.18,287.484 194,286.5C 197.286,286.701 197.786,287.535 195.5,289C 147.816,297.225 100.149,305.559 52.5,314C 46.2154,315.438 39.882,316.105 33.5,316C 53.4376,305.687 74.4376,298.354 96.5,294C 119.14,289.551 141.807,286.384 164.5,284.5 Z M 312.5,422.5 C 349.205,421.106 379.705,434.106 404,461.5C 428.16,490.809 445.827,523.809 457,560.5C 462.23,577.923 467.063,595.423 471.5,613C 461.506,614.039 451.506,615.039 441.5,616C 425.689,619.764 420.189,629.264 425,644.5C 427.667,647.833 430.333,651.167 433,654.5C 435.174,657.546 435.841,660.88 435,664.5C 429.745,667.751 425.078,671.751 421,676.5C 416.64,690.419 420.473,701.586 432.5,710C 438.6,713.255 444.934,715.921 451.5,718C 456.339,721.214 457.506,725.38 455,730.5C 450.86,733.728 447.194,737.395 444,741.5C 442.267,749.512 445.434,755.012 453.5,758C 456.101,758.92 458.768,759.587 461.5,760C 486.122,761.173 510.622,760.006 535,756.5C 535.5,756.833 536,757.167 536.5,757.5C 531.381,764.044 528.881,771.377 529,779.5C 532.257,782.428 536.091,783.262 540.5,782C 550.511,779.497 560.511,776.997 570.5,774.5C 571.833,774.667 573.167,774.833 574.5,775C 575.833,775.667 575.833,776.333 574.5,777C 442.439,815.122 323.439,790.789 217.5,704C 205.659,693.826 194.826,682.659 185,670.5C 183.249,668.51 182.249,666.177 182,663.5C 179.415,603.76 191.415,547.093 218,493.5C 234.452,460.712 259.952,438.212 294.5,426C 300.626,424.741 306.626,423.574 312.5,422.5 Z"/></g>
<g><path style="opacity:1" fill="#f8f8f8" d="M 622.5,65.5 C 630.022,65.4759 637.355,66.6425 644.5,69C 706.222,101.719 755.388,147.886 792,207.5C 791.896,220.948 786.396,223.781 775.5,216C 769.157,209.566 766.324,201.733 767,192.5C 764.159,183.235 757.826,178.902 748,179.5C 738.975,180.09 730.308,182.09 722,185.5C 713.333,175.5 704.667,165.5 696,155.5C 694.333,152.833 692.667,150.167 691,147.5C 690.506,145.866 690.34,144.199 690.5,142.5C 707.491,141.504 710.658,134.171 700,120.5C 695.14,115.64 690.306,110.806 685.5,106C 676.617,99.6605 671.617,101.827 670.5,112.5C 663.706,105.536 657.039,98.3694 650.5,91C 642.006,84.5832 633.006,78.9165 623.5,74C 621.316,71.9835 619.316,69.8169 617.5,67.5C 619.291,66.8302 620.958,66.1635 622.5,65.5 Z"/></g>
<g><path style="opacity:1" fill="#f9f9f9" d="M 532.5,79.5 C 536.967,79.1326 541.3,79.6326 545.5,81C 546.876,84.8557 548.376,88.689 550,92.5C 553.016,94.5049 556.349,95.5049 560,95.5C 564.57,95.0527 569.07,94.2193 573.5,93C 583.944,89.2774 594.278,85.2774 604.5,81C 622.649,81.6546 638.149,88.4879 651,101.5C 654.56,107.449 658.726,112.949 663.5,118C 668.378,122.001 673.212,122.167 678,118.5C 678.495,116.527 678.662,114.527 678.5,112.5C 684.158,113.641 688.658,116.641 692,121.5C 694.293,125.252 696.46,129.086 698.5,133C 684.512,130.647 679.346,136.147 683,149.5C 691.644,163.484 701.81,176.318 713.5,188C 695.05,195.725 676.716,203.725 658.5,212C 647.961,216.701 636.961,218.701 625.5,218C 620.374,215.017 619.041,210.684 621.5,205C 621.544,199.376 618.877,195.709 613.5,194C 594.13,190.384 576.63,194.551 561,206.5C 554.852,217.399 557.686,225.232 569.5,230C 572.864,232.729 573.197,235.729 570.5,239C 558.395,244.59 545.729,248.59 532.5,251C 518.903,253.408 505.236,255.241 491.5,256.5C 489.575,256.41 488.408,255.41 488,253.5C 483.93,241.956 480.263,230.289 477,218.5C 473.099,207.134 476.932,199.967 488.5,197C 494.18,196.445 499.846,196.612 505.5,197.5C 519.475,196.266 525.309,188.6 523,174.5C 519.39,163.111 511.89,159.278 500.5,163C 494.049,166.226 487.382,168.893 480.5,171C 474.111,172.222 469.945,169.722 468,163.5C 466.558,155.548 466.225,147.548 467,139.5C 469.962,133.208 474.795,129.041 481.5,127C 494.194,123.328 506.861,119.661 519.5,116C 521.444,113.847 521.944,111.347 521,108.5C 518.333,104.5 515,101.167 511,98.5C 510.333,96.8333 510.333,95.1667 511,93.5C 516.479,86.1812 523.645,81.5145 532.5,79.5 Z"/></g>
<g><path style="opacity:1" fill="#070707" d="M 575.5,121.5 C 577.39,121.297 578.89,121.963 580,123.5C 585.468,134.225 587.802,145.559 587,157.5C 583.751,170.912 575.918,180.579 563.5,186.5C 560.508,186.02 559.341,184.353 560,181.5C 575.889,168.239 580.056,151.906 572.5,132.5C 569.894,131.348 567.227,131.182 564.5,132C 558.788,133.511 553.121,135.178 547.5,137C 546.978,137.561 546.645,138.228 546.5,139C 548.517,143.364 550.517,147.697 552.5,152C 550.351,155.978 547.518,156.478 544,153.5C 540.028,147.362 535.862,141.362 531.5,135.5C 534.155,133.506 537.155,132.006 540.5,131C 552.245,127.65 563.912,124.483 575.5,121.5 Z"/></g>
<g><path style="opacity:1" fill="#f9f9f9" d="M 742.5,187.5 C 746.182,187.335 749.848,187.501 753.5,188C 755.286,188.785 756.786,189.951 758,191.5C 759.88,198.035 761.214,204.702 762,211.5C 768.171,222.833 777.671,228.333 790.5,228C 794.45,225.885 797.117,222.719 798.5,218.5C 814.458,247.872 826.791,278.705 835.5,311C 827.773,316.498 824.94,323.998 827,333.5C 829.789,341.748 830.122,350.081 828,358.5C 825.513,364.126 822.18,364.792 818,360.5C 817.273,350.861 815.273,341.528 812,332.5C 806.833,327 801,326.167 794.5,330C 782.502,340.331 769.669,349.497 756,357.5C 754.248,338.911 749.248,321.245 741,304.5C 730.243,286.856 720.243,287.19 711,305.5C 707.415,309.439 703.249,310.273 698.5,308C 688.83,300.168 683.163,290.002 681.5,277.5C 681.891,274.219 683.224,271.385 685.5,269C 694.124,267.933 702.791,266.933 711.5,266C 717.109,262.723 718.942,257.89 717,251.5C 709.716,235.904 701.216,221.07 691.5,207C 694.847,203.656 698.847,201.323 703.5,200C 716.392,195.09 729.392,190.924 742.5,187.5 Z"/></g>
<g><path style="opacity:0.997" fill="#060606" d="M 261.5,193.5 C 277.398,192.241 286.732,199.408 289.5,215C 286.025,233.901 275.025,240.901 256.5,236C 244.096,227.773 241.263,216.94 248,203.5C 251.531,198.795 256.031,195.462 261.5,193.5 Z"/></g>
<g><path style="opacity:1" fill="#f9f9f9" d="M 596.5,198.5 C 601.58,198.25 606.58,198.75 611.5,200C 612.872,201.242 613.872,202.742 614.5,204.5C 610.245,214.579 613.245,221.412 623.5,225C 637.364,225.869 650.697,223.536 663.5,218C 669.91,215.256 676.243,212.422 682.5,209.5C 693.721,222.602 702.388,237.268 708.5,253.5C 708.61,255.374 707.944,256.874 706.5,258C 699.563,259.173 692.563,259.84 685.5,260C 677.802,263.213 673.802,269.046 673.5,277.5C 675.207,288.574 679.374,298.574 686,307.5C 693.286,316.413 702.119,318.58 712.5,314C 716.735,308.99 721.069,304.157 725.5,299.5C 728.094,300.592 730.261,302.259 732,304.5C 742.005,321.853 747.671,340.52 749,360.5C 726.011,376.411 701.178,388.744 674.5,397.5C 672.495,396.663 671.495,395.163 671.5,393C 676.014,376.19 669.68,368.523 652.5,370C 634.618,372.848 617.951,378.848 602.5,388C 595.579,392.644 593.413,398.81 596,406.5C 600.796,410.053 605.13,414.053 609,418.5C 609.559,422.553 608.059,425.72 604.5,428C 587.088,436.27 568.754,441.27 549.5,443C 540.183,444.088 530.85,444.421 521.5,444C 525.398,423.115 523.898,402.615 517,382.5C 509.766,368.419 498.599,363.919 483.5,369C 477.293,372.603 470.96,375.936 464.5,379C 450.257,380.446 442.091,373.946 440,359.5C 436.713,342.371 443.547,332.371 460.5,329.5C 469.36,331.398 478.193,333.398 487,335.5C 497.034,333.796 502.701,327.796 504,317.5C 504.667,312.833 504.667,308.167 504,303.5C 501.068,289.875 497.235,276.541 492.5,263.5C 520.81,262.072 548.144,256.238 574.5,246C 582.111,239.42 582.444,232.42 575.5,225C 562.5,218.991 562.166,212.325 574.5,205C 581.689,201.877 589.022,199.71 596.5,198.5 Z"/></g>
<g><path style="opacity:1" fill="#060606" d="M 784.5,247.5 C 790.325,247.079 795.325,248.913 799.5,253C 808.033,261.561 813.867,271.727 817,283.5C 819.07,292.97 816.236,300.47 808.5,306C 803.082,306.527 798.415,304.86 794.5,301C 784.76,289.461 779.093,276.128 777.5,261C 777.366,255.097 779.7,250.597 784.5,247.5 Z"/></g>
<g><path style="opacity:1" fill="#050505" d="M 604.5,267.5 C 627.013,267.165 641.18,277.832 647,299.5C 647.754,312.239 643.92,323.406 635.5,333C 645.66,335.005 652.493,331.172 656,321.5C 657.011,320.663 658.178,320.33 659.5,320.5C 660.99,326.793 662.323,333.126 663.5,339.5C 653.489,341.461 643.655,344.128 634,347.5C 633.228,347.355 632.561,347.022 632,346.5C 630.444,342.442 629.277,338.275 628.5,334C 631.257,328.062 633.424,321.895 635,315.5C 637.223,300.154 632.39,287.654 620.5,278C 606.754,271.124 596.588,274.624 590,288.5C 585.809,309.122 592.809,324.789 611,335.5C 612.833,340.333 614.667,345.167 616.5,350C 616.18,351.653 615.18,352.653 613.5,353C 603.91,355.648 594.244,357.815 584.5,359.5C 583.438,354.314 581.771,349.314 579.5,344.5C 579.709,343.914 580.043,343.414 580.5,343C 584.561,344.668 588.894,345.835 593.5,346.5C 598.728,346.704 603.061,344.871 606.5,341C 579.142,330.786 570.308,311.953 580,284.5C 585.954,275.455 594.121,269.789 604.5,267.5 Z"/></g>
<g><path style="opacity:1" fill="#f8f8f8" d="M 788.5,257.5 C 796.209,261.379 801.709,267.379 805,275.5C 808.694,282.185 809.194,289.018 806.5,296C 803.144,296.357 800.311,295.191 798,292.5C 791.418,284.669 787.585,275.669 786.5,265.5C 786.289,262.514 786.956,259.847 788.5,257.5 Z"/></g>
<g><path style="opacity:1" fill="#f9f9f9" d="M 833.5,321.5 C 836.86,320.79 838.693,322.124 839,325.5C 848.932,370.986 849.932,416.652 842,462.5C 834.66,466.492 829.66,472.492 827,480.5C 825.796,488.772 825.129,497.106 825,505.5C 824.281,513.943 820.281,520.277 813,524.5C 812.333,523.167 812.333,521.833 813,520.5C 817.672,513.48 819.338,505.813 818,497.5C 814.181,494.928 810.348,495.095 806.5,498C 798.289,505.213 789.789,512.046 781,518.5C 777.343,505.215 774.843,491.715 773.5,478C 773.474,470.739 775.808,464.406 780.5,459C 782.199,458.042 784.033,457.542 786,457.5C 790.047,458.293 794.047,459.293 798,460.5C 802.676,459.837 806.342,457.504 809,453.5C 815.481,439.794 816.148,425.794 811,411.5C 807.65,401.069 801.15,398.236 791.5,403C 787.639,408.374 783.306,413.374 778.5,418C 774.22,420.477 770.72,419.644 768,415.5C 762.192,399.628 758.359,383.294 756.5,366.5C 763.124,361.515 770.124,357.015 777.5,353C 784.015,348.241 790.348,343.241 796.5,338C 801.81,335.069 805.644,336.236 808,341.5C 809.718,348.394 810.718,355.394 811,362.5C 816.289,373.16 822.955,374.16 831,365.5C 835.289,357.347 836.622,348.681 835,339.5C 832.843,333.578 832.343,327.578 833.5,321.5 Z"/></g>
<g><path style="opacity:1" fill="#f9f9f9" d="M 748.5,369.5 C 749.725,370.152 750.392,371.319 750.5,373C 751.779,386.511 754.612,399.677 759,412.5C 760.871,417.081 763.371,421.248 766.5,425C 771.167,428.333 775.833,428.333 780.5,425C 785.867,419.968 790.867,414.635 795.5,409C 798.51,406.778 801.01,407.278 803,410.5C 810.277,423.856 810.277,437.189 803,450.5C 801.352,452.028 799.352,452.695 797,452.5C 780.266,447.714 770.599,454.048 768,471.5C 767.333,477.5 767.333,483.5 768,489.5C 769.863,500.598 771.863,511.598 774,522.5C 757.444,534.722 740.61,546.556 723.5,558C 717.293,561.603 710.96,564.936 704.5,568C 701.433,569.164 699.767,568.164 699.5,565C 706.716,542.726 699.05,535.393 676.5,543C 661.216,546.868 646.883,552.868 633.5,561C 622.675,570.17 622.841,579.003 634,587.5C 635.291,592.562 633.458,596.062 628.5,598C 612.196,604.993 595.196,609.326 577.5,611C 562.525,612.228 547.525,612.728 532.5,612.5C 528.964,598.988 526.131,585.321 524,571.5C 521.298,560.924 524.465,552.757 533.5,547C 537.5,546.333 541.5,546.333 545.5,547C 575.19,555.98 587.357,545.146 582,514.5C 577.504,503.335 569.338,499.168 557.5,502C 549.578,504.628 542.244,508.295 535.5,513C 525.599,514.114 520.099,509.614 519,499.5C 518.118,483.778 518.618,468.112 520.5,452.5C 544.918,451.781 568.918,448.281 592.5,442C 601.344,439.664 608.844,435.164 615,428.5C 619.712,417.972 616.879,410.139 606.5,405C 604.586,403.587 603.253,401.753 602.5,399.5C 603.93,396.567 605.93,394.067 608.5,392C 625.238,382.316 643.238,377.316 662.5,377C 664.881,378.509 665.881,380.675 665.5,383.5C 663.767,389.394 663.267,395.394 664,401.5C 667.308,405.327 671.474,406.494 676.5,405C 702.06,396.052 726.06,384.219 748.5,369.5 Z"/></g>
<g><path style="opacity:1" fill="#040404" d="M 693.5,432.5 C 695.75,432.181 697.75,432.681 699.5,434C 698.469,437.039 696.635,439.539 694,441.5C 693.027,443.392 692.36,445.392 692,447.5C 689.643,471.383 685.977,495.05 681,518.5C 679.492,522.674 677.159,523.341 674,520.5C 667.5,508.833 661,497.167 654.5,485.5C 651.112,499.936 647.278,514.269 643,528.5C 641.418,531.341 639.251,532.341 636.5,531.5C 625.752,512.331 614.252,493.665 602,475.5C 598.907,471.205 594.74,469.538 589.5,470.5C 589.286,468.856 589.62,467.356 590.5,466C 601.304,462.215 612.304,459.549 623.5,458C 624.517,459.049 624.684,460.216 624,461.5C 620.933,463.101 618.433,465.268 616.5,468C 624.281,482.396 632.447,496.562 641,510.5C 644.501,498 646.834,485.333 648,472.5C 645.959,468.916 643.792,465.416 641.5,462C 637.974,460.663 634.308,460.163 630.5,460.5C 629.855,457.453 630.855,455.287 633.5,454C 642.42,450.689 651.42,448.023 660.5,446C 661.554,447.388 661.72,448.888 661,450.5C 657.307,452.463 656.14,455.297 657.5,459C 664.198,472.23 671.032,485.396 678,498.5C 680.304,482.869 682.471,467.202 684.5,451.5C 684.379,450.106 684.046,448.772 683.5,447.5C 680.232,446.513 676.898,446.18 673.5,446.5C 673.244,444.208 673.577,442.041 674.5,440C 680.893,437.375 687.227,434.875 693.5,432.5 Z"/></g>
<g><path style="opacity:1" fill="#f7f7f7" d="M 839.5,472.5 C 833.448,512.821 820.615,551.155 801,587.5C 783.512,618.138 762.846,646.472 739,672.5C 747.013,659.518 755.347,646.518 764,633.5C 767.009,628.486 769.175,623.153 770.5,617.5C 769.866,612.699 767.2,610.865 762.5,612C 756.833,616.333 751.167,620.667 745.5,625C 738.517,628.878 735.184,626.712 735.5,618.5C 735.943,608.109 740.61,600.276 749.5,595C 755.465,593.869 761.465,592.869 767.5,592C 771.612,590.221 774.778,587.388 777,583.5C 784.216,565.725 786.049,547.392 782.5,528.5C 782.119,525.675 783.119,523.509 785.5,522C 794.19,516.321 802.523,510.154 810.5,503.5C 811.881,504 812.547,505 812.5,506.5C 810.75,513.332 807.917,519.665 804,525.5C 802.063,532.899 804.563,535.399 811.5,533C 828.982,521.606 835.815,505.439 832,484.5C 833.262,479.626 835.762,475.626 839.5,472.5 Z"/></g>
<g><path style="opacity:1" fill="#f8f9f9" d="M 774.5,529.5 C 776.164,530.949 776.998,532.949 777,535.5C 778.688,551.667 776.688,567.334 771,582.5C 769.457,584.378 767.624,585.878 765.5,587C 746.256,586.558 734.089,595.725 729,614.5C 725.828,632.694 732.328,637.861 748.5,630C 752.714,626.118 757.214,622.618 762,619.5C 762.484,621.913 762.15,624.246 761,626.5C 750.188,646.319 736.688,664.152 720.5,680C 705.396,690.639 689.563,700.139 673,708.5C 671.623,707.964 671.623,706.964 673,705.5C 674.123,702.044 673.29,699.21 670.5,697C 667.072,696.299 663.738,696.632 660.5,698C 646.268,703.449 632.268,709.449 618.5,716C 612.823,719.716 612.157,724.05 616.5,729C 614.17,731.167 611.503,732.834 608.5,734C 589.103,739.847 569.437,743.68 549.5,745.5C 555.173,733.163 556.34,720.497 553,707.5C 550.872,704.37 548.372,701.537 545.5,699C 542.5,698.333 539.5,698.333 536.5,699C 527.576,702.641 518.41,705.475 509,707.5C 497.212,705.382 491.878,698.382 493,686.5C 496.6,679.445 502.434,676.112 510.5,676.5C 519.155,677.466 527.821,677.633 536.5,677C 546.007,673.853 549.507,667.353 547,657.5C 543.321,645.114 539.487,632.781 535.5,620.5C 553.206,619.895 570.873,618.728 588.5,617C 604.583,614.75 619.916,610.083 634.5,603C 646.493,594.217 646.327,585.717 634,577.5C 632,575.167 632,572.833 634,570.5C 639.719,564.385 646.553,559.885 654.5,557C 662.092,554.136 669.758,551.469 677.5,549C 682.775,547.641 688.109,547.308 693.5,548C 695.124,549.117 696.124,550.617 696.5,552.5C 693.532,558.889 692.365,565.555 693,572.5C 693.5,574.333 694.667,575.5 696.5,576C 699.558,576.458 702.558,576.124 705.5,575C 712.446,572.194 719.112,568.861 725.5,565C 742.015,553.303 758.348,541.47 774.5,529.5 Z"/></g>
<g><path style="opacity:1" fill="#101010" d="M 691.5,601.5 C 693.59,601.45 694.923,602.45 695.5,604.5C 693.96,610.864 692.294,617.198 690.5,623.5C 689.277,624.614 687.944,624.781 686.5,624C 685.32,620.154 682.82,617.654 679,616.5C 666.606,620.743 654.44,625.576 642.5,631C 644.156,632.829 646.156,634.163 648.5,635C 655.664,637.61 662.664,640.61 669.5,644C 670.944,645.126 671.61,646.626 671.5,648.5C 671.033,651.148 669.866,653.481 668,655.5C 659.319,664.014 650.819,672.681 642.5,681.5C 642.833,681.833 643.167,682.167 643.5,682.5C 654.988,677.837 666.655,673.671 678.5,670C 680.286,669.215 681.786,668.049 683,666.5C 684.439,663.397 686.273,660.564 688.5,658C 689.793,657.51 691.127,657.343 692.5,657.5C 692.105,665.144 690.439,672.477 687.5,679.5C 667.187,685.438 647.187,692.271 627.5,700C 622.859,701.651 620.193,700.151 619.5,695.5C 619.622,693.209 620.455,691.209 622,689.5C 632.351,678.65 642.517,667.65 652.5,656.5C 651.076,654.282 649.076,652.782 646.5,652C 638.5,648.667 630.5,645.333 622.5,642C 617.501,634.724 619.167,629.39 627.5,626C 649.032,618.056 670.366,609.889 691.5,601.5 Z"/></g>
<g><path style="opacity:1" fill="#f8f8f8" d="M 514.5,621.5 C 519.167,621.5 523.833,621.5 528.5,621.5C 531.281,634.013 534.781,646.346 539,658.5C 540.569,663.625 539.069,667.459 534.5,670C 523.167,670.333 511.833,670.667 500.5,671C 484.521,677.142 480.355,687.976 488,703.5C 495.154,712.773 504.32,715.606 515.5,712C 521.637,710.399 527.637,708.399 533.5,706C 543.471,704.678 548.138,709.178 547.5,719.5C 546.965,729.472 544.632,738.972 540.5,748C 513.645,752.737 486.645,754.07 459.5,752C 453.532,751.382 451.032,748.216 452,742.5C 457.047,739.12 461.047,734.786 464,729.5C 465.202,722.114 462.702,716.281 456.5,712C 448.42,709.09 440.753,705.424 433.5,701C 427.012,693.981 425.846,686.148 430,677.5C 433.947,675.22 437.613,672.553 441,669.5C 445.179,664.08 445.513,658.413 442,652.5C 437.952,648.12 434.285,643.454 431,638.5C 430.377,629.11 434.877,623.944 444.5,623C 468.004,622.832 491.337,622.332 514.5,621.5 Z"/></g>
<g><path style="opacity:1" fill="#f8f8f8" d="M 720.5,688.5 C 721.239,688.369 721.906,688.536 722.5,689C 690.344,719.135 654.344,743.802 614.5,763C 604.478,767.729 594.145,771.562 583.5,774.5C 583.677,772.019 582.677,770.186 580.5,769C 578.2,768.342 575.867,767.842 573.5,767.5C 564.436,769.353 555.436,771.52 546.5,774C 543.833,774.667 541.167,774.667 538.5,774C 537.483,772.951 537.316,771.784 538,770.5C 540.452,765.093 543.286,759.926 546.5,755C 569.179,751.08 591.512,745.747 613.5,739C 621.751,735.584 625.751,729.417 625.5,720.5C 637.671,714.163 650.171,708.496 663,703.5C 664.059,703.63 664.892,704.13 665.5,705C 657.483,713.929 659.483,717.596 671.5,716C 688.511,707.833 704.844,698.667 720.5,688.5 Z"/></g>
</svg>
