<svg width="400" height="400" viewBox="0 0 105.83333 105.83333" version="1.1" xmlns="http://www.w3.org/2000/svg">
<g transform="matrix(5.2916667,0,0,5.2982895,-3.3333333e-7,-0.13245695)">
<path fill="#78a6f0" d="m 19.4,4.1 -9,-4 C 10.1,0 9.9,0 9.6,0.1 l -9,4 C 0.2,4.2 0,4.6 0,5 0,5.4 0.2,5.8 0.6,5.9 l 9,4 C 9.7,10 9.9,10 10,10 c 0.1,0 0.3,0 0.4,-0.1 l 9,-4 C 19.8,5.8 20,5.4 20,5 20,4.6 19.8,4.2 19.4,4.1 Z" />
<path fill="#3f80ea" d="M 10,15 C 9.9,15 9.7,15 9.6,14.9 l -9,-4 C 0.1,10.7 -0.1,10.1 0.1,9.6 0.3,9.1 0.9,8.9 1.4,9.1 l 8.6,3.8 8.6,-3.8 c 0.5,-0.2 1.1,0 1.3,0.5 0.2,0.5 0,1.1 -0.5,1.3 l -9,4 C 10.3,15 10.1,15 10,15 Z" />
<path fill="#3f80ea" d="M 10,20 C 9.9,20 9.7,20 9.6,19.9 l -9,-4 C 0.1,15.7 -0.1,15.1 0.1,14.6 0.3,14.1 0.9,13.9 1.4,14.1 l 8.6,3.8 8.6,-3.8 c 0.5,-0.2 1.1,0 1.3,0.5 0.2,0.5 0,1.1 -0.5,1.3 l -9,4 C 10.3,20 10.1,20 10,20 Z" />
</g>
</svg>
