<?xml version="1.0" encoding="UTF-8"?>
<svg version="1.1" xmlns="http://www.w3.org/2000/svg" width="160" height="160">
<path d="M0 0 C1.28519531 -0.01611328 2.57039063 -0.03222656 3.89453125 -0.04882812 C23.49925319 -0.05877976 23.49925319 -0.05877976 28.74951172 4.82299805 C29.20342285 5.31453369 29.65733398 5.80606934 30.125 6.3125 C32.45105337 7.3860631 34.74896792 8.368862 37.125 9.3125 C38.43907855 9.87130234 39.75165601 10.43365158 41.0625 11 C42.073125 11.433125 43.08375 11.86625 44.125 12.3125 C44.125 12.9725 44.125 13.6325 44.125 14.3125 C44.681875 14.395 45.23875 14.4775 45.8125 14.5625 C48.86177919 15.55145541 50.77689963 17.16007466 53.125 19.3125 C53.125 19.9725 53.125 20.6325 53.125 21.3125 C53.7025 21.539375 54.28 21.76625 54.875 22 C57.73328941 23.66733549 59.15465122 25.66484383 61.125 28.3125 C61.8675 29.17875 62.61 30.045 63.375 30.9375 C65.125 33.3125 65.125 33.3125 65.125 36.3125 C65.785 36.3125 66.445 36.3125 67.125 36.3125 C68.13232399 38.24620231 69.13063288 40.18460306 70.125 42.125 C70.681875 43.20394531 71.23875 44.28289063 71.8125 45.39453125 C73.125 48.3125 73.125 48.3125 73.125 51.3125 C74.115 51.6425 75.105 51.9725 76.125 52.3125 C79.91232607 60.09657132 79.59053247 69.17822609 79.51611328 77.63720703 C79.50002179 79.80955777 79.51604515 81.98004896 79.53515625 84.15234375 C79.54730855 92.85834722 79.09467877 101.37314246 75.125 109.3125 C74.465 109.3125 73.805 109.3125 73.125 109.3125 C72.774375 110.570625 72.42375 111.82875 72.0625 113.125 C66.85152049 128.49378748 53.26647839 143.02559522 39.0625 150.625 C36.3147026 151.92165138 33.64419727 152.74830544 30.6875 153.4375 C28.9240625 153.870625 28.9240625 153.870625 27.125 154.3125 C26.795 154.9725 26.465 155.6325 26.125 156.3125 C24.1640625 157.12890625 24.1640625 157.12890625 21.75 157.875 C20.95851563 158.12378906 20.16703125 158.37257812 19.3515625 158.62890625 C18.61679688 158.85449219 17.88203125 159.08007812 17.125 159.3125 C16.135 159.6425 15.145 159.9725 14.125 160.3125 C9.46269289 160.57813559 4.79403935 160.54409984 0.125 160.5625 C-1.15246094 160.583125 -2.42992188 160.60375 -3.74609375 160.625 C-12.16126163 160.65945309 -20.22483373 160.13758313 -27.875 156.3125 C-27.875 155.6525 -27.875 154.9925 -27.875 154.3125 C-29.7621875 153.755625 -29.7621875 153.755625 -31.6875 153.1875 C-48.43097808 147.46702933 -62.32956089 135.02607221 -70.43359375 119.28515625 C-72.1089998 115.67330355 -73.61589767 112.089807 -74.875 108.3125 C-75.535 107.9825 -76.195 107.6525 -76.875 107.3125 C-80.29972695 99.38197331 -80.34334924 90.90307301 -80.26611328 82.41503906 C-80.25001989 80.31509474 -80.26604856 78.21707403 -80.28515625 76.1171875 C-80.30139817 66.44156261 -79.99326583 57.17104561 -73.875 49.3125 C-73.18159607 47.66153827 -72.48914399 46.01015994 -71.8046875 44.35546875 C-66.87244869 33.51697759 -59.35946779 23.52069552 -49.875 16.3125 C-49.215 16.3125 -48.555 16.3125 -47.875 16.3125 C-47.875 15.6525 -47.875 14.9925 -47.875 14.3125 C-45.08628823 12.97292079 -42.29356938 11.64191565 -39.5 10.3125 C-38.7059375 9.9309375 -37.911875 9.549375 -37.09375 9.15625 C-36.33320312 8.7953125 -35.57265625 8.434375 -34.7890625 8.0625 C-34.0873291 7.72734375 -33.3855957 7.3921875 -32.66259766 7.046875 C-30.875 6.3125 -30.875 6.3125 -28.875 6.3125 C-28.545 5.6525 -28.215 4.9925 -27.875 4.3125 C-19.89902862 -1.00481425 -9.21297537 -0.02296355 0 0 Z M-45.875 25.3125 C-47.23631126 26.95639392 -48.57364875 28.62074337 -49.875 30.3125 C-52.14960395 32.26216053 -54.19669041 33.97334521 -56.875 35.3125 C-56.875 36.3025 -56.875 37.2925 -56.875 38.3125 C-57.535 38.3125 -58.195 38.3125 -58.875 38.3125 C-59.8545958 40.10393207 -60.8336633 41.89565304 -61.8125 43.6875 C-62.35777344 44.68523438 -62.90304688 45.68296875 -63.46484375 46.7109375 C-67.54247232 54.23365391 -66.62854244 63.29717657 -64.6875 71.5 C-63.59618031 75.06777592 -63.15857571 76.08168257 -60.1875 78.5 C-59.424375 78.768125 -58.66125 79.03625 -57.875 79.3125 C-53.84216312 77.18405831 -51.65840099 74.87873252 -48.875 71.3125 C-44.45179847 67.42871329 -41.54416887 66.17393937 -35.6875 66.25 C-34.78644531 66.25902344 -33.88539062 66.26804688 -32.95703125 66.27734375 C-32.26996094 66.28894531 -31.58289062 66.30054688 -30.875 66.3125 C-30.545 66.9725 -30.215 67.6325 -29.875 68.3125 C-29.215 67.9825 -28.555 67.6525 -27.875 67.3125 C-27.545 68.3025 -27.215 69.2925 -26.875 70.3125 C-23.10634752 72.58611255 -23.10634752 72.58611255 -18.875 73.3125 C-18.58882812 73.90417969 -18.30265625 74.49585937 -18.0078125 75.10546875 C-16.79873461 77.54803169 -16.79873461 77.54803169 -14.75 80.625 C-10.77230199 88.65516479 -12.02499232 98.5900549 -14.625 106.875 C-17.25511402 113.72062779 -20.51884684 118.33191292 -26.19140625 122.91796875 C-27.90363682 124.28846238 -27.90363682 124.28846238 -29.4296875 125.890625 C-34.12702501 130.51178946 -40.65392784 131.26745823 -46.875 132.3125 C-36.04010503 144.19593319 -21.14100005 149.71869226 -5.3125 150.63671875 C7.99155203 151.09374375 21.58150019 149.42867358 33.125 142.3125 C34.07632813 141.76207031 35.02765625 141.21164063 36.0078125 140.64453125 C41.50355415 137.88485544 41.50355415 137.88485544 44.75390625 133.15625 C44.87636719 132.5478125 44.99882813 131.939375 45.125 131.3125 C46.115 130.9825 47.105 130.6525 48.125 130.3125 C48.125 129.6525 48.125 128.9925 48.125 128.3125 C48.681875 128.085625 49.23875 127.85875 49.8125 127.625 C55.92198767 124.15745294 61.49301514 117.07326057 63.78515625 110.38671875 C65.2413144 101.49913282 64.69302226 91.25100434 60.5 83.1875 C60.04625 82.56875 59.5925 81.95 59.125 81.3125 C55.80424984 81.34411858 55.80424984 81.34411858 52.125 82.3125 C50.83942253 83.72663522 49.55802598 85.15165512 48.41015625 86.6796875 C46.06353668 89.6611069 43.65454289 91.85134515 40.125 93.3125 C36.08703962 93.71224796 32.16726421 93.61118947 28.125 93.3125 C27.795 92.6525 27.465 91.9925 27.125 91.3125 C25.90264061 90.49854573 24.64697047 89.73401304 23.375 89 C18.55744324 86.06457115 14.11355205 82.78101813 12.125 77.3125 C9.57230093 66.5911639 10.94752258 55.9614352 16.125 46.3125 C16.125 45.6525 16.125 44.9925 16.125 44.3125 C16.785 44.3125 17.445 44.3125 18.125 44.3125 C18.455 43.3225 18.785 42.3325 19.125 41.3125 C19.805625 40.8175 20.48625 40.3225 21.1875 39.8125 C21.826875 39.3175 22.46625 38.8225 23.125 38.3125 C23.125 37.3225 23.125 36.3325 23.125 35.3125 C24.61 35.8075 24.61 35.8075 26.125 36.3125 C26.62 34.8275 26.62 34.8275 27.125 33.3125 C33.61378145 29.14988548 39.51209157 28.56626361 47.125 28.3125 C44.16535099 24.17907291 41.16076166 21.79339124 36.8125 19.1875 C35.72324219 18.52492188 34.63398437 17.86234375 33.51171875 17.1796875 C7.81110289 3.01025915 -23.5976552 6.73651528 -45.875 25.3125 Z M33.125 55.3125 C28.33269522 61.99185964 26.97881529 66.84021345 27.0625 75.125 C27.07152344 76.28644531 27.08054687 77.44789062 27.08984375 78.64453125 C27.10144531 79.52496094 27.11304687 80.40539062 27.125 81.3125 C32.06475483 81.3125 33.7829405 79.59951381 37.125 76.3125 C42.27307555 71.56922252 42.27307555 71.56922252 44.125 65.3125 C44.69605469 65.02761719 45.26710938 64.74273437 45.85546875 64.44921875 C47.32273412 63.71432336 48.78419543 62.96767134 50.23828125 62.20703125 C56.50052001 59.12596529 60.4285445 59.08034817 67.125 61.3125 C66.80099146 55.9663591 63.76433244 52.91623995 60.125 49.3125 C56.41340796 46.20278775 53.17247712 45.78861149 48.46484375 45.9609375 C42.06901729 46.92191309 37.22951189 50.43145884 33.125 55.3125 Z M67.125 61.3125 C68.125 63.3125 68.125 63.3125 68.125 63.3125 Z M-37.875 82.3125 C-38.65875 83.01375 -39.4425 83.715 -40.25 84.4375 C-42.20246527 86.27681468 -42.20246527 86.27681468 -41.875 89.3125 C-42.865 89.6425 -43.855 89.9725 -44.875 90.3125 C-45.019375 90.951875 -45.16375 91.59125 -45.3125 92.25 C-45.498125 92.930625 -45.68375 93.61125 -45.875 94.3125 C-47.671875 95.30859375 -47.671875 95.30859375 -49.875 96.3125 C-50.81279297 96.84230469 -50.81279297 96.84230469 -51.76953125 97.3828125 C-56.29996529 99.87408987 -59.58469854 100.9229194 -64.875 100.3125 C-67.3125 99.3125 -67.3125 99.3125 -68.875 98.3125 C-67.57344994 102.39214281 -67.57344994 102.39214281 -65.875 106.3125 C-65.215 106.3125 -64.555 106.3125 -63.875 106.3125 C-63.5346875 107.2096875 -63.5346875 107.2096875 -63.1875 108.125 C-61.39473759 111.11293735 -60.11506063 111.96247474 -56.875 113.3125 C-50.63681507 114.09491642 -45.33714967 113.61040169 -39.875 110.3125 C-34.34123833 105.31804562 -29.33547201 99.00393399 -28.71630859 91.35107422 C-28.54416927 86.66318182 -28.66806363 81.99730952 -28.875 77.3125 C-33.05930831 77.3125 -34.94103939 79.63133495 -37.875 82.3125 Z " fill="#199EC9" transform="translate(80.875,-0.3125)"/>
<path d="M0 0 C2.5625 2.1875 2.5625 2.1875 4.5625 5.1875 C4.30044068 9.90456769 3.51477165 13.44038598 0.5625 17.1875 C-0.4275 17.1875 -1.4175 17.1875 -2.4375 17.1875 C-2.4375 17.8475 -2.4375 18.5075 -2.4375 19.1875 C-1.48875 19.414375 -0.54 19.64125 0.4375 19.875 C3.5625 21.1875 3.5625 21.1875 4.8125 23.1875 C6.231436 28.86324402 7.5625 34.31657808 7.5625 40.1875 C8.119375 40.414375 8.67625 40.64125 9.25 40.875 C12.24291199 42.57367978 14.29777237 44.60822687 16.5625 47.1875 C16.5625 48.1775 16.5625 49.1675 16.5625 50.1875 C17.490625 50.620625 17.490625 50.620625 18.4375 51.0625 C20.5625 52.1875 20.5625 52.1875 22.5625 54.1875 C23.1875 56.3125 23.1875 56.3125 23.5625 58.1875 C5.13315668 57.73524618 5.13315668 57.73524618 -1.4375 53.1875 C-3.6875 50.75 -3.6875 50.75 -5.4375 48.1875 C-6.30375 47.341875 -7.17 46.49625 -8.0625 45.625 C-10.19586945 43.43548925 -11.17596489 41.89078952 -12.4375 39.1875 C-13.41770375 38.1680881 -14.41553008 37.16503644 -15.4375 36.1875 C-17.03619331 32.99011338 -16.94835495 29.657333 -16.4375 26.1875 C-14.4375 23.1875 -14.4375 23.1875 -12.4375 21.1875 C-14.04625 20.8471875 -14.04625 20.8471875 -15.6875 20.5 C-19.94517263 19.00981458 -21.29811631 18.12396599 -23.4375 14.1875 C-24.17408705 9.03139063 -24.10396696 7.24600635 -21.3125 2.8125 C-15.33025139 -2.64955308 -7.16761133 -3.77928597 0 0 Z " fill="#16A0C9" transform="translate(82.4375,43.8125)"/>
</svg>
