<?xml version="1.0" encoding="UTF-8"?>
<svg version="1.1" xmlns="http://www.w3.org/2000/svg" width="160" height="160">
<path d="M0 0 C15.77288812 13.87669392 26.51858241 32.06117801 28.26977539 53.27880859 C28.38557402 56.09048944 28.42664699 58.88908328 28.421875 61.703125 C28.42026367 62.70359863 28.41865234 63.70407227 28.41699219 64.73486328 C28.08044868 85.32010805 19.645342 104.24296575 5.53515625 119.23046875 C1.03734846 123.47408332 -3.87588834 127.063115 -8.953125 130.578125 C-9.6646875 131.0834375 -10.37625 131.58875 -11.109375 132.109375 C-16.31923785 135.6110861 -21.95256016 137.79122078 -27.953125 139.578125 C-28.55092773 139.75835205 -29.14873047 139.9385791 -29.76464844 140.12426758 C-36.52699281 141.90873092 -43.32324548 141.9161889 -50.27246094 141.89379883 C-52.31760157 141.89064125 -54.36128738 141.9141612 -56.40625 141.93945312 C-64.36507287 141.97759012 -71.41458665 141.18879928 -78.953125 138.578125 C-79.81663574 138.28824707 -80.68014648 137.99836914 -81.56982422 137.69970703 C-101.13924586 130.87737763 -116.51902098 114.37083878 -125.39111328 96.14819336 C-126.26648587 94.30148244 -127.1109464 92.44020814 -127.953125 90.578125 C-128.31535156 89.80210938 -128.67757812 89.02609375 -129.05078125 88.2265625 C-132.02458633 79.49825149 -132.29026085 70.85780852 -132.265625 61.703125 C-132.28173828 60.51332031 -132.29785156 59.32351562 -132.31445312 58.09765625 C-132.32547826 37.92166546 -123.66934004 19.29188296 -109.953125 4.578125 C-78.96790097 -24.27753037 -32.91578601 -26.99442768 0 0 Z " fill="#41B784" transform="translate(131.953125,18.421875)"/>
<path d="M0 0 C0.33 0.66 0.66 1.32 1 2 C2.46759766 1.91298828 2.46759766 1.91298828 3.96484375 1.82421875 C12.22837746 1.53982968 18.22793854 1.82552298 25 7 C25.60714844 7.43054687 26.21429688 7.86109375 26.83984375 8.3046875 C29.9708828 10.67691003 31.24910995 12.21721427 32 16 C32.37125 17.258125 32.7425 18.51625 33.125 19.8125 C34.2926059 24.63444497 34.3185568 28.65782673 31.8125 33.109375 C30.92367319 34.49311674 30.00712034 35.85960291 29.05859375 37.203125 C27.7462035 39.08321235 27.7462035 39.08321235 28 42 C28.97753644 43.02196992 29.9805881 44.01979625 31 45 C33.39030061 49.23450258 34.32851034 53.1366187 34 58 C32.65085713 62.16235558 30.9207224 66.07215593 29 70 C28.34 70 27.68 70 27 70 C26.75636719 70.60457031 26.51273438 71.20914063 26.26171875 71.83203125 C23.81007641 76.04460554 19.47176767 77.50004778 15 79 C-6.29945277 82.3885493 -6.29945277 82.3885493 -13.08789062 77.49487305 C-15.76241719 74.0052169 -15.72394238 70.67515582 -15.86328125 66.4375 C-15.90438522 65.60919678 -15.9454892 64.78089355 -15.98783875 63.92749023 C-16.07112708 62.17959808 -16.14537443 60.43125475 -16.21118164 58.68261719 C-16.31217787 56.00852907 -16.43971309 53.33675442 -16.57226562 50.6640625 C-16.64998935 48.96361189 -16.72621184 47.26309186 -16.80078125 45.5625 C-16.83714188 44.76448975 -16.8735025 43.96647949 -16.91096497 43.14428711 C-17.0422943 39.5356108 -16.91321732 36.47315896 -16 33 C-15.89863075 30.94958455 -15.84541161 28.89656029 -15.82421875 26.84375 C-15.80037109 25.65652344 -15.77652344 24.46929687 -15.75195312 23.24609375 C-15.70898737 20.748872 -15.67773531 18.25142122 -15.65820312 15.75390625 C-15.63048828 14.56667969 -15.60277344 13.37945312 -15.57421875 12.15625 C-15.55963623 11.07150391 -15.54505371 9.98675781 -15.5300293 8.86914062 C-14.88023221 5.35167614 -13.80882989 4.15319045 -11 2 C-8.203125 1.609375 -8.203125 1.609375 -5.25 1.75 C-3.77273437 1.80414063 -3.77273437 1.80414063 -2.265625 1.859375 C-1.51796875 1.90578125 -0.7703125 1.9521875 0 2 C0 1.34 0 0.68 0 0 Z " fill="#F5F7F6" transform="translate(71,40)"/>
<path d="M0 0 C14.72603431 -0.27270434 14.72603431 -0.27270434 18 2 C19.59616743 5.19233485 19.51466114 8.53461497 19 12 C17.12984906 14.43119623 15.71861655 15.64069173 13 17 C8.66396021 17.1393329 4.33919329 17.04254111 0 17 C0 11.39 0 5.78 0 0 Z " fill="#37C89D" transform="translate(70,88)"/>
<path d="M0 0 C13.48539786 -0.40864842 13.48539786 -0.40864842 18 3 C19.56935594 6.13871188 19.35201103 8.53855822 19 12 C17.375 14.9375 17.375 14.9375 14 17 C9.2507486 17.41952617 4.7858301 17.22363692 0 17 C0 11.39 0 5.78 0 0 Z " fill="#35C79C" transform="translate(70,56)"/>
<path d="M0 0 C1.32 0.33 2.64 0.66 4 1 C4.12375 1.5775 4.2475 2.155 4.375 2.75 C4.92568999 5.01097195 4.92568999 5.01097195 6 7 C8.58908066 12.17816133 7.95896975 16.61348831 7 22.1875 C6.814375 23.27417969 6.62875 24.36085938 6.4375 25.48046875 C6.293125 26.31191406 6.14875 27.14335938 6 28 C5.34 28 4.68 28 4 28 C3.855625 28.78375 3.71125 29.5675 3.5625 30.375 C3 33 3 33 2 35 C1.34 34.67 0.68 34.34 0 34 C-0.34375 32.14453125 -0.34375 32.14453125 -0.5 29.8125 C-0.85694932 25.9537548 -1.39251006 22.57219986 -3 19 C-3.99 18.67 -4.98 18.34 -6 18 C-5.52445454 15.02784088 -4.59345472 13.32665939 -3 10.6875 C-0.85836278 7.10258553 -0.33786903 4.13889558 0 0 Z " fill="#68C985" transform="translate(104,64)"/>
<path d="M0 0 C0.66 0.33 1.32 0.66 2 1 C-0.28347198 4.56221629 -2.68841667 7.85463581 -5.375 11.125 C-11.6241719 19.10409288 -15.6224698 28.18543936 -18 38 C-18.16991455 38.63679688 -18.3398291 39.27359375 -18.51489258 39.9296875 C-20.00391614 45.88841834 -20.27132994 51.50100215 -20.1875 57.625 C-20.18685547 58.52734375 -20.18621094 59.4296875 -20.18554688 60.359375 C-20.15288032 65.33921041 -19.84056384 70.09110718 -19 75 C-19.66 75 -20.32 75 -21 75 C-22.7039178 69.33848555 -22.22580257 63.35577692 -22.25 57.5 C-22.270625 56.283125 -22.29125 55.06625 -22.3125 53.8125 C-22.40223541 32.81441396 -13.41949469 15.75483533 0 0 Z " fill="#016B7C" transform="translate(22,23)"/>
<path d="M0 0 C0.33 0 0.66 0 1 0 C1 10.89 1 21.78 1 33 C0.67 31.68 0.34 30.36 0 29 C-0.66 29 -1.32 29 -2 29 C-2 27.68 -2 26.36 -2 25 C-2.66 24.67 -3.32 24.34 -4 24 C-3.67 23.01 -3.34 22.02 -3 21 C-3.66 20.67 -4.32 20.34 -5 20 C-4.34 20 -3.68 20 -3 20 C-3 19.01 -3 18.02 -3 17 C-3.66 16.67 -4.32 16.34 -5 16 C-4.34 16 -3.68 16 -3 16 C-3.66 14.35 -4.32 12.7 -5 11 C-4.34 11 -3.68 11 -3 11 C-2.87625 10.113125 -2.7525 9.22625 -2.625 8.3125 C-2.05587264 5.29612498 -1.23385564 2.79673946 0 0 Z " fill="#2EAD95" transform="translate(54,64)"/>
<path d="M0 0 C0.66 0 1.32 0 2 0 C2.8353125 1.57587891 2.8353125 1.57587891 3.6875 3.18359375 C11.58893652 17.83101043 20.96845191 29.15745317 36 37 C36 37.66 36 38.32 36 39 C20.40455297 33.4362189 8.84148037 18.85401453 1.23828125 4.7265625 C0 2 0 2 0 0 Z " fill="#0F6F6B" transform="translate(6,112)"/>
<path d="M0 0 C0.66 0.33 1.32 0.66 2 1 C-3.33492519 9.54800513 -9.1207998 17.89445989 -18 23 C-18 22.01 -18 21.02 -18 20 C-12.65116279 15 -12.65116279 15 -10 15 C-9.75507813 14.45859375 -9.51015625 13.9171875 -9.2578125 13.359375 C-7.70646212 10.44938857 -5.83285696 7.9025804 -3.875 5.25 C-3.15054688 4.26515625 -2.42609375 3.2803125 -1.6796875 2.265625 C-1.12539062 1.51796875 -0.57109375 0.7703125 0 0 Z " fill="#4C9847" transform="translate(147,121)"/>
<path d="M0 0 C0 0.66 0 1.32 0 2 C-1.28913487 2.67154933 -2.58140204 3.33708859 -3.875 4 C-4.59429687 4.37125 -5.31359375 4.7425 -6.0546875 5.125 C-8 6 -8 6 -10 6 C-10 6.66 -10 7.32 -10 8 C-11.828125 9.4375 -11.828125 9.4375 -14.25 11 C-15.03890625 11.515625 -15.8278125 12.03125 -16.640625 12.5625 C-18.72070886 13.82983586 -20.80311715 14.9519458 -23 16 C-19.18243041 10.56285543 -14.88443209 7.41539094 -9.25 4.0625 C-8.57573975 3.6610376 -7.90147949 3.2595752 -7.20678711 2.84594727 C-2.28869828 0 -2.28869828 0 0 0 Z " fill="#11746E" transform="translate(47,7)"/>
<path d="M0 0 C0.66 0 1.32 0 2 0 C3.20005531 2.0978523 4.38502983 4.2020249 5.5625 6.3125 C6.07586914 7.20485352 6.07586914 7.20485352 6.59960938 8.11523438 C7.47766262 9.70282559 8.24586268 11.34993931 9 13 C8.67 13.99 8.34 14.98 8 16 C6.66141476 13.71125827 5.32898986 11.41930344 4 9.125 C3.6184375 8.47402344 3.236875 7.82304688 2.84375 7.15234375 C0 2.2265625 0 2.2265625 0 0 Z " fill="#04646F" transform="translate(6,112)"/>
<path d="M0 0 C0.66 0.33 1.32 0.66 2 1 C-1.13572684 5.82419514 -4.5148552 10.42284316 -8 15 C-8.33 14.01 -8.66 13.02 -9 12 C-7.63671875 9.84375 -7.63671875 9.84375 -5.6875 7.5 C-3.66149764 5.03427705 -1.77307022 2.65960533 0 0 Z " fill="#087076" transform="translate(22,23)"/>
<path d="M0 0 C3.59851822 3.49570341 6.81406 7.1252081 10 11 C10.66 11.66 11.32 12.32 12 13 C7.99467488 12.47678185 6.35207218 10.60292705 3.75 7.625 C3.04359375 6.83351562 2.3371875 6.04203125 1.609375 5.2265625 C0 3 0 3 0 0 Z " fill="#0A767B" transform="translate(15,126)"/>
<path d="M0 0 C3.99012371 0.55989303 6.5255052 1.75669768 9.8125 4.0625 C10.60269531 4.61035156 11.39289063 5.15820312 12.20703125 5.72265625 C12.79871094 6.14417969 13.39039062 6.56570312 14 7 C13.01 7.33 12.02 7.66 11 8 C9.62797869 7.05377841 8.30144802 6.04115841 7 5 C5.4221875 4.2265625 5.4221875 4.2265625 3.8125 3.4375 C1 2 1 2 0 0 Z " fill="#387B43" transform="translate(112,7)"/>
<path d="M0 0 C0.66 0 1.32 0 2 0 C2 0.66 2 1.32 2 2 C2.66 2 3.32 2 4 2 C4 1.34 4 0.68 4 0 C4.66 0 5.32 0 6 0 C6 0.66 6 1.32 6 2 C7.32 1.67 8.64 1.34 10 1 C10 1.66 10 2.32 10 3 C5.71 3 1.42 3 -3 3 C-2.01 2.01 -1.02 1.02 0 0 Z " fill="#66C49D" transform="translate(75,39)"/>
<path d="M0 0 C0.66 0 1.32 0 2 0 C1.67 3.63 1.34 7.26 1 11 C-1.30441554 7.54337669 -1.25860135 6.05142119 -1 2 C-0.67 1.34 -0.34 0.68 0 0 Z " fill="#AFDFD5" transform="translate(55,75)"/>
<path d="M0 0 C0.66 0.33 1.32 0.66 2 1 C0.02 3.97 -1.96 6.94 -4 10 C-4.33 9.01 -4.66 8.02 -5 7 C-4.00390625 5.17578125 -4.00390625 5.17578125 -2.5625 3.3125 C-2.08941406 2.68988281 -1.61632812 2.06726563 -1.12890625 1.42578125 C-0.75636719 0.95527344 -0.38382813 0.48476562 0 0 Z " fill="#4B8D3F" transform="translate(147,121)"/>
<path d="M0 0 C0.33 0.66 0.66 1.32 1 2 C1.99 2 2.98 2 4 2 C4 2.66 4 3.32 4 4 C3.01 4.33 2.02 4.66 1 5 C1 5.66 1 6.32 1 7 C0.01 6.67 -0.98 6.34 -2 6 C-1.34 4.02 -0.68 2.04 0 0 Z " fill="#7ED099" transform="translate(103,101)"/>
</svg>
