<?xml version="1.0" encoding="UTF-8"?>
<svg version="1.1" xmlns="http://www.w3.org/2000/svg" width="200" height="200">
<path d="M0 0 C2.20375685 2.20375685 2.39988361 2.98112654 3.00561523 5.9362793 C3.17596786 6.74860519 3.3463205 7.56093109 3.52183533 8.39787292 C3.69896561 9.28106705 3.87609589 10.16426117 4.05859375 11.07421875 C4.34332298 12.44825615 4.34332298 12.44825615 4.63380432 13.85005188 C5.24213961 16.79445713 5.83990055 19.74089908 6.4375 22.6875 C6.8359049 24.62318771 7.23498608 26.55873636 7.63476562 28.49414062 C9.7972956 38.98785503 11.91300037 49.49101665 14 60 C17.34947437 58.92406885 20.56937138 57.84171293 23.69921875 56.23046875 C24.34632812 55.90111328 24.9934375 55.57175781 25.66015625 55.23242188 C26.66369141 54.71518555 26.66369141 54.71518555 27.6875 54.1875 C34.05218199 50.95211999 40.4649305 47.87986114 47 45 C47.33 45.66 47.66 46.32 48 47 C47.02643654 49.28911251 45.99444592 51.44890871 44.8515625 53.65234375 C44.35358658 54.6362484 44.35358658 54.6362484 43.84555054 55.64002991 C42.77948631 57.74307421 41.70270056 59.84039836 40.625 61.9375 C39.55648627 64.03200791 38.49021934 66.12762998 37.4258728 68.22425842 C36.76210668 69.53011892 36.09555198 70.83456652 35.42593384 72.13743591 C34.09679372 74.73883744 32.92569172 77.22292485 32 80 C32.99089882 80.06912598 32.99089882 80.06912598 34.0018158 80.13964844 C40.97120601 80.69065795 47.67144554 81.79308515 54.50390625 83.25 C56.07155983 83.57726074 56.07155983 83.57726074 57.67088318 83.91113281 C59.85713312 84.36880923 62.04276337 84.82945517 64.2277832 85.29296875 C67.58336136 86.00442305 70.94088392 86.7060569 74.29882812 87.40625 C76.4298067 87.85359921 78.56067043 88.30149595 80.69140625 88.75 C81.69651749 88.96043945 82.70162872 89.17087891 83.73719788 89.38769531 C84.6625383 89.58459961 85.58787872 89.78150391 86.54125977 89.984375 C87.76390282 90.24299316 87.76390282 90.24299316 89.01124573 90.50683594 C91 91 91 91 93 92 C93 92.66 93 93.32 93 94 C91.85748779 94.22139648 90.71497559 94.44279297 89.5378418 94.67089844 C85.20046793 95.5118205 80.86348854 96.35476283 76.52661133 97.19824219 C74.66799039 97.5594498 72.80927013 97.92014676 70.95043945 98.28027344 C58.27440247 100.73657722 45.62653309 103.30047793 33 106 C33 109.81677754 34.26307364 111.73020689 36.0625 115.09375 C36.37324463 115.68168335 36.68398926 116.2696167 37.00415039 116.87536621 C37.99694655 118.75340353 38.99748573 120.62713418 40 122.5 C41.31952685 124.96509882 42.63095626 127.43425027 43.9375 129.90625 C44.52402344 131.00259766 45.11054688 132.09894531 45.71484375 133.22851562 C47 136 47 136 47 139 C42.02409727 138.41574528 38.23929513 136.14095417 33.9375 133.75 C27.09555368 130.02751358 20.25964312 126.835113 13 124 C12.95350815 124.65806137 12.9070163 125.31612274 12.8591156 125.99412537 C12.29949593 133.02642002 11.20429692 139.81688865 9.78515625 146.72265625 C9.5693541 147.78995468 9.35355194 148.85725311 9.13121033 149.95689392 C8.67778032 152.190214 8.22132867 154.42292258 7.76196289 156.6550293 C7.05839488 160.0824983 6.36953048 163.51271351 5.68164062 166.94335938 C5.23785805 169.11997104 4.79322732 171.29641 4.34765625 173.47265625 C4.14237808 174.49964127 3.93709991 175.52662628 3.7256012 176.58473206 C3.52877243 177.53009323 3.33194366 178.47545441 3.12915039 179.44946289 C2.95895889 180.28232315 2.7887674 181.11518341 2.61341858 181.97328186 C2 184 2 184 0 186 C-1.35755483 182.11304236 -2.43675841 178.3075215 -3.23681641 174.27001953 C-3.45689362 173.16933136 -3.67697083 172.06864319 -3.90371704 170.93460083 C-4.13400604 169.76251068 -4.36429504 168.59042053 -4.6015625 167.3828125 C-4.8428891 166.17051971 -5.0842157 164.95822693 -5.33285522 163.709198 C-6.1005261 159.84850754 -6.86283184 155.98678015 -7.625 152.125 C-8.14504542 149.50244711 -8.66630869 146.88013812 -9.1875 144.2578125 C-10.46238816 137.83934038 -11.73287654 131.42000926 -13 125 C-16.90778977 125.71058144 -19.84118416 126.78788778 -23.34375 128.6875 C-24.34277344 129.22117188 -25.34179688 129.75484375 -26.37109375 130.3046875 C-27.91990234 131.14386719 -27.91990234 131.14386719 -29.5 132 C-31.54886731 133.11012286 -33.60085044 134.21451882 -35.65625 135.3125 C-36.56181641 135.80363281 -37.46738281 136.29476562 -38.40039062 136.80078125 C-40.95941971 137.98128002 -43.22419181 138.57449288 -46 139 C-45.37962364 134.84323883 -43.97362991 131.62363153 -42.05859375 127.89453125 C-41.47529297 126.74662109 -40.89199219 125.59871094 -40.29101562 124.41601562 C-39.67368345 123.21458343 -39.05583899 122.01341433 -38.4375 120.8125 C-37.22301197 118.44641313 -36.01453437 116.07751253 -34.80859375 113.70703125 C-34.27032959 112.6600708 -33.73206543 111.61311035 -33.17749023 110.53442383 C-31.85955171 108.16346645 -31.85955171 108.16346645 -32 106 C-33.0169117 105.79994858 -33.0169117 105.79994858 -34.05436707 105.59585571 C-41.11203098 104.20645144 -48.16833041 102.81027219 -55.22387695 101.41015625 C-57.85689525 100.88801533 -60.49037089 100.36827723 -63.12426758 99.85058594 C-66.91058363 99.10545607 -70.69562279 98.3541193 -74.48046875 97.6015625 C-75.65772018 97.3712735 -76.83497162 97.1409845 -78.04789734 96.90371704 C-79.14866104 96.68363983 -80.24942474 96.46356262 -81.38354492 96.23681641 C-82.83249397 95.95035751 -82.83249397 95.95035751 -84.31071472 95.65811157 C-87.00657814 94.99839022 -89.45265213 94.0937489 -92 93 C-91.505 92.01 -91.505 92.01 -91 91 C-88.63987732 90.30392456 -88.63987732 90.30392456 -85.47045898 89.67138672 C-84.28931015 89.43128876 -83.10816132 89.1911908 -81.89122009 88.94381714 C-80.6058284 88.69165436 -79.32043671 88.43949158 -77.99609375 88.1796875 C-76.67457728 87.91425425 -75.35321341 87.64806021 -74.03199768 87.38113403 C-70.54988127 86.679775 -67.0657813 85.98880183 -63.58117676 85.29992676 C-60.02747849 84.59550083 -56.47574071 83.88133373 -52.92382812 83.16796875 C-45.95111308 81.76907255 -38.97625729 80.3811322 -32 79 C-33.39473364 74.70163822 -35.00061844 70.76348113 -37.0390625 66.7265625 C-37.61914062 65.57285156 -38.19921875 64.41914062 -38.796875 63.23046875 C-39.40616191 62.02860117 -40.01553802 60.82677881 -40.625 59.625 C-41.24255878 58.39992668 -41.85974982 57.1746679 -42.4765625 55.94921875 C-43.98077167 52.96430368 -45.48869122 49.98132497 -47 47 C-44.22097332 45.86891923 -43.16719715 45.93336578 -40.33032227 47.06396484 C-39.33572998 47.60746582 -38.3411377 48.1509668 -37.31640625 48.7109375 C-36.22392578 49.29617187 -35.13144531 49.88140625 -34.00585938 50.484375 C-32.86955078 51.10828125 -31.73324219 51.7321875 -30.5625 52.375 C-28.31689797 53.5968529 -26.06830315 54.81322538 -23.81640625 56.0234375 C-22.82068604 56.56919434 -21.82496582 57.11495117 -20.79907227 57.67724609 C-18.13255448 58.9373589 -15.88099714 59.48288583 -13 60 C-11.61218561 53.20481014 -10.22468766 46.40955571 -8.83740234 39.61425781 C-8.36611985 37.30597495 -7.8947668 34.99770649 -7.42333984 32.68945312 C-6.74297516 29.35811146 -6.06287017 26.02671685 -5.3828125 22.6953125 C-5.07018967 21.165009 -5.07018967 21.165009 -4.75125122 19.60379028 C-4.55119476 18.62352875 -4.35113831 17.64326721 -4.14501953 16.63330078 C-3.85694427 15.22688324 -3.85694427 15.22688324 -3.56304932 13.79205322 C-3.1797685 11.89143738 -2.80657643 9.9887654 -2.44232178 8.08441162 C-2.18059174 6.72174164 -2.18059174 6.72174164 -1.91357422 5.33154297 C-1.6847908 4.11505569 -1.6847908 4.11505569 -1.4513855 2.87399292 C-1 1 -1 1 0 0 Z " fill="#06082E" transform="translate(99,9)"/>
<path d="M0 0 C0.33 0 0.66 0 1 0 C0.67 29.7 0.34 59.4 0 90 C-5.49960792 88.62509802 -7.59688991 85.31544911 -11.26953125 81.15234375 C-14.7747714 78.38927176 -16.63029334 78.57380664 -21 79 C-22.31291016 79.10828125 -22.31291016 79.10828125 -23.65234375 79.21875 C-24.40644531 79.3115625 -25.16054687 79.404375 -25.9375 79.5 C-26.70964844 79.5928125 -27.48179688 79.685625 -28.27734375 79.78125 C-29.13005859 79.88953125 -29.13005859 79.88953125 -30 80 C-30 79.01 -30 78.02 -30 77 C-30.66 77 -31.32 77 -32 77 C-36.95 67.1 -41.9 57.2 -47 47 C-42.22330129 45.80582532 -41.49695457 46.42645156 -37.31640625 48.7109375 C-36.22392578 49.29617187 -35.13144531 49.88140625 -34.00585938 50.484375 C-32.86955078 51.10828125 -31.73324219 51.7321875 -30.5625 52.375 C-28.31689797 53.5968529 -26.06830315 54.81322538 -23.81640625 56.0234375 C-22.82068604 56.56919434 -21.82496582 57.11495117 -20.79907227 57.67724609 C-18.13255448 58.9373589 -15.88099714 59.48288583 -13 60 C-11.61218561 53.20481014 -10.22468766 46.40955571 -8.83740234 39.61425781 C-8.36611985 37.30597495 -7.8947668 34.99770649 -7.42333984 32.68945312 C-6.74297516 29.35811146 -6.06287017 26.02671685 -5.3828125 22.6953125 C-5.17439728 21.67511017 -4.96598206 20.65490784 -4.75125122 19.60379028 C-4.45116653 18.13339798 -4.45116653 18.13339798 -4.14501953 16.63330078 C-3.95296936 15.69568909 -3.76091919 14.75807739 -3.56304932 13.79205322 C-3.1797685 11.89143738 -2.80657643 9.9887654 -2.44232178 8.08441162 C-2.26783508 7.17596497 -2.09334839 6.26751831 -1.91357422 5.33154297 C-1.76105194 4.52055145 -1.60852966 3.70955994 -1.4513855 2.87399292 C-1 1 -1 1 0 0 Z " fill="#05062A" transform="translate(99,9)"/>
<path d="M0 0 C28.38 0 56.76 0 86 0 C83.912797 4.174406 82.35408166 5.39275781 78.8125 8.25 C75.46241124 11.45108911 73.70783737 13.59223071 73.56640625 18.2109375 C73.73352988 22.19544712 74.28970583 26.07878698 75 30 C67.9333422 33.98715096 60.73852589 37.71155216 53.5 41.375 C52.61538086 41.82794434 51.73076172 42.28088867 50.81933594 42.74755859 C49.98176758 43.16859863 49.14419922 43.58963867 48.28125 44.0234375 C47.52908203 44.40419434 46.77691406 44.78495117 46.00195312 45.17724609 C44 46 44 46 41 46 C41.62037636 41.84323883 43.02637009 38.62363153 44.94140625 34.89453125 C45.52470703 33.74662109 46.10800781 32.59871094 46.70898438 31.41601562 C47.32631655 30.21458343 47.94416101 29.01341433 48.5625 27.8125 C49.77698803 25.44641313 50.98546563 23.07751253 52.19140625 20.70703125 C52.72967041 19.6600708 53.26793457 18.61311035 53.82250977 17.53442383 C55.14044829 15.16346645 55.14044829 15.16346645 55 13 C36.85 9.37 18.7 5.74 0 2 C0 1.34 0 0.68 0 0 Z " fill="#030429" transform="translate(12,102)"/>
<path d="M0 0 C0.66 0.66 1.32 1.32 2 2 C1.55084229 2.89307861 1.10168457 3.78615723 0.63891602 4.70629883 C-1.02734138 8.02071041 -2.69094882 11.3364461 -4.35375977 14.65258789 C-5.07374032 16.08752098 -5.79443857 17.5220942 -6.51586914 18.95629883 C-7.55283577 21.01809966 -8.58721272 23.08118179 -9.62109375 25.14453125 C-9.94403915 25.78526077 -10.26698456 26.4259903 -10.59971619 27.08613586 C-11.90853398 29.70344219 -13.07297284 32.21891853 -14 35 C-13.43434326 35.02505615 -12.86868652 35.0501123 -12.28588867 35.07592773 C-2.4421445 35.73142498 7.07125364 37.9755928 16.6875 40.0625 C18.46797278 40.44394882 20.24857092 40.82481298 22.02929688 41.20507812 C26.35433946 42.12998414 30.67760842 43.06278653 35 44 C35 44.99 35 45.98 35 47 C9.26 47 -16.48 47 -43 47 C-41.80911753 42.23647014 -40.60560368 41.72201296 -36.875 38.75 C-33.49739801 35.55471175 -31.70352234 33.42828256 -31.5625 28.7890625 C-31.73267806 24.80530877 -32.28981236 20.92062493 -33 17 C-32.401875 16.896875 -31.80375 16.79375 -31.1875 16.6875 C-28.9496035 16.17004108 -28.9496035 16.17004108 -27.57836914 14.57373047 C-25.00227587 12.00520808 -21.68017333 10.68795058 -18.4375 9.125 C-17.36918945 8.60099609 -17.36918945 8.60099609 -16.27929688 8.06640625 C-14.85250074 7.36656597 -13.42461865 6.66893488 -11.99560547 5.97363281 C-9.32060363 4.66853037 -6.65985548 3.33565196 -4 2 C-2.66666667 1.33333333 -1.33333333 0.66666667 0 0 Z " fill="#05072D" transform="translate(145,54)"/>
<path d="M0 0 C0.33 0 0.66 0 1 0 C2.22770404 5.84901459 3.45446729 11.69822549 4.68041992 17.54760742 C5.09618724 19.53073241 5.51219607 21.51380679 5.9284668 23.49682617 C8.34034343 34.98734315 10.72865129 46.48077548 13 58 C14.32 58.33 15.64 58.66 17 59 C14.525 59.495 14.525 59.495 12 60 C12.144375 60.65226562 12.28875 61.30453125 12.4375 61.9765625 C12.623125 62.85054687 12.80875 63.72453125 13 64.625 C13.185625 65.48351562 13.37125 66.34203125 13.5625 67.2265625 C13.706875 68.14179687 13.85125 69.05703125 14 70 C14.23009766 71.43859375 14.23009766 71.43859375 14.46484375 72.90625 C13.76067654 77.59280826 10.94517143 79.74381514 7.5625 82.875 C6.64500977 83.76445312 6.64500977 83.76445312 5.70898438 84.671875 C1.19636557 89 1.19636557 89 0 89 C0 59.63 0 30.26 0 0 Z " fill="#16C2FB" transform="translate(100,11)"/>
<path d="M0 0 C30.03 0 60.06 0 91 0 C91 0.33 91 0.66 91 1 C89.85748779 1.22139648 88.71497559 1.44279297 87.5378418 1.67089844 C83.20046793 2.5118205 78.86348854 3.35476283 74.52661133 4.19824219 C72.66799039 4.5594498 70.80927013 4.92014676 68.95043945 5.28027344 C59.06531678 7.19576676 49.18773263 9.14092291 39.33203125 11.203125 C38.1361866 11.45204498 38.1361866 11.45204498 36.91618347 11.70599365 C33.88140094 12.34681928 30.94532964 13.01822345 28 14 C28 13.34 28 12.68 28 12 C27.33613281 12.144375 26.67226562 12.28875 25.98828125 12.4375 C25.10527344 12.623125 24.22226563 12.80875 23.3125 13 C22.00732422 13.2784375 22.00732422 13.2784375 20.67578125 13.5625 C19.35126953 13.7790625 19.35126953 13.7790625 18 14 C17.2059375 14.15339844 16.411875 14.30679688 15.59375 14.46484375 C11.33436629 13.70149034 9.06979512 10.63116425 6.1875 7.5625 C5.2912793 6.64500977 5.2912793 6.64500977 4.37695312 5.70898438 C0 1.18196429 0 1.18196429 0 0 Z " fill="#18C1F9" transform="translate(101,102)"/>
<path d="M0 0 C0.04627069 10.91768029 0.08184233 21.83533738 0.10362434 32.75309563 C0.1140768 37.82224863 0.12826257 42.89133473 0.15087891 47.96044922 C0.17255528 52.84929185 0.1845576 57.73806998 0.18975449 62.62695694 C0.19345963 64.49534242 0.20069449 66.36372423 0.21146011 68.23208237 C0.22590594 70.84213739 0.22798086 73.45192337 0.22705078 76.06201172 C0.23424133 76.8402832 0.24143188 77.61855469 0.24884033 78.42041016 C0.22810432 83.77189568 0.22810432 83.77189568 -2 86 C-2.13336761 85.31539703 -2.26673523 84.63079407 -2.40414429 83.92544556 C-3.66142066 77.47887042 -4.92606596 71.0337904 -6.19904137 64.59029579 C-6.85325458 61.27745314 -7.50458908 57.96409797 -8.14941406 54.64941406 C-8.89188501 50.84033896 -9.64416287 47.03331541 -10.3984375 43.2265625 C-10.6287265 42.03382721 -10.8590155 40.84109192 -11.09628296 39.61221313 C-11.31636017 38.51122284 -11.53643738 37.41023254 -11.76318359 36.27587891 C-12.04964249 34.8169371 -12.04964249 34.8169371 -12.34188843 33.32852173 C-12.84304231 30.83153427 -12.84304231 30.83153427 -15 29 C-14.01 29 -13.02 29 -12 29 C-12.144375 28.34773438 -12.28875 27.69546875 -12.4375 27.0234375 C-12.623125 26.14945313 -12.80875 25.27546875 -13 24.375 C-13.185625 23.51648438 -13.37125 22.65796875 -13.5625 21.7734375 C-13.706875 20.85820313 -13.85125 19.94296875 -14 19 C-14.15339844 18.0409375 -14.30679688 17.081875 -14.46484375 16.09375 C-13.76067654 11.40719174 -10.94517143 9.25618486 -7.5625 6.125 C-6.95083984 5.53203125 -6.33917969 4.9390625 -5.70898438 4.328125 C-1.19636557 0 -1.19636557 0 0 0 Z " fill="#16C1F9" transform="translate(99,103)"/>
<path d="M0 0 C0.495 1.485 0.495 1.485 1 3 C1.56847656 2.855625 2.13695312 2.71125 2.72265625 2.5625 C3.88087891 2.2840625 3.88087891 2.2840625 5.0625 2 C5.81660156 1.814375 6.57070312 1.62875 7.34765625 1.4375 C15.58575499 0.07863835 15.58575499 0.07863835 18.68334961 2.09667969 C20.37335559 3.6127854 21.90787106 5.1975901 23.4375 6.875 C23.97826172 7.43058594 24.51902344 7.98617187 25.07617188 8.55859375 C29 12.67588496 29 12.67588496 29 15 C1.61 15 -25.78 15 -54 15 C-54.33 14.34 -54.66 13.68 -55 13 C-54.3257045 12.86663239 -53.651409 12.73326477 -52.9566803 12.59585571 C-45.96357948 11.21095567 -38.97294421 9.81410152 -31.98364258 8.41015625 C-29.37195639 7.88720109 -26.75964916 7.36733787 -24.14672852 6.85058594 C-20.39954232 6.10896274 -16.65470176 5.3563904 -12.91015625 4.6015625 C-11.73413345 4.3712735 -10.55811066 4.1409845 -9.34645081 3.90371704 C-8.26540573 3.68363983 -7.18436066 3.46356262 -6.07055664 3.23681641 C-5.11347305 3.04584381 -4.15638947 2.85487122 -3.17030334 2.65811157 C-2.45410324 2.44093475 -1.73790314 2.22375793 -1 2 C-0.67 1.34 -0.34 0.68 0 0 Z " fill="#16C0F8" transform="translate(68,86)"/>
<path d="M0 0 C4.35922917 0.54415343 7.59197979 1.58762495 11.44140625 3.6875 C12.43720703 4.22117187 13.43300781 4.75484375 14.45898438 5.3046875 C15.48314453 5.86414062 16.50730469 6.42359375 17.5625 7 C19.60227865 8.11004882 21.64514733 9.21444272 23.69140625 10.3125 C24.59060791 10.80363281 25.48980957 11.29476562 26.41625977 11.80078125 C28.96955423 12.98586888 31.22742148 13.57541867 34 14 C34.33 12.02 34.66 10.04 35 8 C35.33 8 35.66 8 36 8 C36.02684312 10.81256281 36.04676188 13.62487241 36.0625 16.4375 C36.07087891 17.23994141 36.07925781 18.04238281 36.08789062 18.86914062 C36.0965143 20.91295221 36.0522815 22.95683902 36 25 C35.505 25.495 35.505 25.495 35 26 C34.95907063 28.33297433 34.95758277 30.66705225 35 33 C35.99 33.495 35.99 33.495 37 34 C36.01 34 35.02 34 34 34 C33.67 33.67 33.34 33.34 33 33 C27.59411805 32.77475492 22.35951751 33.31942635 17 34 C17 33.01 17 32.02 17 31 C16.34 31 15.68 31 15 31 C12.86123454 26.74711797 10.72505727 22.49295009 8.59130859 18.23754883 C7.86448708 16.7889464 7.13694926 15.34070314 6.40869141 13.89282227 C5.36434114 11.81619926 4.32254167 9.73831426 3.28125 7.66015625 C2.95314331 7.00910416 2.62503662 6.35805206 2.2869873 5.68727112 C0 1.11387171 0 1.11387171 0 0 Z " fill="#09143E" transform="translate(52,55)"/>
<path d="M0 0 C0 0.66 0 1.32 0 2 C0.66 2 1.32 2 2 2 C4.14406112 6.07105506 6.2800636 10.14619585 8.40869141 14.2253418 C9.13402596 15.61256441 9.86155344 16.99864269 10.59130859 18.38354492 C11.63957417 20.3738233 12.67989707 22.36807716 13.71875 24.36328125 C14.04685669 24.98213699 14.37496338 25.60099274 14.7130127 26.23860168 C16.16565714 29.04595154 17 30.78876029 17 34 C12.02409727 33.41574528 8.23929513 31.14095417 3.9375 28.75 C-2.91621637 25.02110987 -9.72832323 21.85344278 -17 19 C-17.33 22.63 -17.66 26.26 -18 30 C-18.33 30 -18.66 30 -19 30 C-19.33 27.36 -19.66 24.72 -20 22 C-19.34 22 -18.68 22 -18 22 C-17.93941406 20.80761719 -17.87882812 19.61523438 -17.81640625 18.38671875 C-17.73198851 16.82030075 -17.64734113 15.25389512 -17.5625 13.6875 C-17.50352539 12.50897461 -17.50352539 12.50897461 -17.44335938 11.30664062 C-17.40146484 10.54931641 -17.35957031 9.79199219 -17.31640625 9.01171875 C-17.27974854 8.31522217 -17.24309082 7.61872559 -17.20532227 6.90112305 C-17 5 -17 5 -16 2 C-13.70858188 1.66496236 -11.41685737 1.33201958 -9.125 1 C-7.21074219 0.7215625 -7.21074219 0.7215625 -5.2578125 0.4375 C-2 0 -2 0 0 0 Z " fill="#070A30" transform="translate(129,114)"/>
<path d="M0 0 C0.33 0.66 0.66 1.32 1 2 C1.845625 1.979375 2.69125 1.95875 3.5625 1.9375 C8.22940843 2.02235288 12.56537286 2.52179095 17 4 C17.495 11.92 17.495 11.92 18 20 C10.91506035 23.95923098 3.74106119 27.71026903 -3.5 31.375 C-4.82692871 32.0544165 -4.82692871 32.0544165 -6.18066406 32.74755859 C-7.01823242 33.16859863 -7.85580078 33.58963867 -8.71875 34.0234375 C-9.47091797 34.40419434 -10.22308594 34.78495117 -10.99804688 35.17724609 C-13 36 -13 36 -16 36 C-15.37962364 31.84323883 -13.97362991 28.62363153 -12.05859375 24.89453125 C-11.47529297 23.74662109 -10.89199219 22.59871094 -10.29101562 21.41601562 C-9.67368345 20.21458343 -9.05583899 19.01341433 -8.4375 17.8125 C-7.22301197 15.44641313 -6.01453437 13.07751253 -4.80859375 10.70703125 C-4.27032959 9.6600708 -3.73206543 8.61311035 -3.17749023 7.53442383 C-1.85955171 5.16346645 -1.85955171 5.16346645 -2 3 C-3.65 2.67 -5.3 2.34 -7 2 C-7 1.67 -7 1.34 -7 1 C-3.535 0.505 -3.535 0.505 0 0 Z " fill="#121435" transform="translate(69,112)"/>
<path d="M0 0 C0.66 0.66 1.32 1.32 2 2 C1.55084229 2.89307861 1.10168457 3.78615723 0.63891602 4.70629883 C-1.02734138 8.02071041 -2.69094882 11.3364461 -4.35375977 14.65258789 C-5.07374032 16.08752098 -5.79443857 17.5220942 -6.51586914 18.95629883 C-7.55283577 21.01809966 -8.58721272 23.08118179 -9.62109375 25.14453125 C-9.94403915 25.78526077 -10.26698456 26.4259903 -10.59971619 27.08613586 C-11.90853398 29.70344219 -13.07297284 32.21891853 -14 35 C-16.0836309 34.85848172 -18.16689938 34.71162064 -20.25 34.5625 C-21.41015625 34.48128906 -22.5703125 34.40007812 -23.765625 34.31640625 C-26.30977376 34.06752213 -28.55953248 33.71885058 -31 33 C-31.33895656 31.27192682 -31.67091525 29.54248026 -32 27.8125 C-32.185625 26.84957031 -32.37125 25.88664062 -32.5625 24.89453125 C-32.96877612 22.2065794 -33.07933572 19.71228981 -33 17 C-32.401875 16.896875 -31.80375 16.79375 -31.1875 16.6875 C-28.9496035 16.17004108 -28.9496035 16.17004108 -27.57836914 14.57373047 C-25.00227587 12.00520808 -21.68017333 10.68795058 -18.4375 9.125 C-17.36918945 8.60099609 -17.36918945 8.60099609 -16.27929688 8.06640625 C-14.85250074 7.36656597 -13.42461865 6.66893488 -11.99560547 5.97363281 C-9.32060363 4.66853037 -6.65985548 3.33565196 -4 2 C-2.66666667 1.33333333 -1.33333333 0.66666667 0 0 Z " fill="#0A1139" transform="translate(145,54)"/>
<path d="M0 0 C0.33 0 0.66 0 1 0 C1.0154612 1.57187576 1.0154612 1.57187576 1.03123474 3.17550659 C1.12884692 13.03475976 1.23156928 22.8939481 1.33933926 32.75309563 C1.3945839 37.82219107 1.44800636 42.89129227 1.49731445 47.96044922 C1.54493527 52.84933738 1.59727724 57.73815397 1.65294075 62.62695694 C1.67337466 64.49531403 1.69208601 66.36369076 1.70907402 68.23208237 C1.73309511 70.84213127 1.76315275 73.45204421 1.79467773 76.06201172 C1.8004332 76.8402832 1.80618866 77.61855469 1.81211853 78.42041016 C1.79021891 82.33902264 1.79021891 82.33902264 3 86 C28.74 86 54.48 86 81 86 C81 85.34 81 84.68 81 84 C82.62580966 84.11398665 84.25067157 84.24155659 85.875 84.375 C86.77992188 84.44460937 87.68484375 84.51421875 88.6171875 84.5859375 C91 85 91 85 93 87 C48.45 87.495 48.45 87.495 3 88 C1.42683949 91.14632103 1.81115918 94.52520061 1.77880859 97.98217773 C1.7673027 98.80670441 1.75579681 99.63123108 1.74394226 100.48074341 C1.70716524 103.21498861 1.6775728 105.94925719 1.6484375 108.68359375 C1.62532866 110.57927282 1.60193839 112.47494847 1.57827759 114.37062073 C1.52978093 118.347718 1.48485679 122.32483594 1.44238281 126.30200195 C1.38758334 131.40455476 1.32374826 136.50694721 1.25720787 141.60935879 C1.20716942 145.52545725 1.1620289 149.44160045 1.11836624 153.35777473 C1.09677413 155.23929738 1.07362282 157.12080279 1.0489006 159.00228691 C1.0150743 161.63097392 0.98785806 164.25964815 0.96240234 166.88842773 C0.95102737 167.66931259 0.9396524 168.45019745 0.92793274 169.25474548 C0.9029741 172.45106832 0.98103319 174.94309957 2 178 C1.34 178.66 0.68 179.32 0 180 C-1.844719 178.155281 -1.1200219 175.55483588 -1.12442017 173.1006012 C-1.11902725 171.8296183 -1.11902725 171.8296183 -1.11352539 170.53295898 C-1.11367142 169.64523804 -1.11381744 168.75751709 -1.1139679 167.84289551 C-1.11326843 164.89393716 -1.10547448 161.94504113 -1.09765625 158.99609375 C-1.09579219 156.95728083 -1.09436823 154.91846746 -1.09336853 152.87965393 C-1.08954241 147.50215426 -1.07971132 142.12468142 -1.06866455 136.74719238 C-1.05665834 130.30116582 -1.05204864 123.8551303 -1.04621124 117.40909576 C-1.03649962 107.60604516 -1.01734372 97.80305347 -1 88 C-30.7 88 -60.4 88 -91 88 C-91 87.01 -91 86.02 -91 85 C-46.945 85.495 -46.945 85.495 -2 86 C-2 85.34 -2 84.68 -2 84 C-1.34 84 -0.68 84 0 84 C0 56.28 0 28.56 0 0 Z " fill="#013771" transform="translate(99,15)"/>
<path d="M0 0 C0.04627069 10.91768029 0.08184233 21.83533738 0.10362434 32.75309563 C0.1140768 37.82224863 0.12826257 42.89133473 0.15087891 47.96044922 C0.17255528 52.84929185 0.1845576 57.73806998 0.18975449 62.62695694 C0.19345963 64.49534242 0.20069449 66.36372423 0.21146011 68.23208237 C0.22590594 70.84213739 0.22798086 73.45192337 0.22705078 76.06201172 C0.23424133 76.8402832 0.24143188 77.61855469 0.24884033 78.42041016 C0.22810432 83.77189568 0.22810432 83.77189568 -2 86 C-2.13336761 85.31539703 -2.26673523 84.63079407 -2.40414429 83.92544556 C-3.66142066 77.47887042 -4.92606596 71.0337904 -6.19904137 64.59029579 C-6.85325458 61.27745314 -7.50458908 57.96409797 -8.14941406 54.64941406 C-8.89188501 50.84033896 -9.64416287 47.03331541 -10.3984375 43.2265625 C-10.6287265 42.03382721 -10.8590155 40.84109192 -11.09628296 39.61221313 C-11.31636017 38.51122284 -11.53643738 37.41023254 -11.76318359 36.27587891 C-12.04964249 34.8169371 -12.04964249 34.8169371 -12.34188843 33.32852173 C-12.84304231 30.83153427 -12.84304231 30.83153427 -15 29 C-13.35 29.33 -11.7 29.66 -10 30 C-9.82871582 30.96413818 -9.65743164 31.92827637 -9.48095703 32.92163086 C-8.84492952 36.48836065 -8.19742853 40.05292625 -7.54638672 43.61694336 C-7.26589069 45.16162166 -6.98853615 46.70687378 -6.71435547 48.25268555 C-6.32036939 50.47081295 -5.9152387 52.68665098 -5.5078125 54.90234375 C-5.3868924 55.5971434 -5.26597229 56.29194305 -5.14138794 57.00779724 C-4.82715253 58.68563182 -4.42169797 60.34590098 -4 62 C-3.34 62.33 -2.68 62.66 -2 63 C-2 44.19 -2 25.38 -2 6 C-3.32 7.32 -4.64 8.64 -6 10 C-9.25 11.25 -9.25 11.25 -12 12 C-1.93659942 0 -1.93659942 0 0 0 Z " fill="#2FB3F1" transform="translate(99,103)"/>
<path d="M0 0 C0.66 0.66 1.32 1.32 2 2 C1.55084229 2.89307861 1.10168457 3.78615723 0.63891602 4.70629883 C-1.02734138 8.02071041 -2.69094882 11.3364461 -4.35375977 14.65258789 C-5.07374032 16.08752098 -5.79443857 17.5220942 -6.51586914 18.95629883 C-7.55283577 21.01809966 -8.58721272 23.08118179 -9.62109375 25.14453125 C-9.94403915 25.78526077 -10.26698456 26.4259903 -10.59971619 27.08613586 C-11.90853398 29.70344219 -13.07297284 32.21891853 -14 35 C-18.96916636 34.48594831 -23.29026351 33.76615118 -28 32 C-26.44346929 28.25113444 -24.12681671 25.91044992 -21.24609375 23.0859375 C-20.30958984 22.16039063 -19.37308594 21.23484375 -18.40820312 20.28125 C-17.41831227 19.31214898 -16.42807386 18.34340287 -15.4375 17.375 C-13.49549092 15.46934629 -11.55765812 13.55964369 -9.62109375 11.6484375 C-8.7592749 10.80458496 -7.89745605 9.96073242 -7.00952148 9.09130859 C-4.95795963 7.16362599 -4.95795963 7.16362599 -4 5 C-5.32 4.67 -6.64 4.34 -8 4 C-5.36 2.68 -2.72 1.36 0 0 Z " fill="#18C2FA" transform="translate(145,54)"/>
<path d="M0 0 C4.95 0.99 9.9 1.98 15 3 C13.03912073 6.92175855 11.29119537 8.94122867 8.2109375 11.984375 C7.74765045 12.44483215 7.2843634 12.90528931 6.80703735 13.37969971 C5.33434102 14.84125078 3.85482597 16.29567168 2.375 17.75 C1.37193678 18.74302611 0.36932743 19.73651089 -0.6328125 20.73046875 C-3.08330835 23.15897941 -5.5399667 25.58114675 -8 28 C-7.01 28.99 -6.02 29.98 -5 31 C-10.625 34 -10.625 34 -14 34 C-13.38123826 29.84975716 -11.97973515 26.64800718 -10.05859375 22.9296875 C-9.47529297 21.78628906 -8.89199219 20.64289063 -8.29101562 19.46484375 C-7.6738723 18.26787047 -7.056026 17.07125939 -6.4375 15.875 C-5.22091877 13.52161335 -4.01255868 11.16461875 -2.80859375 8.8046875 C-2.27032959 7.76296387 -1.73206543 6.72124023 -1.17749023 5.64794922 C0.20315912 3.02612597 0.20315912 3.02612597 0 0 Z " fill="#23B9F1" transform="translate(67,114)"/>
<path d="M0 0 C4.35922917 0.54415343 7.59197979 1.58762495 11.44140625 3.6875 C12.43720703 4.22117187 13.43300781 4.75484375 14.45898438 5.3046875 C15.48314453 5.86414062 16.50730469 6.42359375 17.5625 7 C19.60227865 8.11004882 21.64514733 9.21444272 23.69140625 10.3125 C24.59060791 10.80363281 25.48980957 11.29476562 26.41625977 11.80078125 C28.96955423 12.98586888 31.22742148 13.57541867 34 14 C34.33 12.02 34.66 10.04 35 8 C35.33 8 35.66 8 36 8 C36.18208643 13.28050633 35.8727372 17.00603412 34 22 C33.28518577 24.65640422 32.64555823 27.32554447 32 30 C25.84742994 24.92476095 20.28327436 19.36466744 14.6875 13.6875 C12.90204551 11.87662979 11.11439841 10.06791792 9.32421875 8.26171875 C8.54135498 7.46725342 7.75849121 6.67278809 6.9519043 5.85424805 C5.13114016 3.94399053 5.13114016 3.94399053 3 3 C2.67 3.66 2.34 4.32 2 5 C1.34 3.35 0.68 1.7 0 0 Z " fill="#1DBEF7" transform="translate(52,55)"/>
<path d="M0 0 C3.43605181 1.48229451 5.68701591 3.4295174 8.328125 6.0625 C9.52695313 7.25746094 9.52695313 7.25746094 10.75 8.4765625 C11.575 9.30929688 12.4 10.14203125 13.25 11 C14.09046875 11.83273438 14.9309375 12.66546875 15.796875 13.5234375 C16.5909375 14.32007813 17.385 15.11671875 18.203125 15.9375 C18.93176758 16.66839844 19.66041016 17.39929688 20.41113281 18.15234375 C22 20 22 20 22 22 C23.65 22.66 25.3 23.32 27 24 C26.67 22.02 26.34 20.04 26 18 C31 24.36363636 31 24.36363636 31 29 C25.87434397 28.4180032 21.82762268 25.99016714 17.375 23.5625 C16.611875 23.15451172 15.84875 22.74652344 15.0625 22.32617188 C11.21232315 20.25585748 7.53274959 18.18664485 4.0625 15.5 C2.10234888 14.07443555 0.17481229 13.05335376 -2 12 C-1.85904936 10.3745692 -1.71207913 8.74965949 -1.5625 7.125 C-1.48128906 6.22007813 -1.40007812 5.31515625 -1.31640625 4.3828125 C-1 2 -1 2 0 0 Z " fill="#1BB9F1" transform="translate(115,119)"/>
<path d="M0 0 C0.495 1.485 0.495 1.485 1 3 C1.66 3.33 2.32 3.66 3 4 C-10.365 6.475 -10.365 6.475 -24 9 C-24 9.66 -24 10.32 -24 11 C-25.98 11.33 -27.96 11.66 -30 12 C-29.05825676 12.0154612 -29.05825676 12.0154612 -28.0974884 12.03123474 C-21.55992556 12.13945945 -15.02249609 12.25404439 -8.48510742 12.37231445 C-6.0456827 12.41561209 -3.60622868 12.45729083 -1.16674805 12.49731445 C2.34074734 12.55514208 5.84809597 12.61880085 9.35546875 12.68359375 C10.44522507 12.70030624 11.53498138 12.71701874 12.65776062 12.73423767 C13.67844131 12.75418289 14.69912201 12.77412811 15.75073242 12.79467773 C16.64563889 12.81022202 17.54054535 12.8257663 18.46257019 12.84178162 C21.05253091 13.0032755 23.4705149 13.43263005 26 14 C26 14.33 26 14.66 26 15 C-0.4 15 -26.8 15 -54 15 C-54.33 14.34 -54.66 13.68 -55 13 C-54.3257045 12.86663239 -53.651409 12.73326477 -52.9566803 12.59585571 C-45.96357948 11.21095567 -38.97294421 9.81410152 -31.98364258 8.41015625 C-29.37195639 7.88720109 -26.75964916 7.36733787 -24.14672852 6.85058594 C-20.39954232 6.10896274 -16.65470176 5.3563904 -12.91015625 4.6015625 C-11.73413345 4.3712735 -10.55811066 4.1409845 -9.34645081 3.90371704 C-8.26540573 3.68363983 -7.18436066 3.46356262 -6.07055664 3.23681641 C-5.11347305 3.04584381 -4.15638947 2.85487122 -3.17030334 2.65811157 C-2.45410324 2.44093475 -1.73790314 2.22375793 -1 2 C-0.67 1.34 -0.34 0.68 0 0 Z " fill="#33A3D9" transform="translate(68,86)"/>
<path d="M0 0 C0.33 0 0.66 0 1 0 C2.22770404 5.84901459 3.45446729 11.69822549 4.68041992 17.54760742 C5.09618724 19.53073241 5.51219607 21.51380679 5.9284668 23.49682617 C8.34034343 34.98734315 10.72865129 46.48077548 13 58 C14.32 58.33 15.64 58.66 17 59 C14.525 59.495 14.525 59.495 12 60 C11.67 60.99 11.34 61.98 11 63 C10.85900879 62.26475098 10.71801758 61.52950195 10.57275391 60.77197266 C9.92390667 57.38957078 9.27445707 54.00728483 8.625 50.625 C8.40328125 49.46871094 8.1815625 48.31242187 7.953125 47.12109375 C7.73398438 45.98027344 7.51484375 44.83945312 7.2890625 43.6640625 C7.07266113 42.53693848 6.85625977 41.40981445 6.63330078 40.24853516 C5.90513578 36.51339117 5.14058964 32.78647843 4.35742188 29.0625 C3.88841364 26.35609184 3.85589138 23.73806379 4 21 C3.01 21 2.02 21 1 21 C1.33 40.8 1.66 60.6 2 81 C2.99 80.505 2.99 80.505 4 80 C4 80.66 4 81.32 4 82 C4.66 82 5.32 82 6 82 C6 81.34 6 80.68 6 80 C6.66 80 7.32 80 8 80 C6.28418916 84.63268926 4.34849752 85.37625207 0 89 C0 59.63 0 30.26 0 0 Z " fill="#2DB7F0" transform="translate(100,11)"/>
<path d="M0 0 C30.03 0 60.06 0 91 0 C91 0.33 91 0.66 91 1 C89.85748779 1.22139648 88.71497559 1.44279297 87.5378418 1.67089844 C83.20046793 2.5118205 78.86348854 3.35476283 74.52661133 4.19824219 C72.66799039 4.5594498 70.80927013 4.92014676 68.95043945 5.28027344 C59.06531678 7.19576676 49.18773263 9.14092291 39.33203125 11.203125 C38.1361866 11.45204498 38.1361866 11.45204498 36.91618347 11.70599365 C33.88140094 12.34681928 30.94532964 13.01822345 28 14 C27.67 13.01 27.34 12.02 27 11 C28.13542236 10.76289307 29.27084473 10.52578613 30.44067383 10.28149414 C34.65101047 9.40177328 38.86085597 8.51972161 43.07055664 7.63696289 C44.89301442 7.25514087 46.71560498 6.87395206 48.53833008 6.4934082 C51.15741536 5.94648786 53.77601553 5.39729615 56.39453125 4.84765625 C57.21025101 4.6778273 58.02597076 4.50799835 58.8664093 4.33302307 C61.97298653 3.67912048 64.98539278 3.00486907 68 2 C47.21 1.67 26.42 1.34 5 1 C5.66 2.32 6.32 3.64 7 5 C6.01 5 5.02 5 4 5 C2.68 3.35 1.36 1.7 0 0 Z " fill="#2AB1EB" transform="translate(101,102)"/>
<path d="M0 0 C11.88 0 23.76 0 36 0 C36 2 36 4 36 6 C38.31 6.99 40.62 7.98 43 9 C40.02958049 9.91567276 37.99875614 10.01921802 34.96582031 9.37915039 C33.79505951 9.13878807 33.79505951 9.13878807 32.60064697 8.89356995 C31.76821472 8.71341843 30.93578247 8.53326691 30.078125 8.34765625 C29.21813904 8.16867294 28.35815308 7.98968964 27.47210693 7.80528259 C24.72961235 7.23254085 21.98986203 6.64769227 19.25 6.0625 C17.38949096 5.67172514 15.5288155 5.28174166 13.66796875 4.89257812 C9.1099984 3.93755284 4.55445135 2.97166266 0 2 C0 1.34 0 0.68 0 0 Z " fill="#272645" transform="translate(12,102)"/>
<path d="M0 0 C0.33 0 0.66 0 1 0 C0.88060501 4.25023138 0.75629836 8.50028405 0.62768555 12.75024414 C0.58470988 14.19226302 0.54301352 15.63432067 0.50268555 17.07641602 C0.28697167 24.75955833 0.01432502 32.37125304 -1 40 C-1.804375 40.12375 -2.60875 40.2475 -3.4375 40.375 C-4.283125 40.58125 -5.12875 40.7875 -6 41 C-6.33 41.66 -6.66 42.32 -7 43 C-7.66 43 -8.32 43 -9 43 C-8.37310993 37.53802913 -7.52083549 32.19838924 -6.40625 26.81640625 C-6.17887146 25.70494484 -6.17887146 25.70494484 -5.94689941 24.57102966 C-5.62906801 23.02205152 -5.30967492 21.47339305 -4.98876953 19.92504883 C-4.49647487 17.54546068 -4.01165238 15.16442796 -3.52734375 12.78320312 C-3.21659161 11.27334568 -2.90540947 9.76357667 -2.59375 8.25390625 C-2.44893188 7.54045547 -2.30411377 6.8270047 -2.15490723 6.0919342 C-1.11478041 1.11478041 -1.11478041 1.11478041 0 0 Z " fill="#19193B" transform="translate(99,9)"/>
<path d="M0 0 C0.33 0.66 0.66 1.32 1 2 C1.845625 1.979375 2.69125 1.95875 3.5625 1.9375 C8.22940843 2.02235288 12.56537286 2.52179095 17 4 C17.495 11.92 17.495 11.92 18 20 C16.02 20.33 14.04 20.66 12 21 C12 20.34 12 19.68 12 19 C11.01 18.67 10.02 18.34 9 18 C7.43340381 11.97463002 7.43340381 11.97463002 9.046875 9.19921875 C10.29161056 7.73420696 11.64065712 6.35934288 13 5 C11.9275 4.87625 10.855 4.7525 9.75 4.625 C4.13816339 3.92856704 -1.42770496 2.95657732 -7 2 C-7 1.67 -7 1.34 -7 1 C-3.535 0.505 -3.535 0.505 0 0 Z " fill="#000A3A" transform="translate(69,112)"/>
<path d="M0 0 C0 0.66 0 1.32 0 2 C0.66 2 1.32 2 2 2 C1.67 2.66 1.34 3.32 1 4 C-2.3 4 -5.6 4 -9 4 C-8.175 4.94875 -7.35 5.8975 -6.5 6.875 C-4 9.75 -4 9.75 -4 12 C-3.01 12.33 -2.02 12.66 -1 13 C-1.33 13.99 -1.66 14.98 -2 16 C-2.69867188 15.28972656 -3.39734375 14.57945312 -4.1171875 13.84765625 C-5.02726562 12.92855469 -5.93734375 12.00945312 -6.875 11.0625 C-7.77992187 10.14597656 -8.68484375 9.22945312 -9.6171875 8.28515625 C-11.77682255 5.98812373 -11.77682255 5.98812373 -14 5 C-14.66 8.96 -15.32 12.92 -16 17 C-15.071875 17.268125 -14.14375 17.53625 -13.1875 17.8125 C-10 19 -10 19 -7 22 C-10.3 21.01 -13.6 20.02 -17 19 C-17.33 22.63 -17.66 26.26 -18 30 C-18.33 30 -18.66 30 -19 30 C-19.33 27.36 -19.66 24.72 -20 22 C-19.34 22 -18.68 22 -18 22 C-17.93941406 20.80761719 -17.87882812 19.61523438 -17.81640625 18.38671875 C-17.73198851 16.82030075 -17.64734113 15.25389512 -17.5625 13.6875 C-17.50352539 12.50897461 -17.50352539 12.50897461 -17.44335938 11.30664062 C-17.40146484 10.54931641 -17.35957031 9.79199219 -17.31640625 9.01171875 C-17.27974854 8.31522217 -17.24309082 7.61872559 -17.20532227 6.90112305 C-17 5 -17 5 -16 2 C-13.70858188 1.66496236 -11.41685737 1.33201958 -9.125 1 C-7.21074219 0.7215625 -7.21074219 0.7215625 -5.2578125 0.4375 C-2 0 -2 0 0 0 Z " fill="#223760" transform="translate(129,114)"/>
<path d="M0 0 C0.33 0 0.66 0 1 0 C2.22770404 5.84901459 3.45446729 11.69822549 4.68041992 17.54760742 C5.09618724 19.53073241 5.51219607 21.51380679 5.9284668 23.49682617 C8.34034343 34.98734315 10.72865129 46.48077548 13 58 C14.32 58.33 15.64 58.66 17 59 C14.525 59.495 14.525 59.495 12 60 C11.67 60.99 11.34 61.98 11 63 C10.45764811 60.18813881 9.91564636 57.3762107 9.37402344 54.56420898 C8.91544815 52.18343354 8.45646218 49.80273716 7.99707031 47.42211914 C6.99124979 42.2000559 5.9883956 36.97804264 5.03515625 31.74609375 C4.89956299 31.00423828 4.76396973 30.26238281 4.62426758 29.49804688 C4.27233699 27.56047729 3.92507246 25.62206183 3.578125 23.68359375 C3.27388181 21.09310411 3.27388181 21.09310411 2 20 C1.79231771 18.52603261 1.63283983 17.0450874 1.5 15.5625 C1.20853056 12.15502495 1.20853056 12.15502495 0 9 C-0.06950541 7.45976004 -0.08452357 5.91665012 -0.0625 4.375 C-0.05347656 3.55773437 -0.04445313 2.74046875 -0.03515625 1.8984375 C-0.02355469 1.27195312 -0.01195313 0.64546875 0 0 Z " fill="#437FA7" transform="translate(100,11)"/>
<path d="M0 0 C0.90105469 0.00902344 1.80210937 0.01804687 2.73046875 0.02734375 C3.41753906 0.03894531 4.10460937 0.05054687 4.8125 0.0625 C4.8125 0.3925 4.8125 0.7225 4.8125 1.0625 C3.66998779 1.28389648 2.52747559 1.50529297 1.3503418 1.73339844 C-2.98703207 2.5743205 -7.32401146 3.41726283 -11.66088867 4.26074219 C-13.51950961 4.6219498 -15.37822987 4.98264676 -17.23706055 5.34277344 C-27.12218322 7.25826676 -36.99976737 9.20342291 -46.85546875 11.265625 C-48.0513134 11.51454498 -48.0513134 11.51454498 -49.27131653 11.76849365 C-52.30609906 12.40931928 -55.24217036 13.08072345 -58.1875 14.0625 C-58.5175 13.0725 -58.8475 12.0825 -59.1875 11.0625 C-54.65733942 10.11721348 -50.12646484 9.1754452 -45.5949707 8.23657227 C-44.06190498 7.91846711 -42.52901924 7.59949302 -40.99633789 7.27954102 C-31.88039344 5.37726539 -22.76115691 3.57528152 -13.5771637 2.02946472 C-1.53897502 -0.01998669 -1.53897502 -0.01998669 0 0 Z " fill="#3A7BA7" transform="translate(187.1875,101.9375)"/>
<path d="M0 0 C29.7 0 59.4 0 90 0 C90 0.66 90 1.32 90 2 C45.45 2.495 45.45 2.495 0 3 C0 2.01 0 1.02 0 0 Z " fill="#014F8D" transform="translate(8,100)"/>
<path d="M0 0 C3.68069887 1.53643852 5.98775204 3.78150945 8.75 6.625 C9.54921875 7.44226563 10.3484375 8.25953125 11.171875 9.1015625 C12.07679687 10.04128906 12.07679687 10.04128906 13 11 C12.01 11.495 12.01 11.495 11 12 C11 12.66 11 13.32 11 14 C10.01 14.495 10.01 14.495 9 15 C9 15.66 9 16.32 9 17 C9.66 17.33 10.32 17.66 11 18 C11 19.98 11 21.96 11 24 C7.96344634 20.32165109 5.93633265 16.23998417 3.8125 12 C3.44447266 11.2884375 3.07644531 10.576875 2.69726562 9.84375 C2.34986328 9.1528125 2.00246094 8.461875 1.64453125 7.75 C1.32846924 7.12609375 1.01240723 6.5021875 0.68676758 5.859375 C0 4 0 4 0 0 Z " fill="#292D4D" transform="translate(55,58)"/>
<path d="M0 0 C0.33 0 0.66 0 1 0 C0.99777939 1.08328079 0.99555878 2.16656158 0.99327087 3.28266907 C0.97301955 13.48002147 0.95801823 23.67736981 0.94818783 33.87473774 C0.94296408 39.11759083 0.9358756 44.36042772 0.92456055 49.60327148 C0.91371369 54.66069384 0.90771933 59.71810059 0.90512276 64.77553368 C0.90327176 66.7072798 0.89965736 68.63902504 0.89426994 70.57076454 C0.8870357 73.27156054 0.88601007 75.97229161 0.88647461 78.6730957 C0.88287933 79.47582413 0.87928406 80.27855255 0.87557983 81.10560608 C0.88161204 84.3359513 0.97088299 86.91264897 2 90 C1.01 90.99 1.01 90.99 0 92 C-1 91 -1 91 -1.08229065 87.42503357 C-1.06732495 85.79428576 -1.04664243 84.16358515 -1.02172852 82.53295898 C-1.01212097 81.64523804 -1.00251343 80.75751709 -0.99261475 79.84289551 C-0.95950086 76.893884 -0.91921605 73.94501498 -0.87890625 70.99609375 C-0.85461723 68.95728567 -0.83077307 66.91847224 -0.80735779 64.87965393 C-0.74439564 59.50210502 -0.67536358 54.12465022 -0.60510254 48.74719238 C-0.53452836 43.26444806 -0.46964617 37.78163677 -0.40429688 32.29882812 C-0.27512828 21.5324785 -0.13955249 10.76621968 0 0 Z " fill="#003C78" transform="translate(99,103)"/>
<path d="M0 0 C4.17153059 -0.3148325 7.94153944 0.01613077 12 1 C10.19754125 5.02086951 8.5242616 7.27597574 4.5 9.1875 C2 10 2 10 -1 10 C-1.33 10.99 -1.66 11.98 -2 13 C-2.05416188 11.39620659 -2.09286638 9.79188594 -2.125 8.1875 C-2.14820312 7.29417969 -2.17140625 6.40085937 -2.1953125 5.48046875 C-2 3 -2 3 0 0 Z " fill="#1BC1FA" transform="translate(70,116)"/>
<path d="M0 0 C2.475 0.495 2.475 0.495 5 1 C6.12503921 7.1007478 7.24590845 13.20224206 8.36303711 19.30444336 C8.74309583 21.37724131 9.12426342 23.44983628 9.5065918 25.5222168 C10.058145 28.51297271 10.60561437 31.50445272 11.15234375 34.49609375 C11.3221727 35.41208847 11.49200165 36.32808319 11.66697693 37.27183533 C12.67925136 42.83767315 13.43679864 48.37048955 14 54 C11.62464341 51.62464341 11.50643277 50.4687157 10.88671875 47.21484375 C10.69311768 46.2204126 10.4995166 45.22598145 10.30004883 44.20141602 C10.09790771 43.12432373 9.8957666 42.04723145 9.6875 40.9375 C9.47311279 39.835271 9.25872559 38.73304199 9.0378418 37.59741211 C8.11825082 32.86823055 7.21676711 28.13563763 6.31347656 23.40332031 C5.65266492 19.95515399 4.98282223 16.50882784 4.3125 13.0625 C4.11035889 11.98540771 3.90821777 10.90831543 3.69995117 9.79858398 C3.5063501 8.80415283 3.31274902 7.80972168 3.11328125 6.78515625 C2.94610596 5.90738525 2.77893066 5.02961426 2.60668945 4.12524414 C2.13106631 1.80717172 2.13106631 1.80717172 0 0 Z " fill="#3B7FA5" transform="translate(84,132)"/>
<path d="M0 0 C0.66 0.66 1.32 1.32 2 2 C1.55084229 2.89307861 1.10168457 3.78615723 0.63891602 4.70629883 C-1.02734138 8.02071041 -2.69094882 11.3364461 -4.35375977 14.65258789 C-5.07374032 16.08752098 -5.79443857 17.5220942 -6.51586914 18.95629883 C-7.55283577 21.01809966 -8.58721272 23.08118179 -9.62109375 25.14453125 C-9.94403915 25.78526077 -10.26698456 26.4259903 -10.59971619 27.08613586 C-11.90853398 29.70344219 -13.07297284 32.21891853 -14 35 C-17.96 34.505 -17.96 34.505 -22 34 C-18.25 32.875 -18.25 32.875 -16 34 C-15.7525 33.17628906 -15.505 32.35257813 -15.25 31.50390625 C-13.80596979 27.45610908 -11.96575272 23.75148761 -10 19.9375 C-5.83782692 12.79671176 -5.83782692 12.79671176 -4 5 C-5.32 4.67 -6.64 4.34 -8 4 C-5.36 2.68 -2.72 1.36 0 0 Z " fill="#3B76A7" transform="translate(145,54)"/>
<path d="M0 0 C4.35922917 0.54415343 7.59197979 1.58762495 11.44140625 3.6875 C12.43720703 4.22117187 13.43300781 4.75484375 14.45898438 5.3046875 C15.48314453 5.86414062 16.50730469 6.42359375 17.5625 7 C19.60227865 8.11004882 21.64514733 9.21444272 23.69140625 10.3125 C24.59060791 10.80363281 25.48980957 11.29476562 26.41625977 11.80078125 C28.96955423 12.98586888 31.22742148 13.57541867 34 14 C34.33 12.02 34.66 10.04 35 8 C35.33 8 35.66 8 36 8 C36.1799928 13.21979128 35.97094808 17.07262981 34 22 C33.67 22 33.34 22 33 22 C33 20.35 33 18.7 33 17 C32.34 16.75378906 31.68 16.50757812 31 16.25390625 C26.49819245 14.37229138 22.20775504 12.08822103 17.8828125 9.83398438 C14.22802952 7.96866589 11.08346386 6.66942031 7 6 C4.6875 4.4375 4.6875 4.4375 3 3 C2.67 3.66 2.34 4.32 2 5 C1.34 3.35 0.68 1.7 0 0 Z " fill="#4F93BC" transform="translate(52,55)"/>
<path d="M0 0 C2.31 0.33 4.62 0.66 7 1 C6.42121094 1.1753125 5.84242187 1.350625 5.24609375 1.53125 C1.89218375 3.7244155 0.70051206 6.9729642 -0.9375 10.5 C-1.63411458 11.94791667 -2.33072917 13.39583333 -3.02734375 14.84375 C-3.36233887 15.55144531 -3.69733398 16.25914062 -4.04248047 16.98828125 C-5.32295647 19.67852149 -6.65843112 22.33979504 -8 25 C-8.391875 25.78375 -8.78375 26.5675 -9.1875 27.375 C-9.455625 27.91125 -9.72375 28.4475 -10 29 C-8.35 29.33 -6.7 29.66 -5 30 C-7.93828597 32.50298434 -10.17902761 33.46930939 -14 34 C-13.38123826 29.84975716 -11.97973515 26.64800718 -10.05859375 22.9296875 C-9.47529297 21.78628906 -8.89199219 20.64289063 -8.29101562 19.46484375 C-7.6738723 18.26787047 -7.056026 17.07125939 -6.4375 15.875 C-5.22091877 13.52161335 -4.01255868 11.16461875 -2.80859375 8.8046875 C-2.27032959 7.76296387 -1.73206543 6.72124023 -1.17749023 5.64794922 C0.20315912 3.02612597 0.20315912 3.02612597 0 0 Z " fill="#3B7CA5" transform="translate(67,114)"/>
<path d="M0 0 C1.32 0.66 2.64 1.32 4 2 C3.67 3.65 3.34 5.3 3 7 C3.99 6.67 4.98 6.34 6 6 C6.99 7.65 7.98 9.3 9 11 C8.34 11 7.68 11 7 11 C7 11.66 7 12.32 7 13 C0.25 13.125 0.25 13.125 -2 12 C-1.85904936 10.3745692 -1.71207913 8.74965949 -1.5625 7.125 C-1.48128906 6.22007813 -1.40007812 5.31515625 -1.31640625 4.3828125 C-1 2 -1 2 0 0 Z " fill="#15C3FA" transform="translate(115,119)"/>
<path d="M0 0 C2.86724686 0.57344937 3.8614515 0.8614515 6 3 C6.93104132 5.9482975 7.23729128 7.41468152 6.0625 10.3125 C5.711875 10.869375 5.36125 11.42625 5 12 C3.35 12 1.7 12 0 12 C0 10.02 0 8.04 0 6 C-0.99 5.67 -1.98 5.34 -3 5 C-2.67 4.01 -2.34 3.02 -2 2 C-1.34 2 -0.68 2 0 2 C0 1.34 0 0.68 0 0 Z " fill="#050228" transform="translate(66,70)"/>
<path d="M0 0 C0.33 0 0.66 0 1 0 C1 19.47 1 38.94 1 59 C-0.32 58.67 -1.64 58.34 -3 58 C-3.33 57.34 -3.66 56.68 -4 56 C-2.515 55.505 -2.515 55.505 -1 55 C-0.67 36.85 -0.34 18.7 0 0 Z " fill="#00073D" transform="translate(98,40)"/>
<path d="M0 0 C1 4 1 4 0.125 6.125 C-0.24625 6.74375 -0.6175 7.3625 -1 8 C-1.33 8.66 -1.66 9.32 -2 10 C-2.825 10.309375 -3.65 10.61875 -4.5 10.9375 C-5.325 11.288125 -6.15 11.63875 -7 12 C-7.33 12.99 -7.66 13.98 -8 15 C-8.99 15 -9.98 15 -11 15 C-11 15.66 -11 16.32 -11 17 C-12.32 16.34 -13.64 15.68 -15 15 C-10.05 10.05 -5.1 5.1 0 0 Z " fill="#03103A" transform="translate(73,127)"/>
<path d="M0 0 C0.33 0 0.66 0 1 0 C0.67 9.57 0.34 19.14 0 29 C-0.33 29 -0.66 29 -1 29 C-1.33 25.7 -1.66 22.4 -2 19 C-2.99 21.475 -2.99 21.475 -4 24 C-5.00278388 20.84692128 -4.95505252 18.70820721 -4.2578125 15.48828125 C-4.07863281 14.64845703 -3.89945312 13.80863281 -3.71484375 12.94335938 C-3.52019531 12.07517578 -3.32554688 11.20699219 -3.125 10.3125 C-2.93808594 9.43271484 -2.75117187 8.55292969 -2.55859375 7.64648438 C-1.14501232 1.14501232 -1.14501232 1.14501232 0 0 Z " fill="#292C53" transform="translate(99,9)"/>
<path d="M0 0 C2.733765 0.61483325 5.14174118 1.42927383 7.671875 2.62890625 C8.33574219 2.94150391 8.99960938 3.25410156 9.68359375 3.57617188 C10.36550781 3.90166016 11.04742187 4.22714844 11.75 4.5625 C12.44738281 4.89185547 13.14476563 5.22121094 13.86328125 5.56054688 C15.5770467 6.37047712 17.28873194 7.18480638 19 8 C18.67 8.66 18.34 9.32 18 10 C17.34 10 16.68 10 16 10 C16 9.34 16 8.68 16 8 C13.58380177 7.74969023 13.58380177 7.74969023 11 8 C10.01 9.485 10.01 9.485 9 11 C7.49403892 9.54782324 5.99537896 8.08807139 4.5 6.625 C3.6646875 5.81289062 2.829375 5.00078125 1.96875 4.1640625 C0 2 0 2 0 0 Z " fill="#22B9EF" transform="translate(61,61)"/>
<path d="M0 0 C4.9181046 1.42366186 9.23020329 3.58471634 13.73046875 5.9765625 C16.04086286 7.20554109 16.04086286 7.20554109 19 7 C18.67 5.02 18.34 3.04 18 1 C23 7.36363636 23 7.36363636 23 12 C17.85034142 11.41293892 13.73823508 8.98069748 9.25 6.5625 C8.47011719 6.15451172 7.69023437 5.74652344 6.88671875 5.32617188 C1.12835748 2.25671495 1.12835748 2.25671495 0 0 Z " fill="#4079A3" transform="translate(123,136)"/>
<path d="M0 0 C0.66 0 1.32 0 2 0 C2.66 3.3 3.32 6.6 4 10 C5.32 9.01 6.64 8.02 8 7 C8.99 7.33 9.98 7.66 11 8 C9.02 10.31 7.04 12.62 5 15 C7.97 15.495 7.97 15.495 11 16 C11 16.33 11 16.66 11 17 C8.03 16.67 5.06 16.34 2 16 C1.66104344 14.27192682 1.32908475 12.54248026 1 10.8125 C0.814375 9.84957031 0.62875 8.88664062 0.4375 7.89453125 C0.03122388 5.2065794 -0.07933572 2.71228981 0 0 Z " fill="#021546" transform="translate(112,71)"/>
<path d="M0 0 C0.66 0.33 1.32 0.66 2 1 C-0.31 5.62 -2.62 10.24 -5 15 C-7 14 -7 14 -8 11 C-9.32 12.32 -10.64 13.64 -12 15 C-12.66 14.67 -13.32 14.34 -14 14 C-9.38 9.38 -4.76 4.76 0 0 Z " fill="#22B6EC" transform="translate(140,61)"/>
<path d="M0 0 C4.40285423 0 6.19956554 0.26265853 10 2 C9.875 4.3125 9.875 4.3125 9 7 C6.0625 8.75 6.0625 8.75 3 10 C2.01 10.495 2.01 10.495 1 11 C0.67 7.37 0.34 3.74 0 0 Z " fill="#030124" transform="translate(114,71)"/>
<path d="M0 0 C11.88 0 23.76 0 36 0 C36 0.33 36 0.66 36 1 C35.39937744 1.02505615 34.79875488 1.0501123 34.17993164 1.07592773 C31.47388563 1.1915528 28.76821717 1.31442936 26.0625 1.4375 C24.64420898 1.49647461 24.64420898 1.49647461 23.19726562 1.55664062 C22.29814453 1.59853516 21.39902344 1.64042969 20.47265625 1.68359375 C19.64000244 1.72025146 18.80734863 1.75690918 17.94946289 1.79467773 C15.99661142 1.79367103 15.99661142 1.79367103 15 3 C9.96238984 3.31718286 4.90038887 3.30677037 0 2 C0 1.34 0 0.68 0 0 Z " fill="#161B41" transform="translate(12,102)"/>
<path d="M0 0 C0.33 0.66 0.66 1.32 1 2 C1.845625 1.979375 2.69125 1.95875 3.5625 1.9375 C8.22940843 2.02235288 12.56537286 2.52179095 17 4 C17.495 11.92 17.495 11.92 18 20 C17.34 20 16.68 20 16 20 C15.80083984 18.62714844 15.80083984 18.62714844 15.59765625 17.2265625 C15.42105469 16.03804687 15.24445313 14.84953125 15.0625 13.625 C14.88847656 12.44164063 14.71445313 11.25828125 14.53515625 10.0390625 C14.16537214 7.09297619 14.16537214 7.09297619 13 5 C11.18599779 4.72618835 9.36838213 4.46803009 7.54296875 4.28515625 C2.66495857 3.73815972 -2.16349202 2.8302672 -7 2 C-7 1.67 -7 1.34 -7 1 C-3.535 0.505 -3.535 0.505 0 0 Z " fill="#0E3163" transform="translate(69,112)"/>
<path d="M0 0 C1.65 0.33 3.3 0.66 5 1 C5 1.66 5 2.32 5 3 C6.32 3.33 7.64 3.66 9 4 C8.34 4 7.68 4 7 4 C7 4.99 7 5.98 7 7 C7.66 7 8.32 7 9 7 C9 7.66 9 8.32 9 9 C2.64 8.4 2.64 8.4 0 6.75 C-1 5 -1 5 -0.6875 2.3125 C-0.460625 1.549375 -0.23375 0.78625 0 0 Z " fill="#15C0F8" transform="translate(72,68)"/>
<path d="M0 0 C2 2 2 2 2.1875 5.0625 C2 8 2 8 1 9 C0.95907063 11.33297433 0.95758277 13.66705225 1 16 C1.66 16.33 2.32 16.66 3 17 C-0.61029169 17 -3.55806676 16.03907418 -7 15 C-6.01 13.68 -5.02 12.36 -4 11 C-3.67 11.33 -3.34 11.66 -3 12 C-2.01 8.04 -1.02 4.08 0 0 Z " fill="#001344" transform="translate(86,72)"/>
<path d="M0 0 C2.96527758 2.4453385 3.55582214 4.44602347 4.1875 8.1875 C4.34605469 9.08855469 4.50460938 9.98960937 4.66796875 10.91796875 C4.83232422 11.94857422 4.83232422 11.94857422 5 13 C1.59679258 11.98823563 0.24274669 11.35156418 -1.8125 8.375 C-2.4003125 7.199375 -2.4003125 7.199375 -3 6 C-2.01 6 -1.02 6 0 6 C0 4.02 0 2.04 0 0 Z " fill="#021341" transform="translate(137,130)"/>
<path d="M0 0 C0.33 0 0.66 0 1 0 C0.99476318 0.89307861 0.98952637 1.78615723 0.98413086 2.70629883 C0.96708214 6.02173508 0.95454653 9.3371247 0.94506836 12.65258789 C0.94004158 14.08716568 0.93321921 15.52173836 0.92456055 16.95629883 C0.91242248 19.01905582 0.90675514 21.08174504 0.90234375 23.14453125 C0.89710693 24.38565674 0.89187012 25.62678223 0.88647461 26.90551758 C0.85611917 30.03708218 0.85611917 30.03708218 2 33 C1.34 33.66 0.68 34.32 0 35 C-1 34 -1 34 -1.02172852 30.76538086 C-0.97939774 29.33170297 -0.93137481 27.89818643 -0.87890625 26.46484375 C-0.84348976 25.33496788 -0.84348976 25.33496788 -0.80735779 24.18226624 C-0.73054502 21.76716071 -0.64659728 19.3523618 -0.5625 16.9375 C-0.5092969 15.30405166 -0.4565564 13.67058818 -0.40429688 12.03710938 C-0.27490625 8.02454399 -0.13911453 4.01223956 0 0 Z " fill="#204B80" transform="translate(99,160)"/>
<path d="M0 0 C1.65 0 3.3 0 5 0 C5 0.66 5 1.32 5 2 C13.58 2 22.16 2 31 2 C31 2.33 31 2.66 31 3 C29.83428467 3.029729 29.83428467 3.029729 28.64501953 3.06005859 C25.13799309 3.15507009 21.63158206 3.26484559 18.125 3.375 C16.29001953 3.42140625 16.29001953 3.42140625 14.41796875 3.46875 C13.25136719 3.50742188 12.08476563 3.54609375 10.8828125 3.5859375 C9.80402832 3.6173584 8.72524414 3.6487793 7.61376953 3.68115234 C4.84238346 3.74676322 4.84238346 3.74676322 3 6 C3 5.34 3 4.68 3 4 C2.34 4 1.68 4 1 4 C0.67 2.68 0.34 1.36 0 0 Z " fill="#002867" transform="translate(97,99)"/>
<path d="M0 0 C-1.49097658 3.7952131 -3.75700849 5.61042731 -7 8 C-7.66 6.35 -8.32 4.7 -9 3 C-9.33 3.66 -9.66 4.32 -10 5 C-10.66 4.34 -11.32 3.68 -12 3 C-7.77050005 0.58314288 -4.87664009 -0.34833144 0 0 Z " fill="#1D244A" transform="translate(141,59)"/>
<path d="M0 0 C0 5.94 0 11.88 0 18 C-0.33 18 -0.66 18 -1 18 C-1 13.05 -1 8.1 -1 3 C-2.32 4.32 -3.64 5.64 -5 7 C-8.25 8.25 -8.25 8.25 -11 9 C-10.0919838 7.86800647 -9.17316174 6.74467637 -8.25 5.625 C-7.73953125 4.99851562 -7.2290625 4.37203125 -6.703125 3.7265625 C-4.89335217 1.89188454 -2.72588059 0 0 0 Z " fill="#20C2FA" transform="translate(98,106)"/>
<path d="M0 0 C-3.63538689 2.14776054 -7.46470606 2.81565038 -11.5625 3.5625 C-16.83868518 4.54084417 -16.83868518 4.54084417 -22 6 C-22.33 5.01 -22.66 4.02 -23 3 C-15.21726112 0.95062675 -8.06510168 -0.49155247 0 0 Z " fill="#4181AC" transform="translate(151,110)"/>
<path d="M0 0 C3.96 0 7.92 0 12 0 C9.73106888 4.53786224 7.90133466 5.94678157 4 9 C4.33 6.69 4.66 4.38 5 2 C3.35 1.67 1.7 1.34 0 1 C0 0.67 0 0.34 0 0 Z " fill="#010D3A" transform="translate(86,102)"/>
<path d="M0 0 C0.33 0 0.66 0 1 0 C1.1799928 5.21979128 0.97094808 9.07262981 -1 14 C-1.33 14 -1.66 14 -2 14 C-2 12.35 -2 10.7 -2 9 C-2.66 8.7525 -3.32 8.505 -4 8.25 C-7.76360907 6.68182955 -11.3711424 4.85494954 -15 3 C-11.36868547 1.78956182 -10.76041618 2.31162503 -7.4375 3.9375 C-4.35047762 5.53153297 -4.35047762 5.53153297 -1 6 C-0.67 4.02 -0.34 2.04 0 0 Z " fill="#4A7CA2" transform="translate(87,63)"/>
<path d="M0 0 C3.21524305 1.40844718 5.32183868 3.10344786 7.75 5.625 C8.67039062 6.57246094 8.67039062 6.57246094 9.609375 7.5390625 C10.29773438 8.26222656 10.29773438 8.26222656 11 9 C10.34 9.66 9.68 10.32 9 11 C9 10.34 9 9.68 9 9 C8.01 9.33 7.02 9.66 6 10 C3.7522025 7.94766315 2.9977758 6.99332739 2 4 C1.34 4 0.68 4 0 4 C0 2.68 0 1.36 0 0 Z " fill="#091844" transform="translate(55,58)"/>
<path d="M0 0 C0.33 0 0.66 0 1 0 C1 1.98 1 3.96 1 6 C1.99 5.67 2.98 5.34 4 5 C3.67 6.65 3.34 8.3 3 10 C0 9 0 9 -3 7 C-3.1875 4.375 -3.1875 4.375 -3 2 C-2.01 2 -1.02 2 0 2 C0 1.34 0 0.68 0 0 Z " fill="#060328" transform="translate(81,123)"/>
<path d="M0 0 C1.37478516 0.01740234 1.37478516 0.01740234 2.77734375 0.03515625 C3.69644531 0.04417969 4.61554688 0.05320312 5.5625 0.0625 C6.27277344 0.07410156 6.98304688 0.08570312 7.71484375 0.09765625 C7.71484375 1.08765625 7.71484375 2.07765625 7.71484375 3.09765625 C6.93109375 3.24203125 6.14734375 3.38640625 5.33984375 3.53515625 C2.75063357 3.9756455 2.75063357 3.9756455 0.71484375 5.09765625 C-0.60515625 3.77765625 -1.92515625 2.45765625 -3.28515625 1.09765625 C-2.28515625 0.09765625 -2.28515625 0.09765625 0 0 Z " fill="#020123" transform="translate(122.28515625,116.90234375)"/>
<path d="M0 0 C7.75362732 1.03675813 15.39277848 2.16377412 23 4 C19.25 6 19.25 6 17 6 C17 5.34 17 4.68 17 4 C15.576875 4.0928125 15.576875 4.0928125 14.125 4.1875 C9.15672169 4.21810541 4.6616098 2.57575543 0 1 C0 0.67 0 0.34 0 0 Z " fill="#52526F" transform="translate(157,94)"/>
<path d="M0 0 C1.51553092 3.97450493 0.49888623 7.20481149 -0.4375 11.25 C-0.72496094 12.51328125 -1.01242188 13.7765625 -1.30859375 15.078125 C-1.53675781 16.04234375 -1.76492187 17.0065625 -2 18 C-2.33 18 -2.66 18 -3 18 C-3.08074203 15.37438891 -3.1403623 12.75124324 -3.1875 10.125 C-3.21263672 9.37863281 -3.23777344 8.63226563 -3.26367188 7.86328125 C-3.29296875 5.6953125 -3.29296875 5.6953125 -3 2 C-2.01 1.34 -1.02 0.68 0 0 Z " fill="#4C4B6C" transform="translate(104,170)"/>
<path d="M0 0 C0.99 0.33 1.98 0.66 3 1 C3.33 1.99 3.66 2.98 4 4 C2.71086513 4.67154933 1.41859796 5.33708859 0.125 6 C-0.59429687 6.37125 -1.31359375 6.7425 -2.0546875 7.125 C-4 8 -4 8 -6 8 C-6.33 7.01 -6.66 6.02 -7 5 C-5.68 5.33 -4.36 5.66 -3 6 C-2.67 4.68 -2.34 3.36 -2 2 C-1.34 2 -0.68 2 0 2 C0 1.34 0 0.68 0 0 Z " fill="#303051" transform="translate(68,136)"/>
<path d="M0 0 C1.62580966 0.11398665 3.25067157 0.24155659 4.875 0.375 C5.77992188 0.44460937 6.68484375 0.51421875 7.6171875 0.5859375 C10 1 10 1 12 3 C6.39 3 0.78 3 -5 3 C-5 2.67 -5 2.34 -5 2 C-3.35 2 -1.7 2 0 2 C0 1.34 0 0.68 0 0 Z " fill="#1D2E5D" transform="translate(180,99)"/>
<path d="M0 0 C1.98 0 3.96 0 6 0 C5.01 1.485 5.01 1.485 4 3 C3.34 3 2.68 3 2 3 C1.34 7.29 0.68 11.58 0 16 C-0.33 16 -0.66 16 -1 16 C-1.02701408 13.89590361 -1.04640223 11.79170822 -1.0625 9.6875 C-1.07410156 8.51574219 -1.08570312 7.34398438 -1.09765625 6.13671875 C-1 3 -1 3 0 0 Z " fill="#04265E" transform="translate(113,116)"/>
<path d="M0 0 C6.27 0.33 12.54 0.66 19 1 C19 1.33 19 1.66 19 2 C9.595 2.495 9.595 2.495 0 3 C0 2.01 0 1.02 0 0 Z " fill="#244F81" transform="translate(8,100)"/>
<path d="M0 0 C0.33 0.99 0.66 1.98 1 3 C0.67 3.66 0.34 4.32 0 5 C-0.99 5.33 -1.98 5.66 -3 6 C-4.20882096 8.00016466 -4.20882096 8.00016466 -5 10 C-4.01 10.33 -3.02 10.66 -2 11 C-4.97 10.505 -4.97 10.505 -8 10 C-6.34908222 5.70761377 -3.26245434 3.1206085 0 0 Z " fill="#2AA9E1" transform="translate(125,76)"/>
<path d="M0 0 C1.98 1.65 3.96 3.3 6 5 C5.34 6.98 4.68 8.96 4 11 C3.34 10.67 2.68 10.34 2 10 C1.3671875 7.71484375 1.3671875 7.71484375 0.875 4.9375 C0.70742187 4.01839844 0.53984375 3.09929687 0.3671875 2.15234375 C0.24601562 1.44207031 0.12484375 0.73179688 0 0 Z " fill="#00103D" transform="translate(108,110)"/>
<path d="M0 0 C1.32 0.66 2.64 1.32 4 2 C3.01 2.66 2.02 3.32 1 4 C0.61975225 8.65145592 0.61975225 8.65145592 2 13 C0.68 12.67 -0.64 12.34 -2 12 C-1.85904936 10.3745692 -1.71207913 8.74965949 -1.5625 7.125 C-1.48128906 6.22007813 -1.40007812 5.31515625 -1.31640625 4.3828125 C-1 2 -1 2 0 0 Z " fill="#2AA7E2" transform="translate(115,119)"/>
<path d="M0 0 C5.12583611 -0.10251672 9.94997778 -0.03590199 15 1 C15 1.33 15 1.66 15 2 C13.6078125 2.433125 13.6078125 2.433125 12.1875 2.875 C8.90208333 3.8875 8.90208333 3.8875 6 6 C6.33 4.35 6.66 2.7 7 1 C5.02 1.33 3.04 1.66 1 2 C0.67 1.34 0.34 0.68 0 0 Z " fill="#363756" transform="translate(127,89)"/>
<path d="M0 0 C2 2 2 2 2 6 C3.65 6 5.3 6 7 6 C6.1654738 8.50357861 5.20628008 10.66785852 4 13 C3.13372601 11.40233897 2.28233535 9.79660056 1.4375 8.1875 C0.96183594 7.29417969 0.48617187 6.40085937 -0.00390625 5.48046875 C-1 3 -1 3 0 0 Z " fill="#3D3E5F" transform="translate(57,61)"/>
<path d="M0 0 C5 6.36363636 5 6.36363636 5 11 C4.01 11 3.02 11 2 11 C0.19769832 7.17010894 -0.19622241 4.21878192 0 0 Z " fill="#4A5072" transform="translate(141,137)"/>
<path d="M0 0 C0.33 0 0.66 0 1 0 C1.64196266 3.68651822 2.15094565 7.25331341 2 11 C-0.4375 13.6875 -0.4375 13.6875 -3 15 C-3 14.01 -3 13.02 -3 12 C-2.34 12 -1.68 12 -1 12 C-1 11.01 -1 10.02 -1 9 C-0.34 9 0.32 9 1 9 C1 8.01 1 7.02 1 6 C0.34 6 -0.32 6 -1 6 C-0.67 4.02 -0.34 2.04 0 0 Z " fill="#25ABE5" transform="translate(112,76)"/>
<path d="M0 0 C0.6875 1.75 0.6875 1.75 1 4 C-0.125 6.25 -0.125 6.25 -2 8 C-4.6875 8.25 -4.6875 8.25 -7 8 C-6.02133662 6.85373678 -5.04205413 5.70800212 -4.0625 4.5625 C-3.51722656 3.92441406 -2.97195312 3.28632813 -2.41015625 2.62890625 C-1.63204305 1.73008851 -0.84063472 0.84063472 0 0 Z " fill="#001847" transform="translate(73,127)"/>
<path d="M0 0 C2.21773977 1.10886989 3.47698387 2.0418364 5 4 C4.6875 6.1875 4.6875 6.1875 4 8 C3.01 8 2.02 8 1 8 C1 6.68 1 5.36 1 4 C0.34 4 -0.32 4 -1 4 C-0.67 2.68 -0.34 1.36 0 0 Z " fill="#040126" transform="translate(133,128)"/>
<path d="M0 0 C0.99 0 1.98 0 3 0 C3.33 3.3 3.66 6.6 4 10 C2.68 9.34 1.36 8.68 0 8 C0 5.36 0 2.72 0 0 Z " fill="#1BB8F1" transform="translate(101,32)"/>
<path d="M0 0 C-2.93828597 2.50298434 -5.17902761 3.46930939 -9 4 C-9 3.01 -9 2.02 -9 1 C-5.64919071 -1.10976881 -3.77897651 -1.0497157 0 0 Z " fill="#444E6D" transform="translate(62,144)"/>
<path d="M0 0 C0.66 0 1.32 0 2 0 C2 0.66 2 1.32 2 2 C3.65 1.67 5.3 1.34 7 1 C7 1.99 7 2.98 7 4 C7.99 4.33 8.98 4.66 10 5 C9.67 5.66 9.34 6.32 9 7 C8.2575 6.525625 7.515 6.05125 6.75 5.5625 C4.38949985 4.22130673 2.63351523 3.487688 0 3 C0 2.01 0 1.02 0 0 Z " fill="#2CB8ED" transform="translate(121,133)"/>
<path d="M0 0 C0.99 0.66 1.98 1.32 3 2 C2.34 3.32 1.68 4.64 1 6 C0.01 6 -0.98 6 -2 6 C-2.33 6.99 -2.66 7.98 -3 9 C-3.36923077 3.46153846 -3.36923077 3.46153846 -1.5 1.125 C-1.005 0.75375 -0.51 0.3825 0 0 Z " fill="#11C2F6" transform="translate(71,120)"/>
<path d="M0 0 C0.66 0.66 1.32 1.32 2 2 C1 4 1 4 -1.3125 5.25 C-4 6 -4 6 -8 4 C-5.36 2.68 -2.72 1.36 0 0 Z " fill="#555A7A" transform="translate(145,54)"/>
<path d="M0 0 C0.99 0.66 1.98 1.32 3 2 C3 2.66 3 3.32 3 4 C3.99 4.33 4.98 4.66 6 5 C5.67 5.66 5.34 6.32 5 7 C1.535 5.02 1.535 5.02 -2 3 C-1.34 2.67 -0.68 2.34 0 2 C0 1.34 0 0.68 0 0 Z " fill="#29A8E3" transform="translate(134,137)"/>
<path d="M0 0 C-0.33 0.99 -0.66 1.98 -1 3 C-3.31 3 -5.62 3 -8 3 C-8 2.34 -8 1.68 -8 1 C-5.29120665 -0.35439668 -2.99066732 -0.06501451 0 0 Z " fill="#010227" transform="translate(81,83)"/>
<path d="M0 0 C1.875 0.3125 1.875 0.3125 4 1 C4.66 1.99 5.32 2.98 6 4 C5.071875 3.979375 4.14375 3.95875 3.1875 3.9375 C-0.02286011 3.84230396 -0.02286011 3.84230396 -3 5 C-2.67 4.01 -2.34 3.02 -2 2 C-1.34 2 -0.68 2 0 2 C0 1.34 0 0.68 0 0 Z " fill="#000D37" transform="translate(66,70)"/>
<path d="M0 0 C0.66 0.33 1.32 0.66 2 1 C0.1875 3.5 0.1875 3.5 -2 6 C-2.99 6 -3.98 6 -5 6 C-4.75 4.125 -4.75 4.125 -4 2 C-2.0625 0.6875 -2.0625 0.6875 0 0 Z " fill="#32344F" transform="translate(121,66)"/>
<path d="M0 0 C0 0.66 0 1.32 0 2 C0.66 2 1.32 2 2 2 C1.67 2.66 1.34 3.32 1 4 C-2.63 3.34 -6.26 2.68 -10 2 C-10 1.67 -10 1.34 -10 1 C-2.25 0 -2.25 0 0 0 Z " fill="#0C2755" transform="translate(129,114)"/>
<path d="M0 0 C3.25 -0.3125 3.25 -0.3125 7 0 C9.4375 2.5 9.4375 2.5 11 5 C10.01 5.495 10.01 5.495 9 6 C9 5.34 9 4.68 9 4 C6.03 3.01 3.06 2.02 0 1 C0 0.67 0 0.34 0 0 Z " fill="#26A0DC" transform="translate(78,87)"/>
<path d="M0 0 C0.66 0.33 1.32 0.66 2 1 C1.01 2.98 0.02 4.96 -1 7 C-4 7 -4 7 -6 6 C-4.02 4.02 -2.04 2.04 0 0 Z " fill="#2FA8E5" transform="translate(140,61)"/>
<path d="M0 0 C2.16874252 0.50603992 3.99967627 0.99983813 6 2 C5.67 3.32 5.34 4.64 5 6 C3.2925002 4.71937515 1.62626404 3.38232443 0 2 C0 1.34 0 0.68 0 0 Z " fill="#2AB2EC" transform="translate(61,61)"/>
<path d="M0 0 C-1.75 3.875 -1.75 3.875 -4 5 C-4 4.01 -4 3.02 -4 2 C-5.32 1.67 -6.64 1.34 -8 1 C-5.29120665 -0.35439668 -2.99066732 -0.06501451 0 0 Z " fill="#212C56" transform="translate(141,59)"/>
<path d="M0 0 C2.31 1.98 4.62 3.96 7 6 C6.34 6.66 5.68 7.32 5 8 C4.38125 7.34 3.7625 6.68 3.125 6 C1.24362573 3.7715451 1.24362573 3.7715451 -1 4 C-0.67 2.68 -0.34 1.36 0 0 Z " fill="#21A8DC" transform="translate(119,122)"/>
<path d="M0 0 C1.32 0 2.64 0 4 0 C2.63016497 3.16115776 2.0109362 3.9927092 -1 6 C-1.042721 4.33388095 -1.04063832 2.66617115 -1 1 C-0.67 0.67 -0.34 0.34 0 0 Z " fill="#28B4EC" transform="translate(78,117)"/>
<path d="M0 0 C1.32 0.33 2.64 0.66 4 1 C3.67 1.66 3.34 2.32 3 3 C5.97 3.495 5.97 3.495 9 4 C9 4.33 9 4.66 9 5 C6.03 4.67 3.06 4.34 0 4 C0 2.68 0 1.36 0 0 Z " fill="#062B67" transform="translate(114,83)"/>
<path d="M0 0 C0.33 0 0.66 0 1 0 C1.33 1.65 1.66 3.3 2 5 C3.32 5.33 4.64 5.66 6 6 C4.35 6.33 2.7 6.66 1 7 C0.67 7.99 0.34 8.98 0 10 C-0.74926071 6.33694766 -1.2380014 3.57644848 0 0 Z " fill="#578DB1" transform="translate(111,64)"/>
<path d="M0 0 C0.66 0.33 1.32 0.66 2 1 C2 2.32 2 3.64 2 5 C0.02 5.33 -1.96 5.66 -4 6 C-4 5.34 -4 4.68 -4 4 C-3.34 4 -2.68 4 -2 4 C-2 3.34 -2 2.68 -2 2 C-1.34 2 -0.68 2 0 2 C0 1.34 0 0.68 0 0 Z " fill="#040227" transform="translate(132,62)"/>
<path d="M0 0 C2.50037734 2.17424117 3.43628586 3.73045798 4 7 C2.35 7 0.7 7 -1 7 C-0.67 4.69 -0.34 2.38 0 0 Z " fill="#404363" transform="translate(137,130)"/>
<path d="M0 0 C5.75 0.75 5.75 0.75 8 3 C6.35 3 4.7 3 3 3 C2.67 3.66 2.34 4.32 2 5 C1.34 3.35 0.68 1.7 0 0 Z " fill="#576483" transform="translate(52,55)"/>
<path d="M0 0 C3 3.75 3 3.75 3 6 C2.01 6.33 1.02 6.66 0 7 C-0.66 5.35 -1.32 3.7 -2 2 C-1.34 2 -0.68 2 0 2 C0 1.34 0 0.68 0 0 Z " fill="#242242" transform="translate(134,124)"/>
<path d="M0 0 C0.33 0.99 0.66 1.98 1 3 C0 5 0 5 -3.0625 6.125 C-4.031875 6.41375 -5.00125 6.7025 -6 7 C-4.02 4.69 -2.04 2.38 0 0 Z " fill="#29A6DF" transform="translate(93,108)"/>
<path d="M0 0 C-2 2 -2 2 -5.625 2.125 C-6.73875 2.08375 -7.8525 2.0425 -9 2 C-5.945634 -1.054366 -3.9532319 -1.22686507 0 0 Z " fill="#25B3F0" transform="translate(78,89)"/>
<path d="M0 0 C0.33 0 0.66 0 1 0 C1 1.65 1 3.3 1 5 C-0.98 5 -2.96 5 -5 5 C-4.01 3.68 -3.02 2.36 -2 1 C-1.67 1.33 -1.34 1.66 -1 2 C-0.67 1.34 -0.34 0.68 0 0 Z " fill="#00215F" transform="translate(84,82)"/>
<path d="M0 0 C0.33 0 0.66 0 1 0 C0.67 2.64 0.34 5.28 0 8 C-1.65 6.35 -3.3 4.7 -5 3 C-2.525 3.495 -2.525 3.495 0 4 C0 2.68 0 1.36 0 0 Z " fill="#2B9ED6" transform="translate(84,77)"/>
</svg>
