<?xml version="1.0" encoding="UTF-8"?>
<svg version="1.1" xmlns="http://www.w3.org/2000/svg" width="512" height="512">
<path d="M0 0 C4.558512 0.02848688 9.11556437 0.01156018 13.67402649 -0.01720905 C41.32811804 -0.16527156 65.36353048 3.17693847 91.47363281 12.65185547 C92.89530671 13.15242698 94.3171717 13.65245622 95.73925781 14.15185547 C110.53061198 19.43179815 124.27752773 26.14979348 137.47363281 34.65185547 C139.13823693 35.65528505 140.80489266 36.65531942 142.47363281 37.65185547 C144.35365464 38.81041234 146.2285793 39.9772764 148.09863281 41.15185547 C149.03964844 41.73966797 149.98066406 42.32748047 150.95019531 42.93310547 C153.47363281 44.65185547 153.47363281 44.65185547 155.12207031 46.30810547 C156.5460431 47.92300289 156.5460431 47.92300289 159.47363281 48.65185547 C159.47363281 49.31185547 159.47363281 49.97185547 159.47363281 50.65185547 C160.13363281 50.83748047 160.79363281 51.02310547 161.47363281 51.21435547 C165.7426855 53.25994321 169.21526987 56.2237019 172.47363281 59.65185547 C172.47363281 60.31185547 172.47363281 60.97185547 172.47363281 61.65185547 C173.30894531 61.74466797 173.30894531 61.74466797 174.16113281 61.83935547 C177.44482019 62.99308347 179.05775266 65.15625474 181.47363281 67.65185547 C182.42696672 68.59828474 183.38274906 69.54225336 184.34082031 70.48388672 C189.94346713 76.0247125 195.45941002 81.56387992 200.47363281 87.65185547 C200.95429199 88.23467285 201.43495117 88.81749023 201.93017578 89.41796875 C203.59824415 91.44807527 205.25628711 93.48595928 206.91113281 95.52685547 C207.72904297 96.52809448 207.72904297 96.52809448 208.56347656 97.54956055 C212.47363281 102.41917637 212.47363281 102.41917637 212.47363281 104.65185547 C213.13363281 104.65185547 213.79363281 104.65185547 214.47363281 104.65185547 C215.54723985 106.27208561 216.52330095 107.95637703 217.47363281 109.65185547 C218.33332588 111.08318949 219.19840019 112.51129841 220.06738281 113.93701172 C220.54046875 114.71496094 221.01355469 115.49291016 221.50097656 116.29443359 C222.22994141 117.49229492 222.22994141 117.49229492 222.97363281 118.71435547 C223.45960938 119.51679687 223.94558594 120.31923828 224.44628906 121.14599609 C224.919375 121.92265625 225.39246094 122.69931641 225.87988281 123.49951172 C226.51893555 124.55150757 226.51893555 124.55150757 227.17089844 125.62475586 C228.46490335 127.69786096 228.46490335 127.69786096 230.05371094 129.72387695 C231.6277076 131.86105914 232.54797172 134.06627381 233.54394531 136.51513672 C234.63522824 139.02325337 235.89562614 141.41437107 237.16113281 143.83935547 C244.03639977 157.5043761 249.31289798 171.94658687 253.47363281 186.65185547 C253.82039063 187.86228516 254.16714844 189.07271484 254.52441406 190.31982422 C260.02805565 210.82567029 262.14371759 231.26851475 261.99511719 252.46264648 C261.97366252 256.08434097 261.99507051 259.70404817 262.02050781 263.32568359 C262.04962924 287.23397114 258.46066657 309.81497384 251.47363281 332.65185547 C251.12300781 333.81974609 250.77238281 334.98763672 250.41113281 336.19091797 C247.96893357 343.90419724 244.73222468 351.25702433 241.47363281 358.65185547 C240.99410156 359.78880859 240.51457031 360.92576172 240.02050781 362.09716797 C233.90512802 376.15018719 226.85765185 390.88242645 217.01660156 402.68701172 C215.40506244 404.65313044 215.40506244 404.65313044 214.07128906 407.00341797 C212.16611169 410.16163375 209.98215803 413.05581778 207.72363281 415.96435547 C207.06427734 416.81549927 207.06427734 416.81549927 206.39160156 417.68383789 C198.4907071 427.81477709 198.4907071 427.81477709 195.47363281 430.65185547 C194.81363281 430.65185547 194.15363281 430.65185547 193.47363281 430.65185547 C193.13332031 431.48716797 193.13332031 431.48716797 192.78613281 432.33935547 C191.0879048 435.3314715 188.96599085 437.26786082 186.47363281 439.65185547 C185.80203125 440.34408203 185.13042969 441.03630859 184.43847656 441.74951172 C183.37306641 442.84585938 183.37306641 442.84585938 182.28613281 443.96435547 C181.61195313 444.66173828 180.93777344 445.35912109 180.24316406 446.07763672 C178.47363281 447.65185547 178.47363281 447.65185547 176.47363281 447.65185547 C176.17972656 448.4775 176.17972656 448.4775 175.87988281 449.31982422 C173.88158388 452.63366994 171.01220216 454.66151139 167.97363281 456.96435547 C167.347229 457.44783447 166.7208252 457.93131348 166.07543945 458.42944336 C161.63927094 461.8304114 157.1136056 465.08540156 152.49707031 468.23779297 C150.35150593 469.69093509 150.35150593 469.69093509 148.03613281 471.71435547 C144.71181974 474.22786047 141.14591732 476.07403169 137.46972656 478.02685547 C134.58159321 479.59330068 131.78326189 481.26202761 128.97363281 482.96435547 C116.44821822 490.32262775 102.75444441 496.94746018 88.80566406 501.06982422 C85.42508161 502.07216831 82.04890797 503.08636815 78.67675781 504.11669922 C77.02592811 504.608297 75.37488553 505.09918045 73.72363281 505.58935547 C72.56541016 505.94803711 72.56541016 505.94803711 71.38378906 506.31396484 C68.43058538 507.18161151 65.4659773 507.92932704 62.47363281 508.65185547 C61.78418579 508.82202179 61.09473877 508.99218811 60.38439941 509.16751099 C43.79164991 513.12033909 27.28405381 513.30668733 10.33496094 513.22827148 C7.26745746 513.214549 4.20120031 513.22141649 1.13378906 513.2487793 C-20.62356677 513.44224746 -41.81756414 512.6540453 -62.58465576 505.30641174 C-65.13231056 504.44759029 -67.73735639 503.86180753 -70.34667969 503.22216797 C-91.7997258 497.60900537 -113.36980313 487.36560513 -131.52636719 474.65185547 C-132.79480469 473.90935547 -132.79480469 473.90935547 -134.08886719 473.15185547 C-137.07465666 471.31444656 -139.79640582 469.20606303 -142.56152344 467.05419922 C-144.48163345 465.68378273 -146.3911297 464.64576334 -148.52636719 463.65185547 C-148.52636719 462.99185547 -148.52636719 462.33185547 -148.52636719 461.65185547 C-149.22117187 461.42498047 -149.91597656 461.19810547 -150.63183594 460.96435547 C-154.16214347 459.36356825 -156.91216303 457.14115427 -159.83886719 454.65185547 C-160.38865234 454.20068359 -160.9384375 453.74951172 -161.50488281 453.28466797 C-162.88826689 452.12296904 -164.2128731 450.89202852 -165.52636719 449.65185547 C-165.52636719 448.99185547 -165.52636719 448.33185547 -165.52636719 447.65185547 C-166.09355469 447.40048828 -166.66074219 447.14912109 -167.24511719 446.89013672 C-173.1461417 443.68701211 -178.78047427 438.18926239 -182.52636719 432.65185547 C-182.52636719 431.99185547 -182.52636719 431.33185547 -182.52636719 430.65185547 C-183.38488281 430.31154297 -183.38488281 430.31154297 -184.26074219 429.96435547 C-187.15531093 428.28750185 -188.70467304 426.27500777 -190.77636719 423.65185547 C-191.55753906 422.66958984 -192.33871094 421.68732422 -193.14355469 420.67529297 C-194.32304687 419.17869141 -194.32304687 419.17869141 -195.52636719 417.65185547 C-196.64398438 416.27900391 -196.64398438 416.27900391 -197.78417969 414.87841797 C-201.01194324 410.91219929 -203.91801724 407.05264294 -206.52636719 402.65185547 C-208.60191239 399.50107132 -210.72857679 396.38405698 -212.85449219 393.26708984 C-215.39274781 389.50175583 -217.54762976 385.74955581 -219.52636719 381.65185547 C-220.27681466 380.25535122 -221.03392016 378.86241422 -221.79589844 377.47216797 C-227.25750196 367.42658485 -231.85214792 357.47723974 -235.52636719 346.65185547 C-235.80738281 345.85005859 -236.08839844 345.04826172 -236.37792969 344.22216797 C-237.12686403 342.04120532 -237.8317879 339.85077482 -238.52636719 337.65185547 C-238.91695312 336.42724609 -239.30753906 335.20263672 -239.70996094 333.94091797 C-240.14930488 332.55306855 -240.5881021 331.16504595 -241.02636719 329.77685547 C-241.22818604 329.14070313 -241.43000488 328.50455078 -241.63793945 327.84912109 C-249.01750489 304.27724018 -251.26645993 280.97091206 -251.08886719 256.33935547 C-251.08527191 255.09514832 -251.08167664 253.85094116 -251.07797241 252.56903076 C-251.0015507 234.07972604 -250.0854292 216.63410784 -245.52636719 198.65185547 C-245.13549174 196.93244984 -244.74734724 195.21242045 -244.36230469 193.49169922 C-240.6633271 177.67499805 -234.74570094 162.36943779 -228.21386719 147.52685547 C-227.88862061 146.78685303 -227.56337402 146.04685059 -227.22827148 145.28442383 C-225.62575271 141.74273666 -223.88156628 138.72614896 -221.52636719 135.65185547 C-221.07898193 134.50982666 -221.07898193 134.50982666 -220.62255859 133.34472656 C-219.50402344 130.59696648 -218.16700691 128.25728722 -216.59277344 125.74560547 C-216.02623047 124.83681641 -215.4596875 123.92802734 -214.87597656 122.99169922 C-213.99135742 121.58597656 -213.99135742 121.58597656 -213.08886719 120.15185547 C-211.92327209 118.28741623 -210.75790026 116.42283738 -209.59277344 114.55810547 C-209.07658447 113.73632812 -208.56039551 112.91455078 -208.02856445 112.06787109 C-206.96238889 110.3531184 -205.94387255 108.60832136 -204.9597168 106.84521484 C-204.48671143 106.12140625 -204.01370605 105.39759766 -203.52636719 104.65185547 C-202.86636719 104.65185547 -202.20636719 104.65185547 -201.52636719 104.65185547 C-201.31367188 103.96736328 -201.10097656 103.28287109 -200.88183594 102.57763672 C-199.10779569 98.74836828 -196.62625753 95.97601942 -193.83886719 92.83935547 C-193.29359375 92.21625488 -192.74832031 91.5931543 -192.18652344 90.95117188 C-191.11047285 89.72236053 -190.03194033 88.49571721 -188.95068359 87.27148438 C-187.28474383 85.37709898 -185.6583945 83.45046086 -184.02636719 81.52685547 C-179.15029991 75.96452687 -173.78711743 70.84582609 -168.52636719 65.65185547 C-167.80835938 64.87326172 -167.09035156 64.09466797 -166.35058594 63.29248047 C-164.52636719 61.65185547 -164.52636719 61.65185547 -161.52636719 61.65185547 C-161.28917969 61.06919922 -161.05199219 60.48654297 -160.80761719 59.88623047 C-159.25368658 57.1763271 -157.50707287 55.78654745 -155.02636719 53.90185547 C-154.23230469 53.28826172 -153.43824219 52.67466797 -152.62011719 52.04248047 C-150.52636719 50.65185547 -150.52636719 50.65185547 -148.52636719 50.65185547 C-148.52636719 49.99185547 -148.52636719 49.33185547 -148.52636719 48.65185547 C-146.87815475 47.62172269 -145.20525159 46.63120471 -143.52636719 45.65185547 C-141.52296925 44.18161989 -139.55376468 42.67306643 -137.58886719 41.15185547 C-135.30784648 39.49293132 -132.95880997 38.08065424 -130.52636719 36.65185547 C-129.3461315 35.93139856 -128.16649408 35.20996109 -126.98730469 34.48779297 C-111.89538782 25.34772288 -96.40738361 17.86304616 -79.63574219 12.35791016 C-77.51329252 11.64747909 -75.41080489 10.89383084 -73.30761719 10.12841797 C-48.96499952 1.37853275 -25.62270994 -0.1617824 0 0 Z " fill="#A0DD31" transform="translate(250.5263671875,-0.65185546875)"/>
<path d="M0 0 C8.35154568 6.23997173 16.12095482 15.22532964 18.1953125 25.6953125 C18.63271985 35.50893902 15.28921425 43.5178418 11.53515625 52.36328125 C8.4780669 59.68685794 7.71370155 66.41202105 8.53515625 74.36328125 C9.9344057 77.66429256 9.9344057 77.66429256 11.53515625 80.36328125 C12.16015625 83.73828125 12.16015625 83.73828125 11.53515625 87.36328125 C8.75854423 91.36875797 5.22040446 94.67803304 1.78515625 98.11328125 C-0.98131083 102.10928925 -1.71020025 105.72632954 -2.59375 110.4609375 C-3.64228914 113.95450065 -4.87974665 115.79132872 -7.46484375 118.36328125 C-10.453125 119.83984375 -10.453125 119.83984375 -13.77734375 120.98828125 C-14.92589844 121.40335938 -16.07445312 121.8184375 -17.2578125 122.24609375 C-18.31613281 122.61476562 -19.37445313 122.9834375 -20.46484375 123.36328125 C-25.5238038 125.13262891 -27.82651321 126.55496287 -30.46484375 131.36328125 C-21.14407841 137.70598332 -11.68637294 143.77462511 -2.05200195 149.6315918 C2.32850336 152.31050556 6.58934924 155.0748804 10.76953125 158.05859375 C23.95066364 167.39410078 40.87458376 173.79499955 57.09765625 173.55078125 C58.48778931 173.54002563 58.48778931 173.54002563 59.90600586 173.52905273 C68.47192436 173.43507476 77.03547638 173.18844537 85.59765625 172.92578125 C86.880354 172.88670654 88.16305176 172.84763184 89.48461914 172.80737305 C105.50783211 172.57381746 105.50783211 172.57381746 121.03515625 169.17578125 C122.39001986 168.72863099 123.74552526 168.28342211 125.1015625 167.83984375 C125.81199707 167.60297852 126.52243164 167.36611328 127.25439453 167.12207031 C151.39664659 159.09015858 174.63525925 156.9283255 198.2578125 168.72265625 C206.40560599 173.56508443 213.57310395 179.50800307 217.53515625 188.36328125 C217.53515625 189.68328125 217.53515625 191.00328125 217.53515625 192.36328125 C212.80025599 193.87613911 208.82789948 194.613077 203.81225586 194.61865234 C202.51658188 194.62561127 201.2209079 194.63257019 199.88597107 194.63973999 C199.2024954 194.63905895 198.51901974 194.63837791 197.81483269 194.63767624 C195.64692495 194.63670049 193.47949908 194.64977867 191.31166077 194.66665649 C185.15190404 194.7125901 178.99219779 194.73748143 172.83227539 194.74414062 C169.05031303 194.7492121 165.26885325 194.77374505 161.48706245 194.80946732 C160.06125497 194.81913947 158.63537721 194.82166761 157.20954704 194.81629562 C144.17624166 194.76952245 132.5707102 197.03399977 121.16015625 203.55078125 C120.4544751 203.93661377 119.74879395 204.32244629 119.02172852 204.7199707 C115.46983306 206.67242609 111.9599526 208.69288554 108.4609375 210.73828125 C91.54043803 220.58278545 71.96340865 229.33832105 51.97900391 224.78027344 C46.62126351 223.24949047 41.40931656 221.33674655 36.20068359 219.36425781 C31.82016511 217.71925637 27.39393201 216.20699523 22.97265625 214.67578125 C18.67594753 213.17573706 14.38160951 211.67406569 10.109375 210.10546875 C3.577721 207.76964546 -2.73707496 206.57174842 -9.62890625 205.7578125 C-12.46484375 205.36328125 -12.46484375 205.36328125 -14.46484375 204.36328125 C-34.72309048 202.72652224 -50.89275886 209.73281874 -66.46484375 222.36328125 C-69.88249952 225.27877077 -73.19537995 228.2831022 -76.46484375 231.36328125 C-77.05523437 231.90082031 -77.645625 232.43835938 -78.25390625 232.9921875 C-83.22859182 237.69574092 -87.31245338 243.12298682 -91.484375 248.52734375 C-93.51271495 251.15304838 -95.57281736 253.74833182 -97.6640625 256.32421875 C-98.19427002 256.97841797 -98.72447754 257.63261719 -99.27075195 258.30664062 C-100.28298676 259.55275884 -101.29823341 260.79643941 -102.31713867 262.03710938 C-105.74278827 266.26959038 -108.6726358 270.69032723 -111.46484375 275.36328125 C-106.13236284 270.76255206 -106.13236284 270.76255206 -101 265.94140625 C-92.45828286 257.65704357 -82.87444162 251.30224665 -72.86914062 244.90380859 C-70.85249194 243.61166266 -68.85116489 242.30065242 -66.85546875 240.9765625 C-58.18882624 235.37843936 -49.02195551 231.18524329 -39.46484375 227.36328125 C-38.33691406 226.904375 -37.20898438 226.44546875 -36.046875 225.97265625 C-28.44018843 223.3413542 -21.15576483 222.96512754 -13.15234375 222.86328125 C-12.13769043 222.84458984 -11.12303711 222.82589844 -10.07763672 222.80664062 C-0.36603132 222.889496 6.70441393 225.83814375 13.8125 232.4375 C16.49238958 235.43338563 18.12311996 238.62348215 19.53515625 242.36328125 C19.88964844 243.25273437 20.24414062 244.1421875 20.609375 245.05859375 C25.61197211 262.9159657 18.50239663 280.75185745 11.15234375 296.796875 C9.86652608 299.63250672 8.69572119 302.45292328 7.59765625 305.36328125 C0.40856395 323.56351492 -10.03505708 340.86763539 -20.46484375 357.36328125 C-21.35816406 358.79414062 -21.35816406 358.79414062 -22.26953125 360.25390625 C-25.12312539 364.7942916 -28.06084131 369.21320137 -31.21484375 373.55078125 C-36.34472988 380.78553097 -39.66387684 389.37053307 -38.46484375 398.36328125 C-37.59855401 400.79676789 -36.58071479 403.06770012 -35.4375 405.3828125 C-34.46484375 407.36328125 -34.46484375 407.36328125 -33.46484375 410.36328125 C-27.64884037 413.89577788 -20.53525772 415.46812699 -13.93359375 416.8359375 C-12.19711404 417.20686275 -10.46814747 417.61388735 -8.74609375 418.046875 C-2.68354028 419.5547008 3.24206339 420.61772483 9.4375 421.3894043 C27.87021613 423.69834113 27.87021613 423.69834113 33.53515625 429.36328125 C33.53515625 431.67328125 33.53515625 433.98328125 33.53515625 436.36328125 C13.07515625 436.36328125 -7.38484375 436.36328125 -28.46484375 436.36328125 C-27.01950544 440.69929618 -23.76735161 441.60165227 -19.90234375 443.55078125 C-19.14381104 443.94515381 -18.38527832 444.33952637 -17.60375977 444.74584961 C-13.78777509 446.71884448 -9.94675958 448.6226932 -6.05859375 450.44921875 C9.0599923 457.59424395 9.0599923 457.59424395 13.53515625 464.36328125 C14.41015625 467.55078125 14.41015625 467.55078125 13.53515625 470.36328125 C8.50998887 476.18189611 2.35580617 476.95401495 -5.06445312 477.58398438 C-7.72267373 477.70217203 -10.36652514 477.74304931 -13.02734375 477.73828125 C-13.98261963 477.73666992 -14.93789551 477.73505859 -15.92211914 477.73339844 C-24.00502747 477.59579406 -31.28968377 476.29504324 -39.04492188 474.05371094 C-47.23732224 471.71633117 -55.49748065 469.60194661 -63.75390625 467.50390625 C-75.48226681 464.50108025 -87.15658434 461.43212931 -98.52734375 457.23828125 C-99.37055176 456.93825195 -100.21375977 456.63822266 -101.08251953 456.32910156 C-107.04263501 454.02315599 -110.54178223 451.20940428 -113.46484375 445.36328125 C-114.13042091 437.42147926 -109.99601471 430.55217362 -104.98632812 424.609375 C-102.80553993 422.22888093 -100.56290659 419.9136277 -98.31152344 417.60009766 C-92.9668953 412.03470643 -89.15409323 406.16506995 -85.46484375 399.36328125 C-84.93503906 398.41195313 -84.40523438 397.460625 -83.859375 396.48046875 C-76.02354692 381.69512734 -72.16062034 365.8726739 -68.77734375 349.61328125 C-68.39754695 347.82529479 -68.01669066 346.03753306 -67.63476562 344.25 C-67.07967768 341.64979984 -66.52527348 339.04947696 -65.97454834 336.448349 C-57.04178313 294.26882155 -57.04178313 294.26882155 -45.91796875 279.32421875 C-44.42487495 277.42768837 -44.42487495 277.42768837 -43.46484375 275.36328125 C-53.76849949 279.09684121 -60.87398859 286.79779043 -68.46484375 294.36328125 C-69.2021875 295.06582031 -69.93953125 295.76835937 -70.69921875 296.4921875 C-80.25558271 306.28965238 -85.84641073 321.87178676 -88.3828125 335.02734375 C-89.45969583 340.55074629 -90.89561623 345.94361652 -92.40234375 351.36328125 C-92.65435547 352.28367187 -92.90636719 353.2040625 -93.16601562 354.15234375 C-93.9205928 356.89275191 -94.69022592 359.62847678 -95.46484375 362.36328125 C-95.70726807 363.23718506 -95.94969238 364.11108887 -96.19946289 365.01147461 C-97.70185509 370.26410156 -99.51454512 375.07725827 -102.02734375 379.92578125 C-102.37031494 380.59706055 -102.71328613 381.26833984 -103.06665039 381.95996094 C-122.812492 420.06736323 -122.812492 420.06736323 -138.46484375 426.36328125 C-147.6076444 427.48653962 -153.67923834 426.05592621 -160.859375 420.515625 C-176.54266864 407.24143945 -186.05478351 388.90477853 -190.99023438 369.23388672 C-191.40390193 367.60347477 -191.86044793 365.98406121 -192.32421875 364.3671875 C-194.36689573 357.01980347 -195.38942076 349.55906832 -196.37548828 342.01074219 C-196.92777337 337.83285869 -197.56166936 333.73949632 -198.515625 329.6328125 C-204.05860743 305.65882159 -203.36456568 271.56894918 -195.17163086 248.40869141 C-194.21553155 245.64178295 -193.5444287 242.8428075 -192.90234375 239.98828125 C-192.65226562 238.87839844 -192.4021875 237.76851562 -192.14453125 236.625 C-191.53293669 233.69004911 -191.01388829 230.75845992 -190.52734375 227.80078125 C-188.71088786 217.66378548 -184.8749263 208.75098967 -180.1484375 199.6875 C-179.00479879 197.42941058 -177.94013171 195.12993749 -176.94921875 192.80078125 C-170.17991924 177.1245087 -159.16010487 163.47389268 -148.70703125 150.1171875 C-146.07263097 146.6897086 -143.7915348 143.24789495 -141.65234375 139.48828125 C-134.12813908 126.7264484 -122.24942797 117.29834081 -110.48828125 108.62109375 C-97.73933609 99.24491556 -97.73933609 99.24491556 -87.46484375 87.36328125 C-88.68171875 87.13640625 -89.89859375 86.90953125 -91.15234375 86.67578125 C-96.70963915 85.2987523 -99.35198092 82.0325755 -102.46484375 77.36328125 C-103.51303366 70.52958133 -101.64163539 63.9040166 -99.83984375 57.36328125 C-99.56769043 56.35652344 -99.29553711 55.34976563 -99.01513672 54.3125 C-92.42137756 30.38494516 -83.73299584 6.63333247 -61.15234375 -6.57421875 C-44.26976478 -13.24872672 -15.10762623 -10.03184689 0 0 Z " fill="#556B2F" transform="translate(268.46484375,17.63671875)"/>
</svg>
