<?xml version="1.0" encoding="UTF-8"?>
<svg version="1.1" xmlns="http://www.w3.org/2000/svg" width="160" height="160">
<path d="M0 0 C5.94 0 11.88 0 18 0 C18 18.15 18 36.3 18 55 C12.06 55.33 6.12 55.66 0 56 C-8.09657532 58.43767859 -12.82900389 61.22552773 -17.25 68.5625 C-20.26657642 74.48791797 -21.09944864 80.07425134 -19.28125 86.56640625 C-16.21745889 94.85593784 -11.76287099 99.04799295 -4 103 C2.77012018 105.62069168 9.36251328 103.98776218 15.73828125 101.1953125 C21.4198754 98.19260471 24.18102397 93.53727435 27 88 C28.78592903 80.8562839 28.59154241 73.35223671 29 66 C47.15 66 65.3 66 84 66 C84 71.94 84 77.88 84 84 C71.46 84 58.92 84 46 84 C45.67 86.64 45.34 89.28 45 92 C41.20005222 103.59608476 33.6104709 112.91455321 22.75 118.4375 C12.1442678 123.47934419 -0.87656661 123.92056808 -12 120.0625 C-21.25519828 115.95557889 -29.60994853 108.26892777 -34.125 99.125 C-34.43695313 98.50882812 -34.74890625 97.89265625 -35.0703125 97.2578125 C-39.63274466 86.17762011 -39.55571738 73.74754437 -35.26171875 62.61328125 C-33.31975922 58.59108024 -30.97227112 55.31771668 -28 52 C-27.49855469 51.39542969 -26.99710938 50.79085937 -26.48046875 50.16796875 C-19.18741463 42.02317108 -10.6655333 39.18505926 0 38 C0 25.46 0 12.92 0 0 Z " fill="#D54E5C" transform="translate(76,0)"/>
<path d="M0 0 C8.91 0 17.82 0 27 0 C27.70125 2.43375 28.4025 4.8675 29.125 7.375 C31.21325095 14.2290667 33.74567777 20.17000287 38 26 C38.51175781 26.70511719 39.02351563 27.41023438 39.55078125 28.13671875 C48.36419879 39.17978368 60.89367375 43.25533536 74 47 C74 55.91 74 64.82 74 74 C49.58 74 25.16 74 0 74 C0 49.58 0 25.16 0 0 Z " fill="#F585F1" transform="translate(0,86)"/>
<path d="M0 0 C9.57 0 19.14 0 29 0 C29 22.11 29 44.22 29 67 C4.58 67 -19.84 67 -45 67 C-45 58.09 -45 49.18 -45 40 C-42.56625 39.29875 -40.1325 38.5975 -37.625 37.875 C-30.7709333 35.78674905 -24.82999713 33.25432223 -19 29 C-18.29488281 28.48824219 -17.58976562 27.97648437 -16.86328125 27.44921875 C-7.6568277 20.10159201 -3.97710634 10.93704243 0 0 Z " fill="#D25C91" transform="translate(131,93)"/>
<path d="M0 0 C22.11 0 44.22 0 67 0 C67 9.24 67 18.48 67 28 C64.545625 29.175625 62.09125 30.35125 59.5625 31.5625 C45.06441271 38.75385507 36.11525106 47.71187234 30.0078125 62.98046875 C28.80235754 66.59216134 27.92346677 70.3061329 27 74 C18.09 74 9.18 74 0 74 C0 49.58 0 25.16 0 0 Z " fill="#AA76E2" transform="translate(0,0)"/>
</svg>
