<?xml version="1.0" encoding="UTF-8"?>
<svg version="1.1" xmlns="http://www.w3.org/2000/svg" width="160" height="160">
<path d="M0 0 C52.8 0 105.6 0 160 0 C160 52.8 160 105.6 160 160 C107.2 160 54.4 160 0 160 C0 107.2 0 54.4 0 0 Z " fill="#A30C01" transform="translate(0,0)"/>
<path d="M0 0 C4.29760913 2.19511501 6.84107193 4.98885375 8.875 9.30078125 C9.76678802 14.94539407 9.14084864 19.51086992 5.875 24.30078125 C1.87153611 28.33706042 -1.71091754 30.42536231 -7.4375 30.61328125 C-12.07572771 30.54551494 -14.58713699 29.42726484 -18.125 26.30078125 C-22.16866083 20.94566286 -23.6962466 17.0414911 -23.125 10.30078125 C-18.02673161 0.49641896 -10.80481721 -3.55526154 0 0 Z " fill="#FCF8F8" transform="translate(106.125,108.69921875)"/>
<path d="M0 0 C3.4375 1.6875 3.4375 1.6875 6 4 C6.78375 4.66 7.5675 5.32 8.375 6 C10.9878759 10.82377088 10.72605111 15.64174278 10 21 C8.0171377 25.03654111 5.83420139 27.6500056 2 30 C-3.17696965 31.72565655 -8.76809853 31.87335275 -13.875 29.875 C-18.30310118 25.9678519 -20.79704761 21.63838112 -21.25 15.75 C-20.92408388 10.86125821 -19.93670054 7.19051315 -16.62890625 3.44921875 C-11.65594332 -0.7843588 -6.28754169 -1.02576209 0 0 Z " fill="#FDFBFA" transform="translate(42,67)"/>
<path d="M0 0 C4.54530141 2.3026527 8.16976892 5.14899917 10 10 C10.6773018 15.21364875 10.63590295 19.65482068 8.375 24.4375 C3.85670376 29.31250384 0.684939 31.25638274 -6 31.5625 C-9.83187915 31.42954756 -12.51745533 31.22411432 -15.5625 28.8125 C-20.08756468 23.59127152 -21.57842293 20.37346046 -21.3515625 13.43359375 C-20.64426244 8.53750557 -17.96267701 5.84807261 -14.375 2.6875 C-9.74082159 -0.60520572 -5.58608567 -0.87129908 0 0 Z " fill="#FDFAFA" transform="translate(108,32)"/>
<path d="M0 0 C3 1 3 1 4.09765625 2.85546875 C4.41605469 3.62503906 4.73445313 4.39460938 5.0625 5.1875 C5.38347656 5.94417969 5.70445312 6.70085937 6.03515625 7.48046875 C6.35355469 8.31191406 6.67195312 9.14335938 7 10 C7.36480469 10.886875 7.72960937 11.77375 8.10546875 12.6875 C9.30068986 17.11347162 9.2908907 21.24977898 9.25 25.8125 C9.25773437 26.66392578 9.26546875 27.51535156 9.2734375 28.39257812 C9.24678063 37.14269407 7.76131526 44.34407767 3.5 52 C2.8915625 53.11375 2.283125 54.2275 1.65625 55.375 C0 58 0 58 -2 59 C-2.50660156 58.04287109 -2.50660156 58.04287109 -3.0234375 57.06640625 C-3.46945313 56.24011719 -3.91546875 55.41382813 -4.375 54.5625 C-4.81585938 53.73878906 -5.25671875 52.91507813 -5.7109375 52.06640625 C-6.83418559 49.86533422 -6.83418559 49.86533422 -9 49 C-8.50787016 45.85036901 -7.72193975 43.33594351 -6.48046875 40.37109375 C-4.7765347 35.8768971 -4.53951223 31.83251416 -4.625 27.0625 C-4.63370117 25.88324951 -4.63370117 25.88324951 -4.64257812 24.68017578 C-4.77075553 18.95373139 -5.65626175 14.27341106 -8 9 C-5.36 6.03 -2.72 3.06 0 0 Z " fill="#FBF6F6" transform="translate(123,58)"/>
<path d="M0 0 C1.703125 1.85546875 1.703125 1.85546875 3.25 4.1875 C9.96561328 13.266548 18.31131715 16.19153619 29 19 C29.1546875 20.546875 29.1546875 20.546875 29.3125 22.125 C29.99127797 25.95083945 31.11158795 28.63370025 33 32 C20.049681 32.87798773 8.13900526 28.13127049 -1.62890625 19.7421875 C-7.16228435 14.48094275 -11.7188479 8.93576867 -15 2 C-15 1.34 -15 0.68 -15 0 C-13.43867691 -0.1970602 -11.87584736 -0.38220155 -10.3125 -0.5625 C-9.44238281 -0.66691406 -8.57226562 -0.77132812 -7.67578125 -0.87890625 C-4.81905521 -1.00818874 -2.71805811 -0.90452675 0 0 Z " fill="#FBF6F6" transform="translate(48,105)"/>
<path d="M0 0 C-2.46011266 2.66444095 -5.20234357 4.57875737 -8.1875 6.625 C-16.92329707 12.94574206 -24.12165352 20.28254581 -26.45703125 31.12109375 C-26.70119967 32.73911646 -26.86123846 34.36955192 -27 36 C-27.74765625 36.06058594 -28.4953125 36.12117188 -29.265625 36.18359375 C-30.25046875 36.26738281 -31.2353125 36.35117187 -32.25 36.4375 C-33.22453125 36.51871094 -34.1990625 36.59992187 -35.203125 36.68359375 C-37.56461753 36.95074584 -39.71901065 37.35371968 -42 38 C-42.800114 28.39863195 -39.88449331 20.10364803 -33.75 12.625 C-23.82425144 2.26863329 -14.00743548 -0.57652555 0 0 Z " fill="#FBF4F4" transform="translate(108,11)"/>
<path d="M0 0 C-0.33 0.66 -0.66 1.32 -1 2 C-1.07713002 4.14535729 -1.13725556 6.29134473 -1.1875 8.4375 C-1.4375 12.00390625 -1.4375 12.00390625 -2 15 C-4.6875 16.875 -4.6875 16.875 -8 18 C-10.20439515 20.17453878 -12.10829519 22.55151682 -14 25 C-18.38332057 24.17812739 -22.67940177 23.09845718 -27 22 C-23.13683638 13.92247608 -10.15446494 -3.38482165 0 0 Z " fill="#FAF4F3" transform="translate(63,38)"/>
<path d="M0 0 C0.66 0.33 1.32 0.66 2 1 C-0.64 3.64 -3.28 6.28 -6 9 C-6 6 -6 6 -3.5625 3.375 C-2.716875 2.59125 -1.87125 1.8075 -1 1 C-0.67 0.67 -0.34 0.34 0 0 Z " fill="#EED3D1" transform="translate(29,68)"/>
</svg>
