<?xml version="1.0" encoding="UTF-8"?>
<svg version="1.1" xmlns="http://www.w3.org/2000/svg" width="160" height="160">
<path d="M0 0 C1.1875 2.1875 1.1875 2.1875 2 5 C-0.15583673 10.68444843 -5.29680151 13.07479681 -10.25 16.0625 C-11.08402344 16.57876953 -11.91804688 17.09503906 -12.77734375 17.62695312 C-17.46467865 20.51514614 -22.20366385 23.29719976 -27 26 C-23.85401203 28.54099028 -20.79204099 30.55902442 -17 32 C-12.9954413 30.95309394 -9.34140793 29.28398455 -5.59716797 27.53735352 C7.622293 21.42183908 22.57344372 16.23854305 37.28515625 19.5078125 C42.09302077 21.28396627 44.4252406 24.53589805 47.0859375 28.69921875 C48.38340382 31.96506345 48.30201179 34.87193788 48.3125 38.375 C48.32925781 39.66148438 48.34601563 40.94796875 48.36328125 42.2734375 C47.91187024 46.90404076 46.65187706 50.18895771 43.5 53.64453125 C35.94608061 59.52635911 26.99650255 58.74583365 17.859375 57.609375 C7.93634765 55.58320711 -1.45257336 51.55371867 -10.82446289 47.80029297 C-15.29215219 46.02604297 -15.29215219 46.02604297 -19.78515625 47.23046875 C-20.86667969 47.87628906 -21.94820313 48.52210937 -23.0625 49.1875 C-23.65377686 49.53756104 -24.24505371 49.88762207 -24.85424805 50.24829102 C-38.66359481 57.67585833 -38.66359481 57.67585833 -51 67 C-53.375 67.3125 -53.375 67.3125 -56 67 C-57.875 65.3125 -57.875 65.3125 -59 63 C-58.921875 60.62109375 -58.921875 60.62109375 -58 58 C-55.5859375 55.859375 -55.5859375 55.859375 -52.375 53.75 C-51.8075708 53.37302979 -51.2401416 52.99605957 -50.65551758 52.60766602 C-43.91213722 48.18006472 -36.96137848 44.07283969 -30 40 C-31.485 39.01 -31.485 39.01 -33 38 C-33.54914063 37.55398437 -34.09828125 37.10796875 -34.6640625 36.6484375 C-37.24203104 34.97429857 -38.91352281 34.32125388 -42 34 C-46.43179152 35.27317599 -50.45012032 37.63336385 -54.5234375 39.75 C-66.13401546 45.75876298 -81.02543611 50.4656598 -94 47 C-98.5623899 45.13086447 -101.45464473 42.17610831 -104 38 C-106.85368257 30.73608072 -106.61511007 24.31954257 -103.9765625 17.08203125 C-102.05096066 12.97664814 -99.41394173 10.72421406 -95.4375 8.6875 C-79.74610628 5.54922126 -58.68510038 11.31679511 -44.828125 19.2421875 C-42.24409701 20.3133444 -40.6818582 19.69461931 -38 19 C-35.84899483 18.02816069 -35.84899483 18.02816069 -33.77734375 16.77734375 C-32.99713867 16.32464111 -32.21693359 15.87193848 -31.41308594 15.40551758 C-30.1876709 14.67884888 -30.1876709 14.67884888 -28.9375 13.9375 C-28.09348633 13.44596436 -27.24947266 12.95442871 -26.37988281 12.44799805 C-20.57301452 9.03366156 -15.03977979 5.39648221 -9.640625 1.36328125 C-6.28331467 -0.37000471 -3.72460724 -0.2431086 0 0 Z M-94 21 C-95.7473737 24.49474739 -95.55225821 28.18678856 -95 32 C-93.31366812 35.26977606 -93.31366812 35.26977606 -90 37 C-77.71323622 39.27614509 -65.05353025 32.60936686 -54 28 C-63.90422121 21.39718586 -83.2337215 14.14873186 -94 21 Z M-3 38 C-2.20496525 40.11403063 -2.20496525 40.11403063 -0.36108398 40.74609375 C0.33686279 40.97425781 1.03480957 41.20242187 1.75390625 41.4375 C2.52669922 41.69273438 3.29949219 41.94796875 4.09570312 42.2109375 C4.90974609 42.47132812 5.72378906 42.73171875 6.5625 43 C7.34947266 43.26039062 8.13644531 43.52078125 8.94726562 43.7890625 C20.73130837 47.88237957 20.73130837 47.88237957 33 48 C36.2301177 46.1866503 36.2301177 46.1866503 38 43 C38.84350003 38.93809694 38.36594362 35.8599675 36.75 32.0625 C34.72156322 29.67184236 34.08068572 29.25672381 31 29 C19.07600788 28.56215451 7.70526385 33.13578328 -3 38 Z " fill="#FF6A00" transform="translate(108,46)"/>
</svg>
