<?xml version="1.0" encoding="UTF-8"?>
<svg version="1.1" xmlns="http://www.w3.org/2000/svg" width="512" height="512">
<path d="M0 0 C1.83655907 -0.0049926 1.83655907 -0.0049926 3.71022034 -0.01008606 C6.29110339 -0.01512334 8.87199289 -0.01749538 11.45288086 -0.01733398 C15.33653948 -0.01950754 19.21990758 -0.03766253 23.10351562 -0.05664062 C40.5389089 -0.09597896 57.88031378 0.18704717 74.94140625 4.16796875 C74.94140625 4.82796875 74.94140625 5.48796875 74.94140625 6.16796875 C75.81023437 6.20535156 76.6790625 6.24273438 77.57421875 6.28125 C83.751224 6.63362949 88.53536911 6.92434647 93.94140625 10.16796875 C96.6771321 10.86704289 96.6771321 10.86704289 98.94140625 11.16796875 C98.94140625 11.82796875 98.94140625 12.48796875 98.94140625 13.16796875 C100.22015625 13.25046875 101.49890625 13.33296875 102.81640625 13.41796875 C111.16342657 14.35847808 118.44151242 18.29563214 125.8125 22.1171875 C128.03863932 23.27611337 128.03863932 23.27611337 130.94140625 24.16796875 C130.94140625 24.82796875 130.94140625 25.48796875 130.94140625 26.16796875 C132.26140625 26.16796875 133.58140625 26.16796875 134.94140625 26.16796875 C134.94140625 26.82796875 134.94140625 27.48796875 134.94140625 28.16796875 C135.66328125 28.27109375 136.38515625 28.37421875 137.12890625 28.48046875 C140.25323676 29.24419399 142.22062772 30.45957293 144.94140625 32.16796875 C147.5886737 33.54099179 150.26229393 34.85832824 152.94140625 36.16796875 C152.94140625 36.82796875 152.94140625 37.48796875 152.94140625 38.16796875 C154.92140625 38.82796875 156.90140625 39.48796875 158.94140625 40.16796875 C158.94140625 40.82796875 158.94140625 41.48796875 158.94140625 42.16796875 C160.26140625 42.49796875 161.58140625 42.82796875 162.94140625 43.16796875 C162.94140625 43.82796875 162.94140625 44.48796875 162.94140625 45.16796875 C163.49828125 45.25046875 164.05515625 45.33296875 164.62890625 45.41796875 C167.67818544 46.40692416 169.59330588 48.01554341 171.94140625 50.16796875 C171.94140625 50.82796875 171.94140625 51.48796875 171.94140625 52.16796875 C173.26140625 52.16796875 174.58140625 52.16796875 175.94140625 52.16796875 C175.94140625 52.82796875 175.94140625 53.48796875 175.94140625 54.16796875 C176.93140625 54.49796875 177.92140625 54.82796875 178.94140625 55.16796875 C178.94140625 55.82796875 178.94140625 56.48796875 178.94140625 57.16796875 C179.93140625 57.16796875 180.92140625 57.16796875 181.94140625 57.16796875 C181.94140625 57.82796875 181.94140625 58.48796875 181.94140625 59.16796875 C182.60140625 59.16796875 183.26140625 59.16796875 183.94140625 59.16796875 C183.94140625 59.82796875 183.94140625 60.48796875 183.94140625 61.16796875 C184.49828125 61.20921875 185.05515625 61.25046875 185.62890625 61.29296875 C188.53269212 62.39169854 189.77409874 64.19722424 191.63671875 66.609375 C193.06219364 68.41664948 193.06219364 68.41664948 195.75390625 70.41796875 C196.47578125 70.99546875 197.19765625 71.57296875 197.94140625 72.16796875 C197.94140625 72.82796875 197.94140625 73.48796875 197.94140625 74.16796875 C198.60140625 74.16796875 199.26140625 74.16796875 199.94140625 74.16796875 C201.16730802 75.62579788 202.38856294 77.08818759 203.5703125 78.58203125 C205.04374366 80.3925019 205.04374366 80.3925019 207.69140625 82.29296875 C210.07059177 84.27562335 210.61791887 85.14875322 210.94140625 88.16796875 C211.60140625 88.16796875 212.26140625 88.16796875 212.94140625 88.16796875 C212.94140625 88.82796875 212.94140625 89.48796875 212.94140625 90.16796875 C213.60140625 90.16796875 214.26140625 90.16796875 214.94140625 90.16796875 C214.94140625 91.15796875 214.94140625 92.14796875 214.94140625 93.16796875 C215.93140625 93.49796875 216.92140625 93.82796875 217.94140625 94.16796875 C217.94140625 94.82796875 217.94140625 95.48796875 217.94140625 96.16796875 C218.60140625 96.16796875 219.26140625 96.16796875 219.94140625 96.16796875 C219.94140625 97.48796875 219.94140625 98.80796875 219.94140625 100.16796875 C220.53953125 100.41546875 221.13765625 100.66296875 221.75390625 100.91796875 C224.27727494 102.35989372 225.44170701 103.69346501 226.94140625 106.16796875 C226.94140625 107.15796875 226.94140625 108.14796875 226.94140625 109.16796875 C227.93140625 109.49796875 228.92140625 109.82796875 229.94140625 110.16796875 C229.94140625 111.15796875 229.94140625 112.14796875 229.94140625 113.16796875 C230.60140625 113.16796875 231.26140625 113.16796875 231.94140625 113.16796875 C232.60140625 115.14796875 233.26140625 117.12796875 233.94140625 119.16796875 C234.60140625 119.16796875 235.26140625 119.16796875 235.94140625 119.16796875 C236.35132813 119.99941406 236.76125 120.83085938 237.18359375 121.6875 C237.72242188 122.77417969 238.26125 123.86085938 238.81640625 124.98046875 C239.35007812 126.05941406 239.88375 127.13835937 240.43359375 128.25 C241.91361764 131.2463514 241.91361764 131.2463514 243.94140625 134.16796875 C243.94140625 135.15796875 243.94140625 136.14796875 243.94140625 137.16796875 C244.60140625 137.16796875 245.26140625 137.16796875 245.94140625 137.16796875 C245.94140625 138.48796875 245.94140625 139.80796875 245.94140625 141.16796875 C246.60140625 141.16796875 247.26140625 141.16796875 247.94140625 141.16796875 C248.27914063 142.01101562 248.616875 142.8540625 248.96484375 143.72265625 C249.41085937 144.81835938 249.856875 145.9140625 250.31640625 147.04296875 C250.75726563 148.13351563 251.198125 149.2240625 251.65234375 150.34765625 C252.77191963 153.23126237 252.77191963 153.23126237 254.94140625 155.16796875 C255.71879089 157.24761453 256.41719733 159.35731514 257.06640625 161.48046875 C257.41960937 162.61097656 257.7728125 163.74148437 258.13671875 164.90625 C258.85848028 167.83183677 259.10967187 170.17844954 258.94140625 173.16796875 C259.60140625 173.16796875 260.26140625 173.16796875 260.94140625 173.16796875 C261.67903104 175.61196556 262.41338462 178.05679407 263.140625 180.50390625 C263.77924888 182.62849887 264.44886696 184.74376781 265.12890625 186.85546875 C265.99969567 190.40561022 266.09003531 193.52655673 265.94140625 197.16796875 C266.60140625 197.16796875 267.26140625 197.16796875 267.94140625 197.16796875 C268.42529177 200.10475822 268.90358036 203.04229151 269.37890625 205.98046875 C269.51361328 206.79451172 269.64832031 207.60855469 269.78710938 208.44726562 C271.49138047 219.0470005 272.09898345 229.49566258 272.109375 240.2265625 C272.1127034 241.45093521 272.1160318 242.67530792 272.11946106 243.93678284 C272.12449834 246.51766589 272.12687038 249.09855539 272.12670898 251.67944336 C272.12888254 255.56310198 272.14703753 259.44647008 272.16601562 263.33007812 C272.20535396 280.7654714 271.92232783 298.10687628 267.94140625 315.16796875 C267.28140625 315.16796875 266.62140625 315.16796875 265.94140625 315.16796875 C265.90402344 316.03679687 265.86664063 316.905625 265.828125 317.80078125 C265.47574551 323.9777865 265.18502853 328.76193161 261.94140625 334.16796875 C261.24233211 336.9036946 261.24233211 336.9036946 260.94140625 339.16796875 C260.28140625 339.16796875 259.62140625 339.16796875 258.94140625 339.16796875 C258.85890625 340.44671875 258.77640625 341.72546875 258.69140625 343.04296875 C257.75089692 351.38998907 253.81374286 358.66807492 249.9921875 366.0390625 C248.83326163 368.26520182 248.83326163 368.26520182 247.94140625 371.16796875 C247.28140625 371.16796875 246.62140625 371.16796875 245.94140625 371.16796875 C245.94140625 372.48796875 245.94140625 373.80796875 245.94140625 375.16796875 C245.28140625 375.16796875 244.62140625 375.16796875 243.94140625 375.16796875 C243.83828125 375.88984375 243.73515625 376.61171875 243.62890625 377.35546875 C242.86518101 380.47979926 241.64980207 382.44719022 239.94140625 385.16796875 C238.56838321 387.8152362 237.25104676 390.48885643 235.94140625 393.16796875 C235.28140625 393.16796875 234.62140625 393.16796875 233.94140625 393.16796875 C233.28140625 395.14796875 232.62140625 397.12796875 231.94140625 399.16796875 C231.28140625 399.16796875 230.62140625 399.16796875 229.94140625 399.16796875 C229.61140625 400.48796875 229.28140625 401.80796875 228.94140625 403.16796875 C228.28140625 403.16796875 227.62140625 403.16796875 226.94140625 403.16796875 C226.85890625 403.72484375 226.77640625 404.28171875 226.69140625 404.85546875 C225.70245084 407.90474794 224.09383159 409.81986838 221.94140625 412.16796875 C221.28140625 412.16796875 220.62140625 412.16796875 219.94140625 412.16796875 C219.94140625 413.48796875 219.94140625 414.80796875 219.94140625 416.16796875 C219.28140625 416.16796875 218.62140625 416.16796875 217.94140625 416.16796875 C217.61140625 417.15796875 217.28140625 418.14796875 216.94140625 419.16796875 C216.28140625 419.16796875 215.62140625 419.16796875 214.94140625 419.16796875 C214.94140625 420.15796875 214.94140625 421.14796875 214.94140625 422.16796875 C214.28140625 422.16796875 213.62140625 422.16796875 212.94140625 422.16796875 C212.94140625 422.82796875 212.94140625 423.48796875 212.94140625 424.16796875 C212.28140625 424.16796875 211.62140625 424.16796875 210.94140625 424.16796875 C210.90015625 424.72484375 210.85890625 425.28171875 210.81640625 425.85546875 C209.71767646 428.75925462 207.91215076 430.00066124 205.5 431.86328125 C203.69272552 433.28875614 203.69272552 433.28875614 201.69140625 435.98046875 C201.11390625 436.70234375 200.53640625 437.42421875 199.94140625 438.16796875 C199.28140625 438.16796875 198.62140625 438.16796875 197.94140625 438.16796875 C197.94140625 438.82796875 197.94140625 439.48796875 197.94140625 440.16796875 C196.48357712 441.39387052 195.02118741 442.61512544 193.52734375 443.796875 C191.7168731 445.27030616 191.7168731 445.27030616 189.81640625 447.91796875 C187.83375165 450.29715427 186.96062178 450.84448137 183.94140625 451.16796875 C183.94140625 451.82796875 183.94140625 452.48796875 183.94140625 453.16796875 C183.28140625 453.16796875 182.62140625 453.16796875 181.94140625 453.16796875 C181.94140625 453.82796875 181.94140625 454.48796875 181.94140625 455.16796875 C180.95140625 455.16796875 179.96140625 455.16796875 178.94140625 455.16796875 C178.61140625 456.15796875 178.28140625 457.14796875 177.94140625 458.16796875 C177.28140625 458.16796875 176.62140625 458.16796875 175.94140625 458.16796875 C175.94140625 458.82796875 175.94140625 459.48796875 175.94140625 460.16796875 C174.62140625 460.16796875 173.30140625 460.16796875 171.94140625 460.16796875 C171.69390625 460.76609375 171.44640625 461.36421875 171.19140625 461.98046875 C169.74948128 464.50383744 168.41590999 465.66826951 165.94140625 467.16796875 C164.95140625 467.16796875 163.96140625 467.16796875 162.94140625 467.16796875 C162.61140625 468.15796875 162.28140625 469.14796875 161.94140625 470.16796875 C160.95140625 470.16796875 159.96140625 470.16796875 158.94140625 470.16796875 C158.94140625 470.82796875 158.94140625 471.48796875 158.94140625 472.16796875 C156.96140625 472.82796875 154.98140625 473.48796875 152.94140625 474.16796875 C152.94140625 474.82796875 152.94140625 475.48796875 152.94140625 476.16796875 C152.10996094 476.57789063 151.27851563 476.9878125 150.421875 477.41015625 C149.33519531 477.94898438 148.24851562 478.4878125 147.12890625 479.04296875 C146.04996094 479.57664062 144.97101563 480.1103125 143.859375 480.66015625 C140.8630236 482.14018014 140.8630236 482.14018014 137.94140625 484.16796875 C136.95140625 484.16796875 135.96140625 484.16796875 134.94140625 484.16796875 C134.94140625 484.82796875 134.94140625 485.48796875 134.94140625 486.16796875 C133.62140625 486.16796875 132.30140625 486.16796875 130.94140625 486.16796875 C130.94140625 486.82796875 130.94140625 487.48796875 130.94140625 488.16796875 C130.09835937 488.50570313 129.2553125 488.8434375 128.38671875 489.19140625 C127.29101562 489.63742187 126.1953125 490.0834375 125.06640625 490.54296875 C123.97585938 490.98382813 122.8853125 491.4246875 121.76171875 491.87890625 C118.87811263 492.99848213 118.87811263 492.99848213 116.94140625 495.16796875 C114.86176047 495.94535339 112.75205986 496.64375983 110.62890625 497.29296875 C108.93314453 497.82277344 108.93314453 497.82277344 107.203125 498.36328125 C104.27753823 499.08504278 101.93092546 499.33623437 98.94140625 499.16796875 C98.94140625 499.82796875 98.94140625 500.48796875 98.94140625 501.16796875 C96.49740944 501.90559354 94.05258093 502.63994712 91.60546875 503.3671875 C89.48087613 504.00581138 87.36560719 504.67542946 85.25390625 505.35546875 C81.70376478 506.22625817 78.58281827 506.31659781 74.94140625 506.16796875 C74.94140625 506.82796875 74.94140625 507.48796875 74.94140625 508.16796875 C72.00461678 508.65185427 69.06708349 509.13014286 66.12890625 509.60546875 C65.31486328 509.74017578 64.50082031 509.87488281 63.66210938 510.01367188 C53.0623745 511.71794297 42.61371242 512.32554595 31.8828125 512.3359375 C30.65843979 512.3392659 29.43406708 512.3425943 28.17259216 512.34602356 C25.59170911 512.35106084 23.01081961 512.35343288 20.42993164 512.35327148 C16.54627302 512.35544504 12.66290492 512.37360003 8.77929688 512.39257812 C-8.6560964 512.43191646 -25.99750128 512.14889033 -43.05859375 508.16796875 C-43.05859375 507.50796875 -43.05859375 506.84796875 -43.05859375 506.16796875 C-43.92742187 506.13058594 -44.79625 506.09320313 -45.69140625 506.0546875 C-51.8684115 505.70230801 -56.65255661 505.41159103 -62.05859375 502.16796875 C-64.7943196 501.46889461 -64.7943196 501.46889461 -67.05859375 501.16796875 C-67.05859375 500.50796875 -67.05859375 499.84796875 -67.05859375 499.16796875 C-68.33734375 499.08546875 -69.61609375 499.00296875 -70.93359375 498.91796875 C-79.28061407 497.97745942 -86.55869992 494.04030536 -93.9296875 490.21875 C-96.15582682 489.05982413 -96.15582682 489.05982413 -99.05859375 488.16796875 C-99.05859375 487.50796875 -99.05859375 486.84796875 -99.05859375 486.16796875 C-100.37859375 486.16796875 -101.69859375 486.16796875 -103.05859375 486.16796875 C-103.05859375 485.50796875 -103.05859375 484.84796875 -103.05859375 484.16796875 C-103.78046875 484.06484375 -104.50234375 483.96171875 -105.24609375 483.85546875 C-108.37042426 483.09174351 -110.33781522 481.87636457 -113.05859375 480.16796875 C-115.7058612 478.79494571 -118.37948143 477.47760926 -121.05859375 476.16796875 C-121.05859375 475.50796875 -121.05859375 474.84796875 -121.05859375 474.16796875 C-123.03859375 473.50796875 -125.01859375 472.84796875 -127.05859375 472.16796875 C-127.05859375 471.50796875 -127.05859375 470.84796875 -127.05859375 470.16796875 C-128.37859375 469.83796875 -129.69859375 469.50796875 -131.05859375 469.16796875 C-131.05859375 468.50796875 -131.05859375 467.84796875 -131.05859375 467.16796875 C-131.61546875 467.08546875 -132.17234375 467.00296875 -132.74609375 466.91796875 C-135.79537294 465.92901334 -137.71049338 464.32039409 -140.05859375 462.16796875 C-140.05859375 461.50796875 -140.05859375 460.84796875 -140.05859375 460.16796875 C-141.37859375 460.16796875 -142.69859375 460.16796875 -144.05859375 460.16796875 C-144.05859375 459.50796875 -144.05859375 458.84796875 -144.05859375 458.16796875 C-145.04859375 457.83796875 -146.03859375 457.50796875 -147.05859375 457.16796875 C-147.05859375 456.50796875 -147.05859375 455.84796875 -147.05859375 455.16796875 C-148.04859375 455.16796875 -149.03859375 455.16796875 -150.05859375 455.16796875 C-150.05859375 454.50796875 -150.05859375 453.84796875 -150.05859375 453.16796875 C-150.71859375 453.16796875 -151.37859375 453.16796875 -152.05859375 453.16796875 C-152.05859375 452.50796875 -152.05859375 451.84796875 -152.05859375 451.16796875 C-152.61546875 451.12671875 -153.17234375 451.08546875 -153.74609375 451.04296875 C-156.64987962 449.94423896 -157.89128624 448.13871326 -159.75390625 445.7265625 C-161.17938114 443.91928802 -161.17938114 443.91928802 -163.87109375 441.91796875 C-164.59296875 441.34046875 -165.31484375 440.76296875 -166.05859375 440.16796875 C-166.05859375 439.50796875 -166.05859375 438.84796875 -166.05859375 438.16796875 C-166.71859375 438.16796875 -167.37859375 438.16796875 -168.05859375 438.16796875 C-169.28449552 436.71013962 -170.50575044 435.24774991 -171.6875 433.75390625 C-173.16093116 431.9434356 -173.16093116 431.9434356 -175.80859375 430.04296875 C-178.18777927 428.06031415 -178.73510637 427.18718428 -179.05859375 424.16796875 C-179.71859375 424.16796875 -180.37859375 424.16796875 -181.05859375 424.16796875 C-181.05859375 423.50796875 -181.05859375 422.84796875 -181.05859375 422.16796875 C-181.71859375 422.16796875 -182.37859375 422.16796875 -183.05859375 422.16796875 C-183.05859375 421.17796875 -183.05859375 420.18796875 -183.05859375 419.16796875 C-184.04859375 418.83796875 -185.03859375 418.50796875 -186.05859375 418.16796875 C-186.05859375 417.50796875 -186.05859375 416.84796875 -186.05859375 416.16796875 C-186.71859375 416.16796875 -187.37859375 416.16796875 -188.05859375 416.16796875 C-188.05859375 414.84796875 -188.05859375 413.52796875 -188.05859375 412.16796875 C-188.95578125 411.79671875 -188.95578125 411.79671875 -189.87109375 411.41796875 C-192.39446244 409.97604378 -193.55889451 408.64247249 -195.05859375 406.16796875 C-195.05859375 405.17796875 -195.05859375 404.18796875 -195.05859375 403.16796875 C-196.04859375 402.83796875 -197.03859375 402.50796875 -198.05859375 402.16796875 C-198.05859375 401.17796875 -198.05859375 400.18796875 -198.05859375 399.16796875 C-198.71859375 399.16796875 -199.37859375 399.16796875 -200.05859375 399.16796875 C-200.71859375 397.18796875 -201.37859375 395.20796875 -202.05859375 393.16796875 C-202.71859375 393.16796875 -203.37859375 393.16796875 -204.05859375 393.16796875 C-204.46851563 392.33652344 -204.8784375 391.50507813 -205.30078125 390.6484375 C-206.10902344 389.01841797 -206.10902344 389.01841797 -206.93359375 387.35546875 C-207.46726563 386.27652344 -208.0009375 385.19757813 -208.55078125 384.0859375 C-210.03080514 381.0895861 -210.03080514 381.0895861 -212.05859375 378.16796875 C-212.05859375 377.17796875 -212.05859375 376.18796875 -212.05859375 375.16796875 C-212.71859375 375.16796875 -213.37859375 375.16796875 -214.05859375 375.16796875 C-214.05859375 373.84796875 -214.05859375 372.52796875 -214.05859375 371.16796875 C-214.71859375 371.16796875 -215.37859375 371.16796875 -216.05859375 371.16796875 C-216.39632812 370.32492187 -216.7340625 369.481875 -217.08203125 368.61328125 C-217.52804688 367.51757812 -217.9740625 366.421875 -218.43359375 365.29296875 C-218.87445313 364.20242188 -219.3153125 363.111875 -219.76953125 361.98828125 C-220.88910713 359.10467513 -220.88910713 359.10467513 -223.05859375 357.16796875 C-223.83597839 355.08832297 -224.53438483 352.97862236 -225.18359375 350.85546875 C-225.71339844 349.15970703 -225.71339844 349.15970703 -226.25390625 347.4296875 C-226.97566778 344.50410073 -227.22685937 342.15748796 -227.05859375 339.16796875 C-227.71859375 339.16796875 -228.37859375 339.16796875 -229.05859375 339.16796875 C-229.79621854 336.72397194 -230.53057212 334.27914343 -231.2578125 331.83203125 C-231.89643638 329.70743863 -232.56605446 327.59216969 -233.24609375 325.48046875 C-234.11688317 321.93032728 -234.20722281 318.80938077 -234.05859375 315.16796875 C-234.71859375 315.16796875 -235.37859375 315.16796875 -236.05859375 315.16796875 C-236.54247927 312.23117928 -237.02076786 309.29364599 -237.49609375 306.35546875 C-237.63080078 305.54142578 -237.76550781 304.72738281 -237.90429688 303.88867188 C-239.60856797 293.288937 -240.21617095 282.84027492 -240.2265625 272.109375 C-240.2298909 270.88500229 -240.2332193 269.66062958 -240.23664856 268.39915466 C-240.24168584 265.81827161 -240.24405788 263.23738211 -240.24389648 260.65649414 C-240.24607004 256.77283552 -240.26422503 252.88946742 -240.28320312 249.00585938 C-240.32254146 231.5704661 -240.03951533 214.22906122 -236.05859375 197.16796875 C-235.39859375 197.16796875 -234.73859375 197.16796875 -234.05859375 197.16796875 C-234.02121094 196.29914063 -233.98382813 195.4303125 -233.9453125 194.53515625 C-233.59293301 188.358151 -233.30221603 183.57400589 -230.05859375 178.16796875 C-229.35951961 175.4322429 -229.35951961 175.4322429 -229.05859375 173.16796875 C-228.39859375 173.16796875 -227.73859375 173.16796875 -227.05859375 173.16796875 C-226.97609375 171.88921875 -226.89359375 170.61046875 -226.80859375 169.29296875 C-225.86808442 160.94594843 -221.93093036 153.66786258 -218.109375 146.296875 C-216.95044913 144.07073568 -216.95044913 144.07073568 -216.05859375 141.16796875 C-215.39859375 141.16796875 -214.73859375 141.16796875 -214.05859375 141.16796875 C-214.05859375 139.84796875 -214.05859375 138.52796875 -214.05859375 137.16796875 C-213.39859375 137.16796875 -212.73859375 137.16796875 -212.05859375 137.16796875 C-211.95546875 136.44609375 -211.85234375 135.72421875 -211.74609375 134.98046875 C-210.98236851 131.85613824 -209.76698957 129.88874728 -208.05859375 127.16796875 C-206.68557071 124.5207013 -205.36823426 121.84708107 -204.05859375 119.16796875 C-203.39859375 119.16796875 -202.73859375 119.16796875 -202.05859375 119.16796875 C-201.39859375 117.18796875 -200.73859375 115.20796875 -200.05859375 113.16796875 C-199.39859375 113.16796875 -198.73859375 113.16796875 -198.05859375 113.16796875 C-197.56359375 111.18796875 -197.56359375 111.18796875 -197.05859375 109.16796875 C-196.39859375 109.16796875 -195.73859375 109.16796875 -195.05859375 109.16796875 C-194.97609375 108.61109375 -194.89359375 108.05421875 -194.80859375 107.48046875 C-193.81963834 104.43118956 -192.21101909 102.51606912 -190.05859375 100.16796875 C-189.39859375 100.16796875 -188.73859375 100.16796875 -188.05859375 100.16796875 C-188.05859375 98.84796875 -188.05859375 97.52796875 -188.05859375 96.16796875 C-187.39859375 96.16796875 -186.73859375 96.16796875 -186.05859375 96.16796875 C-185.56359375 94.68296875 -185.56359375 94.68296875 -185.05859375 93.16796875 C-184.39859375 93.16796875 -183.73859375 93.16796875 -183.05859375 93.16796875 C-183.05859375 92.17796875 -183.05859375 91.18796875 -183.05859375 90.16796875 C-182.39859375 90.16796875 -181.73859375 90.16796875 -181.05859375 90.16796875 C-181.05859375 89.50796875 -181.05859375 88.84796875 -181.05859375 88.16796875 C-180.39859375 88.16796875 -179.73859375 88.16796875 -179.05859375 88.16796875 C-179.01734375 87.61109375 -178.97609375 87.05421875 -178.93359375 86.48046875 C-177.83486396 83.57668288 -176.02933826 82.33527626 -173.6171875 80.47265625 C-171.80991302 79.04718136 -171.80991302 79.04718136 -169.80859375 76.35546875 C-168.94234375 75.27265625 -168.94234375 75.27265625 -168.05859375 74.16796875 C-167.39859375 74.16796875 -166.73859375 74.16796875 -166.05859375 74.16796875 C-166.05859375 73.50796875 -166.05859375 72.84796875 -166.05859375 72.16796875 C-164.60076462 70.94206698 -163.13837491 69.72081206 -161.64453125 68.5390625 C-159.8340606 67.06563134 -159.8340606 67.06563134 -157.93359375 64.41796875 C-155.95093915 62.03878323 -155.07780928 61.49145613 -152.05859375 61.16796875 C-152.05859375 60.50796875 -152.05859375 59.84796875 -152.05859375 59.16796875 C-151.39859375 59.16796875 -150.73859375 59.16796875 -150.05859375 59.16796875 C-150.05859375 58.50796875 -150.05859375 57.84796875 -150.05859375 57.16796875 C-149.06859375 57.16796875 -148.07859375 57.16796875 -147.05859375 57.16796875 C-146.72859375 56.17796875 -146.39859375 55.18796875 -146.05859375 54.16796875 C-145.39859375 54.16796875 -144.73859375 54.16796875 -144.05859375 54.16796875 C-144.05859375 53.50796875 -144.05859375 52.84796875 -144.05859375 52.16796875 C-142.73859375 52.16796875 -141.41859375 52.16796875 -140.05859375 52.16796875 C-139.68734375 51.27078125 -139.68734375 51.27078125 -139.30859375 50.35546875 C-137.86666878 47.83210006 -136.53309749 46.66766799 -134.05859375 45.16796875 C-133.06859375 45.16796875 -132.07859375 45.16796875 -131.05859375 45.16796875 C-130.72859375 44.17796875 -130.39859375 43.18796875 -130.05859375 42.16796875 C-129.06859375 42.16796875 -128.07859375 42.16796875 -127.05859375 42.16796875 C-127.05859375 41.50796875 -127.05859375 40.84796875 -127.05859375 40.16796875 C-125.07859375 39.50796875 -123.09859375 38.84796875 -121.05859375 38.16796875 C-121.05859375 37.50796875 -121.05859375 36.84796875 -121.05859375 36.16796875 C-120.22714844 35.75804687 -119.39570312 35.348125 -118.5390625 34.92578125 C-117.45238281 34.38695312 -116.36570312 33.848125 -115.24609375 33.29296875 C-114.16714844 32.75929687 -113.08820313 32.225625 -111.9765625 31.67578125 C-108.9802111 30.19575736 -108.9802111 30.19575736 -106.05859375 28.16796875 C-105.06859375 28.16796875 -104.07859375 28.16796875 -103.05859375 28.16796875 C-103.05859375 27.50796875 -103.05859375 26.84796875 -103.05859375 26.16796875 C-101.73859375 26.16796875 -100.41859375 26.16796875 -99.05859375 26.16796875 C-99.05859375 25.50796875 -99.05859375 24.84796875 -99.05859375 24.16796875 C-98.21554688 23.83023437 -97.3725 23.4925 -96.50390625 23.14453125 C-95.40820312 22.69851562 -94.3125 22.2525 -93.18359375 21.79296875 C-92.09304687 21.35210938 -91.0025 20.91125 -89.87890625 20.45703125 C-86.99530013 19.33745537 -86.99530013 19.33745537 -85.05859375 17.16796875 C-82.97894797 16.39058411 -80.86924736 15.69217767 -78.74609375 15.04296875 C-77.61558594 14.68976562 -76.48507813 14.3365625 -75.3203125 13.97265625 C-72.39472573 13.25089472 -70.04811296 12.99970313 -67.05859375 13.16796875 C-67.05859375 12.50796875 -67.05859375 11.84796875 -67.05859375 11.16796875 C-64.61459694 10.43034396 -62.16976843 9.69599038 -59.72265625 8.96875 C-57.59806363 8.33012612 -55.48279469 7.66050804 -53.37109375 6.98046875 C-49.82095228 6.10967933 -46.70000577 6.01933969 -43.05859375 6.16796875 C-43.05859375 5.50796875 -43.05859375 4.84796875 -43.05859375 4.16796875 C-40.12180428 3.68408323 -37.18427099 3.20579464 -34.24609375 2.73046875 C-33.43205078 2.59576172 -32.61800781 2.46105469 -31.77929688 2.32226562 C-21.179562 0.61799453 -10.73089992 0.01039155 0 0 Z " fill="#323333" transform="translate(240.05859375,-0.16796875)"/>
<path d="M0 0 C1.05243896 -0.02126953 2.10487793 -0.04253906 3.18920898 -0.06445312 C10.04510735 -0.09461498 15.81325377 0.87781392 22.25 3.25 C22.25 3.91 22.25 4.57 22.25 5.25 C23.57 5.25 24.89 5.25 26.25 5.25 C26.25 5.91 26.25 6.57 26.25 7.25 C27.57 7.25 28.89 7.25 30.25 7.25 C32.6875 9.375 32.6875 9.375 35.25 12.25 C36.11625 13.11625 36.9825 13.9825 37.875 14.875 C43.37454561 21.797141 43.52955561 30.52665941 43.625 39 C43.63893799 39.80397217 43.65287598 40.60794434 43.66723633 41.4362793 C43.62477242 46.76853274 42.65680836 50.48732102 40.25 55.25 C39.59 55.25 38.93 55.25 38.25 55.25 C38.1675 55.971875 38.085 56.69375 38 57.4375 C37.09286169 60.83926868 35.64989121 62.70466084 33.25 65.25 C32.59 65.25 31.93 65.25 31.25 65.25 C30.9096875 66.0853125 30.9096875 66.0853125 30.5625 66.9375 C28.29399551 70.93438886 25.63100054 73.78966649 21.25 75.25 C20.54848848 76.5653341 19.88474075 77.90117592 19.25 79.25 C17.75 81 17.75 81 16.25 82.25 C15.59 82.25 14.93 82.25 14.25 82.25 C14.25 82.91 14.25 83.57 14.25 84.25 C12.27 84.58 10.29 84.91 8.25 85.25 C8.25 85.91 8.25 86.57 8.25 87.25 C6.59467377 88.26866229 4.92739862 89.26810813 3.25 90.25 C2.92 90.91 2.59 91.57 2.25 92.25 C0.765 92.745 0.765 92.745 -0.75 93.25 C-2.99438994 95.38217044 -5.13631824 97.55627279 -7.1875 99.875 C-10.33595994 102.64564474 -13.56293606 104.25 -17.75 104.25 C-17.75 104.91 -17.75 105.57 -17.75 106.25 C-19.60284336 107.19011264 -21.45734568 108.12695592 -23.3125 109.0625 C-24.34503906 109.58457031 -25.37757813 110.10664063 -26.44140625 110.64453125 C-29.84089394 112.29410556 -33.2668976 113.78736053 -36.75 115.25 C-36.19014404 115.26458252 -35.63028809 115.27916504 -35.0534668 115.29418945 C-32.51411863 115.36871352 -29.97607922 115.46535581 -27.4375 115.5625 C-26.55642578 115.58505859 -25.67535156 115.60761719 -24.76757812 115.63085938 C-23.49624023 115.6840332 -23.49624023 115.6840332 -22.19921875 115.73828125 C-21.02879028 115.77755737 -21.02879028 115.77755737 -19.8347168 115.81762695 C-17.27079803 116.34938713 -16.43047885 117.29339625 -14.75 119.25 C-14.1725 119.683125 -13.595 120.11625 -13 120.5625 C-11.75 122.25 -11.75 122.25 -11.828125 124.96484375 C-12.99570449 129.12558252 -15.2764721 131.51898211 -18.25 134.5 C-21.9189093 138.06242648 -21.9189093 138.06242648 -24.75 142.25 C-25.41 142.25 -26.07 142.25 -26.75 142.25 C-26.79125 142.971875 -26.8325 143.69375 -26.875 144.4375 C-27.91354123 147.77566823 -29.52282276 148.9167751 -32.2578125 150.984375 C-34.33245299 152.74401772 -35.4403578 154.89264403 -36.75 157.25 C-37.41 157.58 -38.07 157.91 -38.75 158.25 C-39.08 159.24 -39.41 160.23 -39.75 161.25 C-40.41 161.25 -41.07 161.25 -41.75 161.25 C-42.02199219 161.82878906 -42.29398438 162.40757812 -42.57421875 163.00390625 C-45.63858388 168.85775991 -50.04592454 173.669716 -54.75 178.25 C-55.41 179.075 -56.07 179.9 -56.75 180.75 C-58.91352011 183.45440014 -61.30236071 185.80236071 -63.75 188.25 C-66.10360398 190.99587131 -67.60423387 192.81270161 -68.75 196.25 C-70.6875 198.4375 -70.6875 198.4375 -72.75 200.25 C-73.41 200.25 -74.07 200.25 -74.75 200.25 C-75.01167969 200.971875 -75.27335938 201.69375 -75.54296875 202.4375 C-78.50721479 209.34448107 -83.40783278 215.05622631 -88.75 220.25 C-89.306875 221.178125 -89.86375 222.10625 -90.4375 223.0625 C-90.870625 223.784375 -91.30375 224.50625 -91.75 225.25 C-92.41 225.25 -93.07 225.25 -93.75 225.25 C-93.935625 226.075 -94.12125 226.9 -94.3125 227.75 C-95.96740839 231.77934216 -98.15419237 234.26043545 -101.09375 237.41796875 C-102.92466906 239.35327699 -102.92466906 239.35327699 -104.75 242.25 C-105.41 242.25 -106.07 242.25 -106.75 242.25 C-106.75 242.91 -106.75 243.57 -106.75 244.25 C-107.41 244.25 -108.07 244.25 -108.75 244.25 C-109.059375 245.03375 -109.36875 245.8175 -109.6875 246.625 C-110.75 249.25 -110.75 249.25 -111.75 251.25 C-112.41 251.25 -113.07 251.25 -113.75 251.25 C-114.059375 252.03375 -114.36875 252.8175 -114.6875 253.625 C-115.75 256.25 -115.75 256.25 -116.75 258.25 C-112.62861958 256.37664526 -109.83800252 254.53100268 -106.75 251.25 C-105.76 250.445625 -104.77 249.64125 -103.75 248.8125 C-100.73319716 246.40569275 -100.73319716 246.40569275 -98.6875 243.625 C-96.55121525 241.00632837 -94.64872087 239.96288051 -91.75 238.25 C-90.46516073 237.11989406 -89.19569035 235.97220187 -87.9375 234.8125 C-78.52205341 226.6130705 -70.84544149 226.75518648 -58.75 227.25 C-58.75 227.91 -58.75 228.57 -58.75 229.25 C-57.76 229.25 -56.77 229.25 -55.75 229.25 C-55.75 229.91 -55.75 230.57 -55.75 231.25 C-55.09 231.25 -54.43 231.25 -53.75 231.25 C-54.08 232.9 -54.41 234.55 -54.75 236.25 C-56.07 236.58 -57.39 236.91 -58.75 237.25 C-58.75 237.91 -58.75 238.57 -58.75 239.25 C-61 241.875 -61 241.875 -63.75 244.25 C-65.07 244.25 -66.39 244.25 -67.75 244.25 C-67.9975 244.848125 -68.245 245.44625 -68.5 246.0625 C-69.93072525 248.56626919 -71.3191582 249.73072388 -73.75 251.25 C-74.41 251.25 -75.07 251.25 -75.75 251.25 C-75.75 251.91 -75.75 252.57 -75.75 253.25 C-77.51494494 254.6456731 -79.33808217 255.96836522 -81.1875 257.25 C-85.07727075 259.70900384 -85.07727075 259.70900384 -87.75 263.25 C-88.41 263.25 -89.07 263.25 -89.75 263.25 C-90.08 264.24 -90.41 265.23 -90.75 266.25 C-92.73 266.58 -94.71 266.91 -96.75 267.25 C-96.75 268.24 -96.75 269.23 -96.75 270.25 C-98.07 270.58 -99.39 270.91 -100.75 271.25 C-100.75 271.91 -100.75 272.57 -100.75 273.25 C-101.74 273.25 -102.73 273.25 -103.75 273.25 C-104.08 274.24 -104.41 275.23 -104.75 276.25 C-107.3125 277.4375 -107.3125 277.4375 -109.75 278.25 C-109.75 278.91 -109.75 279.57 -109.75 280.25 C-113.51402729 283.7451682 -117.05035745 286.10451101 -121.75 288.25 C-122.53375 288.641875 -123.3175 289.03375 -124.125 289.4375 C-124.929375 289.8396875 -124.929375 289.8396875 -125.75 290.25 C-125.75 290.91 -125.75 291.57 -125.75 292.25 C-132.5 296.25 -132.5 296.25 -134.75 296.25 C-135.08 297.24 -135.41 298.23 -135.75 299.25 C-137.53457141 301.50419546 -138.97152368 302.35113037 -141.625 303.5625 C-144.52295937 305.12739806 -145.42823153 305.88443694 -147.3125 308.375 C-149.75 311.25 -149.75 311.25 -152.5625 312.125 C-153.284375 312.16625 -154.00625 312.2075 -154.75 312.25 C-154.75 312.91 -154.75 313.57 -154.75 314.25 C-159.13461538 317.25 -159.13461538 317.25 -161.75 317.25 C-162.018125 317.889375 -162.28625 318.52875 -162.5625 319.1875 C-163.75 321.25 -163.75 321.25 -166.75 322.25 C-168.42067133 324.24665598 -170.08752986 326.24651034 -171.75 328.25 C-172.41 328.25 -173.07 328.25 -173.75 328.25 C-174.08 329.24 -174.41 330.23 -174.75 331.25 C-175.41 331.25 -176.07 331.25 -176.75 331.25 C-177.08 332.24 -177.41 333.23 -177.75 334.25 C-178.41 334.25 -179.07 334.25 -179.75 334.25 C-180.03875 334.848125 -180.3275 335.44625 -180.625 336.0625 C-181.75 338.25 -181.75 338.25 -183.75 341.25 C-184.41 341.25 -185.07 341.25 -185.75 341.25 C-186.08 342.24 -186.41 343.23 -186.75 344.25 C-187.41 344.25 -188.07 344.25 -188.75 344.25 C-189.018125 345.054375 -189.28625 345.85875 -189.5625 346.6875 C-189.954375 347.533125 -190.34625 348.37875 -190.75 349.25 C-191.74 349.58 -192.73 349.91 -193.75 350.25 C-194.03875 350.9925 -194.3275 351.735 -194.625 352.5 C-196.03334357 355.9426176 -197.97057409 357.81800233 -200.75 360.25 C-201.41 360.25 -202.07 360.25 -202.75 360.25 C-202.75 360.91 -202.75 361.57 -202.75 362.25 C-203.74 362.25 -204.73 362.25 -205.75 362.25 C-205.976875 362.78625 -206.20375 363.3225 -206.4375 363.875 C-208.89660487 368.32480881 -212.0887381 371.81269764 -216 375 C-218.77359938 376.95631884 -218.77359938 376.95631884 -219.75 379.25 C-220.41 379.25 -221.07 379.25 -221.75 379.25 C-222.08 380.24 -222.41 381.23 -222.75 382.25 C-223.41 382.25 -224.07 382.25 -224.75 382.25 C-225.018125 382.848125 -225.28625 383.44625 -225.5625 384.0625 C-226.74917406 386.24847854 -227.84599113 387.66332594 -229.75 389.25 C-230.41 389.25 -231.07 389.25 -231.75 389.25 C-232.03101563 389.8378125 -232.31203125 390.425625 -232.6015625 391.03125 C-235.59483496 396.81417095 -238.95449021 400.3316396 -245.125 402.6875 C-254.80355202 405.48728063 -266.72294153 406.2060321 -275.75 401.25 C-278.06707117 399.36737967 -278.62486061 398.17066834 -279.0234375 395.23828125 C-279.26234037 389.82621232 -278.19937133 386.04668553 -275.75 381.25 C-275.09 381.25 -274.43 381.25 -273.75 381.25 C-273.6675 380.528125 -273.585 379.80625 -273.5 379.0625 C-272.59885441 375.68320404 -271.01833237 373.87275931 -268.75 371.25 C-268.42 370.59 -268.09 369.93 -267.75 369.25 C-266.76 369.25 -265.77 369.25 -264.75 369.25 C-264.62625 368.610625 -264.5025 367.97125 -264.375 367.3125 C-264.16875 366.631875 -263.9625 365.95125 -263.75 365.25 C-263.09 364.92 -262.43 364.59 -261.75 364.25 C-261.62625 363.38375 -261.62625 363.38375 -261.5 362.5 C-260.53006093 359.59018278 -258.74001628 358.38610114 -256.3671875 356.546875 C-254.5029477 355.1054442 -254.5029477 355.1054442 -252.125 352.5625 C-249.75 350.25 -249.75 350.25 -247.5625 349.1875 C-245.58751905 348.39976002 -245.58751905 348.39976002 -244.875 346.375 C-243.20456825 343.21974003 -240.79925481 341.99243132 -237.75 340.25 C-236.76 340.25 -235.77 340.25 -234.75 340.25 C-234.75 339.59 -234.75 338.93 -234.75 338.25 C-232.95703125 336.69921875 -232.95703125 336.69921875 -230.5625 334.9375 C-226.98236652 332.23551247 -223.82241418 329.5086211 -220.75 326.25 C-220.09 325.59 -219.43 324.93 -218.75 324.25 C-217.76 324.25 -216.77 324.25 -215.75 324.25 C-215.42 323.26 -215.09 322.27 -214.75 321.25 C-213.76 320.734375 -212.77 320.21875 -211.75 319.6875 C-205.573259 316.39493971 -200.62710309 310.43973126 -197.11328125 304.46875 C-195.75 302.25 -195.75 302.25 -193.6875 301.6875 C-193.048125 301.543125 -192.40875 301.39875 -191.75 301.25 C-191.33427734 300.38375 -191.33427734 300.38375 -190.91015625 299.5 C-189.01078517 295.81637125 -185.84642944 293.36923203 -182.84375 290.56640625 C-180.69044714 288.18411409 -179.86333873 286.21890329 -178.75 283.25 C-177.42696283 282.8778958 -176.09262065 282.54369827 -174.75 282.25 C-173.60790183 280.46771064 -173.60790183 280.46771064 -172.75 278.25 C-171.25 275.5 -171.25 275.5 -169.75 273.25 C-169.09 273.25 -168.43 273.25 -167.75 273.25 C-167.42 272.26 -167.09 271.27 -166.75 270.25 C-166.09 270.25 -165.43 270.25 -164.75 270.25 C-164.481875 269.651875 -164.21375 269.05375 -163.9375 268.4375 C-162.75082594 266.25152146 -161.65400887 264.83667406 -159.75 263.25 C-159.09 263.25 -158.43 263.25 -157.75 263.25 C-157.42 261.93 -157.09 260.61 -156.75 259.25 C-156.09 259.25 -155.43 259.25 -154.75 259.25 C-154.4096875 258.4146875 -154.4096875 258.4146875 -154.0625 257.5625 C-152.37449964 254.58840412 -150.28323483 252.52991135 -147.75 250.25 C-147.09 250.25 -146.43 250.25 -145.75 250.25 C-145.6675 249.46625 -145.585 248.6825 -145.5 247.875 C-145.2525 247.00875 -145.005 246.1425 -144.75 245.25 C-142.8125 244.1875 -142.8125 244.1875 -140.75 243.25 C-140.0662955 241.92532254 -139.40035814 240.59136367 -138.75 239.25 C-135.32142857 236.25 -135.32142857 236.25 -132.75 236.25 C-132.75 234.93 -132.75 233.61 -132.75 232.25 C-131.76 231.92 -130.77 231.59 -129.75 231.25 C-129.29625 230.445625 -128.8425 229.64125 -128.375 228.8125 C-126.75 226.25 -126.75 226.25 -124.1875 225.3125 C-121.45178594 224.45973646 -121.45178594 224.45973646 -120.625 221.4375 C-120.33625 220.385625 -120.0475 219.33375 -119.75 218.25 C-118.7936126 216.55792999 -117.80589069 214.88183107 -116.75 213.25 C-117.41 213.25 -118.07 213.25 -118.75 213.25 C-118.75 213.91 -118.75 214.57 -118.75 215.25 C-119.389375 215.353125 -120.02875 215.45625 -120.6875 215.5625 C-121.368125 215.789375 -122.04875 216.01625 -122.75 216.25 C-123.08 217.24 -123.41 218.23 -123.75 219.25 C-124.41 219.25 -125.07 219.25 -125.75 219.25 C-125.75 220.24 -125.75 221.23 -125.75 222.25 C-127.38064764 223.30771739 -129.05280873 224.30273046 -130.75 225.25 C-131.306875 225.806875 -131.86375 226.36375 -132.4375 226.9375 C-132.870625 227.370625 -133.30375 227.80375 -133.75 228.25 C-134.41 228.25 -135.07 228.25 -135.75 228.25 C-135.75 228.91 -135.75 229.57 -135.75 230.25 C-136.41 230.25 -137.07 230.25 -137.75 230.25 C-137.75 230.91 -137.75 231.57 -137.75 232.25 C-138.41 232.25 -139.07 232.25 -139.75 232.25 C-139.75 232.91 -139.75 233.57 -139.75 234.25 C-141.4 234.58 -143.05 234.91 -144.75 235.25 C-144.8325 235.848125 -144.915 236.44625 -145 237.0625 C-145.96576779 239.87932273 -147.23868567 240.72799132 -149.75 242.25 C-150.41 242.25 -151.07 242.25 -151.75 242.25 C-151.75 242.91 -151.75 243.57 -151.75 244.25 C-153.4 244.58 -155.05 244.91 -156.75 245.25 C-157.08 246.24 -157.41 247.23 -157.75 248.25 C-159.859375 249.8984375 -159.859375 249.8984375 -162.5 251.625 C-165.50007903 253.64362461 -168.26222541 255.55735276 -170.75 258.1875 C-171.41 258.868125 -172.07 259.54875 -172.75 260.25 C-173.41 260.25 -174.07 260.25 -174.75 260.25 C-174.75 260.91 -174.75 261.57 -174.75 262.25 C-175.38808594 262.35957031 -176.02617187 262.46914063 -176.68359375 262.58203125 C-177.92302734 262.81986328 -177.92302734 262.81986328 -179.1875 263.0625 C-180.01121094 263.21332031 -180.83492188 263.36414063 -181.68359375 263.51953125 C-182.36550781 263.76058594 -183.04742187 264.00164062 -183.75 264.25 C-184.08 265.24 -184.41 266.23 -184.75 267.25 C-186.59867292 268.22475481 -188.4557122 269.18692335 -190.3515625 270.06640625 C-193.90586579 271.82040283 -197.20622048 273.9569279 -200.55078125 276.078125 C-202.75 277.25 -202.75 277.25 -205.75 277.25 C-205.75 277.91 -205.75 278.57 -205.75 279.25 C-208.06 279.58 -210.37 279.91 -212.75 280.25 C-212.75 280.91 -212.75 281.57 -212.75 282.25 C-216.05 282.58 -219.35 282.91 -222.75 283.25 C-222.75 283.91 -222.75 284.57 -222.75 285.25 C-252.68545325 289.70847176 -252.68545325 289.70847176 -266.75 282.25 C-266.75 281.59 -266.75 280.93 -266.75 280.25 C-267.348125 279.981875 -267.94625 279.71375 -268.5625 279.4375 C-270.74847854 278.25082594 -272.16332594 277.15400887 -273.75 275.25 C-273.75 274.59 -273.75 273.93 -273.75 273.25 C-274.41 273.25 -275.07 273.25 -275.75 273.25 C-276.08 270.94 -276.41 268.63 -276.75 266.25 C-277.41 266.25 -278.07 266.25 -278.75 266.25 C-283.81428541 259.56514326 -282.93231188 250.93239537 -282.9375 242.9375 C-282.94974609 241.95587891 -282.96199219 240.97425781 -282.97460938 239.96289062 C-282.98590882 234.27173434 -282.51719809 229.02879881 -281.24194336 223.47827148 C-280.49446074 220.09252762 -280.13267164 216.69404478 -279.75 213.25 C-279.09 213.25 -278.43 213.25 -277.75 213.25 C-277.605625 212.156875 -277.46125 211.06375 -277.3125 209.9375 C-276.75 206.25 -276.75 206.25 -275.75 203.25 C-275.09 203.25 -274.43 203.25 -273.75 203.25 C-273.6675 202.280625 -273.585 201.31125 -273.5 200.3125 C-272.9460125 196.30423748 -271.43761352 192.98575886 -269.6875 189.36328125 C-268.78714987 187.33374199 -268.21922753 185.41528955 -267.75 183.25 C-267.09 183.25 -266.43 183.25 -265.75 183.25 C-265.75 182.26 -265.75 181.27 -265.75 180.25 C-265.09 180.25 -264.43 180.25 -263.75 180.25 C-263.255 177.28 -263.255 177.28 -262.75 174.25 C-262.09 174.25 -261.43 174.25 -260.75 174.25 C-260.75 173.26 -260.75 172.27 -260.75 171.25 C-260.09 171.25 -259.43 171.25 -258.75 171.25 C-258.646875 170.6725 -258.54375 170.095 -258.4375 169.5 C-257.4167378 166.1593237 -255.30317126 163.93082617 -253.125 161.25 C-251.70744273 159.18809851 -251.33537075 157.64559288 -250.75 155.25 C-249.08333333 153.58333333 -247.41666667 151.91666667 -245.75 150.25 C-244.430982 147.58466965 -244.430982 147.58466965 -243.75 145.25 C-243.09 145.25 -242.43 145.25 -241.75 145.25 C-241.42 144.26 -241.09 143.27 -240.75 142.25 C-239.3125 140.5625 -239.3125 140.5625 -237.75 139.25 C-237.09 139.25 -236.43 139.25 -235.75 139.25 C-235.688125 138.693125 -235.62625 138.13625 -235.5625 137.5625 C-234.42045135 134.31205385 -232.19372943 132.63412628 -229.75 130.25 C-229.42 129.569375 -229.09 128.88875 -228.75 128.1875 C-227.75 126.25 -227.75 126.25 -225.3125 124.3125 C-222.60972913 122.13709906 -221.46134449 120.22625129 -219.75 117.25 C-218.43612831 115.89748503 -217.10573748 114.56054623 -215.75 113.25 C-215.42 112.59 -215.09 111.93 -214.75 111.25 C-214.09 111.25 -213.43 111.25 -212.75 111.25 C-212.75 110.59 -212.75 109.93 -212.75 109.25 C-212.09 109.25 -211.43 109.25 -210.75 109.25 C-210.255 107.765 -210.255 107.765 -209.75 106.25 C-208.76 106.25 -207.77 106.25 -206.75 106.25 C-206.255 104.765 -206.255 104.765 -205.75 103.25 C-205.09 103.25 -204.43 103.25 -203.75 103.25 C-203.37875 102.074375 -203.37875 102.074375 -203 100.875 C-201.54075497 97.81058543 -200.69985044 97.63274239 -197.75 96.25 C-197.46125 95.651875 -197.1725 95.05375 -196.875 94.4375 C-195.15307418 91.08931091 -192.78215582 89.47770632 -189.75 87.25 C-188.76 87.25 -187.77 87.25 -186.75 87.25 C-186.255 85.765 -186.255 85.765 -185.75 84.25 C-185.09 84.25 -184.43 84.25 -183.75 84.25 C-183.255 82.765 -183.255 82.765 -182.75 81.25 C-180.45832354 78.2708206 -178.41464055 77.7452217 -174.75 77.25 C-174.75 76.59 -174.75 75.93 -174.75 75.25 C-173.43 74.92 -172.11 74.59 -170.75 74.25 C-170.75 73.59 -170.75 72.93 -170.75 72.25 C-165.39285714 67.25 -165.39285714 67.25 -161.75 67.25 C-161.75 66.59 -161.75 65.93 -161.75 65.25 C-159.9375 63.125 -159.9375 63.125 -157.75 61.25 C-156.76 61.25 -155.77 61.25 -154.75 61.25 C-154.75 60.59 -154.75 59.93 -154.75 59.25 C-154.04875 59.0025 -153.3475 58.755 -152.625 58.5 C-148.26329338 56.60360582 -144.73463733 54.31669044 -141.5 50.8125 C-138.37361745 47.8992799 -135.29351775 46.34658622 -131.4453125 44.55859375 C-124.54795618 41.20987728 -118.14532632 37.02088564 -111.7109375 32.87304688 C-107.49908139 30.20201458 -103.36898123 28.12853304 -98.75 26.25 C-96.66405079 25.20352548 -94.60531548 24.11873847 -92.546875 23.01953125 C-90.75 22.25 -90.75 22.25 -87.75 22.25 C-87.75 21.59 -87.75 20.93 -87.75 20.25 C-86.31445975 19.74440092 -84.8764798 19.2457251 -83.4375 18.75 C-82.63699219 18.4715625 -81.83648437 18.193125 -81.01171875 17.90625 C-78.75 17.25 -78.75 17.25 -75.75 17.25 C-75.75 16.59 -75.75 15.93 -75.75 15.25 C-72.87581279 13.6780761 -70.27162394 12.81871611 -67.0625 12.1875 C-64.12233881 11.77286728 -64.12233881 11.77286728 -61.75 10.25 C-59.75041636 10.20919217 -57.74954746 10.20745644 -55.75 10.25 C-55.75 9.59 -55.75 8.93 -55.75 8.25 C-54.90695312 8.11722656 -54.06390625 7.98445313 -53.1953125 7.84765625 C-52.09960938 7.67105469 -51.00390625 7.49445313 -49.875 7.3125 C-48.23917969 7.05146484 -48.23917969 7.05146484 -46.5703125 6.78515625 C-43.81178454 6.39448841 -43.81178454 6.39448841 -41.75 5.25 C-39.20384991 5.01827173 -36.67603775 4.83105471 -34.125 4.6875 C-33.41859375 4.64431641 -32.7121875 4.60113281 -31.984375 4.55664062 C-30.23981463 4.45055249 -28.49493303 4.34977111 -26.75 4.25 C-26.75 3.26 -26.75 2.27 -26.75 1.25 C-17.84289241 0.35769584 -8.94648058 0.08968242 0 0 Z " fill="#009AB3" transform="translate(391.75,62.75)"/>
<path d="M0 0 C4.56291082 -0.08597468 7.13283766 0.28149101 10.81762695 3.07299805 C11.81762695 4.07299805 11.81762695 4.07299805 11.88012695 7.63549805 C11.85950195 8.76987305 11.83887695 9.90424805 11.81762695 11.07299805 C11.15762695 11.07299805 10.49762695 11.07299805 9.81762695 11.07299805 C9.75575195 11.73299805 9.69387695 12.39299805 9.63012695 13.07299805 C7.88790607 19.50581363 4.22038722 24.2341947 -1.18237305 28.07299805 C-1.73924805 28.65049805 -2.29612305 29.22799805 -2.86987305 29.82299805 C-4.18237305 31.07299805 -4.18237305 31.07299805 -6.18237305 31.07299805 C-6.51237305 32.39299805 -6.84237305 33.71299805 -7.18237305 35.07299805 C-7.84237305 35.07299805 -8.50237305 35.07299805 -9.18237305 35.07299805 C-9.18237305 35.73299805 -9.18237305 36.39299805 -9.18237305 37.07299805 C-10.17237305 37.07299805 -11.16237305 37.07299805 -12.18237305 37.07299805 C-12.18237305 37.73299805 -12.18237305 38.39299805 -12.18237305 39.07299805 C-13.53042136 40.0408276 -14.89116996 40.99374435 -16.2956543 41.87768555 C-17.60437647 42.70681388 -18.89257985 43.56888208 -20.1628418 44.45581055 C-26.96323762 49.1875978 -34.29693518 53.44451876 -42.18237305 56.07299805 C-42.18237305 56.73299805 -42.18237305 57.39299805 -42.18237305 58.07299805 C-44.53409147 58.89322416 -46.88835815 59.70426345 -49.24487305 60.51049805 C-49.90165039 60.7405957 -50.55842773 60.97069336 -51.23510742 61.20776367 C-57.13218211 63.21218807 -62.86549838 64.2317192 -69.11987305 64.13549805 C-70.2780957 64.12196289 -70.2780957 64.12196289 -71.4597168 64.1081543 C-72.02819336 64.09655273 -72.59666992 64.08495117 -73.18237305 64.07299805 C-73.18237305 61.43299805 -73.18237305 58.79299805 -73.18237305 56.07299805 C-76.64737305 56.56799805 -76.64737305 56.56799805 -80.18237305 57.07299805 C-80.18237305 57.73299805 -80.18237305 58.39299805 -80.18237305 59.07299805 C-81.64331055 60.1862793 -81.64331055 60.1862793 -83.55737305 61.38549805 C-86.83478541 63.62308882 -87.9973442 65.22165428 -89.18237305 69.07299805 C-89.93260742 69.9547168 -89.93260742 69.9547168 -90.69799805 70.85424805 C-93.51968361 75.07192542 -92.91421774 80.20955738 -92.18237305 85.07299805 C-90.01438096 88.24581657 -90.01438096 88.24581657 -87.18237305 90.07299805 C-86.52237305 90.73299805 -85.86237305 91.39299805 -85.18237305 92.07299805 C-78.21653803 95.02822666 -71.52822143 95.46510696 -64.05737305 95.26049805 C-62.62264648 95.24019531 -62.62264648 95.24019531 -61.15893555 95.21948242 C-58.83279195 95.18459027 -56.50790774 95.13558144 -54.18237305 95.07299805 C-54.18237305 94.41299805 -54.18237305 93.75299805 -54.18237305 93.07299805 C-51.54237305 92.74299805 -48.90237305 92.41299805 -46.18237305 92.07299805 C-46.51237305 93.06299805 -46.84237305 94.05299805 -47.18237305 95.07299805 C-47.84237305 95.07299805 -48.50237305 95.07299805 -49.18237305 95.07299805 C-49.51237305 96.06299805 -49.84237305 97.05299805 -50.18237305 98.07299805 C-51.17237305 98.07299805 -52.16237305 98.07299805 -53.18237305 98.07299805 C-53.51237305 99.06299805 -53.84237305 100.05299805 -54.18237305 101.07299805 C-54.84237305 101.07299805 -55.50237305 101.07299805 -56.18237305 101.07299805 C-56.42987305 101.62987305 -56.67737305 102.18674805 -56.93237305 102.76049805 C-58.43247984 105.53569561 -60.0135292 107.77657515 -62.18237305 110.07299805 C-63.50237305 110.07299805 -64.82237305 110.07299805 -66.18237305 110.07299805 C-66.51237305 111.39299805 -66.84237305 112.71299805 -67.18237305 114.07299805 C-67.96612305 114.15549805 -68.74987305 114.23799805 -69.55737305 114.32299805 C-72.32986409 114.80106144 -72.32986409 114.80106144 -73.49487305 117.13549805 C-73.83518555 118.09456055 -73.83518555 118.09456055 -74.18237305 119.07299805 C-74.84237305 119.07299805 -75.50237305 119.07299805 -76.18237305 119.07299805 C-76.22362305 119.65049805 -76.26487305 120.22799805 -76.30737305 120.82299805 C-77.63690434 124.2417928 -80.07903934 125.2996645 -83.18237305 127.07299805 C-83.84237305 127.07299805 -84.50237305 127.07299805 -85.18237305 127.07299805 C-85.52268555 127.97018555 -85.52268555 127.97018555 -85.86987305 128.88549805 C-87.53356798 131.65832294 -89.38902764 132.5059994 -92.18237305 134.07299805 C-94.5911647 136.13767661 -95.14568858 136.96294464 -96.18237305 140.07299805 C-98.84321273 142.06696062 -101.7947963 144.07299805 -105.18237305 144.07299805 C-105.18237305 144.73299805 -105.18237305 145.39299805 -105.18237305 146.07299805 C-105.84237305 146.40299805 -106.50237305 146.73299805 -107.18237305 147.07299805 C-107.51237305 148.06299805 -107.84237305 149.05299805 -108.18237305 150.07299805 C-112.51570638 153.07299805 -112.51570638 153.07299805 -115.18237305 153.07299805 C-115.18237305 153.73299805 -115.18237305 154.39299805 -115.18237305 155.07299805 C-116.57299805 156.5456543 -116.57299805 156.5456543 -118.43237305 158.13549805 C-119.0356543 158.66272461 -119.63893555 159.18995117 -120.26049805 159.7331543 C-122.18237305 161.07299805 -122.18237305 161.07299805 -124.29174805 161.5690918 C-126.58213777 161.95642418 -126.58213777 161.95642418 -128.18237305 165.07299805 C-128.84237305 165.07299805 -129.50237305 165.07299805 -130.18237305 165.07299805 C-130.18237305 165.73299805 -130.18237305 166.39299805 -130.18237305 167.07299805 C-130.80112305 167.15549805 -131.41987305 167.23799805 -132.05737305 167.32299805 C-134.36584109 167.86110538 -134.36584109 167.86110538 -135.18237305 170.07299805 C-135.51237305 170.73299805 -135.84237305 171.39299805 -136.18237305 172.07299805 C-138.24487305 172.69799805 -138.24487305 172.69799805 -140.18237305 173.07299805 C-140.51237305 173.73299805 -140.84237305 174.39299805 -141.18237305 175.07299805 C-142.17237305 175.07299805 -143.16237305 175.07299805 -144.18237305 175.07299805 C-144.18237305 175.73299805 -144.18237305 176.39299805 -144.18237305 177.07299805 C-145.57456055 177.69174805 -145.57456055 177.69174805 -146.99487305 178.32299805 C-150.20870174 179.7962965 -150.20870174 179.7962965 -151.74487305 182.19799805 C-153.18237305 184.07299805 -153.18237305 184.07299805 -155.86987305 184.82299805 C-156.63299805 184.90549805 -157.39612305 184.98799805 -158.18237305 185.07299805 C-158.18237305 185.73299805 -158.18237305 186.39299805 -158.18237305 187.07299805 C-158.84237305 187.07299805 -159.50237305 187.07299805 -160.18237305 187.07299805 C-160.18237305 187.73299805 -160.18237305 188.39299805 -160.18237305 189.07299805 C-161.35799805 189.47518555 -161.35799805 189.47518555 -162.55737305 189.88549805 C-165.46352227 190.92114237 -165.46352227 190.92114237 -167.18237305 194.07299805 C-168.8923067 195.05949823 -170.60542231 196.04142341 -172.3425293 196.97924805 C-174.42888178 198.14222527 -174.42888178 198.14222527 -176.86987305 200.44799805 C-180.47344037 203.5831972 -184.6669423 205.40399133 -188.9519043 207.44799805 C-192.26140733 209.11275411 -195.35076577 210.99131397 -198.49487305 212.94799805 C-203.07072811 215.68389036 -205.90343247 216.9128295 -211.18237305 216.07299805 C-211.18237305 216.73299805 -211.18237305 217.39299805 -211.18237305 218.07299805 C-212.17237305 218.07299805 -213.16237305 218.07299805 -214.18237305 218.07299805 C-214.18237305 218.73299805 -214.18237305 219.39299805 -214.18237305 220.07299805 C-221.77530813 223.42282235 -231.30003781 224.83091921 -239.24487305 221.82299805 C-242.18237305 220.07299805 -242.18237305 220.07299805 -243.11987305 217.88549805 C-243.14049805 217.28737305 -243.16112305 216.68924805 -243.18237305 216.07299805 C-243.84237305 216.07299805 -244.50237305 216.07299805 -245.18237305 216.07299805 C-245.2113776 212.46884825 -245.22917323 208.86472843 -245.24487305 205.26049805 C-245.25325195 204.23633789 -245.26163086 203.21217773 -245.27026367 202.15698242 C-245.27348633 201.17407227 -245.27670898 200.19116211 -245.2800293 199.1784668 C-245.28526611 198.27249756 -245.29050293 197.36652832 -245.29589844 196.43310547 C-245.18237305 194.07299805 -245.18237305 194.07299805 -244.18237305 191.07299805 C-243.52237305 190.74299805 -242.86237305 190.41299805 -242.18237305 190.07299805 C-241.57862513 187.53725678 -241.22456179 184.99844633 -240.8425293 182.4206543 C-240.18237305 180.07299805 -240.18237305 180.07299805 -237.18237305 178.07299805 C-236.45854838 176.01374666 -236.45854838 176.01374666 -236.18237305 174.07299805 C-235.52237305 174.07299805 -234.86237305 174.07299805 -234.18237305 174.07299805 C-234.12049805 173.28924805 -234.05862305 172.50549805 -233.99487305 171.69799805 C-232.87913955 166.72011012 -230.57931077 162.54846111 -228.18237305 158.07299805 C-227.52237305 158.07299805 -226.86237305 158.07299805 -226.18237305 158.07299805 C-225.91424805 157.35112305 -225.64612305 156.62924805 -225.36987305 155.88549805 C-223.30746377 151.0008445 -220.47578595 147.18976418 -217.18237305 143.07299805 C-215.39172233 140.52019393 -213.62353753 137.95336827 -211.8659668 135.37768555 C-210.41486366 133.39125665 -208.9459022 131.77176483 -207.18237305 130.07299805 C-206.66674805 129.35112305 -206.15112305 128.62924805 -205.61987305 127.88549805 C-205.14549805 127.28737305 -204.67112305 126.68924805 -204.18237305 126.07299805 C-203.52237305 126.07299805 -202.86237305 126.07299805 -202.18237305 126.07299805 C-201.68737305 124.09299805 -201.68737305 124.09299805 -201.18237305 122.07299805 C-200.52237305 122.07299805 -199.86237305 122.07299805 -199.18237305 122.07299805 C-198.91424805 121.49549805 -198.64612305 120.91799805 -198.36987305 120.32299805 C-197.15308116 118.01749762 -195.87903425 116.05243612 -194.18237305 114.07299805 C-193.52237305 114.07299805 -192.86237305 114.07299805 -192.18237305 114.07299805 C-191.91424805 113.47487305 -191.64612305 112.87674805 -191.36987305 112.26049805 C-190.18319898 110.07451951 -189.08638192 108.65967211 -187.18237305 107.07299805 C-186.52237305 107.07299805 -185.86237305 107.07299805 -185.18237305 107.07299805 C-184.68737305 105.58799805 -184.68737305 105.58799805 -184.18237305 104.07299805 C-183.52237305 104.07299805 -182.86237305 104.07299805 -182.18237305 104.07299805 C-181.95549805 103.51612305 -181.72862305 102.95924805 -181.49487305 102.38549805 C-179.80687269 99.41140217 -177.71560788 97.3529094 -175.18237305 95.07299805 C-174.52237305 95.07299805 -173.86237305 95.07299805 -173.18237305 95.07299805 C-172.78018555 94.17581055 -172.78018555 94.17581055 -172.36987305 93.26049805 C-170.17493758 89.21719588 -167.20201309 87.23741961 -163.18237305 85.07299805 C-162.52237305 85.07299805 -161.86237305 85.07299805 -161.18237305 85.07299805 C-160.95549805 84.30987305 -160.72862305 83.54674805 -160.49487305 82.76049805 C-158.90219489 79.49929992 -157.28068873 78.82076587 -154.18237305 77.07299805 C-153.68737305 75.58799805 -153.68737305 75.58799805 -153.18237305 74.07299805 C-150.12289851 71.89556744 -147.00319859 69.90322631 -143.81713867 67.9206543 C-139.80952717 65.35860354 -137.0310528 62.96177715 -134.18237305 59.07299805 C-131.18730762 56.95453713 -129.87586741 56.07299805 -126.18237305 56.07299805 C-126.18237305 55.41299805 -126.18237305 54.75299805 -126.18237305 54.07299805 C-125.52237305 54.07299805 -124.86237305 54.07299805 -124.18237305 54.07299805 C-124.18237305 53.41299805 -124.18237305 52.75299805 -124.18237305 52.07299805 C-123.23362305 51.55737305 -122.28487305 51.04174805 -121.30737305 50.51049805 C-117.13806047 48.14505132 -113.29420182 45.37303537 -109.41674805 42.5612793 C-107.18237305 41.07299805 -107.18237305 41.07299805 -104.18237305 40.07299805 C-103.52237305 39.08299805 -102.86237305 38.09299805 -102.18237305 37.07299805 C-99.05737305 35.88549805 -99.05737305 35.88549805 -96.18237305 35.07299805 C-96.18237305 34.41299805 -96.18237305 33.75299805 -96.18237305 33.07299805 C-94.64070638 32.30216471 -93.09903971 31.53133138 -91.55737305 30.76049805 C-90.64729492 30.30416992 -89.7372168 29.8478418 -88.79956055 29.37768555 C-86.7680636 28.36496916 -84.72705334 27.37132604 -82.68237305 26.38549805 C-80.09775566 25.18663643 -80.09775566 25.18663643 -78.18237305 23.07299805 C-76.19415992 22.67535542 -74.19292966 22.33524456 -72.18237305 22.07299805 C-72.18237305 21.41299805 -72.18237305 20.75299805 -72.18237305 20.07299805 C-70.62216438 19.4216488 -69.05908726 18.7771684 -67.49487305 18.13549805 C-66.62475586 17.77584961 -65.75463867 17.41620117 -64.8581543 17.0456543 C-62.30058039 16.11596685 -59.86024075 15.5313718 -57.18237305 15.07299805 C-57.18237305 14.41299805 -57.18237305 13.75299805 -57.18237305 13.07299805 C-50.05423702 10.10388574 -43.31780749 7.70921873 -35.6784668 6.53393555 C-32.68537905 5.98122138 -30.02615056 5.03459223 -27.22924805 3.85424805 C-21.61075848 1.70978638 -16.22770202 0.72492745 -10.24487305 0.44799805 C-9.58036133 0.40932617 -8.91584961 0.3706543 -8.23120117 0.33081055 C-5.48841277 0.18183271 -2.74519076 0.0918237 0 0 Z " fill="#323434" transform="translate(390.182373046875,90.927001953125)"/>
<path d="M0 0 C1.05243896 -0.02126953 2.10487793 -0.04253906 3.18920898 -0.06445312 C10.04510735 -0.09461498 15.81325377 0.87781392 22.25 3.25 C22.25 3.91 22.25 4.57 22.25 5.25 C23.57 5.25 24.89 5.25 26.25 5.25 C26.25 5.91 26.25 6.57 26.25 7.25 C27.57 7.25 28.89 7.25 30.25 7.25 C30.745 8.735 30.745 8.735 31.25 10.25 C28.23013573 9.33701778 25.61392463 8.48867607 22.96508789 6.75146484 C13.2259811 1.3656626 -0.90793215 3.1267795 -11.6875 3.625 C-13.16076103 3.68346918 -14.63406907 3.74076592 -16.10742188 3.796875 C-19.65558968 3.93448244 -23.20286661 4.08767301 -26.75 4.25 C-26.75 3.26 -26.75 2.27 -26.75 1.25 C-17.84289241 0.35769584 -8.94648058 0.08968242 0 0 Z " fill="#13647B" transform="translate(391.75,62.75)"/>
<path d="M0 0 C1.2065625 0.0309375 1.2065625 0.0309375 2.4375 0.0625 C2.02435438 4.51176052 -1.06711527 6.90350104 -4.125 9.8125 C-4.64513672 10.31910156 -5.16527344 10.82570312 -5.70117188 11.34765625 C-6.98160084 12.59284405 -8.27117554 13.82861502 -9.5625 15.0625 C-10.5525 14.7325 -11.5425 14.4025 -12.5625 14.0625 C-8.9375 9.1875 -8.9375 9.1875 -5.5625 8.0625 C-5.2325 7.4025 -4.9025 6.7425 -4.5625 6.0625 C-3.9025 6.0625 -3.2425 6.0625 -2.5625 6.0625 C-2.5625 5.4025 -2.5625 4.7425 -2.5625 4.0625 C-4.8725 4.0625 -7.1825 4.0625 -9.5625 4.0625 C-9.5625 4.7225 -9.5625 5.3825 -9.5625 6.0625 C-20.09498356 7.34193401 -30.59587404 8.53312646 -40.5625 4.0625 C-40.8925 3.4025 -41.2225 2.7425 -41.5625 2.0625 C-35.6875 2.9375 -35.6875 2.9375 -34.5625 4.0625 C-26.81551424 5.32601168 -20.1186755 4.98231006 -12.5625 3.0625 C-10.87554587 2.70574233 -9.1880661 2.35145856 -7.5 2 C-4.64146183 1.39212106 -2.79522776 0.06817629 0 0 Z " fill="#0C768F" transform="translate(345.5625,179.9375)"/>
<path d="M0 0 C-2.3024696 2.3024696 -7.61695499 2.25339353 -10.83398438 2.80664062 C-15.04824766 3.55765892 -18.93586451 4.62562617 -23 6 C-26.375 6.125 -26.375 6.125 -29 6 C-29 6.66 -29 7.32 -29 8 C-29.83144531 8.10957031 -30.66289062 8.21914062 -31.51953125 8.33203125 C-32.60621094 8.49058594 -33.69289063 8.64914063 -34.8125 8.8125 C-35.89144531 8.96332031 -36.97039062 9.11414063 -38.08203125 9.26953125 C-41.19257068 10.04820712 -41.87572848 10.77834068 -44 13 C-45.32 13 -46.64 13 -48 13 C-48 13.66 -48 14.32 -48 15 C-51.96 15.495 -51.96 15.495 -56 16 C-56 16.66 -56 17.32 -56 18 C-57.98 18.33 -59.96 18.66 -62 19 C-61.67 18.34 -61.34 17.68 -61 17 C-60.01 17 -59.02 17 -58 17 C-58 16.34 -58 15.68 -58 15 C-56.56445975 14.49440092 -55.1264798 13.9957251 -53.6875 13.5 C-52.88699219 13.2215625 -52.08648437 12.943125 -51.26171875 12.65625 C-49 12 -49 12 -46 12 C-46 11.34 -46 10.68 -46 10 C-43.12581279 8.4280761 -40.52162394 7.56871611 -37.3125 6.9375 C-34.37233881 6.52286728 -34.37233881 6.52286728 -32 5 C-30.00041636 4.95919217 -27.99954746 4.95745644 -26 5 C-26 4.34 -26 3.68 -26 3 C-25.15695312 2.86722656 -24.31390625 2.73445313 -23.4453125 2.59765625 C-22.34960938 2.42105469 -21.25390625 2.24445313 -20.125 2.0625 C-18.48917969 1.80146484 -18.48917969 1.80146484 -16.8203125 1.53515625 C-14.06178454 1.14448841 -14.06178454 1.14448841 -12 0 C-10.52755177 -0.25146175 -9.04649504 -0.45442586 -7.5625 -0.625 C-6.78003906 -0.72039062 -5.99757813 -0.81578125 -5.19140625 -0.9140625 C-3 -1 -3 -1 0 0 Z " fill="#107286" transform="translate(362,68)"/>
<path d="M0 0 C0.66 0.33 1.32 0.66 2 1 C-1.89424602 6.72683238 -6.3816279 11.60188982 -11.25 16.5 C-12.18996826 17.45350342 -12.18996826 17.45350342 -13.14892578 18.42626953 C-13.74431152 19.01778809 -14.33969727 19.60930664 -14.953125 20.21875 C-15.75991699 21.0221582 -15.75991699 21.0221582 -16.58300781 21.84179688 C-18 23 -18 23 -20 23 C-20.28875 23.61875 -20.5775 24.2375 -20.875 24.875 C-22 27 -22 27 -24 29 C-24.99 28.67 -25.98 28.34 -27 28 C-26.67 27.34 -26.34 26.68 -26 26 C-25.34 26 -24.68 26 -24 26 C-23.731875 25.401875 -23.46375 24.80375 -23.1875 24.1875 C-22.00082594 22.00152146 -20.90400887 20.58667406 -19 19 C-18.34 19 -17.68 19 -17 19 C-16.67 18.01 -16.34 17.02 -16 16 C-15.34 16 -14.68 16 -14 16 C-13.773125 15.443125 -13.54625 14.88625 -13.3125 14.3125 C-11.62449964 11.33840412 -9.53323483 9.27991135 -7 7 C-6.34 7 -5.68 7 -5 7 C-4.731875 6.401875 -4.46375 5.80375 -4.1875 5.1875 C-3.01506533 3.02775192 -1.80630718 1.64209744 0 0 Z " fill="#254F55" transform="translate(222,179)"/>
<path d="M0 0 C0.82371094 -0.020625 1.64742188 -0.04125 2.49609375 -0.0625 C7.11970327 -0.0922817 10.71766712 -0.0990182 14.25 3.25 C14.87890625 6.02734375 14.87890625 6.02734375 14.8125 9.1875 C14.81443359 10.74791016 14.81443359 10.74791016 14.81640625 12.33984375 C14.13107977 15.86100393 12.89903873 16.927625 10.25 19.25 C9.92 20.075 9.59 20.9 9.25 21.75 C8.07669501 24.68326248 6.65045648 26.22461484 4.25 28.25 C3.59 28.25 2.93 28.25 2.25 28.25 C3.38550871 24.84347386 4.74523872 23.75476128 7.25 21.25 C9.24235614 18.29836127 10.59993354 15.7603589 11.25 12.25 C11.91 12.25 12.57 12.25 13.25 12.25 C13.14592083 8.84919423 13.14592083 8.84919423 12.25 5.25 C8.39786954 2.13969615 5.48517969 1.93225125 0.63671875 2.17578125 C-1.2340332 2.25795898 -1.2340332 2.25795898 -3.14257812 2.34179688 C-5.08293945 2.45104492 -5.08293945 2.45104492 -7.0625 2.5625 C-8.37541016 2.62373047 -9.68832031 2.68496094 -11.04101562 2.74804688 C-14.27832062 2.90108311 -17.51416296 3.06890984 -20.75 3.25 C-16.14192722 -1.35807278 -6.21788765 0.03966754 0 0 Z " fill="#0C6F8A" transform="translate(388.75,89.75)"/>
<path d="M0 0 C5.36214408 4.86359762 6.62609939 10.12133643 7.17285156 17.25537109 C7.29172749 19.75526184 7.34893444 22.24746503 7.375 24.75 C7.38885742 25.55381104 7.40271484 26.35762207 7.41699219 27.18579102 C7.37508664 32.51827194 6.40687813 36.23718296 4 41 C3.34 41 2.68 41 2 41 C2.22816406 40.40316406 2.45632813 39.80632812 2.69140625 39.19140625 C6.38424255 28.04665812 6.04058405 15.50638878 0.83984375 4.8828125 C0 3 0 3 0 0 Z " fill="#0A6A8A" transform="translate(428,77)"/>
<path d="M0 0 C0.66 0.33 1.32 0.66 2 1 C-1.75 5.875 -1.75 5.875 -4 7 C-7.51302996 12.26954494 -9.43680158 16.59357686 -9 23 C-8.67 23.33 -8.34 23.66 -8 24 C-7.95936168 25.66617115 -7.957279 27.33388095 -8 29 C-10.37214497 27.1752731 -10.95782822 26.26670803 -11.43359375 23.2578125 C-11.4442693 14.6960219 -11.4442693 14.6960219 -9.125 11.0625 C-8.42375 10.381875 -7.7225 9.70125 -7 9 C-6.690625 8.154375 -6.38125 7.30875 -6.0625 6.4375 C-4.69340855 3.29664314 -2.75572848 1.9580176 0 0 Z " fill="#0E768B" transform="translate(308,150)"/>
<path d="M0 0 C0.33 0 0.66 0 1 0 C0.96447021 0.66942627 0.92894043 1.33885254 0.89233398 2.02856445 C0.73270263 5.12285441 0.58504914 8.21761128 0.4375 11.3125 C0.38142578 12.36501953 0.32535156 13.41753906 0.26757812 14.50195312 C-0.05236514 21.43405721 0.17693738 28.10910347 1 35 C0.34 34.67 -0.32 34.34 -1 34 C-2.3331099 27.84391924 -2.18353671 21.58639425 -2.1875 15.3125 C-2.19974609 14.28060547 -2.21199219 13.24871094 -2.22460938 12.18554688 C-2.22654297 11.19232422 -2.22847656 10.19910156 -2.23046875 9.17578125 C-2.23457764 8.27770752 -2.23868652 7.37963379 -2.24291992 6.4543457 C-1.98626756 3.8612541 -1.31124932 2.23045556 0 0 Z " fill="#0D8E9A" transform="translate(111,290)"/>
<path d="M0 0 C2.33333333 0 4.66666667 0 7 0 C6.67 0.99 6.34 1.98 6 3 C4.7934375 3.4640625 4.7934375 3.4640625 3.5625 3.9375 C0.84881583 4.73030023 0.84881583 4.73030023 0 7.0625 C-0.33 7.701875 -0.66 8.34125 -1 9 C-3.625 9.75 -3.625 9.75 -6 10 C-4.125 5.25 -4.125 5.25 -3 3 C-2.34 3 -1.68 3 -1 3 C-0.67 2.01 -0.34 1.02 0 0 Z M0 2 C1 4 1 4 1 4 Z " fill="#22525B" transform="translate(281,311)"/>
<path d="M0 0 C0.99 0.33 1.98 0.66 3 1 C-1.62 5.62 -6.24 10.24 -11 15 C-11.33 14.01 -11.66 13.02 -12 12 C-11.34 11.67 -10.68 11.34 -10 11 C-9.9175 10.4225 -9.835 9.845 -9.75 9.25 C-8.27860444 4.83581332 -3.73273236 2.48848824 0 0 Z " fill="#0A95A2" transform="translate(140,416)"/>
<path d="M0 0 C-2.3024696 2.3024696 -7.61695499 2.25339353 -10.83398438 2.80664062 C-15.04692464 3.55742315 -18.94093798 4.61121666 -23 6 C-25.875 6.125 -25.875 6.125 -28 6 C-27.34 5.67 -26.68 5.34 -26 5 C-26 4.34 -26 3.68 -26 3 C-25.15695312 2.86722656 -24.31390625 2.73445313 -23.4453125 2.59765625 C-22.34960938 2.42105469 -21.25390625 2.24445313 -20.125 2.0625 C-19.03445313 1.88847656 -17.94390625 1.71445313 -16.8203125 1.53515625 C-14.06178454 1.14448841 -14.06178454 1.14448841 -12 0 C-10.52755177 -0.25146175 -9.04649504 -0.45442586 -7.5625 -0.625 C-6.78003906 -0.72039062 -5.99757813 -0.81578125 -5.19140625 -0.9140625 C-3 -1 -3 -1 0 0 Z " fill="#0C738D" transform="translate(362,68)"/>
<path d="M0 0 C0.33 0 0.66 0 1 0 C1.63335679 9.21885996 1.63335679 9.21885996 -0.875 12.3125 C-1.57625 12.869375 -2.2775 13.42625 -3 14 C-3.495 15.2375 -3.495 15.2375 -4 16.5 C-5.17330499 19.43326248 -6.59954352 20.97461484 -9 23 C-9.66 23 -10.32 23 -11 23 C-9.86449129 19.59347386 -8.50476128 18.50476128 -6 16 C-4.00764386 13.04836127 -2.65006646 10.5103589 -2 7 C-1.34 7 -0.68 7 0 7 C0 4.69 0 2.38 0 0 Z " fill="#175C71" transform="translate(402,95)"/>
<path d="M0 0 C0.33 0.66 0.66 1.32 1 2 C0.34 2 -0.32 2 -1 2 C-1.0825 2.7425 -1.165 3.485 -1.25 4.25 C-2.15437599 7.56604529 -3.3714526 8.83531391 -6 11 C-6.99 11.33 -7.98 11.66 -9 12 C-10.69882448 14.49759982 -10.69882448 14.49759982 -12 17 C-12.66 16.67 -13.32 16.34 -14 16 C-12.7260411 13.96166576 -11.38938077 11.96147874 -10 10 C-9.34 10 -8.68 10 -8 10 C-7.67 9.01 -7.34 8.02 -7 7 C-6.34 7 -5.68 7 -5 7 C-4.731875 6.401875 -4.46375 5.80375 -4.1875 5.1875 C-3.01506533 3.02775192 -1.80630718 1.64209744 0 0 Z " fill="#117989" transform="translate(232,326)"/>
<path d="M0 0 C0.66 0.33 1.32 0.66 2 1 C1.67 1.66 1.34 2.32 1 3 C0.34 3 -0.32 3 -1 3 C-1.061875 3.5775 -1.12375 4.155 -1.1875 4.75 C-2.33209348 7.91964348 -4.32560305 8.99420228 -7 11 C-8.68528688 12.64783606 -10.35697047 14.31002677 -12 16 C-12.66 15.67 -13.32 15.34 -14 15 C-11.31011108 11.41348144 -8.5185635 8.75779302 -5 6 C-4.67 5.34 -4.34 4.68 -4 4 C-3.34 4 -2.68 4 -2 4 C-1.34 2.68 -0.68 1.36 0 0 Z " fill="#1E5C66" transform="translate(222,387)"/>
<path d="M0 0 C0.33 0.66 0.66 1.32 1 2 C-0.14453125 4.3828125 -0.14453125 4.3828125 -1.8125 7.125 C-2.35519531 8.03507812 -2.89789063 8.94515625 -3.45703125 9.8828125 C-3.96621094 10.58148438 -4.47539062 11.28015625 -5 12 C-5.66 12 -6.32 12 -7 12 C-7 11.01 -7 10.02 -7 9 C-7.66 9 -8.32 9 -9 9 C-9 8.34 -9 7.68 -9 7 C-4.52941176 3 -4.52941176 3 -2 3 C-2 2.34 -2 1.68 -2 1 C-1.34 0.67 -0.68 0.34 0 0 Z " fill="#1A6270" transform="translate(275,275)"/>
<path d="M0 0 C0 3 0 3 -1.375 4.6875 C-3 6 -3 6 -5 6 C-5.226875 6.5775 -5.45375 7.155 -5.6875 7.75 C-7.33038023 10.5663661 -9.39533227 12.08077114 -12 14 C-12 12.68 -12 11.36 -12 10 C-11.01 10 -10.02 10 -9 10 C-8.67 9.01 -8.34 8.02 -8 7 C-7.34 7 -6.68 7 -6 7 C-5.7525 6.21625 -5.505 5.4325 -5.25 4.625 C-3.84610901 1.67682892 -2.99324263 1.0975223 0 0 Z " fill="#0991A1" transform="translate(194,159)"/>
<path d="M0 0 C0.99 0 1.98 0 3 0 C2.36338468 2.86476895 1.63204884 4.56043256 -0.80859375 6.2578125 C-2.86976268 7.33945344 -4.77173522 8.32048955 -7 9 C-7.99 8.67 -8.98 8.34 -10 8 C-9.38125 7.9175 -8.7625 7.835 -8.125 7.75 C-5.81653196 7.21189267 -5.81653196 7.21189267 -5 5 C-4 3 -4 3 -1.875 2.25 C-1.25625 2.1675 -0.6375 2.085 0 2 C0 1.34 0 0.68 0 0 Z " fill="#0D6A85" transform="translate(400,148)"/>
<path d="M0 0 C0.99 0.33 1.98 0.66 3 1 C4.47965926 1.14573058 5.96403843 1.24663268 7.44921875 1.31640625 C8.29677734 1.35830078 9.14433594 1.40019531 10.01757812 1.44335938 C10.89865234 1.48267578 11.77972656 1.52199219 12.6875 1.5625 C13.58017578 1.60568359 14.47285156 1.64886719 15.39257812 1.69335938 C17.59490108 1.79935353 19.79733473 1.90142051 22 2 C22.33 2.99 22.66 3.98 23 5 C22.36707031 4.83628906 21.73414063 4.67257813 21.08203125 4.50390625 C16.93248907 3.82546399 12.88358502 3.89444625 8.6875 3.9375 C7.43356445 3.94426758 7.43356445 3.94426758 6.15429688 3.95117188 C4.10283351 3.96289452 2.05140727 3.98082797 0 4 C0 2.68 0 1.36 0 0 Z " fill="#0B738E" transform="translate(352,177)"/>
<path d="M0 0 C0.66 1.65 1.32 3.3 2 5 C-2.29 5 -6.58 5 -11 5 C-4.33333333 0 -4.33333333 0 0 0 Z " fill="#244A53" transform="translate(364,174)"/>
<path d="M0 0 C0 0.66 0 1.32 0 2 C-12.48519362 8.51936219 -12.48519362 8.51936219 -19 10 C-17.77667897 7.55335795 -16.88755702 7.25662033 -14.47265625 6.0546875 C-13.76302734 5.70019531 -13.05339844 5.34570312 -12.32226562 4.98046875 C-11.57654297 4.61566406 -10.83082031 4.25085938 -10.0625 3.875 C-8.9497168 3.31619141 -8.9497168 3.31619141 -7.81445312 2.74609375 C-2.26694139 0 -2.26694139 0 0 0 Z " fill="#0B728D" transform="translate(374,167)"/>
<path d="M0 0 C3.02419525 0.58803797 6.01758453 1.22678118 9 2 C9 2.66 9 3.32 9 4 C10.32 4 11.64 4 13 4 C13 4.66 13 5.32 13 6 C14.32 6 15.64 6 17 6 C17.33 6.99 17.66 7.98 18 9 C14.91035132 8.06592017 12.24632912 7.1539557 9.5 5.4375 C6.64868214 3.79799223 4.24483276 3.37730613 1 3 C0.67 2.01 0.34 1.02 0 0 Z " fill="#126179" transform="translate(405,64)"/>
<path d="M0 0 C0 0.99 0 1.98 0 3 C-5.25714286 7 -5.25714286 7 -8 7 C-8.28875 7.61875 -8.5775 8.2375 -8.875 8.875 C-10 11 -10 11 -12 13 C-12.99 13 -13.98 13 -15 13 C-14.67 12.01 -14.34 11.02 -14 10 C-12.66666667 9.33333333 -11.33333333 8.66666667 -10 8 C-8.7315625 6.700625 -8.7315625 6.700625 -7.4375 5.375 C-5 3 -5 3 -2 3 C-2 2.34 -2 1.68 -2 1 C-1.34 0.67 -0.68 0.34 0 0 Z " fill="#205861" transform="translate(239,374)"/>
<path d="M0 0 C2.31 0 4.62 0 7 0 C7 0.66 7 1.32 7 2 C11.95 1.34 16.9 0.68 22 0 C21.67 0.66 21.34 1.32 21 2 C14.37983196 3.69747899 6.17023959 4.29079445 0 1 C0 0.67 0 0.34 0 0 Z " fill="#205B64" transform="translate(150,311)"/>
<path d="M0 0 C0.33 0.99 0.66 1.98 1 3 C-6.29840547 10.48291572 -6.29840547 10.48291572 -10 13 C-10.66 12.67 -11.32 12.34 -12 12 C-9.32459253 8.43279004 -6.64340588 5.58873576 -3 3 C-2.34 3 -1.68 3 -1 3 C-0.67 2.01 -0.34 1.02 0 0 Z " fill="#26444D" transform="translate(421,131)"/>
<path d="M0 0 C0.33 0.66 0.66 1.32 1 2 C0.34 2 -0.32 2 -1 2 C-1.185625 2.5775 -1.37125 3.155 -1.5625 3.75 C-3.74569692 7.16717779 -6.36059284 8.24528583 -10 10 C-10.66 9.67 -11.32 9.34 -12 9 C-9.83170013 6.72328514 -7.63335392 4.72813851 -5 3 C-4.01 3 -3.02 3 -2 3 C-2 2.34 -2 1.68 -2 1 C-1.34 0.67 -0.68 0.34 0 0 Z " fill="#1D5B67" transform="translate(268,352)"/>
<path d="M0 0 C-3.18113351 2.12075567 -5.92004956 3.06017176 -9.5625 4.1875 C-10.71878906 4.55230469 -11.87507813 4.91710937 -13.06640625 5.29296875 C-16 6 -16 6 -18 5 C-16.35 4.67 -14.7 4.34 -13 4 C-13 3.34 -13 2.68 -13 2 C-8.49646738 0.24252386 -4.82360189 -0.19294408 0 0 Z " fill="#13677D" transform="translate(368,93)"/>
<path d="M0 0 C3.34556749 2.93689569 4.70773595 5.19910038 5.8125 9.5 C6.06644531 10.4384375 6.32039063 11.376875 6.58203125 12.34375 C7.00404828 15.02572737 6.73347066 16.4432336 6 19 C4.99394407 16.39802798 3.99497475 13.79370638 3 11.1875 C2.57074219 10.08051758 2.57074219 10.08051758 2.1328125 8.95117188 C1.86210937 8.23896484 1.59140625 7.52675781 1.3125 6.79296875 C1.06113281 6.1383667 0.80976563 5.48376465 0.55078125 4.80932617 C0 3 0 3 0 0 Z " fill="#145C75" transform="translate(428,77)"/>
<path d="M0 0 C2.0625 0.4375 2.0625 0.4375 4 1 C3.67 1.66 3.34 2.32 3 3 C0.453125 3.5625 0.453125 3.5625 -2.75 4 C-6.80631645 4.55949192 -10.25124071 5.33388476 -14 7 C-14 6.34 -14 5.68 -14 5 C-11.12581279 3.4280761 -8.52162394 2.56871611 -5.3125 1.9375 C-2.37233881 1.52286728 -2.37233881 1.52286728 0 0 Z " fill="#195F6F" transform="translate(330,73)"/>
<path d="M0 0 C0.66 0 1.32 0 2 0 C0.82612037 4.98898842 -2.18312389 6.98658122 -6.125 9.86328125 C-8 11 -8 11 -10 11 C-10 10.34 -10 9.68 -10 9 C-4.64285714 4 -4.64285714 4 -1 4 C-0.67 2.68 -0.34 1.36 0 0 Z " fill="#126C7F" transform="translate(324,201)"/>
<path d="M0 0 C0 0.66 0 1.32 0 2 C-1.55851755 2.82011312 -3.12201716 3.63076213 -4.6875 4.4375 C-5.99267578 5.11619141 -5.99267578 5.11619141 -7.32421875 5.80859375 C-9.90998264 6.95991928 -12.21356528 7.56320753 -15 8 C-12.61753661 5.31874582 -10.1454496 3.88576541 -6.9375 2.3125 C-5.62072266 1.65701172 -5.62072266 1.65701172 -4.27734375 0.98828125 C-2 0 -2 0 0 0 Z " fill="#0F768A" transform="translate(295,89)"/>
<path d="M0 0 C0.66 0.33 1.32 0.66 2 1 C1.67 1.66 1.34 2.32 1 3 C0.34 3 -0.32 3 -1 3 C-1.103125 3.598125 -1.20625 4.19625 -1.3125 4.8125 C-2.08876455 7.28243264 -3.07088921 8.32251235 -5 10 C-5.99 9.67 -6.98 9.34 -8 9 C-6.71937515 7.2925002 -5.38232443 5.62626404 -4 4 C-3.34 4 -2.68 4 -2 4 C-1.34 2.68 -0.68 1.36 0 0 Z " fill="#23555C" transform="translate(174,438)"/>
<path d="M0 0 C0.66 0.33 1.32 0.66 2 1 C0.68 1.33 -0.64 1.66 -2 2 C-2 2.66 -2 3.32 -2 4 C-3.0725 4.45375 -4.145 4.9075 -5.25 5.375 C-7.88062317 6.50088537 -10.46000396 7.67920206 -13 9 C-13 8.01 -13 7.02 -13 6 C-6.375 3 -6.375 3 -3 3 C-3 2.34 -3 1.68 -3 1 C-2.01 0.67 -1.02 0.34 0 0 Z " fill="#0E748A" transform="translate(320,109)"/>
<path d="M0 0 C0.99 0 1.98 0 3 0 C1.53966649 4.38100054 -1.31561114 7.04399551 -5.3125 9.3125 C-6.1478125 9.6528125 -6.1478125 9.6528125 -7 10 C-5.32127275 6.03209924 -2.91722926 3.13068506 0 0 Z " fill="#22555C" transform="translate(186,425)"/>
<path d="M0 0 C0.66 0.33 1.32 0.66 2 1 C1.07161713 2.31896465 0.13194268 3.62998689 -0.8125 4.9375 C-1.59560547 6.03384766 -1.59560547 6.03384766 -2.39453125 7.15234375 C-4 9 -4 9 -7 10 C-6.38722388 7.03824877 -5.74627478 5.61941217 -4 3 C-3.34 3 -2.68 3 -2 3 C-2 2.34 -2 1.68 -2 1 C-1.34 0.67 -0.68 0.34 0 0 Z " fill="#106C82" transform="translate(346,227)"/>
<path d="M0 0 C0 0.99 0 1.98 0 3 C-1.64453125 4.640625 -1.64453125 4.640625 -3.8125 6.25 C-4.52019531 6.79140625 -5.22789062 7.3328125 -5.95703125 7.890625 C-6.96830078 8.43976563 -6.96830078 8.43976563 -8 9 C-8.99 8.67 -9.98 8.34 -11 8 C-10.195625 7.54625 -9.39125 7.0925 -8.5625 6.625 C-5.91143428 5.25274335 -5.91143428 5.25274335 -5 3 C-4.01 3 -3.02 3 -2 3 C-2 2.34 -2 1.68 -2 1 C-1.34 0.67 -0.68 0.34 0 0 Z " fill="#254B52" transform="translate(293,333)"/>
<path d="M0 0 C-0.25521198 3.44536172 -1.21289941 4.18975817 -3.875 6.5625 C-4.90625 7.366875 -5.9375 8.17125 -7 9 C-8.01680311 9.98290968 -9.02738219 10.97334787 -10 12 C-8.73050758 7.810675 -4.99190297 0 0 0 Z " fill="#0E6F87" transform="translate(365,206)"/>
<path d="M0 0 C0.66 0 1.32 0 2 0 C0.6190998 3.33717549 -0.8201238 5.22301036 -4 7 C-6.25 6.6875 -6.25 6.6875 -8 6 C-4.375 3 -4.375 3 -1 3 C-0.67 2.01 -0.34 1.02 0 0 Z " fill="#1E5A65" transform="translate(254,362)"/>
<path d="M0 0 C0.66 0.33 1.32 0.66 2 1 C-0.55022856 3.97526665 -3.40293526 5.50122302 -7 7 C-7.99 6.67 -8.98 6.34 -10 6 C-8.89932004 5.18278283 -7.79430269 4.37140549 -6.6875 3.5625 C-6.07261719 3.11003906 -5.45773437 2.65757812 -4.82421875 2.19140625 C-3 1 -3 1 0 0 Z " fill="#0B708B" transform="translate(384,160)"/>
<path d="M0 0 C-1.32 0.33 -2.64 0.66 -4 1 C-4 1.66 -4 2.32 -4 3 C-8.455 4.485 -8.455 4.485 -13 6 C-13 5.34 -13 4.68 -13 4 C-3.42105263 -1.71052632 -3.42105263 -1.71052632 0 0 Z " fill="#0B7890" transform="translate(337,103)"/>
<path d="M0 0 C0.66 0.33 1.32 0.66 2 1 C-1.32307692 5.8 -1.32307692 5.8 -4.75 6.8125 C-5.4925 6.874375 -6.235 6.93625 -7 7 C-6.67 6.34 -6.34 5.68 -6 5 C-5.34 5 -4.68 5 -4 5 C-3.896875 4.360625 -3.79375 3.72125 -3.6875 3.0625 C-3.460625 2.381875 -3.23375 1.70125 -3 1 C-2.01 0.67 -1.02 0.34 0 0 Z " fill="#205660" transform="translate(250,297)"/>
<path d="M0 0 C0.66 0.33 1.32 0.66 2 1 C-1.44615385 5.8 -1.44615385 5.8 -4.25 6.8125 C-5.11625 6.9053125 -5.11625 6.9053125 -6 7 C-4.60667426 3.63279613 -3.0210714 2.0140476 0 0 Z " fill="#136C7F" transform="translate(308,150)"/>
<path d="M0 0 C2.97 0 5.94 0 9 0 C8.67 0.66 8.34 1.32 8 2 C5.71484375 2.4140625 5.71484375 2.4140625 2.9375 2.625 C2.01839844 2.69976562 1.09929687 2.77453125 0.15234375 2.8515625 C-0.55792969 2.90054688 -1.26820313 2.94953125 -2 3 C-1.34 2.67 -0.68 2.34 0 2 C0 1.34 0 0.68 0 0 Z " fill="#106E84" transform="translate(336,71)"/>
<path d="M0 0 C0.66 0.33 1.32 0.66 2 1 C1.67 1.66 1.34 2.32 1 3 C1.99 2.67 2.98 2.34 4 2 C3.67 2.99 3.34 3.98 3 5 C1.02 5.33 -0.96 5.66 -3 6 C-2 4 -1 2 0 0 Z " fill="#0F788B" transform="translate(274,318)"/>
<path d="M0 0 C0.66 0.33 1.32 0.66 2 1 C1.67 1.66 1.34 2.32 1 3 C0.34 3 -0.32 3 -1 3 C-1.103125 3.61875 -1.20625 4.2375 -1.3125 4.875 C-2 7 -2 7 -5 9 C-4.67 7.35 -4.34 5.7 -4 4 C-3.34 4 -2.68 4 -2 4 C-1.34 2.68 -0.68 1.36 0 0 Z " fill="#254F56" transform="translate(222,387)"/>
<path d="M0 0 C0.33 0.66 0.66 1.32 1 2 C0.34 2 -0.32 2 -1 2 C-1.226875 2.639375 -1.45375 3.27875 -1.6875 3.9375 C-3 6 -3 6 -5.625 6.75 C-6.800625 6.87375 -6.800625 6.87375 -8 7 C-7.67 6.01 -7.34 5.02 -7 4 C-5.35 3.67 -3.7 3.34 -2 3 C-2 2.34 -2 1.68 -2 1 C-1.34 0.67 -0.68 0.34 0 0 Z " fill="#205761" transform="translate(242,304)"/>
<path d="M0 0 C0.33 0.66 0.66 1.32 1 2 C-0.3125 4.625 -0.3125 4.625 -2 7 C-2.66 7 -3.32 7 -4 7 C-4.33 7.99 -4.66 8.98 -5 10 C-5.33 9.34 -5.66 8.68 -6 8 C-4.6875 5.375 -4.6875 5.375 -3 3 C-2.34 3 -1.68 3 -1 3 C-0.67 2.01 -0.34 1.02 0 0 Z " fill="#205C64" transform="translate(165,246)"/>
<path d="M0 0 C0 0.99 0 1.98 0 3 C-2.5 5.1875 -2.5 5.1875 -5 7 C-5.33 6.34 -5.66 5.68 -6 5 C-3.375 1.125 -3.375 1.125 0 0 Z " fill="#0E8392" transform="translate(194,159)"/>
<path d="M0 0 C0.66 0.33 1.32 0.66 2 1 C1.01 1.33 0.02 1.66 -1 2 C-1 2.99 -1 3.98 -1 5 C-2.98 5.33 -4.96 5.66 -7 6 C-2.25 1.125 -2.25 1.125 0 0 Z " fill="#176A79" transform="translate(256,109)"/>
<path d="M0 0 C0.66 0.33 1.32 0.66 2 1 C-4.28571429 6.57142857 -4.28571429 6.57142857 -8 7 C-8 6.34 -8 5.68 -8 5 C-7.34 5 -6.68 5 -6 5 C-6 4.34 -6 3.68 -6 3 C-4.03533587 1.93224776 -2.03144641 0.93446535 0 0 Z " fill="#1C616C" transform="translate(214,288)"/>
<path d="M0 0 C0.33 0.66 0.66 1.32 1 2 C-0.375 4 -0.375 4 -2 6 C-2.66 6 -3.32 6 -4 6 C-4 6.66 -4 7.32 -4 8 C-4.66 7.67 -5.32 7.34 -6 7 C-2.25 1.125 -2.25 1.125 0 0 Z " fill="#22565D" transform="translate(182,223)"/>
<path d="M0 0 C0.66 0 1.32 0 2 0 C2 0.66 2 1.32 2 2 C1.01 2.495 1.01 2.495 0 3 C-0.33 3.99 -0.66 4.98 -1 6 C-1.66 6 -2.32 6 -3 6 C-3.33 6.99 -3.66 7.98 -4 9 C-4.33 8.34 -4.66 7.68 -5 7 C-3.56742037 4.27127689 -2.18277634 2.18277634 0 0 Z " fill="#106D83" transform="translate(353,218)"/>
<path d="M0 0 C-0.33 1.32 -0.66 2.64 -1 4 C-1.66 4 -2.32 4 -3 4 C-3 4.99 -3 5.98 -3 7 C-3.66 6.67 -4.32 6.34 -5 6 C-4.625 3.5625 -4.625 3.5625 -4 1 C-2 0 -2 0 0 0 Z " fill="#0A8198" transform="translate(280,271)"/>
<path d="M0 0 C0.99 0 1.98 0 3 0 C2.3125 2.4375 2.3125 2.4375 1 5 C-1.625 5.8125 -1.625 5.8125 -4 6 C-3.525625 5.566875 -3.05125 5.13375 -2.5625 4.6875 C-0.76313043 2.97690387 -0.76313043 2.97690387 0 0 Z " fill="#1E5160" transform="translate(400,148)"/>
<path d="M0 0 C0.33 0.66 0.66 1.32 1 2 C-0.65 3.98 -2.3 5.96 -4 8 C-4.66 7.67 -5.32 7.34 -6 7 C-5.67 6.34 -5.34 5.68 -5 5 C-4.34 5 -3.68 5 -3 5 C-2.5359375 4.0409375 -2.5359375 4.0409375 -2.0625 3.0625 C-1 1 -1 1 0 0 Z " fill="#28424A" transform="translate(428,123)"/>
</svg>
