<?xml version="1.0" encoding="UTF-8"?>
<svg version="1.1" xmlns="http://www.w3.org/2000/svg" width="177" height="160">
<path d="M0 0 C58.41 0 116.82 0 177 0 C177 52.8 177 105.6 177 160 C118.59 160 60.18 160 0 160 C0 107.2 0 54.4 0 0 Z " fill="#E4E5E9" transform="translate(0,0)"/>
<path d="M0 0 C1.32 0 2.64 0 4 0 C4 4.62 4 9.24 4 14 C7.3203125 12.4375 7.3203125 12.4375 10.640625 10.875 C13 10 13 10 17 10 C17 6.7 17 3.4 17 0 C18.32 0 19.64 0 21 0 C21 2.97 21 5.94 21 9 C21.99 9 22.98 9 24 9 C23.52433594 10.01126953 23.52433594 10.01126953 23.0390625 11.04296875 C21.81297609 14.53224473 21.58180931 17.62440058 21.375 21.3125 C21.30023438 22.56675781 21.22546875 23.82101563 21.1484375 25.11328125 C21.09945312 26.06589844 21.05046875 27.01851562 21 28 C19.68 28 18.36 28 17 28 C16.67 25.36 16.34 22.72 16 20 C15.01 20.66 14.02 21.32 13 22 C10.73828125 22.1953125 10.73828125 22.1953125 8.3125 22.125 C7.50425781 22.10695313 6.69601563 22.08890625 5.86328125 22.0703125 C5.24839844 22.04710938 4.63351563 22.02390625 4 22 C4 23.98 4 25.96 4 28 C2.68 28 1.36 28 0 28 C-0.33 25.36 -0.66 22.72 -1 20 C-4.63 19.01 -8.26 18.02 -12 17 C-12 16.34 -12 15.68 -12 15 C-11.484375 15.165 -10.96875 15.33 -10.4375 15.5 C-7.27183913 16.23443483 -7.27183913 16.23443483 -1 16 C-0.67 10.72 -0.34 5.44 0 0 Z " fill="#1A7A10" transform="translate(18,58)"/>
<path d="M0 0 C1.32 0 2.64 0 4 0 C4.01981934 0.59014893 4.03963867 1.18029785 4.06005859 1.78833008 C4.15534659 4.46350096 4.26500939 7.13789498 4.375 9.8125 C4.4059375 10.74126953 4.436875 11.67003906 4.46875 12.62695312 C4.50742188 13.51962891 4.54609375 14.41230469 4.5859375 15.33203125 C4.6173584 16.15421143 4.6487793 16.9763916 4.68115234 17.82348633 C4.88373622 20.28952937 4.88373622 20.28952937 7 23 C8.97747122 23.36297936 8.97747122 23.36297936 11.125 23.1875 C12.40375 23.125625 13.6825 23.06375 15 23 C14.69191406 22.43152344 14.38382813 21.86304687 14.06640625 21.27734375 C13.00622526 19.01329424 12.44112703 17.00445628 11.9375 14.5625 C11.69193359 13.39074219 11.69193359 13.39074219 11.44140625 12.1953125 C11.29574219 11.47085938 11.15007812 10.74640625 11 10 C10.79375 8.989375 10.5875 7.97875 10.375 6.9375 C10.25125 6.298125 10.1275 5.65875 10 5 C10.66 5 11.32 5 12 5 C12.28875 5.969375 12.5775 6.93875 12.875 7.9375 C13.64214682 11.10664203 13.64214682 11.10664203 16 12 C16 8.04 16 4.08 16 0 C17.65 0 19.3 0 21 0 C21 5.61 21 11.22 21 17 C22.65 17.66 24.3 18.32 26 19 C26 19.66 26 20.32 26 21 C26.639375 21.2475 27.27875 21.495 27.9375 21.75 C30 23 30 23 30.75 25.125 C30.87375 26.053125 30.87375 26.053125 31 27 C24.25 27.125 24.25 27.125 22 26 C18.95826106 25.83329727 18.95826106 25.83329727 16 26 C15.67 26.33 15.34 26.66 15 27 C10.41785372 27.57750191 7.00265517 27.60577083 3 25.1875 C0.08846217 22.00300549 -0.12406884 19.47880829 -0.09765625 15.33203125 C-0.09443359 14.43935547 -0.09121094 13.54667969 -0.08789062 12.62695312 C-0.07951172 11.69818359 -0.07113281 10.76941406 -0.0625 9.8125 C-0.05798828 8.87212891 -0.05347656 7.93175781 -0.04882812 6.96289062 C-0.03704626 4.64186288 -0.02059558 2.32096356 0 0 Z " fill="#9D8028" transform="translate(131,59)"/>
<path d="M0 0 C0.66 0 1.32 0 2 0 C3.3143315 3.10339436 4.62614781 6.20784568 5.9375 9.3125 C6.49727539 10.63411133 6.49727539 10.63411133 7.06835938 11.98242188 C7.60493164 13.25375977 7.60493164 13.25375977 8.15234375 14.55078125 C8.48226318 15.33106689 8.81218262 16.11135254 9.15209961 16.9152832 C9.83152111 18.58576412 10.42972637 20.28917912 11 22 C11.94875 22.309375 12.8975 22.61875 13.875 22.9375 C17.27339731 24.09295509 18.19414376 24.9902396 20 28 C17.33333333 26.66666667 14.66666667 25.33333333 12 24 C12.66 25.65 13.32 27.3 14 29 C12.68 29 11.36 29 10 29 C9.773125 28.360625 9.54625 27.72125 9.3125 27.0625 C8.19037971 24.84272168 8.19037971 24.84272168 6 24.25 C1.66383101 23.88865258 -2.65179334 23.92401192 -7 24 C-7.33 25.65 -7.66 27.3 -8 29 C-9.32 29 -10.64 29 -12 29 C-11.67 27.68 -11.34 26.36 -11 25 C-11.825 24.54625 -12.65 24.0925 -13.5 23.625 C-14.325 23.08875 -15.15 22.5525 -16 22 C-16 21.34 -16 20.68 -16 20 C-14.71086513 19.32845067 -13.41859796 18.66291141 -12.125 18 C-11.40570313 17.62875 -10.68640625 17.2575 -9.9453125 16.875 C-8 16 -8 16 -6 16 C-5.81824219 15.43152344 -5.63648438 14.86304687 -5.44921875 14.27734375 C-3.85915366 9.39298997 -2.09540222 4.68970973 0 0 Z " fill="#C5380A" transform="translate(61,57)"/>
<path d="M0 0 C0.33 0 0.66 0 1 0 C1 4.62 1 9.24 1 14 C2.4025 13.814375 3.805 13.62875 5.25 13.4375 C8.47916205 13.01011091 10.87819599 13.03338637 14 14 C14.33 12.35 14.66 10.7 15 9 C16.91503674 8.77718126 18.83216506 8.57228924 20.75 8.375 C21.81734375 8.25898437 22.8846875 8.14296875 23.984375 8.0234375 C27.05625509 7.99956278 28.50531483 8.25842734 31 10 C31.75 12.125 31.75 12.125 32 14 C33.32 14.33 34.64 14.66 36 15 C17.19 15 -1.62 15 -21 15 C-19.68 14.67 -18.36 14.34 -17 14 C-17 12.02 -17 10.04 -17 8 C-16.39671875 7.96261719 -15.7934375 7.92523438 -15.171875 7.88671875 C-14.37265625 7.82097656 -13.5734375 7.75523438 -12.75 7.6875 C-11.56664062 7.60048828 -11.56664062 7.60048828 -10.359375 7.51171875 C-7.50749861 7.06479016 -7.50749861 7.06479016 -4 4 C-4 7.3 -4 10.6 -4 14 C-2.68 14 -1.36 14 0 14 C0 9.38 0 4.76 0 0 Z " fill="#BFC0C4" transform="translate(39,72)"/>
<path d="M0 0 C0.99 0 1.98 0 3 0 C3 3.63 3 7.26 3 11 C6.27945988 8.4069387 9.06043939 6.04217362 11.5625 2.6875 C14 0 14 0 16.8125 -0.375 C17.534375 -0.25125 18.25625 -0.1275 19 0 C18.08552154 1.08518111 17.16829593 2.16804738 16.25 3.25 C15.70730469 3.89195313 15.16460937 4.53390625 14.60546875 5.1953125 C13 7 13 7 10.5625 9.125 C8.73768804 10.88323537 8.73768804 10.88323537 9.1171875 13.2578125 C10.26092669 16.8104891 12.13007751 18.93311011 14.5625 21.75 C19 26.92823713 19 26.92823713 19 28 C16.7578125 28.3046875 16.7578125 28.3046875 14 28 C11.8671875 25.8828125 11.8671875 25.8828125 9.875 23.125 C7.63561143 20.06653545 6.17778388 18.11852259 3 16 C3 19.96 3 23.92 3 28 C2.01 28 1.02 28 0 28 C0 18.76 0 9.52 0 0 Z " fill="#33343C" transform="translate(102,58)"/>
<path d="M0 0 C1.32 0 2.64 0 4 0 C4.01981934 0.59014893 4.03963867 1.18029785 4.06005859 1.78833008 C4.15534659 4.46350096 4.26500939 7.13789498 4.375 9.8125 C4.4059375 10.74126953 4.436875 11.67003906 4.46875 12.62695312 C4.50742188 13.51962891 4.54609375 14.41230469 4.5859375 15.33203125 C4.6173584 16.15421143 4.6487793 16.9763916 4.68115234 17.82348633 C4.88373622 20.28952937 4.88373622 20.28952937 7 23 C9.97 22.67 12.94 22.34 16 22 C16 23.32 16 24.64 16 26 C14.44014791 27.55985209 12.91093902 27.24452344 10.75 27.3125 C7.25076705 27.27906784 6.10301878 27.06224051 3 25.1875 C0.08846217 22.00300549 -0.12406884 19.47880829 -0.09765625 15.33203125 C-0.09443359 14.43935547 -0.09121094 13.54667969 -0.08789062 12.62695312 C-0.07951172 11.69818359 -0.07113281 10.76941406 -0.0625 9.8125 C-0.05798828 8.87212891 -0.05347656 7.93175781 -0.04882812 6.96289062 C-0.03704626 4.64186288 -0.02059558 2.32096356 0 0 Z " fill="#3B3D43" transform="translate(131,59)"/>
<path d="M0 0 C1.32 0 2.64 0 4 0 C4 2.97 4 5.94 4 9 C4.99 9 5.98 9 7 9 C6.68289062 9.67417969 6.36578125 10.34835938 6.0390625 11.04296875 C4.81297609 14.53224473 4.58180931 17.62440058 4.375 21.3125 C4.26285156 23.19388672 4.26285156 23.19388672 4.1484375 25.11328125 C4.09945312 26.06589844 4.05046875 27.01851562 4 28 C2.68 28 1.36 28 0 28 C0 24.7 0 21.4 0 18 C-0.66 18 -1.32 18 -2 18 C-2.33 16.02 -2.66 14.04 -3 12 C-2.34 12 -1.68 12 -1 12 C-0.67 8.04 -0.34 4.08 0 0 Z " fill="#0F6F05" transform="translate(35,58)"/>
<path d="M0 0 C1.32 0 2.64 0 4 0 C4 9.24 4 18.48 4 28 C2.68 28 1.36 28 0 28 C0 18.76 0 9.52 0 0 Z " fill="#4A4C53" transform="translate(85,58)"/>
<path d="M0 0 C0.66 0 1.32 0 2 0 C3.19706817 2.6210121 4.38288646 5.24614696 5.5625 7.875 C5.90474609 8.62136719 6.24699219 9.36773437 6.59960938 10.13671875 C7.45973857 12.06549332 8.23616798 14.0311033 9 16 C8.67 16.66 8.34 17.32 8 18 C2.42857143 12.85714286 2.42857143 12.85714286 2 9 C1.34 9 0.68 9 0 9 C-0.2475 9.969375 -0.495 10.93875 -0.75 11.9375 C-1.1625 12.948125 -1.575 13.95875 -2 15 C-4.078125 15.69140625 -4.078125 15.69140625 -6 16 C-4.25192871 10.53262809 -2.34205919 5.24175152 0 0 Z " fill="#414147" transform="translate(61,57)"/>
<path d="M0 0 C-0.48578543 3.12290635 -0.9986012 5.99580359 -2 9 C-2.66 9 -3.32 9 -4 9 C-4.33 10.65 -4.66 12.3 -5 14 C-6.32 14 -7.64 14 -9 14 C-8.67 12.68 -8.34 11.36 -8 10 C-8.825 9.54625 -9.65 9.0925 -10.5 8.625 C-11.7375 7.820625 -11.7375 7.820625 -13 7 C-13 6.34 -13 5.68 -13 5 C-11.21046815 4.16209211 -9.41830305 3.32980604 -7.625 2.5 C-6.62726562 2.0359375 -5.62953125 1.571875 -4.6015625 1.09375 C-2 0 -2 0 0 0 Z " fill="#97250A" transform="translate(58,72)"/>
<path d="M0 0 C-0.33 0.99 -0.66 1.98 -1 3 C-0.72230092 5.3406065 -0.39460023 7.67624308 0 10 C-3.8503105 12.56687367 -5.58569763 11.83288724 -10 11 C-9.82568807 5.68348624 -9.82568807 5.68348624 -9 3 C-5.78318686 0.76221695 -3.91333002 0 0 0 Z " fill="#1F9811" transform="translate(34,68)"/>
<path d="M0 0 C0 1.32 0 2.64 0 4 C-5.28 4 -10.56 4 -16 4 C-16 2.35 -16 0.7 -16 -1 C-10.16524985 -1.85330338 -5.55139349 -2.48351814 0 0 Z " fill="#DCD3D5" transform="translate(70,82)"/>
<path d="M0 0 C0.99 0 1.98 0 3 0 C3.95494744 1.33010536 4.89482277 2.67396843 5.75 4.0703125 C7.81693707 7.26114661 10.24108736 10.17422091 12.609375 13.14453125 C14 15 14 15 14 16 C11.76171875 16.296875 11.76171875 16.296875 9 16 C6.83203125 13.953125 6.83203125 13.953125 4.8125 11.25 C4.13832031 10.36828125 3.46414062 9.4865625 2.76953125 8.578125 C1.28132744 6.40988103 -0.0472193 4.44848673 -1 2 C-0.67 1.34 -0.34 0.68 0 0 Z " fill="#4D4E55" transform="translate(107,70)"/>
<path d="M0 0 C0 2.64 0 5.28 0 8 C-3.3 8 -6.6 8 -10 8 C-10.33 6.35 -10.66 4.7 -11 3 C-9.35467212 2.49833923 -7.70872301 1.99871553 -6.0625 1.5 C-4.68771484 1.08234375 -4.68771484 1.08234375 -3.28515625 0.65625 C-1 0 -1 0 0 0 Z " fill="#E5E5EA" transform="translate(34,78)"/>
<path d="M0 0 C1.32 0 2.64 0 4 0 C4 4.62 4 9.24 4 14 C4.66 14.33 5.32 14.66 6 15 C4.02 15.33 2.04 15.66 0 16 C0 10.72 0 5.44 0 0 Z " fill="#404448" transform="translate(18,58)"/>
<path d="M0 0 C1.9375 0.8125 1.9375 0.8125 4 2 C4.33 2.99 4.66 3.98 5 5 C5.94875 5.309375 6.8975 5.61875 7.875 5.9375 C11.27339731 7.09295509 12.19414376 7.9902396 14 11 C11.33333333 9.66666667 8.66666667 8.33333333 6 7 C6.66 8.65 7.32 10.3 8 12 C6.68 12 5.36 12 4 12 C3.731875 11.38125 3.46375 10.7625 3.1875 10.125 C2.04443152 7.7004767 2.04443152 7.7004767 -1 6 C-0.34 6 0.32 6 1 6 C0.67 4.02 0.34 2.04 0 0 Z " fill="#AA371A" transform="translate(67,74)"/>
<path d="M0 0 C1.32 0.66 2.64 1.32 4 2 C4 2.66 4 3.32 4 4 C4.639375 4.2475 5.27875 4.495 5.9375 4.75 C8 6 8 6 8.75 8.125 C8.87375 9.053125 8.87375 9.053125 9 10 C2.67402207 10.35807422 2.67402207 10.35807422 0 8.9375 C-1.58495594 5.86664787 -0.68036707 3.27813225 0 0 Z " fill="#C7A616" transform="translate(153,76)"/>
<path d="M0 0 C0 4.29 0 8.58 0 13 C-1.32 13 -2.64 13 -4 13 C-4.08121924 11.39667209 -4.13929134 9.79215974 -4.1875 8.1875 C-4.22230469 7.29417969 -4.25710937 6.40085937 -4.29296875 5.48046875 C-4 3 -4 3 -2.55078125 1.17578125 C-1 0 -1 0 0 0 Z " fill="#3F4247" transform="translate(39,73)"/>
<path d="M0 0 C3.0625 0.125 3.0625 0.125 5.0625 1.125 C6.43592831 1.1939472 7.81252102 1.20967708 9.1875 1.1875 C11.105625 1.1565625 11.105625 1.1565625 13.0625 1.125 C13.0625 1.785 13.0625 2.445 13.0625 3.125 C4.1525 3.125 -4.7575 3.125 -13.9375 3.125 C-13.6075 2.465 -13.2775 1.805 -12.9375 1.125 C-12.29941406 1.13660156 -11.66132813 1.14820312 -11.00390625 1.16015625 C-10.17761719 1.16917969 -9.35132813 1.17820312 -8.5 1.1875 C-7.26443359 1.20490234 -7.26443359 1.20490234 -6.00390625 1.22265625 C-3.20065697 1.09017755 -3.10382183 0.13207752 0 0 Z " fill="#CDCACC" transform="translate(149.9375,83.875)"/>
<path d="M0 0 C0.33 0 0.66 0 1 0 C1.02685938 2.14576637 1.04633088 4.29162645 1.0625 6.4375 C1.07410156 7.63246094 1.08570313 8.82742187 1.09765625 10.05859375 C1 13 1 13 0 14 C-0.04063832 15.66617115 -0.042721 17.33388095 0 19 C-0.99 19 -1.98 19 -3 19 C-5.11161731 9.58997722 -5.11161731 9.58997722 -6 5 C-5.34 5 -4.68 5 -4 5 C-3.71125 5.969375 -3.4225 6.93875 -3.125 7.9375 C-2.35785318 11.10664203 -2.35785318 11.10664203 0 12 C0 8.04 0 4.08 0 0 Z " fill="#AD9644" transform="translate(147,59)"/>
<path d="M0 0 C0.99 0 1.98 0 3 0 C3 5.28 3 10.56 3 16 C0 13 0 13 -0.29296875 9.86328125 C-0.25816406 8.69152344 -0.22335938 7.51976563 -0.1875 6.3125 C-0.16042969 5.13300781 -0.13335937 3.95351563 -0.10546875 2.73828125 C-0.07066406 1.83464844 -0.03585938 0.93101563 0 0 Z " fill="#36373D" transform="translate(148,59)"/>
<path d="M0 0 C1.32 0 2.64 0 4 0 C4 2.97 4 5.94 4 9 C4.99 9.33 5.98 9.66 7 10 C4.69 10 2.38 10 0 10 C0 6.7 0 3.4 0 0 Z " fill="#3D4943" transform="translate(35,58)"/>
<path d="M0 0 C0.66 0.33 1.32 0.66 2 1 C1.01 3.31 0.02 5.62 -1 8 C-5.75 7.125 -5.75 7.125 -8 6 C-8 5.34 -8 4.68 -8 4 C-6.71349294 3.30289269 -5.42059335 2.61757124 -4.125 1.9375 C-3.40570313 1.55464844 -2.68640625 1.17179687 -1.9453125 0.77734375 C-1.30335937 0.52082031 -0.66140625 0.26429687 0 0 Z " fill="#BE3913" transform="translate(53,73)"/>
<path d="M0 0 C3.24299151 2.38957269 5.50902342 4.2047869 7 8 C4.6875 8.25 4.6875 8.25 2 8 C0.125 6.25 0.125 6.25 -1 4 C-0.6875 1.75 -0.6875 1.75 0 0 Z " fill="#3E3E46" transform="translate(114,78)"/>
<path d="M0 0 C1.98 0.99 1.98 0.99 4 2 C4 3.98 4 5.96 4 8 C2.68 8 1.36 8 0 8 C0 5.36 0 2.72 0 0 Z " fill="#43474B" transform="translate(18,78)"/>
<path d="M0 0 C1.95582488 2.93373731 3.56224304 5.78216298 5 9 C4.67 9.66 4.34 10.32 4 11 C-0.875 6.375 -0.875 6.375 -2 3 C-1.34 2.01 -0.68 1.02 0 0 Z " fill="#4C494D" transform="translate(65,64)"/>
<path d="M0 0 C0.7425 0.0825 1.485 0.165 2.25 0.25 C0.27 2.56 -1.71 4.87 -3.75 7.25 C-4.08 6.59 -4.41 5.93 -4.75 5.25 C-5.41 4.92 -6.07 4.59 -6.75 4.25 C-3.42692308 0.31153846 -3.42692308 0.31153846 0 0 Z " fill="#42434A" transform="translate(118.75,57.75)"/>
<path d="M0 0 C0.66 0 1.32 0 2 0 C2.66 1.98 3.32 3.96 4 6 C2.02 6 0.04 6 -2 6 C-1.34 4.02 -0.68 2.04 0 0 Z " fill="#CEC4C4" transform="translate(61,66)"/>
<path d="M0 0 C1.5625 1.25 1.5625 1.25 3 3 C2.6875 5.1875 2.6875 5.1875 2 7 C0.2925002 5.71937515 -1.37373596 4.38232443 -3 3 C-3 2.34 -3 1.68 -3 1 C-2.01 0.67 -1.02 0.34 0 0 Z " fill="#46474F" transform="translate(135,79)"/>
<path d="M0 0 C1.98 0.495 1.98 0.495 4 1 C3.67 2.32 3.34 3.64 3 5 C1.68 4.67 0.36 4.34 -1 4 C-0.67 2.68 -0.34 1.36 0 0 Z " fill="#A7A8AC" transform="translate(160,58)"/>
<path d="M0 0 C3.65316671 1.24976756 4.78065836 1.67098753 7 5 C5.35 5 3.7 5 2 5 C1.34 3.35 0.68 1.7 0 0 Z " fill="#DEDEE3" transform="translate(73,81)"/>
<path d="M0 0 C0.99 0 1.98 0 3 0 C2.67 1.65 2.34 3.3 2 5 C0.68 5 -0.64 5 -2 5 C-1.34 3.35 -0.68 1.7 0 0 Z " fill="#403D43" transform="translate(51,81)"/>
<path d="M0 0 C2.64 0 5.28 0 8 0 C6.8125 1.5 6.8125 1.5 5 3 C2.3125 3.1875 2.3125 3.1875 0 3 C0 2.01 0 1.02 0 0 Z " fill="#E6EAEF" transform="translate(54,82)"/>
<path d="M0 0 C1.32 0 2.64 0 4 0 C4.66 1.65 5.32 3.3 6 5 C4.68 5 3.36 5 2 5 C1.34 3.35 0.68 1.7 0 0 Z " fill="#3C3A40" transform="translate(69,81)"/>
<path d="M0 0 C0.33 0.66 0.66 1.32 1 2 C0.34 2 -0.32 2 -1 2 C-1.33 3.32 -1.66 4.64 -2 6 C-3.32 5.67 -4.64 5.34 -6 5 C-6 4.34 -6 3.68 -6 3 C-4.02 2.01 -2.04 1.02 0 0 Z " fill="#C84B28" transform="translate(51,74)"/>
</svg>
