<?xml version="1.0" encoding="UTF-8"?>
<svg version="1.1" xmlns="http://www.w3.org/2000/svg" width="160" height="160">
<path d="M0 0 C52.8 0 105.6 0 160 0 C160 52.8 160 105.6 160 160 C107.2 160 54.4 160 0 160 C0 107.2 0 54.4 0 0 Z " fill="#17212B" transform="translate(0,0)"/>
<path d="M0 0 C12.94388456 -0.86292564 24.3048974 4.2987854 33.99609375 12.73828125 C44.49796902 23.66116711 47.5708325 36.96827322 47.33984375 51.60546875 C46.8898469 62.35124411 42.17388616 71.99488269 35 80 C34.34 80 33.68 80 33 80 C33 80.66 33 81.32 33 82 C25.09236242 88.83085288 14.88247109 94.21885987 4.25 94.0625 C2.14625 94.0315625 2.14625 94.0315625 0 94 C0 88.39 0 82.78 0 77 C1.629375 76.773125 3.25875 76.54625 4.9375 76.3125 C12.97554022 74.82473934 19.62624546 71.61887074 24.71484375 65.0703125 C29.32627232 57.64156738 31.21840421 49.66699901 30 41 C28.02615513 33.12797963 23.89076569 26.38830589 17.15625 21.72265625 C11.78674301 18.8068379 5.89351899 17.47337975 0 16 C0 10.72 0 5.44 0 0 Z " fill="#F9F9F9" transform="translate(80,33)"/>
<path d="M0 0 C0.94875 0.515625 1.8975 1.03125 2.875 1.5625 C3.57625 2.036875 4.2775 2.51125 5 3 C5 3.66 5 4.32 5 5 C5.66 5 6.32 5 7 5 C7.268125 5.639375 7.53625 6.27875 7.8125 6.9375 C8.88667752 9.33131686 8.88667752 9.33131686 12 10 C15.07015395 19.21046185 12.85281268 28.41717175 9 37 C7.68 37 6.36 37 5 37 C4.67 37.99 4.34 38.98 4 40 C-1.25190732 43.36914809 -5.26687735 45.14630498 -11.5625 45.125 C-12.32691406 45.12757812 -13.09132813 45.13015625 -13.87890625 45.1328125 C-16 45 -16 45 -19 44 C-19 43.34 -19 42.68 -19 42 C-20.7015625 41.566875 -20.7015625 41.566875 -22.4375 41.125 C-23.613125 40.75375 -24.78875 40.3825 -26 40 C-26.33 39.34 -26.66 38.68 -27 38 C-27.63421875 37.90332031 -28.2684375 37.80664062 -28.921875 37.70703125 C-31 37 -31 37 -32.265625 34.69921875 C-34.83706475 26.8318376 -37.21546548 18.47947188 -33.9765625 10.46875 C-32.77531816 8.40115369 -31.72759919 6.65460204 -30 5 C-29.01 5 -28.02 5 -27 5 C-26.938125 4.401875 -26.87625 3.80375 -26.8125 3.1875 C-26 1 -26 1 -23.875 -0.6875 C-16.2293805 -4.17789151 -7.20614112 -4.32368467 0 0 Z " fill="#49108F" transform="translate(91,59)"/>
<path d="M0 0 C2.84550012 0.66010476 5.52325999 1.51724966 8.25 2.5625 C8.95640625 2.83191406 9.6628125 3.10132813 10.390625 3.37890625 C10.92171875 3.58386719 11.4528125 3.78882813 12 4 C11.505 2.02 11.505 2.02 11 0 C17.16844535 2.76516516 20.64759777 7.67621063 23.375 13.75 C26.42000723 22.20693184 25.72510301 30.06224249 22.4140625 38.33984375 C20.02430273 42.83549681 16.826103 46.64594867 13 50 C12.34 50 11.68 50 11 50 C10.67 49.34 10.34 48.68 10 48 C7.58354218 47.83312552 7.58354218 47.83312552 5 48 C4.34 48.66 3.68 49.32 3 50 C0.44352607 50.28372082 -1.9398065 50.42815623 -4.5 50.4375 C-5.21671875 50.44136719 -5.9334375 50.44523437 -6.671875 50.44921875 C-12.99304663 50.31279059 -17.73352991 48.54473948 -23 45 C-23 44.01 -23 43.02 -23 42 C-23.99 41.67 -24.98 41.34 -26 41 C-24.35 41.33 -22.7 41.66 -21 42 C-21 42.66 -21 43.32 -21 44 C-20.21625 44.144375 -19.4325 44.28875 -18.625 44.4375 C-16 45 -16 45 -14 46 C-14 46.66 -14 47.32 -14 48 C-6.86793503 48.31619992 -1.34289116 48.43573271 5 45 C5.78375 44.649375 6.5675 44.29875 7.375 43.9375 C9.18297644 43.09342817 9.18297644 43.09342817 10 41 C11.32 41 12.64 41 14 41 C14.185625 39.6696875 14.185625 39.6696875 14.375 38.3125 C15 35 15 35 16.03125 32.8125 C17.31304118 29.09117076 17.21519404 25.56931281 17.125 21.6875 C17.11597656 20.94693359 17.10695312 20.20636719 17.09765625 19.44335938 C17.07424213 17.62876533 17.03837615 15.81433929 17 14 C15.68 13.67 14.36 13.34 13 13 C12.505 11.02 12.505 11.02 12 9 C11.34 9 10.68 9 10 9 C9.505 8.01 9.505 8.01 9 7 C7.344389 6.06606559 5.65049478 5.19897217 3.9375 4.375 C3.01839844 3.92898437 2.09929687 3.48296875 1.15234375 3.0234375 C0.08693359 2.51683594 0.08693359 2.51683594 -1 2 C-0.67 1.34 -0.34 0.68 0 0 Z " fill="#191F32" transform="translate(86,55)"/>
<path d="M0 0 C2.84550012 0.66010476 5.52325999 1.51724966 8.25 2.5625 C8.95640625 2.83191406 9.6628125 3.10132813 10.390625 3.37890625 C10.92171875 3.58386719 11.4528125 3.78882813 12 4 C11.67 2.68 11.34 1.36 11 0 C15.29951803 1.59241408 17.39671947 4.35540725 20 8 C19 11 19 11 17 13 C17.66 13 18.32 13 19 13 C19 20.59 19 28.18 19 36 C17.02 36.495 17.02 36.495 15 37 C15.32742187 36.01902344 15.65484375 35.03804687 15.9921875 34.02734375 C17.19137284 29.83019508 17.22816407 25.89935898 17.125 21.5625 C17.11597656 20.83095703 17.10695313 20.09941406 17.09765625 19.34570312 C17.07436153 17.56365702 17.0385019 15.78178241 17 14 C15.68 13.67 14.36 13.34 13 13 C12.67 11.68 12.34 10.36 12 9 C11.34 9 10.68 9 10 9 C9.67 8.34 9.34 7.68 9 7 C7.344389 6.06606559 5.65049478 5.19897217 3.9375 4.375 C3.01839844 3.92898437 2.09929687 3.48296875 1.15234375 3.0234375 C0.44207031 2.68570313 -0.26820312 2.34796875 -1 2 C-0.67 1.34 -0.34 0.68 0 0 Z " fill="#1D1B3D" transform="translate(86,55)"/>
<path d="M0 0 C2.475 0.495 2.475 0.495 5 1 C5 1.66 5 2.32 5 3 C5.78375 3.144375 6.5675 3.28875 7.375 3.4375 C10 4 10 4 12 5 C12 5.66 12 6.32 12 7 C19.1621779 7.31753498 24.61576992 7.38755065 31 4 C32.6642135 3.32723284 34.32986582 2.65793165 36 2 C36.66 2.99 37.32 3.98 38 5 C38.99 5.66 39.98 6.32 41 7 C39.02 7.99 39.02 7.99 37 9 C36.505 8.01 36.505 8.01 36 7 C33.58354218 6.83312552 33.58354218 6.83312552 31 7 C30.34 7.66 29.68 8.32 29 9 C26.44352607 9.28372082 24.0601935 9.42815623 21.5 9.4375 C20.78328125 9.44136719 20.0665625 9.44523437 19.328125 9.44921875 C13.00695337 9.31279059 8.26647009 7.54473948 3 4 C3 3.01 3 2.02 3 1 C2.01 0.67 1.02 0.34 0 0 Z " fill="#221947" transform="translate(60,96)"/>
<path d="M0 0 C0.66 0.33 1.32 0.66 2 1 C-0.875 7.875 -0.875 7.875 -2 9 C-2.07271741 11.35313555 -2.08370868 13.70833668 -2.0625 16.0625 C-2.05347656 17.35285156 -2.04445312 18.64320312 -2.03515625 19.97265625 C-2.02355469 20.97167969 -2.01195312 21.97070312 -2 23 C-1.34 23 -0.68 23 0 23 C0.66 25.64 1.32 28.28 2 31 C2.66 31 3.32 31 4 31 C3.67 31.66 3.34 32.32 3 33 C1.140625 32.83203125 1.140625 32.83203125 -1 32 C-4.93540705 24.84581867 -6.36438895 16.02847049 -5 8 C-3.67034725 5.01863329 -2.07217082 2.51620742 0 0 Z " fill="#361671" transform="translate(61,64)"/>
<path d="M0 0 C5.33394176 6.30374935 5.59613176 13.06686197 5 21 C4.50833936 23.45830322 3.84240556 25.63073438 3 28 C2.34 27.67 1.68 27.34 1 27 C1.24556641 25.94232422 1.24556641 25.94232422 1.49609375 24.86328125 C2.01699824 21.90341312 2.09866732 19.18938727 2.0625 16.1875 C2.05347656 15.21167969 2.04445313 14.23585938 2.03515625 13.23046875 C2.02355469 12.49441406 2.01195313 11.75835937 2 11 C1.34 10.67 0.68 10.34 0 10 C-0.625 6.9375 -0.625 6.9375 -1 4 C-1.66 4 -2.32 4 -3 4 C-2.67 3.01 -2.34 2.02 -2 1 C-1.34 0.67 -0.68 0.34 0 0 Z " fill="#232B32" transform="translate(106,64)"/>
<path d="M0 0 C0.61230469 0.19207031 1.22460938 0.38414063 1.85546875 0.58203125 C0.60990783 1.40132011 -0.6411976 2.21218311 -1.89453125 3.01953125 C-2.590625 3.47199219 -3.28671875 3.92445312 -4.00390625 4.390625 C-7.56100882 6.37039924 -10.67553437 6.72067422 -14.70703125 6.70703125 C-15.85365234 6.71089844 -15.85365234 6.71089844 -17.0234375 6.71484375 C-19.14453125 6.58203125 -19.14453125 6.58203125 -22.14453125 5.58203125 C-22.14453125 4.92203125 -22.14453125 4.26203125 -22.14453125 3.58203125 C-22.80453125 3.25203125 -23.46453125 2.92203125 -24.14453125 2.58203125 C-20.84453125 2.58203125 -17.54453125 2.58203125 -14.14453125 2.58203125 C-14.14453125 3.24203125 -14.14453125 3.90203125 -14.14453125 4.58203125 C-10.58430304 3.6745221 -7.58321079 2.8574812 -4.45703125 0.89453125 C-2.14453125 -0.41796875 -2.14453125 -0.41796875 0 0 Z " fill="#391873" transform="translate(94.14453125,97.41796875)"/>
<path d="M0 0 C0.99 0.33 1.98 0.66 3 1 C2.9375 3.75 2.9375 3.75 2 7 C-0.96733707 9.50661895 -5.08791705 11.71021608 -9 12 C-9.66 11.34 -10.32 10.68 -11 10 C-6.25 6 -6.25 6 -4 6 C-4 5.34 -4 4.68 -4 4 C-2.70766393 2.62689293 -1.37562854 1.28965176 0 0 Z " fill="#212933" transform="translate(117,109)"/>
<path d="M0 0 C0.66 0 1.32 0 2 0 C5.07015395 9.21046185 2.85281268 18.41717175 -1 27 C-1.99 26.67 -2.98 26.34 -4 26 C-3.01 23.03 -2.02 20.06 -1 17 C-0.34 17 0.32 17 1 17 C0.67 11.39 0.34 5.78 0 0 Z " fill="#3A176A" transform="translate(101,69)"/>
<path d="M0 0 C-4.58567543 -0.76427924 -4.58567543 -0.76427924 -6.78515625 -2.015625 C-12.16205465 -4.40535762 -19.34258008 -3.83726929 -24.8515625 -2.1015625 C-26.96732648 -1.15450624 -28.99456969 -0.16076587 -31 1 C-30 -2 -30 -2 -27.875 -3.625 C-18.10931531 -8.29554485 -8.21071319 -6.63172988 0 0 Z " fill="#3C186D" transform="translate(95,62)"/>
<path d="M0 0 C0.99 0.33 1.98 0.66 3 1 C3.02725341 2.7290774 3.04650987 4.45828176 3.0625 6.1875 C3.07410156 7.15042969 3.08570312 8.11335938 3.09765625 9.10546875 C2.97719121 12.6760524 2.60559937 15.78880125 1 19 C0 18 0 18 -0.11352539 16.23413086 C-0.10828857 15.48526611 -0.10305176 14.73640137 -0.09765625 13.96484375 C-0.09443359 13.15595703 -0.09121094 12.34707031 -0.08789062 11.51367188 C-0.07951172 10.66353516 -0.07113281 9.81339844 -0.0625 8.9375 C-0.05798828 8.08349609 -0.05347656 7.22949219 -0.04882812 6.34960938 C-0.03700373 4.23304337 -0.01906769 2.11651315 0 0 Z " fill="#0F2126" transform="translate(106,74)"/>
<path d="M0 0 C0.66 0 1.32 0 2 0 C2.20852314 6.40629424 2.1583195 11.92972642 0 18 C-0.66 17.67 -1.32 17.34 -2 17 C-1.34 11.39 -0.68 5.78 0 0 Z " fill="#2D3136" transform="translate(109,74)"/>
<path d="M0 0 C0.66 0.33 1.32 0.66 2 1 C-0.75 7.75 -0.75 7.75 -3 10 C-3.46162427 12.43252661 -3.46162427 12.43252661 -3.625 15.125 C-3.73714844 16.49011719 -3.73714844 16.49011719 -3.8515625 17.8828125 C-3.90054688 18.58148438 -3.94953125 19.28015625 -4 20 C-4.33 20 -4.66 20 -5 20 C-5.61046468 11.86047097 -5.2922002 6.4262431 0 0 Z " fill="#301763" transform="translate(61,64)"/>
<path d="M0 0 C0.433125 0.45375 0.86625 0.9075 1.3125 1.375 C3.10798342 3.20024334 3.10798342 3.20024334 6 5 C4.02 5.99 4.02 5.99 2 7 C1.67 6.34 1.34 5.68 1 5 C-1.64 5 -4.28 5 -7 5 C-2.25 1.125 -2.25 1.125 0 0 Z " fill="#252542" transform="translate(95,98)"/>
<path d="M0 0 C3.7952131 1.49097658 5.61042731 3.75700849 8 7 C7.01 7.495 7.01 7.495 6 8 C6 7.34 6 6.68 6 6 C5.01 6.33 4.02 6.66 3 7 C0 2.25 0 2.25 0 0 Z " fill="#2A2F39" transform="translate(97,55)"/>
<path d="M0 0 C0.99 0.33 1.98 0.66 3 1 C3 4.3 3 7.6 3 11 C2.01 10.34 1.02 9.68 0 9 C-0.29296875 6.8359375 -0.29296875 6.8359375 -0.1875 4.375 C-0.16042969 3.55773437 -0.13335937 2.74046875 -0.10546875 1.8984375 C-0.05326172 0.95871094 -0.05326172 0.95871094 0 0 Z " fill="#15272B" transform="translate(106,74)"/>
<path d="M0 0 C0.66 0.33 1.32 0.66 2 1 C1.67 1.66 1.34 2.32 1 3 C1.99 2.67 2.98 2.34 4 2 C3.67 3.32 3.34 4.64 3 6 C2.34 6 1.68 6 1 6 C0.67 6.66 0.34 7.32 0 8 C-0.66 6.35 -1.32 4.7 -2 3 C-1.34 3 -0.68 3 0 3 C0 2.01 0 1.02 0 0 Z " fill="#1D2933" transform="translate(121,49)"/>
<path d="M0 0 C3.33864404 0.57562828 4.69102632 1.59063616 7 4 C7.99 4.33 8.98 4.66 10 5 C9.67 5.66 9.34 6.32 9 7 C5.7 5.35 2.4 3.7 -1 2 C-0.67 1.34 -0.34 0.68 0 0 Z " fill="#27164C" transform="translate(86,55)"/>
<path d="M0 0 C-6.45 4.09326923 -6.45 4.09326923 -9.234375 3.62109375 C-9.81703125 3.41613281 -10.3996875 3.21117187 -11 3 C-9.73581754 2.30034557 -8.46334598 1.61565237 -7.1875 0.9375 C-6.47980469 0.55464844 -5.77210937 0.17179687 -5.04296875 -0.22265625 C-3 -1 -3 -1 0 0 Z " fill="#471581" transform="translate(76,59)"/>
<path d="M0 0 C0.185625 0.9590625 0.185625 0.9590625 0.375 1.9375 C0.684375 2.9584375 0.684375 2.9584375 1 4 C1.66 4.33 2.32 4.66 3 5 C1.68 5.99 0.36 6.98 -1 8 C-1.93065133 5.39417629 -2.14917407 4.35801776 -1.0625 1.75 C-0.711875 1.1725 -0.36125 0.595 0 0 Z " fill="#232A35" transform="translate(102,94)"/>
</svg>
