<?xml version="1.0" encoding="UTF-8"?>
<svg version="1.1" xmlns="http://www.w3.org/2000/svg" width="160" height="160">
<path d="M0 0 C10.7797756 0.61045691 18.98890299 11.72039289 26 19 C26.38671875 18.55527344 26.7734375 18.11054688 27.171875 17.65234375 C27.69265625 17.08644531 28.2134375 16.52054688 28.75 15.9375 C29.51570313 15.08478516 29.51570313 15.08478516 30.296875 14.21484375 C32 13 32 13 33.9375 13.0625 C38.09637906 14.95289957 40.89665455 18.74148727 44 22 C44.33 18.37 44.66 14.74 45 11 C50 12 50 12 52.125 15.125 C53.96603291 19.10676886 54.4224032 22.92246703 55 27.25 C56.854843 37.47201939 63.45342756 43.07622386 71.68359375 48.8984375 C73.19413325 49.87569951 74.71653349 50.83504977 76.25390625 51.76953125 C78 53 78 53 79.5 55.625 C81.56934096 58.90145652 84.0140978 59.48845025 87.53125 60.91015625 C91.70777848 62.75390854 95.32646735 65.31237869 99 68 C99.61875 68.45117188 100.2375 68.90234375 100.875 69.3671875 C109.85796452 76.46533357 117.33861271 88.23963571 118.8125 99.6875 C118.874375 100.780625 118.93625 101.87375 119 103 C115.0802843 101.6934281 114.92271258 100.36629112 113.0625 96.75 C110.17024664 91.60548125 106.94490387 87.32797138 102.9375 83 C102.4432251 82.46084961 101.9489502 81.92169922 101.43969727 81.36621094 C98.23580875 77.99101701 94.95849359 75.44685488 91 73 C87.14691234 74.57523746 84.55256086 77.17747444 81.68066406 80.09228516 C81.16314072 80.60951645 80.64561737 81.12674774 80.1124115 81.65965271 C78.40869711 83.36475671 76.71217022 85.07682768 75.015625 86.7890625 C73.83350593 87.974913 72.65094355 89.16032174 71.46795654 90.3453064 C68.35971272 93.46117638 65.25752263 96.58300634 62.15655518 99.70611572 C58.98951498 102.89363619 55.81678613 106.0754832 52.64453125 109.2578125 C46.42410597 115.49966976 40.21006463 121.74783485 34 128 C30.88033959 126.51136264 28.75987387 124.99711308 26.328125 122.5234375 C25.66425781 121.853125 25.00039062 121.1828125 24.31640625 120.4921875 C23.29353516 119.44417969 23.29353516 119.44417969 22.25 118.375 C21.55261719 117.66859375 20.85523438 116.9621875 20.13671875 116.234375 C18.41987512 114.49401297 16.70788168 112.74915019 15 111 C14.62190186 111.64404785 14.24380371 112.2880957 13.85424805 112.95166016 C7.2578407 124.1466446 -0.0854689 134.70047585 -8 145 C-8.49628906 145.68835938 -8.99257813 146.37671875 -9.50390625 147.0859375 C-10.75 148.75 -10.75 148.75 -13 151 C-15.8125 151.375 -15.8125 151.375 -18 151 C-19.60397886 145.14361206 -19.60397886 145.14361206 -18.05126953 142.20361328 C-16.63310679 140.39844742 -15.14306162 138.72715438 -13.5625 137.0625 C-13.03333984 136.47404297 -12.50417969 135.88558594 -11.95898438 135.27929688 C-10.6570767 133.83664243 -9.33083742 132.41601102 -8 131 C-11.80984255 133.96393947 -15.13661958 137.1131506 -18.44921875 140.609375 C-20 142 -20 142 -22 142 C-22 142.66 -22 143.32 -22 144 C-24.88579074 147.21013034 -27.5921023 149.82026838 -31.9375 150.375 C-32.9584375 150.189375 -32.9584375 150.189375 -34 150 C-34 147.36 -34 144.72 -34 142 C-33.01 141.67 -32.02 141.34 -31 141 C-30.31867303 139.67409813 -29.6540864 138.33954963 -29 137 C-27.16015625 135.11328125 -27.16015625 135.11328125 -25.0625 133.3125 C-24.02802734 132.40951172 -24.02802734 132.40951172 -22.97265625 131.48828125 C-21 130 -21 130 -18 129 C-17.67 128.01 -17.34 127.02 -17 126 C-15.6796875 124.703125 -15.6796875 124.703125 -13.875 123.25 C-9.35815759 119.42805642 -5.18240393 115.30445095 -1 111.125 C0.02504639 110.10647949 0.02504639 110.10647949 1.07080078 109.06738281 C1.70743652 108.42897461 2.34407227 107.79056641 3 107.1328125 C3.86625 106.26487061 3.86625 106.26487061 4.75 105.37939453 C6.11191615 104.18675088 6.11191615 104.18675088 6 103 C4.906875 103.0825 3.81375 103.165 2.6875 103.25 C-1 103 -1 103 -2.9375 101.4375 C-4 99 -4 99 -3.79077148 95.6550293 C-4.05110357 91.10726778 -5.10955712 90.11490357 -8.41015625 87.08203125 C-9.77043945 85.78942383 -9.77043945 85.78942383 -11.15820312 84.47070312 C-12.11662109 83.59349609 -13.07503906 82.71628906 -14.0625 81.8125 C-15.96005423 80.05983605 -17.84739349 78.29602572 -19.72265625 76.51953125 C-20.56578369 75.74714111 -21.40891113 74.97475098 -22.27758789 74.17895508 C-24 72 -24 72 -23.78211975 70.05163574 C-22.90478841 67.7502435 -21.99424806 66.67405848 -20.20849609 64.99487305 C-19.62474213 64.43716721 -19.04098816 63.87946136 -18.43954468 63.30485535 C-17.80722931 62.71312027 -17.17491394 62.12138519 -16.5234375 61.51171875 C-15.19980918 60.23576388 -13.87691468 58.9590474 -12.5546875 57.68164062 C-10.46454218 55.67829781 -8.36893676 53.68179856 -6.25976562 51.69848633 C-4.22547418 49.77908763 -2.21715034 47.83538983 -0.2109375 45.88671875 C0.42542633 45.30105637 1.06179016 44.71539398 1.71743774 44.11198425 C3.39036946 42.46885598 4.78635529 41.00693385 6 39 C5.96814834 34.41245954 4.7088661 31.13556804 2.828125 26.99609375 C-0.40287577 19.20816266 -2.28467291 10.44529622 -2 2 C-1.34 1.34 -0.68 0.68 0 0 Z M10 14 C8.8148569 20.29696516 8.72277354 24.3818975 12 30 C12.99 30.33 13.98 30.66 15 31 C16.98 28.69 18.96 26.38 21 24 C19.71937515 22.2925002 18.38232443 20.62626404 17 19 C16.34 19 15.68 19 15 19 C14.67 18.01 14.34 17.02 14 16 C13.34 16 12.68 16 12 16 C12 15.34 12 14.68 12 14 C11.34 14 10.68 14 10 14 Z " fill="#89A08F" transform="translate(40,3)"/>
<path d="M0 0 C10.88113417 0.87602351 18.85681736 11.58324866 26 19 C26.38671875 18.55527344 26.7734375 18.11054688 27.171875 17.65234375 C27.69265625 17.08644531 28.2134375 16.52054688 28.75 15.9375 C29.26046875 15.36902344 29.7709375 14.80054688 30.296875 14.21484375 C32 13 32 13 33.9375 13.0625 C38.09637906 14.95289957 40.89665455 18.74148727 44 22 C44.33 18.37 44.66 14.74 45 11 C50 12 50 12 52.125 15.125 C53.96603291 19.10676886 54.4224032 22.92246703 55 27.25 C56.854843 37.47201939 63.45342756 43.07622386 71.68359375 48.8984375 C73.19413325 49.87569951 74.71653349 50.83504977 76.25390625 51.76953125 C78 53 78 53 79.5 55.625 C81.56934096 58.90145652 84.0140978 59.48845025 87.53125 60.91015625 C91.70777848 62.75390854 95.32646735 65.31237869 99 68 C99.61875 68.45117188 100.2375 68.90234375 100.875 69.3671875 C109.28383701 76.01167032 113.98391594 85.2651603 118 95 C117.34 95.66 116.68 96.32 116 97 C115.40574219 96.11699219 114.81148438 95.23398438 114.19921875 94.32421875 C105.55380558 81.70845036 95.51401191 68.90653976 80.5 63.8125 C74.36002129 64.14142743 68.56462876 65.69471572 63.9140625 69.875 C62.18973234 71.86287407 60.57792682 73.89469122 59 76 C54.65250074 81.07208247 49.15862377 84.46409609 43 87 C42.01 86.67 41.02 86.34 40 86 C40.81984375 85.48050781 41.6396875 84.96101563 42.484375 84.42578125 C43.56203125 83.72839844 44.6396875 83.03101562 45.75 82.3125 C47.35101563 81.28576172 47.35101563 81.28576172 48.984375 80.23828125 C51.93419714 78.04884072 53.8471952 75.9510358 56 73 C60.32372681 67.89014104 65.86062099 64.56689554 72 62 C74.84375 61.83203125 74.84375 61.83203125 77 62 C76.0717492 58.65829712 75.07068171 57.06538058 72.5 54.6875 C67.93998587 52.48892176 63.98860331 52.2920464 59 53 C57.65787137 53.64877805 56.3233032 54.31363942 55 55 C54.01 55 53.02 55 52 55 C51.97494385 54.20303711 51.9498877 53.40607422 51.92407227 52.58496094 C51.80801211 48.97314778 51.68533069 45.36158898 51.5625 41.75 C51.52318359 40.49574219 51.48386719 39.24148437 51.44335938 37.94921875 C51.40146484 36.74394531 51.35957031 35.53867187 51.31640625 34.296875 C51.26141968 32.63156738 51.26141968 32.63156738 51.20532227 30.93261719 C51.03289096 28.46978151 50.70404561 26.35517035 50 24 C49.86722656 24.62648438 49.73445313 25.25296875 49.59765625 25.8984375 C49.42105469 26.71570313 49.24445313 27.53296875 49.0625 28.375 C48.88847656 29.18710937 48.71445313 29.99921875 48.53515625 30.8359375 C48 33 48 33 47 35 C46.79533366 36.97559868 46.63450941 38.95588811 46.5 40.9375 C46.2759354 44.23044938 46.04612306 46.86163082 45 50 C44.34 50 43.68 50 43 50 C43 49.01 43 48.02 43 47 C42.01 46.67 41.02 46.34 40 46 C39.62675657 44.67728377 39.29807772 43.34165516 39 42 C37.8515289 40.28050231 37.8515289 40.28050231 36.375 38.6796875 C35.83762207 38.06673828 35.30024414 37.45378906 34.74658203 36.82226562 C34.17020996 36.17966797 33.59383789 35.53707031 33 34.875 C32.41202637 34.20919922 31.82405273 33.54339844 31.21826172 32.85742188 C29.48544593 30.89895685 27.74336521 28.94907202 26 27 C25.13632813 26.02289062 24.27265625 25.04578125 23.3828125 24.0390625 C14.56747224 14.01588974 14.56747224 14.01588974 4 6 C5.32 7.32 6.64 8.64 8 10 C7.67 10.66 7.34 11.32 7 12 C5.68 11.67 4.36 11.34 3 11 C3.33 11.66 3.66 12.32 4 13 C6.02463255 13.65213292 6.02463255 13.65213292 8 14 C8 14.66 8 15.32 8 16 C7.01 16 6.02 16 5 16 C5 16.66 5 17.32 5 18 C5.99 18.33 6.98 18.66 8 19 C8 19.66 8 20.32 8 21 C7.34 21 6.68 21 6 21 C6.33 22.32 6.66 23.64 7 25 C6.34 25.33 5.68 25.66 5 26 C1.00930122 20.01395182 0.78245723 12.04211504 0 5 C-0.66 5 -1.32 5 -2 5 C-1.125 1.125 -1.125 1.125 0 0 Z " fill="#DDE2E5" transform="translate(40,3)"/>
<path d="M0 0 C0.39832031 0.95712891 0.39832031 0.95712891 0.8046875 1.93359375 C1.15789063 2.75988281 1.51109375 3.58617187 1.875 4.4375 C2.22304688 5.26121094 2.57109375 6.08492187 2.9296875 6.93359375 C3.8244937 9.15746715 3.8244937 9.15746715 6 10 C7 12.36328125 7 12.36328125 8 15.3125 C10.27888911 22.03400114 10.27888911 22.03400114 14.5625 27.5625 C17 30 17 30 18 33 C17.030625 32.835 16.06125 32.67 15.0625 32.5 C10.70512237 31.86603727 6.39369296 31.9103328 2 32 C1.773125 32.763125 1.54625 33.52625 1.3125 34.3125 C0 37 0 37 -2.4375 38.4375 C-5.71669624 40.4370099 -6.45801098 42.54888172 -8 46 C-8.66 46.66 -9.32 47.32 -10 48 C-10.71927295 50.31765729 -11.3909893 52.65095874 -12 55 C-17.18749613 50.63655925 -22.15532939 46.11578879 -27 41.375 C-27.69222656 40.72015625 -28.38445313 40.0653125 -29.09765625 39.390625 C-30.07025391 38.43542969 -30.07025391 38.43542969 -31.0625 37.4609375 C-31.65160156 36.89165527 -32.24070312 36.32237305 -32.84765625 35.73583984 C-34 34 -34 34 -33.74351501 32.08528137 C-32.91087739 29.75004443 -32.00691649 28.63788003 -30.25610352 26.8996582 C-29.68203262 26.32258621 -29.10796173 25.74551422 -28.51649475 25.1509552 C-27.89359055 24.5403978 -27.27068634 23.92984039 -26.62890625 23.30078125 C-25.67261574 22.34730049 -25.67261574 22.34730049 -24.69700623 21.3745575 C-23.34959471 20.03386249 -21.99859309 18.69676729 -20.64428711 17.36303711 C-18.56688143 15.31681566 -16.50036367 13.26008849 -14.43554688 11.20117188 C-13.12562153 9.90041546 -11.81509489 8.60026423 -10.50390625 7.30078125 C-9.88302628 6.68415115 -9.2621463 6.06752106 -8.62245178 5.4322052 C-3.09830027 0 -3.09830027 0 0 0 Z " fill="#79C576" transform="translate(50,41)"/>
<path d="M0 0 C0.66 0 1.32 0 2 0 C1.40049704 3.68266103 0.75241109 7.34543185 0 11 C0.763125 10.79375 1.52625 10.5875 2.3125 10.375 C5 10 5 10 8 12 C8 11.01 8 10.02 8 9 C8.66 9 9.32 9 10 9 C10 9.66 10 10.32 10 11 C10.433125 10.505 10.86625 10.01 11.3125 9.5 C13 8 13 8 16 8 C16.66 6.02 17.32 4.04 18 2 C18.33 2 18.66 2 19 2 C19.125 9.75 19.125 9.75 18 12 C17.34 12.144375 16.68 12.28875 16 12.4375 C15.34 12.623125 14.68 12.80875 14 13 C13.67 13.99 13.34 14.98 13 16 C12.2575 15.814375 11.515 15.62875 10.75 15.4375 C8.10659738 14.80421139 8.10659738 14.80421139 6.0625 15.625 C2.80265231 16.21769958 0.77638006 14.6041307 -2 13 C-2.495 12.505 -2.495 12.505 -3 12 C-3.37769531 12.825 -3.75539062 13.65 -4.14453125 14.5 C-11.41279884 29.75144675 -21.42012773 42.90305947 -32 56 C-33.65 55.67 -35.3 55.34 -37 55 C-36.50485982 50.65962225 -33.68886128 47.91387625 -30.9375 44.75 C-30.22883789 43.91855469 -30.22883789 43.91855469 -29.50585938 43.0703125 C-28.34341033 41.708251 -27.17252145 40.35340044 -26 39 C-29.80984255 41.96393947 -33.13661958 45.1131506 -36.44921875 48.609375 C-38 50 -38 50 -40 50 C-40 50.66 -40 51.32 -40 52 C-42.88579074 55.21013034 -45.5921023 57.82026838 -49.9375 58.375 C-50.9584375 58.189375 -50.9584375 58.189375 -52 58 C-52 55.36 -52 52.72 -52 50 C-50.515 49.505 -50.515 49.505 -49 49 C-48.31867303 47.67409813 -47.6540864 46.33954963 -47 45 C-45.16015625 43.11328125 -45.16015625 43.11328125 -43.0625 41.3125 C-42.37285156 40.71050781 -41.68320312 40.10851562 -40.97265625 39.48828125 C-39 38 -39 38 -36 37 C-35.67 36.01 -35.34 35.02 -35 34 C-33.609375 32.6328125 -33.609375 32.6328125 -31.75 31.125 C-27.03148683 27.15151522 -22.75960862 22.79207199 -18.48144531 18.35595703 C-14.32128267 14.10709422 -14.32128267 14.10709422 -11 13 C-9.24986662 11.31097201 -9.24986662 11.31097201 -7.5625 9.25 C-6.64597656 8.17492187 -6.64597656 8.17492187 -5.7109375 7.078125 C-4.33827478 5.41087256 -3.00596147 3.7104365 -1.6875 2 C-1.130625 1.34 -0.57375 0.68 0 0 Z " fill="#DCDEE2" transform="translate(58,95)"/>
<path d="M0 0 C10.88113417 0.87602351 18.85681736 11.58324866 26 19 C26.38671875 18.55527344 26.7734375 18.11054688 27.171875 17.65234375 C27.69265625 17.08644531 28.2134375 16.52054688 28.75 15.9375 C29.26046875 15.36902344 29.7709375 14.80054688 30.296875 14.21484375 C32 13 32 13 33.90234375 13.0625 C38.5627626 15.14536876 42.00605547 18.94745903 45 23 C45.125 26.5625 45.125 26.5625 44.60546875 28.47265625 C43.73151585 32.1207048 43.62943217 35.76222315 43.4375 39.5 C43.35357917 40.92712553 43.26899659 42.35421239 43.18359375 43.78125 C43.09271484 45.37453125 43.09271484 45.37453125 43 47 C42.01 46.67 41.02 46.34 40 46 C39.62675657 44.67728377 39.29807772 43.34165516 39 42 C37.8515289 40.28050231 37.8515289 40.28050231 36.375 38.6796875 C35.83762207 38.06673828 35.30024414 37.45378906 34.74658203 36.82226562 C34.17020996 36.17966797 33.59383789 35.53707031 33 34.875 C32.41202637 34.20919922 31.82405273 33.54339844 31.21826172 32.85742188 C29.48544593 30.89895685 27.74336521 28.94907202 26 27 C25.13632813 26.02289062 24.27265625 25.04578125 23.3828125 24.0390625 C14.56747224 14.01588974 14.56747224 14.01588974 4 6 C5.32 7.32 6.64 8.64 8 10 C7.67 10.66 7.34 11.32 7 12 C5.68 11.67 4.36 11.34 3 11 C3.33 11.66 3.66 12.32 4 13 C6.02463255 13.65213292 6.02463255 13.65213292 8 14 C8 14.66 8 15.32 8 16 C7.01 16 6.02 16 5 16 C5 16.66 5 17.32 5 18 C5.99 18.33 6.98 18.66 8 19 C8 19.66 8 20.32 8 21 C7.34 21 6.68 21 6 21 C6.33 22.32 6.66 23.64 7 25 C6.34 25.33 5.68 25.66 5 26 C1.00930122 20.01395182 0.78245723 12.04211504 0 5 C-0.66 5 -1.32 5 -2 5 C-1.125 1.125 -1.125 1.125 0 0 Z " fill="#ED858C" transform="translate(40,3)"/>
<path d="M0 0 C0.33 0 0.66 0 1 0 C1.25 7.625 1.25 7.625 -1 11 C-2.32520503 11.68268138 -3.65812182 12.3507041 -5 13 C-5.33 13.66 -5.66 14.32 -6 15 C-7.65 15 -9.3 15 -11 15 C-9.02 17.31 -7.04 19.62 -5 22 C-3.35 21.67 -1.7 21.34 0 21 C0 20.34 0 19.68 0 19 C1.57421875 17.484375 1.57421875 17.484375 3.6875 15.75 C6.23977762 13.58796518 8.55071681 11.5001584 10.625 8.875 C13.19816562 5.7601153 15.84048849 3.4982184 19 1 C20.32 1.66 21.64 2.32 23 3 C23.33 2.34 23.66 1.68 24 1 C24.66 1 25.32 1 26 1 C24.34763349 5.29067546 21.1094793 8.1429553 17.8984375 11.296875 C17.30197418 11.89050842 16.70551086 12.48414185 16.0909729 13.09576416 C14.1903019 14.98526627 12.28278526 16.86768392 10.375 18.75 C9.08287532 20.03209065 7.79120324 21.31463761 6.5 22.59765625 C3.33855521 25.73708432 0.1709539 28.87017801 -3 32 C-6.15204981 30.60652624 -8.26171773 28.97514921 -10.671875 26.5234375 C-11.33574219 25.853125 -11.99960938 25.1828125 -12.68359375 24.4921875 C-13.36550781 23.79351562 -14.04742187 23.09484375 -14.75 22.375 C-15.44738281 21.66859375 -16.14476562 20.9621875 -16.86328125 20.234375 C-18.58012488 18.49401297 -20.29211832 16.74915019 -22 15 C-22.56714722 15.96607178 -22.56714722 15.96607178 -23.14575195 16.95166016 C-29.7421593 28.1466446 -37.0854689 38.70047585 -45 49 C-45.49628906 49.68835938 -45.99257813 50.37671875 -46.50390625 51.0859375 C-47.75 52.75 -47.75 52.75 -50 55 C-52.8125 55.375 -52.8125 55.375 -55 55 C-55.33 53.68 -55.66 52.36 -56 51 C-54.95585938 51.23589844 -54.95585938 51.23589844 -53.890625 51.4765625 C-49.17337851 50.6988543 -47.42931322 47.10846272 -44.75 43.375 C-44.18007324 42.60244873 -43.61014648 41.82989746 -43.02294922 41.03393555 C-34.8842399 29.89162765 -27.89951271 18.48192721 -22 6 C-21.34 6.99 -20.68 7.98 -20 9 C-16.16020746 11.07556354 -14.15292234 10.85188151 -10 10 C-7.6875 10.9375 -7.6875 10.9375 -6 12 C-5.67 10.68 -5.34 9.36 -5 8 C-3.68 8 -2.36 8 -1 8 C-0.67 5.36 -0.34 2.72 0 0 Z " fill="#1C80C9" transform="translate(77,99)"/>
<path d="M0 0 C4.61725254 0.55712303 4.61725254 0.55712303 6.29296875 2.49609375 C11.76347298 14.36876013 11.24260497 26.17926022 11 39 C11.99 38.505 11.99 38.505 13 38 C14.87379605 37.92966231 16.75001102 37.9156978 18.625 37.9375 C20.12933594 37.95103516 20.12933594 37.95103516 21.6640625 37.96484375 C22.43492188 37.97644531 23.20578125 37.98804688 24 38 C23.67 38.66 23.34 39.32 23 40 C20.41796875 40.81640625 20.41796875 40.81640625 17.1875 41.5625 C16.12917969 41.81128906 15.07085937 42.06007812 13.98046875 42.31640625 C12.99691406 42.54199219 12.01335937 42.76757812 11 43 C9.66611649 43.33112485 8.33266589 43.66400818 7 44 C6.97494385 43.20303711 6.9498877 42.40607422 6.92407227 41.58496094 C6.80801211 37.97314778 6.68533069 34.36158898 6.5625 30.75 C6.52318359 29.49574219 6.48386719 28.24148437 6.44335938 26.94921875 C6.38051758 25.14130859 6.38051758 25.14130859 6.31640625 23.296875 C6.27974854 22.18666992 6.24309082 21.07646484 6.20532227 19.93261719 C6.03289096 17.46978151 5.70404561 15.35517035 5 13 C4.86722656 13.62648438 4.73445313 14.25296875 4.59765625 14.8984375 C4.33275391 16.12433594 4.33275391 16.12433594 4.0625 17.375 C3.80146484 18.59316406 3.80146484 18.59316406 3.53515625 19.8359375 C3 22 3 22 2 24 C1.79533366 25.97559868 1.63450941 27.95588811 1.5 29.9375 C1.2759354 33.23044938 1.04612306 35.86163082 0 39 C-0.66 39 -1.32 39 -2 39 C-2.02903577 35.89585298 -2.0468107 32.79174091 -2.0625 29.6875 C-2.07087891 28.80642578 -2.07925781 27.92535156 -2.08789062 27.01757812 C-2.09111328 26.17001953 -2.09433594 25.32246094 -2.09765625 24.44921875 C-2.10289307 23.66893311 -2.10812988 22.88864746 -2.11352539 22.0847168 C-2 20 -2 20 -1 17 C-0.85596652 15.66636297 -0.75409577 14.32781954 -0.68359375 12.98828125 C-0.64169922 12.23095703 -0.59980469 11.47363281 -0.55664062 10.69335938 C-0.51732422 9.90767578 -0.47800781 9.12199219 -0.4375 8.3125 C-0.39431641 7.51521484 -0.35113281 6.71792969 -0.30664062 5.89648438 C-0.20072632 3.93118553 -0.09987449 1.96561504 0 0 Z " fill="#F2F1F0" transform="translate(85,14)"/>
<path d="M0 0 C7.07099035 0.54160777 10.87936641 4.46896617 16 9 C16.71414062 9.63035156 17.42828125 10.26070312 18.1640625 10.91015625 C21.69115198 14.21226677 23.3020167 16.11411689 24 21 C25.32423456 21.68456194 26.65898331 22.34892668 28 23 C33.33140976 27.90261004 37.68731824 34.61806038 41 41 C40.505 41.99 40.505 41.99 40 43 C35.40458959 37.99176312 30.91753222 32.94740318 26.6875 27.625 C23.25451642 23.39098692 19.64618086 19.43004415 15.8125 15.5625 C15.32547607 15.06637207 14.83845215 14.57024414 14.33666992 14.05908203 C11.11230421 10.86146322 7.82500913 8.39700572 4 6 C5.32 7.32 6.64 8.64 8 10 C7.67 10.66 7.34 11.32 7 12 C5.68 11.67 4.36 11.34 3 11 C3.33 11.66 3.66 12.32 4 13 C6.02463255 13.65213292 6.02463255 13.65213292 8 14 C8 14.66 8 15.32 8 16 C7.01 16 6.02 16 5 16 C5 16.66 5 17.32 5 18 C5.99 18.33 6.98 18.66 8 19 C8 19.66 8 20.32 8 21 C7.34 21 6.68 21 6 21 C6.33 22.32 6.66 23.64 7 25 C6.34 25.33 5.68 25.66 5 26 C1.00930122 20.01395182 0.78245723 12.04211504 0 5 C-0.66 5 -1.32 5 -2 5 C-1.125 1.125 -1.125 1.125 0 0 Z " fill="#E5EBED" transform="translate(40,3)"/>
<path d="M0 0 C1.65 0.33 3.3 0.66 5 1 C5.33 3.31 5.66 5.62 6 8 C6.99 8.33 7.98 8.66 9 9 C8.01 9.33 7.02 9.66 6 10 C6.84226928 12.26014889 6.84226928 12.26014889 9.4375 12.875 C12 14 12 14 13.3125 16.125 C13.539375 16.74375 13.76625 17.3625 14 18 C12.68 17.67 11.36 17.34 10 17 C11.64079242 18.64079242 13.77768765 18.60112342 16 19 C16 19.66 16 20.32 16 21 C15.01 21.33 14.02 21.66 13 22 C14.98 22.33 16.96 22.66 19 23 C19 23.66 19 24.32 19 25 C17.68 25 16.36 25 15 25 C15 25.66 15 26.32 15 27 C17.64 27 20.28 27 23 27 C23 27.66 23 28.32 23 29 C21.02 29 19.04 29 17 29 C17 29.99 17 30.98 17 32 C18.65 32 20.3 32 22 32 C21.67 32.66 21.34 33.32 21 34 C22.32 34.33 23.64 34.66 25 35 C25 35.66 25 36.32 25 37 C20.90114782 37.47661072 19.44069635 37.3448928 16.125 34.75 C14 32 14 32 14 28 C13.38125 27.9175 12.7625 27.835 12.125 27.75 C10 27 10 27 8.75 25.1875 C8 23 8 23 8 19 C7.37351562 18.773125 6.74703125 18.54625 6.1015625 18.3125 C3.29410713 16.55914497 3.1392636 15.16755036 2.375 12 C1.47171086 8.08028715 1.47171086 8.08028715 -1 5 C-0.625 2.375 -0.625 2.375 0 0 Z " fill="#E7F0F1" transform="translate(48,32)"/>
<path d="M0 0 C9.82222673 6.58873887 18.19669063 15.4108936 24.60546875 25.32421875 C25.86262428 27.37174419 25.86262428 27.37174419 27.875 29.25 C29.42026333 31.91128684 29.875 33.09915995 29.875 36.25 C25.9552843 34.9434281 25.79771258 33.61629112 23.9375 30 C21.05817005 24.88322894 17.86034065 20.61942971 13.875 16.3125 C13.389104 15.78172852 12.90320801 15.25095703 12.40258789 14.70410156 C8.87752047 10.98929963 5.0809874 8.16494091 0.875 5.25 C-0.176875 4.1671875 -0.176875 4.1671875 -1.25 3.0625 C-4.61631936 -0.19160872 -7.15278932 -0.75 -11.8125 -0.75 C-19.06022422 0.44196977 -25.20987541 4.5656628 -29.5 10.4375 C-29.92023438 11.09105469 -30.34046875 11.74460937 -30.7734375 12.41796875 C-32.3301962 14.52814167 -33.92506127 15.83450158 -36.125 17.25 C-36.785 17.25 -37.445 17.25 -38.125 17.25 C-38.125 17.91 -38.125 18.57 -38.125 19.25 C-39.7460103 19.94685498 -41.37196066 20.63222861 -43 21.3125 C-43.90492187 21.69535156 -44.80984375 22.07820313 -45.7421875 22.47265625 C-48.125 23.25 -48.125 23.25 -50.125 22.25 C-45.67019097 19.18534415 -41.28190986 16.28896614 -36.4375 13.875 C-32.27262748 11.63683372 -30.09702962 8.95894349 -27.44140625 5.109375 C-20.71263703 -4.39476194 -9.52541016 -5.53354752 0 0 Z " fill="#3698D2" transform="translate(129.125,69.75)"/>
<path d="M0 0 C0.66 0 1.32 0 2 0 C2.10957031 0.61746094 2.21914063 1.23492187 2.33203125 1.87109375 C3.4377266 7.77712501 4.95361435 13.35197559 7 19 C7.33 19 7.66 19 8 19 C8 18.01 8 17.02 8 16 C8.66 16 9.32 16 10 16 C9.505 15.54625 9.01 15.0925 8.5 14.625 C7 13 7 13 7 11 C7.99 11 8.98 11 10 11 C10 10.34 10 9.68 10 9 C8.35 8.67 6.7 8.34 5 8 C5 7.34 5 6.68 5 6 C6.32 5.67 7.64 5.34 9 5 C8.01 4.34 7.02 3.68 6 3 C6 2.34 6 1.68 6 1 C16.75737316 5.91562085 25.58257793 17.06105546 33 26 C32.67 26.66 32.34 27.32 32 28 C31.22076172 27.20335937 31.22076172 27.20335937 30.42578125 26.390625 C27.37633708 23.30172406 24.40732938 20.32246909 21 17.625 C20.34 17.08875 19.68 16.5525 19 16 C19 15.34 19 14.68 19 14 C18.34 14 17.68 14 17 14 C15.375 12.625 15.375 12.625 14 11 C14 10.34 14 9.68 14 9 C13.34 9 12.68 9 12 9 C11.97310784 10.47906892 11.95365379 11.95827483 11.9375 13.4375 C11.92589844 14.26121094 11.91429687 15.08492187 11.90234375 15.93359375 C11.76732652 17.99163938 11.76732652 17.99163938 13 19 C13.04063832 20.66617115 13.042721 22.33388095 13 24 C12.01 24.33 11.02 24.66 10 25 C10.52268466 27.76276177 11.10869587 30.3260876 12 33 C10.515 33.495 10.515 33.495 9 34 C4.86463887 22.80346888 0.98188147 11.97895393 0 0 Z " fill="#239FCA" transform="translate(38,8)"/>
<path d="M0 0 C1 3 1 3 -0.30078125 5.86328125 C-7.57589058 18.33691531 -15.80804182 29.85667639 -25 41 C-26.65 40.67 -28.3 40.34 -30 40 C-29.44274228 35.90703812 -27.28367665 33.68625229 -24.625 30.625 C-23.71175118 29.55882273 -22.80036359 28.49104902 -21.890625 27.421875 C-21.41560547 26.86435547 -20.94058594 26.30683594 -20.45117188 25.73242188 C-18.02341601 22.83414536 -15.69939953 19.85635702 -13.375 16.875 C-12.45970987 15.70306685 -11.54434644 14.53119094 -10.62890625 13.359375 C-10.18949707 12.79669922 -9.75008789 12.23402344 -9.29736328 11.65429688 C-6.23062612 7.74383188 -3.11421046 3.87268579 0 0 Z " fill="#E7E9EC" transform="translate(51,110)"/>
<path d="M0 0 C0.5775 0.226875 1.155 0.45375 1.75 0.6875 C0.11587557 2.39590281 -1.11906094 3.62203047 -3.25 4.6875 C-4.17393164 6.54946946 -4.17393164 6.54946946 -4.25 8.6875 C-2.89555699 10.45940909 -2.89555699 10.45940909 -1.25 11.6875 C-2.735 14.1625 -2.735 14.1625 -4.25 16.6875 C-3.26 17.0175 -2.27 17.3475 -1.25 17.6875 C-1.25 18.6775 -1.25 19.6675 -1.25 20.6875 C-0.59 21.0175 0.07 21.3475 0.75 21.6875 C-0.53062485 23.3949998 -1.86767557 25.06123596 -3.25 26.6875 C-3.91 26.6875 -4.57 26.6875 -5.25 26.6875 C-5.58 27.6775 -5.91 28.6675 -6.25 29.6875 C-6.91 29.3575 -7.57 29.0275 -8.25 28.6875 C-7.92 28.0275 -7.59 27.3675 -7.25 26.6875 C-8.343125 26.77 -9.43625 26.8525 -10.5625 26.9375 C-14.25 26.6875 -14.25 26.6875 -16.1875 25 C-17.39820847 22.36492863 -17.4889871 20.55534522 -17.25 17.6875 C-16.92 19.0075 -16.59 20.3275 -16.25 21.6875 C-10.77779533 22.93027982 -10.77779533 22.93027982 -5.75 21.25 C-5.255 20.734375 -4.76 20.21875 -4.25 19.6875 C-8.21 20.1825 -8.21 20.1825 -12.25 20.6875 C-12.125 18.375 -12.125 18.375 -11.25 15.6875 C-6.38793103 12.6875 -6.38793103 12.6875 -3.25 12.6875 C-3.25 12.0275 -3.25 11.3675 -3.25 10.6875 C-4.11625 11.1825 -4.11625 11.1825 -5 11.6875 C-7.25 12.6875 -7.25 12.6875 -11.25 12.6875 C-10.09826645 10.21949953 -9.20216435 8.63966435 -7.25 6.6875 C-7.12625 6.048125 -7.0025 5.40875 -6.875 4.75 C-5.81703067 1.2587012 -3.66534405 -0.50907556 0 0 Z " fill="#2F84BA" transform="translate(53.25,79.3125)"/>
<path d="M0 0 C3.94827146 0.03153571 7.12913861 0.67637738 10.8125 2.1875 C10.8125 2.5175 10.8125 2.8475 10.8125 3.1875 C6.1925 3.1875 1.5725 3.1875 -3.1875 3.1875 C-2.5275 4.5075 -1.8675 5.8275 -1.1875 7.1875 C-2.30125 7.55875 -3.415 7.93 -4.5625 8.3125 C-6.51652123 9.07772997 -6.51652123 9.07772997 -8.1875 10.1875 C-9.4375 13.10416667 -9.4375 13.10416667 -10.1875 16.1875 C-12.3125 18.5625 -12.3125 18.5625 -14.1875 20.1875 C-11.5475 19.5275 -8.9075 18.8675 -6.1875 18.1875 C-6.1875 18.8475 -6.1875 19.5075 -6.1875 20.1875 C-7.03634766 20.55101562 -7.03634766 20.55101562 -7.90234375 20.921875 C-8.63582031 21.25703125 -9.36929688 21.5921875 -10.125 21.9375 C-11.22134766 22.42476562 -11.22134766 22.42476562 -12.33984375 22.921875 C-14.66390334 24.21372683 -14.66390334 24.21372683 -15.1875 28.1875 C-12.2175 27.5275 -9.2475 26.8675 -6.1875 26.1875 C-10.45579268 31.06554878 -10.45579268 31.06554878 -13.8125 31.625 C-16.1875 31.1875 -16.1875 31.1875 -19.1875 29.1875 C-19.99227205 24.62712503 -18.14734444 20.26002078 -16.1875 16.1875 C-15.5275 15.5275 -14.8675 14.8675 -14.1875 14.1875 C-13.878125 13.383125 -13.56875 12.57875 -13.25 11.75 C-12.18542902 9.18250529 -11.38459272 7.85729047 -9.1875 6.1875 C-8.1975 6.1875 -7.2075 6.1875 -6.1875 6.1875 C-6.043125 5.383125 -5.89875 4.57875 -5.75 3.75 C-4.86897293 -0.26356776 -3.85092028 0.03225226 0 0 Z " fill="#DDEDF1" transform="translate(56.1875,71.8125)"/>
<path d="M0 0 C0 3.91676874 -1.34466964 5.14932249 -3.6875 8.25 C-6.03630108 11.37625013 -8.34332342 14.48904571 -10.5 17.75 C-12.8196163 21.00667984 -15.6122865 23.40542787 -18.671875 25.95703125 C-22.06974939 28.93872304 -25.19233911 32.18143253 -28.31884766 35.44433594 C-29.50989838 36.66572918 -30.75135975 37.83754536 -32 39 C-32.66 39 -33.32 39 -34 39 C-34 39.66 -34 40.32 -34 41 C-36.88579074 44.21013034 -39.5921023 46.82026838 -43.9375 47.375 C-44.9584375 47.189375 -44.9584375 47.189375 -46 47 C-45.67 45.68 -45.34 44.36 -45 43 C-44.40864258 42.89308838 -43.81728516 42.78617676 -43.20800781 42.67602539 C-40.69787977 41.9074999 -39.56256796 40.98386952 -37.671875 39.18359375 C-37.04482666 38.59223633 -36.41777832 38.00087891 -35.77172852 37.39160156 C-34.7709729 36.42432129 -34.7709729 36.42432129 -33.75 35.4375 C-33.05124756 34.77073242 -32.35249512 34.10396484 -31.63256836 33.41699219 C-29.4116193 31.28817911 -27.20420567 29.14613659 -25 27 C-24.28537598 26.30729004 -23.57075195 25.61458008 -22.83447266 24.90087891 C-14.69592022 16.98647755 -6.89645061 9.04201303 0 0 Z " fill="#2354AF" transform="translate(52,106)"/>
<path d="M0 0 C3.01891805 4.52837707 3.12311367 7.89990259 3.09765625 13.296875 C3.09443359 14.50214844 3.09121094 15.70742188 3.08789062 16.94921875 C3.07951172 18.20347656 3.07113281 19.45773438 3.0625 20.75 C3.05798828 22.01972656 3.05347656 23.28945313 3.04882812 24.59765625 C3.03704556 27.73181836 3.02059416 30.86588541 3 34 C4.05058594 33.51402344 5.10117188 33.02804688 6.18359375 32.52734375 C10.8444134 30.53755483 14.98625477 30.24835121 20 31 C23.99924698 32.99962349 26.47255894 34.72316502 28 39 C26.02 37.68 24.04 36.36 22 35 C22 35.66 22 36.32 22 37 C20.02 37 18.04 37 16 37 C15.67 36.01 15.34 35.02 15 34 C14.14535156 34.15597656 13.29070312 34.31195313 12.41015625 34.47265625 C10.75306641 34.76462891 10.75306641 34.76462891 9.0625 35.0625 C7.40927734 35.35833984 7.40927734 35.35833984 5.72265625 35.66015625 C4.82417969 35.77230469 3.92570312 35.88445313 3 36 C2 35 2 35 1.88647461 32.68334961 C1.89171143 31.68311768 1.89694824 30.68288574 1.90234375 29.65234375 C1.90556641 28.57275391 1.90878906 27.49316406 1.91210938 26.38085938 C1.92048828 25.24455078 1.92886719 24.10824219 1.9375 22.9375 C1.94201172 21.79732422 1.94652344 20.65714844 1.95117188 19.48242188 C1.96300253 16.65489649 1.9794859 13.8274736 2 11 C1.34 11 0.68 11 0 11 C-0.66 16.94 -1.32 22.88 -2 29 C-2.99 29 -3.98 29 -5 29 C-4.505 27.515 -4.505 27.515 -4 26 C-3.73170939 22.97214881 -3.55563535 19.94463243 -3.37890625 16.91015625 C-3.00876822 14.06734356 -2.2891182 12.50299605 -1 10 C-0.54935368 7.41467299 -0.54935368 7.41467299 -0.375 4.75 C-0.26285156 3.41195313 -0.26285156 3.41195313 -0.1484375 2.046875 C-0.09945312 1.37140625 -0.05046875 0.6959375 0 0 Z " fill="#48BCEB" transform="translate(89,24)"/>
<path d="M0 0 C2.51180333 0.98371005 3.51119291 2.14128201 5.1796875 4.2421875 C6.75765368 6.20033724 8.27318618 8.02318618 10.0546875 9.8046875 C10.03720823 12.56058527 9.91605479 15.19255426 9.6796875 17.9296875 C9.62296875 18.68378906 9.56625 19.43789063 9.5078125 20.21484375 C9.366241 22.07886846 9.21168791 23.94189887 9.0546875 25.8046875 C8.0646875 25.4746875 7.0746875 25.1446875 6.0546875 24.8046875 C5.96960938 23.77859375 5.88453125 22.7525 5.796875 21.6953125 C4.98299543 17.4288701 3.65468257 15.09039474 1.1796875 11.5546875 C0.48101562 10.53890625 -0.21765625 9.523125 -0.9375 8.4765625 C-2.51200121 6.38131186 -4.02280636 4.5700076 -5.9453125 2.8046875 C-2.52061936 -0.25307423 -2.52061936 -0.25307423 0 0 Z " fill="#F4B39A" transform="translate(73.9453125,24.1953125)"/>
<path d="M0 0 C0.495 0.99 0.495 0.99 1 2 C-5.10132685 15.39899229 -15.18331559 30.94326097 -26 41 C-28.875 41.4375 -28.875 41.4375 -31 41 C-31.33 39.68 -31.66 38.36 -32 37 C-30.95585937 37.23589844 -30.95585937 37.23589844 -29.890625 37.4765625 C-25.17294837 36.69878338 -23.43006936 33.10830916 -20.75 29.375 C-19.9005481 28.22704956 -19.9005481 28.22704956 -19.03393555 27.0559082 C-10.72498591 15.86251069 -10.72498591 15.86251069 -3.94921875 3.73828125 C-3 2 -3 2 0 0 Z " fill="#295AAD" transform="translate(53,113)"/>
<path d="M0 0 C0.66 0 1.32 0 2 0 C1.40049704 3.68266103 0.75241109 7.34543185 0 11 C0.763125 10.79375 1.52625 10.5875 2.3125 10.375 C5 10 5 10 8 12 C8 11.01 8 10.02 8 9 C8.66 9 9.32 9 10 9 C10 9.66 10 10.32 10 11 C10.433125 10.505 10.86625 10.01 11.3125 9.5 C13 8 13 8 16 8 C16.66 6.02 17.32 4.04 18 2 C18.33 2 18.66 2 19 2 C19.125 9.75 19.125 9.75 18 12 C17.34 12.144375 16.68 12.28875 16 12.4375 C15.34 12.623125 14.68 12.80875 14 13 C13.67 13.99 13.34 14.98 13 16 C12.2575 15.814375 11.515 15.62875 10.75 15.4375 C8.10659738 14.80421139 8.10659738 14.80421139 6.0625 15.625 C2.81981279 16.21457949 0.77014668 14.57394698 -2 13 C-2 11.68 -2 10.36 -2 9 C-2.99 8.67 -3.98 8.34 -5 8 C-3.38731308 5.28775382 -1.75098126 2.62647188 0 0 Z " fill="#DEECF7" transform="translate(58,95)"/>
<path d="M0 0 C0.99 0.33 1.98 0.66 3 1 C-1.62 5.62 -6.24 10.24 -11 15 C-5.85261762 21.4452339 -5.85261762 21.4452339 -2.5 24 C0.79392121 26.63513697 3.33836821 29.74384564 6 33 C6.99 32.505 6.99 32.505 8 32 C8 33.98 8 35.96 8 38 C2.81250387 33.63655925 -2.15532939 29.11578879 -7 24.375 C-7.69222656 23.72015625 -8.38445313 23.0653125 -9.09765625 22.390625 C-9.74605469 21.75382812 -10.39445312 21.11703125 -11.0625 20.4609375 C-11.65160156 19.89165527 -12.24070312 19.32237305 -12.84765625 18.73583984 C-14 17 -14 17 -13.86743164 14.98583984 C-12.88518307 12.73714581 -11.81617546 11.47201501 -10.05859375 9.765625 C-9.18364258 8.90517578 -9.18364258 8.90517578 -8.29101562 8.02734375 C-7.67935547 7.44082031 -7.06769531 6.85429688 -6.4375 6.25 C-5.82197266 5.64800781 -5.20644531 5.04601563 -4.57226562 4.42578125 C-3.05485187 2.94365619 -1.52829404 1.4709033 0 0 Z " fill="#2ABB43" transform="translate(30,58)"/>
<path d="M0 0 C4.54884466 3.82102951 8.94716034 7.6506111 13 12 C13 12.66 13 13.32 13 14 C6.565 14.495 6.565 14.495 0 15 C0 10.05 0 5.1 0 0 Z " fill="#DF6C43" transform="translate(96,38)"/>
<path d="M0 0 C0.66 0 1.32 0 2 0 C2.10957031 0.61746094 2.21914063 1.23492187 2.33203125 1.87109375 C3.4377266 7.77712501 4.95361435 13.35197559 7 19 C7.33 19 7.66 19 8 19 C8 18.01 8 17.02 8 16 C8.99 16 9.98 16 11 16 C13.1519437 19.22791555 13.20086443 20.28400809 13 24 C12.01 24.33 11.02 24.66 10 25 C10.52268466 27.76276177 11.10869587 30.3260876 12 33 C10.515 33.495 10.515 33.495 9 34 C4.86463887 22.80346888 0.98188147 11.97895393 0 0 Z " fill="#79BCD6" transform="translate(38,8)"/>
<path d="M0 0 C4.64631494 1.42963537 7.55542301 4.09102113 10.875 7.5 C11.3994873 8.03028809 11.92397461 8.56057617 12.46435547 9.10693359 C16.34733052 13.11930121 19.64659543 17.35222879 22.6953125 22.0390625 C23.98355128 24.11489671 23.98355128 24.11489671 26 26 C27.54526333 28.66128684 28 29.84915995 28 33 C24.0802843 31.6934281 23.92271258 30.36629112 22.0625 26.75 C19.18317005 21.63322894 15.98534065 17.36942971 12 13.0625 C11.514104 12.53172852 11.02820801 12.00095703 10.52758789 11.45410156 C7.0077407 7.74480084 3.22974763 4.8709412 -1 2 C-0.67 1.34 -0.34 0.68 0 0 Z " fill="#1772BB" transform="translate(131,73)"/>
<path d="M0 0 C1.98 1.65 3.96 3.3 6 5 C5.236875 5.7425 4.47375 6.485 3.6875 7.25 C0.59109796 10.41841139 -1.59679489 12.79038466 -3 17 C-6.78332024 13.21667976 -7.39886096 11.41025137 -8 6 C-7.4225 5.7525 -6.845 5.505 -6.25 5.25 C-3.6997003 3.83316683 -1.98214299 2.12372463 0 0 Z " fill="#EC9A9B" transform="translate(61,27)"/>
<path d="M0 0 C-0.87011719 0.41958984 -0.87011719 0.41958984 -1.7578125 0.84765625 C-7.50479954 3.79701759 -11.07777244 6.93037453 -15 12 C-19.333881 17.07683202 -24.84931797 20.46736622 -31 23 C-31.99 22.67 -32.98 22.34 -34 22 C-32.77023438 21.22076172 -32.77023438 21.22076172 -31.515625 20.42578125 C-30.43796875 19.72839844 -29.3603125 19.03101562 -28.25 18.3125 C-27.18265625 17.62800781 -26.1153125 16.94351563 -25.015625 16.23828125 C-22.06536682 14.04851708 -20.15690579 11.94825377 -18 9 C-13.71744457 4.10565094 -6.90675779 -2.53717633 0 0 Z " fill="#EBF2F5" transform="translate(114,67)"/>
<path d="M0 0 C0.02691685 2.45840605 0.04679802 4.91651882 0.0625 7.375 C0.07087891 8.07367188 0.07925781 8.77234375 0.08789062 9.4921875 C0.11328125 14.7734375 0.11328125 14.7734375 -1 17 C-1.20466634 18.97559868 -1.36549059 20.95588811 -1.5 22.9375 C-1.7240646 26.23044938 -1.95387694 28.86163082 -3 32 C-3.66 32 -4.32 32 -5 32 C-5.43483023 8.90568334 -5.43483023 8.90568334 -3 1 C-1 0 -1 0 0 0 Z " fill="#F5F3F1" transform="translate(88,21)"/>
<path d="M0 0 C2.25 0 2.25 0 5 1 C7.80979411 4.92293938 9 8.16754157 9 13 C7.68 13 6.36 13 5 13 C4.67 15.31 4.34 17.62 4 20 C3.67 20 3.34 20 3 20 C2.67 16.04 2.34 12.08 2 8 C1.34 8 0.68 8 0 8 C0 5.36 0 2.72 0 0 Z " fill="#C8D9E0" transform="translate(85,14)"/>
<path d="M0 0 C0 3.91676874 -1.34466964 5.14932249 -3.6875 8.25 C-6.09738875 11.45189086 -8.43750735 14.6434539 -10.625 18 C-13.22076804 21.27886489 -15.2354262 22.31795639 -19 24 C-21.31418291 26.06167261 -21.31418291 26.06167261 -23 28 C-23.66 27.67 -24.32 27.34 -25 27 C-24.56244385 26.57291748 -24.1248877 26.14583496 -23.67407227 25.70581055 C-15.28776954 17.49364843 -7.13117452 9.34976214 0 0 Z " fill="#3168BC" transform="translate(52,106)"/>
<path d="M0 0 C1.65 1.32 3.3 2.64 5 4 C4.67 4.66 4.34 5.32 4 6 C2.68 5.67 1.36 5.34 0 5 C0.33 5.66 0.66 6.32 1 7 C3.02463255 7.65213292 3.02463255 7.65213292 5 8 C5 8.66 5 9.32 5 10 C4.01 10 3.02 10 2 10 C2 10.66 2 11.32 2 12 C2.99 12.33 3.98 12.66 5 13 C5 13.66 5 14.32 5 15 C4.34 15 3.68 15 3 15 C3.33 16.32 3.66 17.64 4 19 C3.34 19.33 2.68 19.66 2 20 C0.06559178 17.09838767 -0.51284158 15.46278378 -1.1875 12.125 C-1.45626953 10.86042969 -1.45626953 10.86042969 -1.73046875 9.5703125 C-2.10301631 6.0176126 -1.5950387 3.19007739 0 0 Z " fill="#EEF9FE" transform="translate(43,9)"/>
<path d="M0 0 C0.5775 0.226875 1.155 0.45375 1.75 0.6875 C0.11587557 2.39590281 -1.11906094 3.62203047 -3.25 4.6875 C-4.17393164 6.54946946 -4.17393164 6.54946946 -4.25 8.6875 C-2.89555699 10.45940909 -2.89555699 10.45940909 -1.25 11.6875 C-2.24 13.1725 -2.24 13.1725 -3.25 14.6875 C-3.91 14.0275 -4.57 13.3675 -5.25 12.6875 C-4.59 12.6875 -3.93 12.6875 -3.25 12.6875 C-3.25 12.0275 -3.25 11.3675 -3.25 10.6875 C-3.8275 11.0175 -4.405 11.3475 -5 11.6875 C-7.25 12.6875 -7.25 12.6875 -11.25 12.6875 C-10.09826645 10.21949953 -9.20216435 8.63966435 -7.25 6.6875 C-7.064375 5.7284375 -7.064375 5.7284375 -6.875 4.75 C-5.81703067 1.2587012 -3.66534405 -0.50907556 0 0 Z " fill="#42AAB9" transform="translate(53.25,79.3125)"/>
<path d="M0 0 C5.20988728 1.63739315 8.61159416 4.55376114 11.3125 9.3125 C11.6528125 10.1478125 11.6528125 10.1478125 12 11 C11.01 11.495 11.01 11.495 10 12 C10 11.34 10 10.68 10 10 C9.46375 9.9175 8.9275 9.835 8.375 9.75 C6 9 6 9 3.1875 7 C-0.33157578 4.79195245 -2.8992785 4.32805772 -7 4 C-7 3.67 -7 3.34 -7 3 C-5.5459375 2.814375 -5.5459375 2.814375 -4.0625 2.625 C-2.5465625 2.315625 -2.5465625 2.315625 -1 2 C-0.67 1.34 -0.34 0.68 0 0 Z " fill="#D1D8DC" transform="translate(109,51)"/>
<path d="M0 0 C0.66 0 1.32 0 2 0 C3.85776765 3.13498292 4.20140476 5.37471432 4 9 C3.01 9 2.02 9 1 9 C-0.72406964 10.47329538 -0.72406964 10.47329538 -2.375 12.375 C-5.0629025 15.19986568 -7.15023156 16.95006315 -11 18 C-10.08552154 16.91481889 -9.16829593 15.83195262 -8.25 14.75 C-7.70601562 14.10675781 -7.16203125 13.46351562 -6.6015625 12.80078125 C-5 11 -5 11 -2.625 8.9375 C-0.39308683 6.27637276 -0.77517856 4.37232156 -1 1 C-0.67 0.67 -0.34 0.34 0 0 Z " fill="#A8BE8E" transform="translate(48,41)"/>
<path d="M0 0 C3.87685679 2.08753827 6.48941618 3.77036532 8 8 C6.02 6.68 4.04 5.36 2 4 C2 4.66 2 5.32 2 6 C0.02 6 -1.96 6 -4 6 C-4.33 4.68 -4.66 3.36 -5 2 C-6.32 1.67 -7.64 1.34 -9 1 C-5.64870516 -0.11709828 -3.51689744 -0.34479387 0 0 Z " fill="#37A7E3" transform="translate(109,55)"/>
<path d="M0 0 C0.33 0 0.66 0 1 0 C1.25 7.625 1.25 7.625 -1 11 C-2.32520503 11.68268138 -3.65812182 12.3507041 -5 13 C-5.33 13.66 -5.66 14.32 -6 15 C-6.99 15 -7.98 15 -9 15 C-9 14.34 -9 13.68 -9 13 C-10.98 13.33 -12.96 13.66 -15 14 C-15 13.34 -15 12.68 -15 12 C-12.75 10.875 -12.75 10.875 -10 10 C-7.6875 10.875 -7.6875 10.875 -6 12 C-5.67 10.68 -5.34 9.36 -5 8 C-3.68 8 -2.36 8 -1 8 C-0.67 5.36 -0.34 2.72 0 0 Z " fill="#3688D7" transform="translate(77,99)"/>
<path d="M0 0 C3.94827146 0.03153571 7.12913861 0.67637738 10.8125 2.1875 C10.8125 2.5175 10.8125 2.8475 10.8125 3.1875 C6.1925 3.1875 1.5725 3.1875 -3.1875 3.1875 C-2.5275 4.5075 -1.8675 5.8275 -1.1875 7.1875 C-2.8375 6.8575 -4.4875 6.5275 -6.1875 6.1875 C-5.08456641 0.04258431 -5.08456641 0.04258431 0 0 Z " fill="#CBE3DE" transform="translate(56.1875,71.8125)"/>
<path d="M0 0 C-0.59167969 0.29132813 -1.18335937 0.58265625 -1.79296875 0.8828125 C-5.77643733 2.94927744 -9.10127251 4.71945609 -11.875 8.3125 C-12.926875 9.6428125 -12.926875 9.6428125 -14 11 C-14.99 11 -15.98 11 -17 11 C-17.33 10.34 -17.66 9.68 -18 9 C-13.641505 4.07911855 -6.94681446 -2.55189102 0 0 Z " fill="#E2EBEB" transform="translate(114,67)"/>
<path d="M0 0 C0.33 0.66 0.66 1.32 1 2 C-3.16704183 6.85743929 -7.41844996 11.53019508 -12 16 C-12.99 15.67 -13.98 15.34 -15 15 C-10.05 10.05 -5.1 5.1 0 0 Z " fill="#97865A" transform="translate(46,42)"/>
<path d="M0 0 C0.99 0.33 1.98 0.66 3 1 C-1.62 5.62 -6.24 10.24 -11 15 C-11.66 14.34 -12.32 13.68 -13 13 C-8.71 8.71 -4.42 4.42 0 0 Z " fill="#63A834" transform="translate(30,58)"/>
<path d="M0 0 C0.99 0 1.98 0 3 0 C3 1.32 3 2.64 3 4 C3.99 4.33 4.98 4.66 6 5 C6.433125 5.66 6.86625 6.32 7.3125 7 C9.6118448 9.72514939 11.54422433 9.69281994 15 10 C15 10.66 15 11.32 15 12 C9.54529617 11.64808362 9.54529617 11.64808362 7 11 C5.6875 9 5.6875 9 5 7 C4.01 6.67 3.02 6.34 2 6 C0.8125 2.9375 0.8125 2.9375 0 0 Z " fill="#62B3D4" transform="translate(59,60)"/>
<path d="M0 0 C0.33 0 0.66 0 1 0 C1.0270043 1.45823212 1.04639787 2.91660675 1.0625 4.375 C1.07410156 5.18710938 1.08570313 5.99921875 1.09765625 6.8359375 C1 9 1 9 0 11 C1.32 10.67 2.64 10.34 4 10 C4 10.99 4 11.98 4 13 C4.66 13 5.32 13 6 13 C6 13.66 6 14.32 6 15 C3.36 14.67 0.72 14.34 -2 14 C-1.85970581 11.8537974 -1.71261836 9.70803782 -1.5625 7.5625 C-1.48128906 6.36753906 -1.40007813 5.17257813 -1.31640625 3.94140625 C-1 1 -1 1 0 0 Z " fill="#56A7D4" transform="translate(60,92)"/>
<path d="M0 0 C2.62187494 1.04874998 3.79371361 1.64931313 5.25 4.125 C5.4975 4.74375 5.745 5.3625 6 6 C3.36 6.66 0.72 7.32 -2 8 C-2 7.01 -2 6.02 -2 5 C-2.99 5.33 -3.98 5.66 -5 6 C-5.33 5.34 -5.66 4.68 -6 4 C-4.02 4 -2.04 4 0 4 C0 2.68 0 1.36 0 0 Z " fill="#D29B5B" transform="translate(111,59)"/>
<path d="M0 0 C0.66 0 1.32 0 2 0 C1.40049704 3.68266103 0.75241109 7.34543185 0 11 C-2.475 10.01 -2.475 10.01 -5 9 C-3.7580393 5.56072421 -2.44259716 2.74792181 0 0 Z " fill="#E8F3F8" transform="translate(58,95)"/>
<path d="M0 0 C0.33 1.32 0.66 2.64 1 4 C0.195625 4.556875 -0.60875 5.11375 -1.4375 5.6875 C-4.24228216 8.21864487 -4.69381595 9.32579134 -5 13 C-5.99 12.67 -6.98 12.34 -8 12 C-6.25 5.25 -6.25 5.25 -4 3 C-2.68 3 -1.36 3 0 3 C0 2.01 0 1.02 0 0 Z " fill="#E7F3F6" transform="translate(51,75)"/>
<path d="M0 0 C0.66 0 1.32 0 2 0 C3.42415912 6.98443993 4.74602127 13.98305518 6 21 C4 20 4 20 3.18359375 17.8125 C1.60255303 11.85255594 0.50388493 6.14739614 0 0 Z " fill="#4C95B0" transform="translate(38,8)"/>
<path d="M0 0 C3.796875 0.7734375 3.796875 0.7734375 5.625 2.8125 C9 8.18181818 9 8.18181818 9 12 C5.03126566 10.67708855 4.70094963 9.08850262 2.8125 5.4375 C2.28269531 4.42558594 1.75289062 3.41367188 1.20703125 2.37109375 C0.80871094 1.58863281 0.41039062 0.80617188 0 0 Z " fill="#2B62A0" transform="translate(150,94)"/>
<path d="M0 0 C-6.07439825 5.88183807 -6.07439825 5.88183807 -9.9375 6.375 C-10.618125 6.25125 -11.29875 6.1275 -12 6 C-11.67 4.68 -11.34 3.36 -11 2 C-10.4225 1.87625 -9.845 1.7525 -9.25 1.625 C-6.96439949 1.08156967 -6.96439949 1.08156967 -4.9375 -0.125 C-3 -1 -3 -1 0 0 Z " fill="#18459D" transform="translate(18,147)"/>
<path d="M0 0 C0.66 0 1.32 0 2 0 C3.65625 1.6796875 3.65625 1.6796875 5.5 3.875 C7.28933258 5.99035504 9.04019124 8.04019124 11 10 C10.67 10.99 10.34 11.98 10 13 C8.32438946 11.40517782 6.65974066 9.79883156 5 8.1875 C3.6078125 6.84751953 3.6078125 6.84751953 2.1875 5.48046875 C0 3 0 3 0 0 Z " fill="#33C023" transform="translate(16,72)"/>
<path d="M0 0 C0.06058594 0.62390625 0.12117188 1.2478125 0.18359375 1.890625 C0.80848559 4.23367434 0.80848559 4.23367434 3.28515625 5.046875 C4.65994141 5.39492187 4.65994141 5.39492187 6.0625 5.75 C6.98160156 5.99234375 7.90070312 6.2346875 8.84765625 6.484375 C9.55792969 6.65453125 10.26820312 6.8246875 11 7 C10.67 7.66 10.34 8.32 10 9 C6.6875 9.25 6.6875 9.25 3 9 C1.0625 7.3125 1.0625 7.3125 0 5 C-0.1875 2.25 -0.1875 2.25 0 0 Z " fill="#1F5EA2" transform="translate(36,97)"/>
<path d="M0 0 C0.33 0 0.66 0 1 0 C1.1546875 1.175625 1.1546875 1.175625 1.3125 2.375 C1.77595022 5.33045181 1.77595022 5.33045181 5 7 C7.32387947 7.39387788 9.65793749 7.73486085 12 8 C12 8.33 12 8.66 12 9 C6.06 9.495 6.06 9.495 0 10 C0 6.7 0 3.4 0 0 Z " fill="#F3A659" transform="translate(96,43)"/>
<path d="M0 0 C0.66 0 1.32 0 2 0 C1.42655063 2.86724686 1.1385485 3.8614515 -1 6 C-3.625 6.125 -3.625 6.125 -6 6 C-6.33 4.68 -6.66 3.36 -7 2 C-6.21625 2.04125 -5.4325 2.0825 -4.625 2.125 C-1.83883881 2.28728734 -1.83883881 2.28728734 0 0 Z " fill="#1B479D" transform="translate(28,148)"/>
<path d="M0 0 C0.99 1.32 1.98 2.64 3 4 C2.01 6.31 1.02 8.62 0 11 C-2 8 -2 8 -2 7 C-2.99 6.34 -3.98 5.68 -5 5 C-3.35 3.35 -1.7 1.7 0 0 Z " fill="#D2E4F3" transform="translate(53,101)"/>
<path d="M0 0 C1.32 0.66 2.64 1.32 4 2 C4.33 1.34 4.66 0.68 5 0 C5.66 0 6.32 0 7 0 C5.61811547 3.21043882 4.07578097 5.04936365 1.375 7.25 C0.42753906 8.03117187 0.42753906 8.03117187 -0.5390625 8.828125 C-1.02117187 9.21484375 -1.50328125 9.6015625 -2 10 C-1.67257813 9.40703125 -1.34515625 8.8140625 -1.0078125 8.203125 C0.28545792 5.3759757 0.13965059 3.07231289 0 0 Z " fill="#4A839F" transform="translate(96,100)"/>
<path d="M0 0 C6.16456078 0.38528505 9.98627748 2.47086025 15 6 C14.34 6.66 13.68 7.32 13 8 C12.484375 7.566875 11.96875 7.13375 11.4375 6.6875 C8.46417318 4.62904297 5.32038112 3.4142364 2 2 C1.34 1.34 0.68 0.68 0 0 Z " fill="#389CD9" transform="translate(117,66)"/>
<path d="M0 0 C0.33 0.66 0.66 1.32 1 2 C-2.96 2.66 -6.92 3.32 -11 4 C-11 3.01 -11 2.02 -11 1 C-10.401875 0.855625 -9.80375 0.71125 -9.1875 0.5625 C-2.88549618 -1.05801527 -2.88549618 -1.05801527 0 0 Z " fill="#3DA6D6" transform="translate(103,56)"/>
<path d="M0 0 C0.66 0.66 1.32 1.32 2 2 C-0.64 4.64 -3.28 7.28 -6 10 C-6.66 8.68 -7.32 7.36 -8 6 C-7.4225 5.7525 -6.845 5.505 -6.25 5.25 C-3.6997003 3.83316683 -1.98214299 2.12372463 0 0 Z " fill="#BD7376" transform="translate(61,27)"/>
<path d="M0 0 C0.66 0.33 1.32 0.66 2 1 C1.09827532 2.17825358 0.17798498 3.34231577 -0.75 4.5 C-1.51570313 5.47453125 -1.51570313 5.47453125 -2.296875 6.46875 C-4 8 -4 8 -8 8 C-8.33 6.68 -8.66 5.36 -9 4 C-7.515 4.99 -7.515 4.99 -6 6 C-4.02 4.02 -2.04 2.04 0 0 Z " fill="#BB727C" transform="translate(72,16)"/>
<path d="M0 0 C2 1 2 1 3 3 C1.3789897 3.69685498 -0.24696066 4.38222861 -1.875 5.0625 C-2.77992187 5.44535156 -3.68484375 5.82820313 -4.6171875 6.22265625 C-7 7 -7 7 -9 6 C-6.03 4.02 -3.06 2.04 0 0 Z " fill="#3B8DC6" transform="translate(88,86)"/>
<path d="M0 0 C0 0.66 0 1.32 0 2 C-0.969375 2.268125 -1.93875 2.53625 -2.9375 2.8125 C-3.948125 3.204375 -4.95875 3.59625 -6 4 C-6.33 4.99 -6.66 5.98 -7 7 C-7.66 7 -8.32 7 -9 7 C-8.6875 4.625 -8.6875 4.625 -8 2 C-4.77208445 -0.1519437 -3.71599191 -0.20086443 0 0 Z " fill="#2C8ED1" transform="translate(50,93)"/>
<path d="M0 0 C2.31 0.33 4.62 0.66 7 1 C7 1.99 7 2.98 7 4 C5.02 4 3.04 4 1 4 C0.67 2.68 0.34 1.36 0 0 Z " fill="#E8F2F6" transform="translate(104,57)"/>
<path d="M0 0 C2.475 0.495 2.475 0.495 5 1 C5 1.66 5 2.32 5 3 C4.34 3 3.68 3 3 3 C3.33 4.32 3.66 5.64 4 7 C3.01 7.495 3.01 7.495 2 8 C-0.1519437 4.77208445 -0.20086443 3.71599191 0 0 Z " fill="#DDF2F9" transform="translate(43,21)"/>
<path d="M0 0 C0.99 0.33 1.98 0.66 3 1 C-2.78571429 5.82142857 -2.78571429 5.82142857 -6 7 C-6.99 6.67 -7.98 6.34 -9 6 C-7.57140593 4.96674014 -6.13177617 3.94872366 -4.6875 2.9375 C-3.88699219 2.36902344 -3.08648437 1.80054687 -2.26171875 1.21484375 C-1.51535156 0.81394531 -0.76898438 0.41304688 0 0 Z " fill="#CBDDE2" transform="translate(89,83)"/>
<path d="M0 0 C0.66 0.33 1.32 0.66 2 1 C0.92456217 1.98783194 -0.16073217 2.96493943 -1.25 3.9375 C-2.15492187 4.75541016 -2.15492187 4.75541016 -3.078125 5.58984375 C-5.08467305 7.06212799 -6.57002449 7.57529189 -9 8 C-7.83917375 4.51752126 -7.09067524 4.11180756 -4.0625 2.25 C-3.35222656 1.80140625 -2.64195313 1.3528125 -1.91015625 0.890625 C-1.27980469 0.59671875 -0.64945313 0.3028125 0 0 Z " fill="#2E8DD5" transform="translate(98,80)"/>
<path d="M0 0 C3.33333333 3.33333333 6.66666667 6.66666667 10 10 C9.67 10.66 9.34 11.32 9 12 C7.49105554 10.57189185 5.99307655 9.13218981 4.5 7.6875 C3.6646875 6.88699219 2.829375 6.08648437 1.96875 5.26171875 C0 3 0 3 0 0 Z " fill="#47BAE9" transform="translate(61,24)"/>
<path d="M0 0 C0.8971875 0.309375 0.8971875 0.309375 1.8125 0.625 C-0.71706528 3.7166909 -3.41204612 4.53431332 -7.1875 5.625 C-5.69046729 2.17030914 -4.27938051 -0.73360809 0 0 Z " fill="#3099D5" transform="translate(53.1875,79.375)"/>
<path d="M0 0 C0 3.39593478 -0.52165948 4.06619881 -2.5 6.6875 C-2.9640625 7.31011719 -3.428125 7.93273437 -3.90625 8.57421875 C-4.2671875 9.04472656 -4.628125 9.51523438 -5 10 C-5.99 9.67 -6.98 9.34 -8 9 C-5.36 6.03 -2.72 3.06 0 0 Z " fill="#5692DA" transform="translate(52,106)"/>
<path d="M0 0 C-4.30769231 3.93846154 -4.30769231 3.93846154 -7.8125 4.25 C-8.534375 4.1675 -9.25625 4.085 -10 4 C-9.34 3.67 -8.68 3.34 -8 3 C-8 2.34 -8 1.68 -8 1 C-3.375 -1.125 -3.375 -1.125 0 0 Z " fill="#CFE5F2" transform="translate(50,99)"/>
<path d="M0 0 C3 1 3 1 6 3 C5.2575 3.144375 4.515 3.28875 3.75 3.4375 C1.47972261 3.90187492 -0.75759479 4.41863569 -3 5 C-2.625 3.0625 -2.625 3.0625 -2 1 C-1.34 0.67 -0.68 0.34 0 0 Z " fill="#3EAFB1" transform="translate(46,95)"/>
<path d="M0 0 C1 3 1 3 -0.4375 6.1875 C-1.2109375 7.5796875 -1.2109375 7.5796875 -2 9 C-2.66 7.68 -3.32 6.36 -4 5 C-2.68 3.35 -1.36 1.7 0 0 Z " fill="#ECF2FA" transform="translate(51,110)"/>
<path d="M0 0 C0.59296875 0.20496094 1.1859375 0.40992187 1.796875 0.62109375 C0.51036794 1.31820106 -0.78253165 2.00352251 -2.078125 2.68359375 C-3.15707031 3.25787109 -3.15707031 3.25787109 -4.2578125 3.84375 C-4.89976563 4.10027344 -5.54171875 4.35679688 -6.203125 4.62109375 C-6.863125 4.29109375 -7.523125 3.96109375 -8.203125 3.62109375 C-2.74543269 -0.47217548 -2.74543269 -0.47217548 0 0 Z " fill="#F1EDDF" transform="translate(112.203125,66.37890625)"/>
<path d="M0 0 C2.97 0 5.94 0 9 0 C9 0.66 9 1.32 9 2 C7.35 2.66 5.7 3.32 4 4 C4 3.01 4 2.02 4 1 C3.01 1.33 2.02 1.66 1 2 C0.67 1.34 0.34 0.68 0 0 Z " fill="#CFA138" transform="translate(105,63)"/>
<path d="M0 0 C0.86625 0.556875 0.86625 0.556875 1.75 1.125 C1.75 1.785 1.75 2.445 1.75 3.125 C-0.89 3.125 -3.53 3.125 -6.25 3.125 C-6.25 2.465 -6.25 1.805 -6.25 1.125 C-2.80384615 -1.09038462 -2.80384615 -1.09038462 0 0 Z " fill="#2C7AD4" transform="translate(68.25,109.875)"/>
<path d="M0 0 C4.455 0.99 4.455 0.99 9 2 C9 2.66 9 3.32 9 4 C6.36 3.67 3.72 3.34 1 3 C0.67 2.01 0.34 1.02 0 0 Z " fill="#2796D4" transform="translate(65,68)"/>
<path d="M0 0 C0.99 0.33 1.98 0.66 3 1 C1.35 2.65 -0.3 4.3 -2 6 C-2.99 5.67 -3.98 5.34 -5 5 C-3.35 3.35 -1.7 1.7 0 0 Z " fill="#7B9A46" transform="translate(30,58)"/>
<path d="M0 0 C0.66 0 1.32 0 2 0 C2.125 5.75 2.125 5.75 1 8 C0.34 7.67 -0.32 7.34 -1 7 C-1.04254356 5.00045254 -1.04080783 2.99958364 -1 1 C-0.67 0.67 -0.34 0.34 0 0 Z " fill="#D39D8F" transform="translate(48,41)"/>
</svg>
