<?xml version="1.0" encoding="UTF-8"?>
<!DOCTYPE svg PUBLIC "-//W3C//DTD SVG 1.1//EN" "http://www.w3.org/Graphics/SVG/1.1/DTD/svg11.dtd">
<svg xmlns="http://www.w3.org/2000/svg" version="1.1" width="160px" height="160px" style="shape-rendering:geometricPrecision; text-rendering:geometricPrecision; image-rendering:optimizeQuality; fill-rule:evenodd; clip-rule:evenodd" xmlns:xlink="http://www.w3.org/1999/xlink">
<g><path style="opacity:1" fill="#262f45" d="M -0.5,-0.5 C 52.8333,-0.5 106.167,-0.5 159.5,-0.5C 159.5,52.8333 159.5,106.167 159.5,159.5C 106.167,159.5 52.8333,159.5 -0.5,159.5C -0.5,106.167 -0.5,52.8333 -0.5,-0.5 Z"/></g>
<g><path style="opacity:1" fill="#2390cb" d="M 73.5,8.5 C 81.8185,8.98687 83.4851,12.4869 78.5,19C 70.0878,18.8117 68.4211,15.3117 73.5,8.5 Z"/></g>
<g><path style="opacity:1" fill="#2393cf" d="M 86.5,18.5 C 94.5706,19.0929 96.5706,22.9262 92.5,30C 81.8739,30.5529 79.8739,26.7196 86.5,18.5 Z"/></g>
<g><path style="opacity:1" fill="#2394d0" d="M 75.5,29.5 C 82.8247,28.9924 85.6581,32.3258 84,39.5C 79.601,43.6545 75.601,43.3211 72,38.5C 71.3333,36.8333 71.3333,35.1667 72,33.5C 73.3756,32.2949 74.5423,30.9616 75.5,29.5 Z"/></g>
<g><path style="opacity:1" fill="#2392ce" d="M 87.5,42.5 C 95.1609,41.663 98.6609,44.9964 98,52.5C 94.4546,58.2087 90.1213,58.8754 85,54.5C 82.6957,49.8553 83.529,45.8553 87.5,42.5 Z"/></g>
<g><path style="opacity:1" fill="#2393cf" d="M 65.5,47.5 C 74.1584,46.327 77.9918,49.9937 77,58.5C 71.3908,65.5041 66.3908,65.1707 62,57.5C 61.1822,53.4695 62.3489,50.1361 65.5,47.5 Z"/></g>
<g><path style="opacity:1" fill="#f6f6f7" d="M 48.5,68.5 C 51.1873,68.3359 53.854,68.5026 56.5,69C 67.3718,75.6293 79.0385,77.296 91.5,74C 95.538,73.1007 99.2046,71.434 102.5,69C 105.916,68.1067 109.083,68.6067 112,70.5C 129.848,95.1372 128.015,118.304 106.5,140C 85.2034,154.157 65.3701,152.323 47,134.5C 31.1899,112.063 31.6899,90.063 48.5,68.5 Z"/></g>
<g><path style="opacity:1" fill="#272f45" d="M 52.5,78.5 C 57.7718,80.4242 63.1052,82.2576 68.5,84C 76.3587,84.7526 84.192,84.5859 92,83.5C 96.726,81.3672 101.559,79.8672 106.5,79C 119.666,98.5476 117.666,116.548 100.5,133C 91.4232,139.182 81.4232,141.182 70.5,139C 50.7498,130.349 42.2498,115.182 45,93.5C 46.9861,88.1945 49.4861,83.1945 52.5,78.5 Z"/></g>
</svg>
