<?xml version="1.0" standalone="no"?>
<!DOCTYPE svg PUBLIC "-//W3C//DTD SVG 20010904//EN"
 "http://www.w3.org/TR/2001/REC-SVG-20010904/DTD/svg10.dtd">
<svg version="1.0" xmlns="http://www.w3.org/2000/svg"
 width="1200.000000pt" height="1200.000000pt" viewBox="0 0 1200.000000 1200.000000"
 preserveAspectRatio="xMidYMid meet">

<g transform="translate(0.000000,1200.000000) scale(0.100000,-0.100000)"
fill="#000000" stroke="none">
<path d="M5595 11659 c-1533 -116 -2969 -860 -3946 -2044 -455 -552 -790
-1156 -1014 -1830 -348 -1047 -385 -2175 -105 -3242 543 -2069 2222 -3669
4318 -4113 591 -125 1233 -155 1842 -85 2183 252 4046 1771 4735 3860 130 396
212 787 262 1245 25 230 25 853 0 1085 -97 899 -359 1683 -810 2420 -551 901
-1362 1647 -2306 2119 -670 336 -1365 526 -2135 586 -150 12 -681 11 -841 -1z
m940 -553 c668 -74 1237 -239 1804 -526 509 -257 917 -553 1326 -964 417 -418
714 -831 970 -1351 544 -1104 675 -2334 375 -3535 -308 -1233 -1087 -2328
-2161 -3035 -1666 -1099 -3840 -1126 -5536 -69 -1257 783 -2122 2080 -2357
3534 -42 258 -57 432 -63 726 -6 298 4 495 37 759 179 1411 944 2693 2100
3519 783 561 1673 882 2645 956 172 12 692 4 860 -14z"/>
<path d="M4980 10350 c-771 -203 -1456 -596 -2020 -1160 -499 -498 -857 -1075
-1080 -1740 -157 -468 -230 -919 -230 -1424 0 -698 151 -1345 460 -1971 433
-878 1150 -1595 2025 -2025 635 -312 1269 -460 1971 -460 599 0 1106 97 1679
321 163 64 520 246 683 348 359 225 696 508 964 808 108 121 124 142 90 124
-83 -44 -523 -201 -564 -201 -11 0 -50 18 -88 40 -51 30 -69 46 -74 67 -13 55
-18 686 -7 800 12 127 12 127 123 307 115 185 175 315 189 406 14 92 7 323
-17 511 -9 75 -14 147 -11 160 14 55 112 125 211 150 84 21 116 53 184 190 94
188 93 224 -8 349 -29 36 -78 118 -111 185 -56 116 -60 122 -137 183 -113 90
-148 130 -167 187 -52 160 -170 335 -226 335 -32 0 -64 -34 -83 -86 -18 -52
-36 -167 -36 -236 l-1 -53 -97 -47 c-175 -84 -241 -156 -297 -321 -99 -291
-154 -372 -371 -544 -44 -35 -114 -104 -155 -154 -108 -132 -131 -148 -275
-184 -52 -13 -134 -38 -182 -56 -132 -48 -379 -171 -449 -223 -171 -129 -335
-371 -392 -576 -30 -107 -69 -355 -81 -505 -12 -163 -2 -258 44 -438 35 -136
46 -237 26 -237 -36 0 -170 100 -273 203 -107 107 -258 369 -290 503 -48 200
0 383 171 650 90 141 112 205 112 321 -1 158 -60 283 -196 412 -140 133 -298
189 -335 119 -19 -36 9 -75 126 -173 166 -138 213 -203 222 -305 7 -76 -18
-135 -137 -325 -140 -223 -187 -348 -197 -520 -6 -115 9 -212 59 -363 31 -93
137 -319 197 -420 17 -29 31 -55 31 -58 0 -7 -217 108 -320 169 -557 329
-1031 778 -1384 1312 -219 331 -370 634 -488 985 -357 1056 -289 2212 188
3198 107 223 162 319 299 527 223 336 513 661 808 904 42 35 77 65 77 67 0 6
-7 5 -160 -36z m3364 -6962 c26 -63 98 -520 85 -533 -7 -6 -290 -38 -295 -33
-6 6 49 247 91 404 37 134 68 204 89 204 8 0 21 -19 30 -42z"/>
</g>
</svg>
