<svg xmlns="http://www.w3.org/2000/svg" width="215" height="168" viewBox="0 0 215 168" version="1.1"><path d="M 148 1.945 C 143.325 2.938, 131.850 5.805, 122.500 8.316 C 97.963 14.907, 94.998 15.396, 79.500 15.407 C 65.681 15.417, 63.468 15.073, 47.019 10.357 C 44.599 9.664, 44.577 9.706, 46.095 12.073 C 46.951 13.408, 52.049 22.243, 57.423 31.708 C 62.796 41.172, 67.894 49.497, 68.750 50.208 C 69.848 51.119, 74.168 51.500, 83.404 51.500 C 95.194 51.500, 97.348 51.213, 105 48.623 C 109.675 47.041, 121.376 42.021, 131.003 37.468 C 149.049 28.933, 160.132 24.881, 170.434 23.053 C 177.575 21.786, 187.121 21.727, 192.255 22.920 C 199.199 24.532, 197.088 22.194, 189.257 19.598 C 174.465 14.695, 160.319 14.231, 143.127 18.084 C 140.711 18.625, 138.560 18.893, 138.347 18.680 C 137.755 18.088, 157.815 10.279, 165.082 8.272 C 169.897 6.943, 175.205 6.501, 186.331 6.504 C 199.954 6.508, 200.891 6.395, 197.831 5.110 C 184.948 -0.298, 164.641 -1.588, 148 1.945 M 0 67.907 C 0 69.158, 0.971 69.944, 3.023 70.355 L 6.046 70.959 5.773 88.717 L 5.500 106.475 2.750 107.792 C 1.237 108.516, 0 109.760, 0 110.555 C 0 111.709, 1.827 112, 9.073 112 C 17.087 112, 18.108 111.801, 17.818 110.294 C 17.637 109.355, 16.384 108.327, 15.032 108.008 C 11.751 107.233, 10.858 102.694, 11.219 88.623 L 11.500 77.692 22.500 91.060 C 28.550 98.413, 34.986 106.361, 36.802 108.722 C 39.619 112.386, 40.389 112.862, 42.052 111.972 C 43.859 111.005, 44.001 109.757, 44.011 94.715 C 44.025 73.609, 44.401 71.404, 48.212 70.076 C 53.879 68.100, 50.919 66.552, 41.425 66.525 C 34.147 66.505, 32.500 66.777, 32.500 68 C 32.500 68.825, 33.480 69.640, 34.677 69.810 C 38.538 70.360, 39.085 72.201, 38.785 83.620 L 38.500 94.451 30.040 84.729 C 25.387 79.382, 20.337 73.156, 18.817 70.894 L 16.055 66.780 8.027 66.422 C 0.765 66.098, 0 66.240, 0 67.907 M 80.314 78.869 C 79.672 79.897, 76.921 82.108, 74.200 83.782 C 69.729 86.533, 69.105 86.676, 67.702 85.273 C 66.848 84.419, 63.978 83.531, 61.325 83.299 C 49.856 82.296, 41.885 93.608, 46.416 104.454 C 48.842 110.260, 56.505 113.749, 62.992 112.002 C 67.423 110.809, 72.516 105.788, 71.633 103.485 C 71.072 102.025, 70.724 102.072, 68.368 103.925 C 63.763 107.547, 58.240 106.299, 55.510 101.020 C 53.062 96.285, 53.423 96, 61.878 96 C 70.943 96, 72.691 94.948, 71.003 90.507 C 70.113 88.168, 70.194 87.861, 71.563 88.386 C 72.443 88.724, 73.352 89, 73.582 89 C 73.812 89, 74 93.025, 74 97.944 C 74 105.945, 74.253 107.183, 76.401 109.680 C 78.323 111.915, 79.594 112.451, 82.774 112.367 C 87.041 112.255, 93.249 109.217, 92.660 107.529 C 92.463 106.963, 90.913 106.637, 89.216 106.805 C 85.089 107.214, 84 104.972, 84 96.066 C 84 89.259, 84.089 89, 86.418 89 C 90.147 89, 92 87.968, 92 85.893 C 92 84.351, 91.258 84, 88 84 C 84.095 84, 84 83.917, 84 80.500 C 84 76.625, 82.210 75.833, 80.314 78.869 M 56.750 88.060 C 55.788 88.632, 55 89.779, 55 90.610 C 55 91.744, 55.935 92.043, 58.750 91.810 C 61.730 91.564, 62.500 91.089, 62.500 89.500 C 62.500 87.206, 59.466 86.446, 56.750 88.060" stroke="none" fill="#f46414" fill-rule="evenodd"/><path d="M 40.367 11.485 C 39.856 12.818, 65.851 68.200, 68.025 70.410 C 69.199 71.604, 75 71.762, 75 70.600 C 75 69.594, 45.315 13.216, 43.750 11.250 C 42.419 9.578, 41.063 9.672, 40.367 11.485 M 147.313 66.169 C 141.443 67.464, 137 72.633, 137 78.167 C 137 83.815, 139.964 88.118, 146.188 91.506 C 152.763 95.085, 156 98.531, 156 101.955 C 156 106.074, 153.743 108.400, 149.747 108.400 C 145.242 108.400, 141.350 105.802, 139.246 101.390 C 138.043 98.867, 137.069 98.010, 135.786 98.346 C 134.524 98.676, 134 98.243, 134 96.871 C 134 93.865, 131.064 90.086, 127.100 87.991 C 125.120 86.945, 124.209 86.069, 125.076 86.044 C 126.817 85.995, 130.372 82.438, 131.291 79.825 C 132.265 77.053, 130.129 71.314, 127.475 69.576 C 123.390 66.899, 115.271 65.848, 104.250 66.569 C 96.597 67.069, 94 67.584, 94 68.600 C 94 69.349, 95.125 70.244, 96.500 70.589 L 99 71.217 99 89.133 L 99 107.050 96.500 108 C 95.125 108.523, 94 109.692, 94 110.599 C 94 112.075, 95.549 112.203, 108.810 111.827 C 125.370 111.356, 128.509 110.336, 132.747 104.048 L 135 100.704 135 104.281 C 135 110.282, 138.858 112.530, 149 112.439 C 159.298 112.347, 165.993 106.855, 165.993 98.500 C 165.993 92.887, 162.961 88.509, 156.825 85.262 C 150.335 81.828, 146 77.778, 146 75.148 C 146 69.515, 154.191 68.061, 158.315 72.963 C 159.687 74.593, 160.991 76.474, 161.214 77.143 C 161.456 77.869, 162.347 78.081, 163.423 77.668 C 164.711 77.173, 165.055 76.336, 164.627 74.738 C 164.297 73.507, 164.021 71.476, 164.014 70.225 C 163.992 66.597, 155.129 64.445, 147.313 66.169 M 171.750 66.739 C 167.559 67.002, 166 67.493, 166 68.550 C 166 69.347, 166.418 70, 166.929 70 C 167.439 70, 168.564 70.707, 169.429 71.571 C 170.729 72.872, 170.997 75.933, 170.985 89.321 C 170.976 98.220, 170.639 106.010, 170.235 106.634 C 169.831 107.258, 168.605 107.938, 167.511 108.146 C 166.418 108.353, 165.363 109.353, 165.168 110.368 C 164.832 112.111, 165.691 112.194, 180.656 111.857 C 195.917 111.513, 196.721 111.390, 202.500 108.500 C 210.906 104.297, 214.309 99.221, 214.823 90.120 C 215.244 82.684, 213.394 77.498, 208.847 73.367 C 202.008 67.152, 192.432 65.441, 171.750 66.739 M 110.720 70.613 C 110.324 71.009, 110 74.633, 110 78.667 L 110 86 112.889 86 C 114.478 86, 116.773 85.194, 117.989 84.210 C 120.835 81.906, 121.037 75.577, 118.350 72.941 C 116.256 70.887, 111.804 69.529, 110.720 70.613 M 182.579 71.319 C 180.996 72.476, 180.852 74.258, 181.159 88.885 C 181.471 103.778, 181.670 105.291, 183.500 106.660 C 186.001 108.532, 192.917 107.940, 196.579 105.540 C 200.931 102.689, 203.266 95.929, 202.836 87.424 C 202.429 79.365, 200.610 75.807, 195.395 72.868 C 191.255 70.535, 184.729 69.746, 182.579 71.319 M 110 97.429 C 110 105.370, 111.278 108, 115.137 108 C 118.484 108, 120.785 106.183, 121.964 102.608 C 124.154 95.973, 120.081 90, 113.365 90 L 110 90 110 97.429 M 93 121.891 C 93 122.382, 97.926 132.957, 103.947 145.391 L 114.895 168 118.325 168 C 122.177 168, 124.315 166.099, 123.827 163.107 C 123.647 162.006, 118.775 152.093, 113 141.079 L 102.500 121.052 97.750 121.026 C 95.138 121.012, 93 121.401, 93 121.891" stroke="none" fill="#747474" fill-rule="evenodd"/></svg>