<?xml version="1.0" encoding="UTF-8"?>
<!DOCTYPE svg PUBLIC "-//W3C//DTD SVG 1.1//EN" "http://www.w3.org/Graphics/SVG/1.1/DTD/svg11.dtd">
<svg xmlns="http://www.w3.org/2000/svg" version="1.1" width="160px" height="160px" style="shape-rendering:geometricPrecision; text-rendering:geometricPrecision; image-rendering:optimizeQuality; fill-rule:evenodd; clip-rule:evenodd" xmlns:xlink="http://www.w3.org/1999/xlink">
<g><path style="opacity:1" fill="#37474f" d="M -0.5,-0.5 C 52.8333,-0.5 106.167,-0.5 159.5,-0.5C 159.5,52.8333 159.5,106.167 159.5,159.5C 106.167,159.5 52.8333,159.5 -0.5,159.5C -0.5,106.167 -0.5,52.8333 -0.5,-0.5 Z"/></g>
<g><path style="opacity:1" fill="#5f6d73" d="M 42.5,45.5 C 41.5025,68.3273 41.1692,91.3273 41.5,114.5C 41.5,114.833 41.5,115.167 41.5,115.5C 40.1712,91.9966 40.1712,68.3299 41.5,44.5C 42.1067,44.6236 42.44,44.9569 42.5,45.5 Z"/></g>
<g><path style="opacity:1" fill="#cbd4d8" d="M 85.5,73.5 C 86.5819,75.3386 87.4153,77.3386 88,79.5C 88.3826,78.944 88.8826,78.6107 89.5,78.5C 98.1667,90.1667 106.833,101.833 115.5,113.5C 112.375,114.479 109.042,114.813 105.5,114.5C 98.8141,106.475 92.4807,98.1413 86.5,89.5C 86.44,88.9569 86.1067,88.6236 85.5,88.5C 85.1495,97.5389 84.1495,106.206 82.5,114.5C 70.8897,98.9212 59.0564,83.5878 47,68.5C 45.699,68.6387 44.8656,69.3054 44.5,70.5C 44.1612,85.3618 43.1612,100.028 41.5,114.5C 41.1692,91.3273 41.5025,68.3273 42.5,45.5C 53.4507,60.2902 64.6173,74.9569 76,89.5C 78.4634,87.2411 79.7968,84.5744 80,81.5C 70.8333,69.1667 61.6667,56.8333 52.5,44.5C 56.122,43.3414 59.7887,43.1747 63.5,44C 70.9642,53.7737 78.2975,63.6071 85.5,73.5 Z"/></g>
<g><path style="opacity:1" fill="#b9c3c7" d="M 89.5,78.5 C 88.8826,78.6107 88.3826,78.944 88,79.5C 87.4153,77.3386 86.5819,75.3386 85.5,73.5C 87.3077,74.3168 88.8077,73.6502 90,71.5C 96.3333,62.8333 102.667,54.1667 109,45.5C 109.718,44.5494 110.551,44.3828 111.5,45C 104.384,55.1177 96.8835,64.951 89,74.5C 88.4209,75.9285 88.5876,77.2618 89.5,78.5 Z"/></g>
<g><path style="opacity:1" fill="#7a868c" d="M 44.5,70.5 C 44.5,85.5 44.5,100.5 44.5,115.5C 43.5,115.5 42.5,115.5 41.5,115.5C 41.5,115.167 41.5,114.833 41.5,114.5C 43.1612,100.028 44.1612,85.3618 44.5,70.5 Z"/></g>
<g><path style="opacity:1" fill="#7a878d" d="M 82.5,86.5 C 83.8095,90.3507 83.8095,94.3507 82.5,98.5C 81.8933,98.3764 81.56,98.0431 81.5,97.5C 82.4816,94.0381 82.815,90.3714 82.5,86.5 Z"/></g>
<g><path style="opacity:1" fill="#35454c" d="M 82.5,86.5 C 82.815,90.3714 82.4816,94.0381 81.5,97.5C 80.0459,95.4285 78.7125,93.2619 77.5,91C 78.3988,88.599 80.0655,87.099 82.5,86.5 Z"/></g>
<g><path style="opacity:1" fill="#6f7c82" d="M 86.5,89.5 C 85.507,97.9839 85.1736,106.651 85.5,115.5C 84.209,115.737 83.209,115.404 82.5,114.5C 84.1495,106.206 85.1495,97.5389 85.5,88.5C 86.1067,88.6236 86.44,88.9569 86.5,89.5 Z"/></g>
<g><path style="opacity:1" fill="#899499" d="M 115.5,113.5 C 116.043,113.56 116.376,113.893 116.5,114.5C 112.685,115.808 109.019,115.808 105.5,114.5C 109.042,114.813 112.375,114.479 115.5,113.5 Z"/></g>
</svg>
