<svg version="1.0"
     xmlns="http://www.w3.org/2000/svg"
     width="461.000000pt"
     height="346.000000pt"
     viewBox="35 0 420 346"
     preserveAspectRatio="xMidYMid meet">

  <!-- Fundo correto -->
  <rect width="100%" height="100%" fill="#99C966" />

  <!-- Labirinto em verde -->
  <g transform="translate(0.000000,346.000000) scale(0.100000,-0.100000)"
     fill="#191925" stroke="none">
    <path d="M140 1730 l0 -1730 2160 0 2160 0 0 798 c0 438 3 1217 7 1730 l6 932
         -2167 0 -2166 0 0 -1730z m3780 10 l0 -1630 -605 0 -606 0 3 121 3 120
         480 2 480 2 3 1383 2 1382 -640 0 -640 0 0 -250 0 -250 -511 -2 -510 -3
         0 -865 c1 -476 1 -871 1 -877 0 -10 189 -13 910 -13 l910 0 -2 878 -3 877
         -120 5 -120 5 0 120 0 120 238 3 237 2 0 -1130 0 -1130 -512 -2 -513 -3
         -3 -247 -2 -248 -875 0 -875 0 0 1630 0 1630 1635 0 1635 0 0 -1630z"/>
    <path d="M890 2490 l0 -631 123 3 122 3 3 503 2 502 515 0 515 0 0 125 0 125
         -640 0 -640 0 0 -630z"/>
    <path d="M894 1611 c-2 -2 -4 -284 -4 -627 0 -554 2 -623 16 -628 8 -3 295 -5
         637 -3 l622 2 0 125 0 125 -512 3 -513 2 0 500 0 500 -72 1 c-40 1 -95 2
         -121 2 -27 1 -51 0 -53 -2z"/>
  </g>
</svg>
