<?xml version="1.0" encoding="UTF-8"?>
<svg version="1.1" xmlns="http://www.w3.org/2000/svg" width="320" height="320">
<path d="M0 0 C5.960625 -0.12375 11.92125 -0.2475 18.0625 -0.375 C19.93043213 -0.42962402 21.79836426 -0.48424805 23.72290039 -0.54052734 C25.2227928 -0.55806995 26.72271403 -0.5733548 28.22265625 -0.5859375 C29.36728333 -0.6319812 29.36728333 -0.6319812 30.53503418 -0.67895508 C36.00112407 -0.68423717 38.71888231 0.76814514 42.67967224 4.51278687 C45.6048929 7.80774644 45.45311728 11.14585146 45.41015625 15.38671875 C44.83886182 19.02668041 43.33203761 20.94675226 40.8984375 23.625 C39 25 39 25 33 27 C36.3 29.97 39.6 32.94 43 36 C45.75635981 33.24364019 47.52232379 30.79659554 49.58203125 27.51953125 C50.60973633 25.8962793 50.60973633 25.8962793 51.65820312 24.24023438 C52.37670641 23.09791047 53.094803 21.95533065 53.8125 20.8125 C66.63858269 0.42080171 66.63858269 0.42080171 71.4375 -1.0625 C80.68779726 1.69636059 85.67414727 14.8485026 90.3984375 22.71875 C92.81784827 26.73535675 95.37376243 30.63486271 98.07421875 34.46875 C99 36 99 36 99 38 C97.39815374 38.1352403 95.79303374 38.23210847 94.1875 38.3125 C93.29417969 38.37050781 92.40085937 38.42851562 91.48046875 38.48828125 C90.25263672 38.24658203 90.25263672 38.24658203 89 38 C88.60425781 37.17886719 88.20851563 36.35773438 87.80078125 35.51171875 C86.30074902 32.82017545 86.30074902 32.82017545 83.94604492 32.57543945 C81.289623 32.46246073 78.65843515 32.45132443 76 32.5 C69.04466754 32.62735116 69.04466754 32.62735116 66 32 C64 29.46875 64 29.46875 63 27 C62.34 27 61.68 27 61 27 C60.69707031 27.7940625 60.39414063 28.588125 60.08203125 29.40625 C58.50012704 33.26122887 57.20815524 35.29126735 54 38 C46.67152597 40.27362031 38.35252269 40.0382081 31 38 C25.82476547 35.24470687 22.11661467 31.1048894 18.43701172 26.62353516 C16.94946598 24.94290669 15.38378098 23.59440821 13.62890625 22.19921875 C12.76136719 21.47347656 11.89382812 20.74773437 11 20 C11 19.34 11 18.68 11 18 C18.59 17.67 26.18 17.34 34 17 C34.66 15.35 35.32 13.7 36 12 C35.34 11.01 34.68 10.02 34 9 C31.38803709 8.48987435 31.38803709 8.48987435 28.3359375 8.48828125 C26.8207251 8.43861206 26.8207251 8.43861206 25.27490234 8.38793945 C23.98793457 8.36304443 22.7009668 8.33814941 21.375 8.3125 C17.29125 8.209375 13.2075 8.10625 9 8 C9 17.9 9 27.8 9 38 C6.03 38 3.06 38 0 38 C0 25.46 0 12.92 0 0 Z M71 10 C69.60074893 12.12697995 68.25666807 14.2616701 66.9375 16.4375 C66.56044922 17.04916016 66.18339844 17.66082031 65.79492188 18.29101562 C63.84991755 20.96302351 63.84991755 20.96302351 63 24 C68.61 24 74.22 24 80 24 C77.61859577 19.06709124 75.2177301 14.43824842 72 10 C71.67 10 71.34 10 71 10 Z " fill="#C64533" transform="translate(78,111)"/>
<path d="M0 0 C1.52554639 -0.01650639 3.05101714 -0.04372641 4.57617188 -0.08203125 C19.86390175 -0.46343681 19.86390175 -0.46343681 25.71704102 4.01318359 C30.64432086 8.72863002 32.26343069 12.33644576 32.42651367 19.10009766 C32.37107289 24.83821907 31.61037803 27.81427362 28.11401367 32.35009766 C20.9497652 38.97702749 14.4464013 38.72270865 5.09765625 38.72070312 C2.81913811 38.72506393 0.54257841 38.76136737 -1.7355957 38.79931641 C-3.19847976 38.80518786 -4.66137295 38.80915505 -6.12426758 38.81103516 C-6.79742508 38.82540619 -7.47058258 38.83977722 -8.16413879 38.85458374 C-14.10804734 38.79807594 -18.29933067 36.77436238 -22.62817383 32.71728516 C-27.69055401 26.0489085 -27.55755235 20.64535688 -26.88598633 12.35009766 C-24.63332709 7.41157549 -21.17111832 4.5411534 -16.88598633 1.35009766 C-11.4912444 -0.44814965 -5.65089107 0.04472841 0 0 Z M-16.88598633 13.35009766 C-18.50028556 16.57869612 -18.48169289 19.86003419 -17.88598633 23.35009766 C-16.14996528 26.37517911 -14.05018496 28.76799834 -10.88598633 30.35009766 C-6.28705621 30.62273701 -1.67957311 30.58177409 2.92651367 30.60009766 C4.21106445 30.62072266 5.49561523 30.64134766 6.8190918 30.66259766 C8.67630859 30.67033203 8.67630859 30.67033203 10.57104492 30.67822266 C12.27224487 30.69224121 12.27224487 30.69224121 14.0078125 30.70654297 C17.49114457 30.30682083 19.32298037 29.43727834 22.11401367 27.35009766 C24.44519179 23.93103642 25.11401367 21.93965878 25.11401367 17.78759766 C23.92785184 13.71016637 22.35117232 12.03457068 19.11401367 9.35009766 C14.5652043 7.07569297 8.357641 8.02991792 3.36401367 7.97509766 C2.0878418 7.93771484 0.81166992 7.90033203 -0.50317383 7.86181641 C-9.91040524 7.72173721 -9.91040524 7.72173721 -16.88598633 13.35009766 Z " fill="#C64533" transform="translate(42.885986328125,110.64990234375)"/>
<path d="M0 0 C1.50059726 0.03015135 3.00125318 0.05751802 4.50195312 0.08203125 C8.14837098 0.14758702 11.79255254 0.25081641 15.4375 0.375 C14.31298273 3.3469385 13.21456209 5.70940687 11.4375 8.375 C8.90307617 8.72802734 8.90307617 8.72802734 5.73046875 8.7109375 C4.0144043 8.73027344 4.0144043 8.73027344 2.26367188 8.75 C-0.15040327 8.75 -2.56449154 8.74226347 -4.97851562 8.7265625 C-6.12642578 8.74203125 -7.27433594 8.7575 -8.45703125 8.7734375 C-9.50737549 8.77005371 -10.55771973 8.76666992 -11.63989258 8.76318359 C-15.36410859 9.26457564 -15.36410859 9.26457564 -19.5625 14.375 C-3.2275 14.87 -3.2275 14.87 13.4375 15.375 C11.4375 20.375 11.4375 20.375 9.4375 23.375 C6.54833984 23.80737305 6.54833984 23.80737305 2.8984375 23.88671875 C1.59648437 23.92216797 0.29453125 23.95761719 -1.046875 23.99414062 C-2.42707809 24.01724231 -3.80728657 24.04002464 -5.1875 24.0625 C-6.57555352 24.09566445 -7.96357607 24.1301533 -9.3515625 24.16601562 C-12.75512707 24.24874115 -16.1584259 24.31781257 -19.5625 24.375 C-15.2259187 28.85613401 -13.27032874 29.50128347 -7.0234375 29.69140625 C-5.07050781 29.75424805 -5.07050781 29.75424805 -3.078125 29.81835938 C-1.69791955 29.85817299 -0.31771117 29.89788522 1.0625 29.9375 C2.45053415 29.98069407 3.83855528 30.02430865 5.2265625 30.06835938 C8.63010256 30.17472 12.03371778 30.27674714 15.4375 30.375 C14.89026317 33.74962715 14.3826 35.45735 12.4375 38.375 C9.73535156 38.76318359 9.73535156 38.76318359 6.328125 38.7734375 C4.48347656 38.77923828 4.48347656 38.77923828 2.6015625 38.78515625 C1.30992187 38.77355469 0.01828125 38.76195312 -1.3125 38.75 C-2.58867187 38.76160156 -3.86484375 38.77320313 -5.1796875 38.78515625 C-7.03207031 38.77935547 -7.03207031 38.77935547 -8.921875 38.7734375 C-10.05077148 38.77005371 -11.17966797 38.76666992 -12.34277344 38.76318359 C-18.53931792 38.01610248 -22.56287123 35.02321722 -26.5625 30.375 C-30.03009445 25.23339444 -30.36299914 20.38805171 -29.5625 14.375 C-27.99236562 8.45035961 -24.59115535 4.87199029 -19.51586914 1.60546875 C-13.3569673 -0.96052822 -6.55125633 -0.22997014 0 0 Z " fill="#C64533" transform="translate(288.5625,110.625)"/>
<path d="M0 0 C0.72822464 0.00141495 1.45644928 0.0028299 2.20674133 0.00428772 C4.52979664 0.00987966 6.85275513 0.02243063 9.17578125 0.03515625 C10.75195173 0.04017229 12.32812373 0.04473502 13.90429688 0.04882812 C17.76566223 0.05984645 21.62695533 0.07710551 25.48828125 0.09765625 C21.61328125 6.97265625 21.61328125 6.97265625 20.48828125 8.09765625 C18.69413974 8.21914634 16.89563473 8.27733703 15.09765625 8.30859375 C13.44443359 8.35113281 13.44443359 8.35113281 11.7578125 8.39453125 C9.42723703 8.44626433 7.09648557 8.49063728 4.765625 8.52734375 C3.65832031 8.55828125 2.55101562 8.58921875 1.41015625 8.62109375 C0.3953418 8.64091309 -0.61947266 8.66073242 -1.66503906 8.68115234 C-4.94153121 9.16054305 -6.84676151 10.16030633 -9.51171875 12.09765625 C-11.40613198 15.19760517 -11.51495558 17.00540673 -11.38671875 20.66015625 C-10.43250561 24.40885071 -9.50698353 25.73775067 -6.51171875 28.09765625 C-3.61247509 29.54727808 -0.9887152 29.31892106 2.24609375 29.4140625 C2.9091452 29.4348436 3.57219666 29.45562469 4.25534058 29.47703552 C6.37454819 29.54244856 8.49388025 29.6013773 10.61328125 29.66015625 C12.04949206 29.70334934 13.48569027 29.74696389 14.921875 29.79101562 C18.44387719 29.89812124 21.9660195 29.999412 25.48828125 30.09765625 C24.88792028 33.45967769 23.95636183 35.69591663 21.48828125 38.09765625 C17.4507636 38.84661423 13.41241669 38.71371375 9.3112793 38.67407227 C7.3253104 38.66032603 5.33919934 38.69606844 3.35351562 38.73242188 C-5.9853972 38.71819296 -11.30768776 37.30168724 -17.88671875 30.72265625 C-21.2238471 25.33191045 -21.95806842 20.4032592 -21.046875 14.234375 C-19.54092685 8.2215747 -15.26904838 4.64034852 -10.51171875 1.09765625 C-6.9424449 -0.0921017 -3.71224903 -0.0271253 0 0 Z " fill="#C64533" transform="translate(192.51171875,110.90234375)"/>
<path d="M0 0 C2.97 0 5.94 0 9 0 C9 9.9 9 19.8 9 30 C19.89 30 30.78 30 42 30 C40 35 40 35 38 38 C35.25714531 38.2917727 32.74342461 38.39605798 30 38.36328125 C28.81277344 38.36402901 28.81277344 38.36402901 27.6015625 38.36479187 C25.92705781 38.36244989 24.25254971 38.35271402 22.578125 38.33618164 C20.0100976 38.31259275 17.44310814 38.31561887 14.875 38.32226562 C13.24999379 38.31668888 11.62499196 38.30957902 10 38.30078125 C9.22914063 38.30169266 8.45828125 38.30260406 7.6640625 38.30354309 C2.23102547 38.23102547 2.23102547 38.23102547 0 36 C-0.17517747 33.27514272 -0.23149133 30.65340638 -0.1953125 27.9296875 C-0.1924826 27.13345978 -0.18965271 26.33723206 -0.18673706 25.51687622 C-0.1755264 22.96943237 -0.15042062 20.42233789 -0.125 17.875 C-0.11497133 16.14974465 -0.10584528 14.42448381 -0.09765625 12.69921875 C-0.07558422 8.46601086 -0.04104867 4.2330647 0 0 Z " fill="#C64533" transform="translate(220,111)"/>
<path d="M0 0 C1.2065625 0.0309375 1.2065625 0.0309375 2.4375 0.0625 C2.7675 0.7225 3.0975 1.3825 3.4375 2.0625 C4.4275 1.4025 5.4175 0.7425 6.4375 0.0625 C10.53793483 -0.51896129 14.24149225 -0.56540407 17.9375 1.375 C20.62711074 4.40081208 20.55747113 7.30749444 20.53515625 11.16796875 C20.53193359 12.15087891 20.52871094 13.13378906 20.52539062 14.14648438 C20.51701172 15.17064453 20.50863281 16.19480469 20.5 17.25 C20.49548828 18.28576172 20.49097656 19.32152344 20.48632812 20.38867188 C20.4745401 22.94667266 20.45808515 25.50455733 20.4375 28.0625 C18.1275 28.0625 15.8175 28.0625 13.4375 28.0625 C13.1075 21.1325 12.7775 14.2025 12.4375 7.0625 C10.4575 7.0625 8.4775 7.0625 6.4375 7.0625 C4.4234044 10.0836434 4.16913404 10.86910017 4.0234375 14.29296875 C3.98476562 15.09541016 3.94609375 15.89785156 3.90625 16.72460938 C3.8753125 17.55798828 3.844375 18.39136719 3.8125 19.25 C3.77382812 20.09498047 3.73515625 20.93996094 3.6953125 21.81054688 C3.60113721 23.89417524 3.51823325 25.97830753 3.4375 28.0625 C1.1275 28.0625 -1.1825 28.0625 -3.5625 28.0625 C-3.59136338 23.58334672 -3.60925187 19.10421709 -3.625 14.625 C-3.63337891 13.34560547 -3.64175781 12.06621094 -3.65039062 10.74804688 C-3.65361328 9.53310547 -3.65683594 8.31816406 -3.66015625 7.06640625 C-3.66539307 5.94049072 -3.67062988 4.8145752 -3.67602539 3.65454102 C-3.52395811 0.18250162 -3.47522838 0.08476167 0 0 Z " fill="#C64533" transform="translate(63.5625,179.9375)"/>
<path d="M0 0 C1.99954746 -0.04254356 4.00041636 -0.04080783 6 0 C7 1 7 1 7.11352539 3.04125977 C7.10828857 3.91580811 7.10305176 4.79035645 7.09765625 5.69140625 C7.09443359 6.63564453 7.09121094 7.57988281 7.08789062 8.55273438 C7.07951172 9.54595703 7.07113281 10.53917969 7.0625 11.5625 C7.05798828 12.55958984 7.05347656 13.55667969 7.04882812 14.58398438 C7.03700007 17.05604849 7.02051849 19.52799518 7 22 C11.67386374 21.87787944 11.67386374 21.87787944 15.3984375 19.484375 C16.3008601 15.75748688 16.47285002 12.07276832 16.625 8.25 C16.66367188 7.45722656 16.70234375 6.66445312 16.7421875 5.84765625 C16.836108 3.89880584 16.91912822 1.94943549 17 0 C18.98 0 20.96 0 23 0 C23 9.24 23 18.48 23 28 C20.33333333 28 17.66666667 28 15 28 C13.73349609 28.06960937 13.73349609 28.06960937 12.44140625 28.140625 C11.01634766 28.19476563 11.01634766 28.19476563 9.5625 28.25 C8.14130859 28.31960937 8.14130859 28.31960937 6.69140625 28.390625 C3.15867026 27.87789118 2.20404463 26.76440478 0 24 C-0.45410156 21.34277344 -0.45410156 21.34277344 -0.390625 18.359375 C-0.37773438 17.28945312 -0.36484375 16.21953125 -0.3515625 15.1171875 C-0.31804687 14.00601563 -0.28453125 12.89484375 -0.25 11.75 C-0.23195313 10.62335938 -0.21390625 9.49671875 -0.1953125 8.3359375 C-0.14820222 5.55643104 -0.08243361 2.7786466 0 0 Z " fill="#C64533" transform="translate(89,180)"/>
<path d="M0 0 C5.24934383 -0.52493438 5.24934383 -0.52493438 8 0 C12 4.6 12 4.6 12 8 C12.66 8 13.32 8 14 8 C14.28875 7.236875 14.5775 6.47375 14.875 5.6875 C16 3 16 3 18 0 C21.625 -0.1875 21.625 -0.1875 25 0 C25 4.55355722 22.10406997 6.96156751 19.3359375 10.4296875 C17.68897324 12.91813358 17.68897324 12.91813358 18.59375 15.55859375 C19.96349139 17.93661699 21.41056628 20.04652842 23.125 22.1875 C26 25.784689 26 25.784689 26 28 C20.80310881 28.70466321 20.80310881 28.70466321 18 28 C15.78043995 25.59591596 14.37246019 22.95606811 13 20 C12.64808594 20.5775 12.29617187 21.155 11.93359375 21.75 C10.40898744 24.0428805 8.95974773 26.06150767 7 28 C3.125 28.5 3.125 28.5 0 28 C0.74764577 23.69624419 3.0311225 21.33028889 5.8203125 18.09765625 C7.22230915 16.04256431 7.22230915 16.04256431 6.87109375 13.5390625 C5.91057917 10.73935634 4.66157834 8.713167 2.9375 6.3125 C0 2.2 0 2.2 0 0 Z " fill="#C64533" transform="translate(115,180)"/>
<path d="M0 0 C2.31 0 4.62 0 7 0 C7 10.56 7 21.12 7 32 C12.94 32 18.88 32 25 32 C25 33.98 25 35.96 25 38 C16.75 38 8.5 38 0 38 C0 25.46 0 12.92 0 0 Z " fill="#C64533" transform="translate(20,170)"/>
<path d="M0 0 C2.97 0 5.94 0 9 0 C9 9.24 9 18.48 9 28 C6.69 28 4.38 28 2 28 C2 20.41 2 12.82 2 5 C1.34 5 0.68 5 0 5 C0 3.35 0 1.7 0 0 Z " fill="#C64533" transform="translate(46,180)"/>
<path d="M0 0 C2.64 0 5.28 0 8 0 C8 1.98 8 3.96 8 6 C5.36 6 2.72 6 0 6 C0 4.02 0 2.04 0 0 Z " fill="#C64533" transform="translate(47,170)"/>
</svg>
