<?xml version="1.0" encoding="UTF-8" standalone="no"?>
<!-- Created with Inkscape (http://www.inkscape.org/) -->

<svg
   width="512"
   height="512"
   viewBox="0 0 512 512"
   version="1.1"
   id="svg1"
   xmlns:inkscape="http://www.inkscape.org/namespaces/inkscape"
   xmlns:sodipodi="http://sodipodi.sourceforge.net/DTD/sodipodi-0.dtd"
   xmlns="http://www.w3.org/2000/svg"
   xmlns:svg="http://www.w3.org/2000/svg">
  <sodipodi:namedview
     id="namedview1"
     pagecolor="#ffffff"
     bordercolor="#000000"
     borderopacity="0.25"
     inkscape:showpageshadow="2"
     inkscape:pageopacity="0.0"
     inkscape:pagecheckerboard="0"
     inkscape:deskcolor="#d1d1d1"
     inkscape:document-units="px" />
  <defs
     id="defs1" />
  <g
     inkscape:label="Layer 1"
     inkscape:groupmode="layer"
     id="layer1">
    <g
       id="g115"
       transform="matrix(17.666659,0,0,17.666659,24.630452,-7.9976544)">&#10;	<g
   id="g105">&#10;		<circle
   fill-rule="evenodd"
   clip-rule="evenodd"
   fill="#ffffff"
   cx="12.912"
   cy="14.794"
   r="12.746"
   id="circle103" />
&#10;		<g
   id="g104">&#10;			<path
   fill="#dc2928"
   d="M 12.912,1.882 C 5.792,1.882 0,7.674 0,14.794 0,21.913 5.792,27.704 12.912,27.706 20.031,27.704 25.823,21.913 25.823,14.794 25.823,7.674 20.031,1.882 12.912,1.882 Z M 1.37,19.854 c 0.889,0.125 4.967,0.488 7.881,-2.967 0,0 -0.46,-0.143 -0.559,-0.623 -0.003,-0.01 0.121,0.016 0.128,0.016 2.104,0.131 4.091,-1.486 4.091,-1.486 -1.642,0.369 -6.058,-1.836 -5.846,-1.645 0.373,0.334 0.243,0.795 0.243,0.795 C 4.945,14.354 1.369,11.829 0.777,11.396 1.351,9.333 2.447,7.44 4.003,5.884 4.258,5.629 4.524,5.389 4.797,5.158 c 0.127,0.856 0.953,5.03 5.188,6.813 0,0 0.007,-0.476 0.446,-0.705 0.009,-0.006 0.021,0.118 0.021,0.125 0.475,2.023 2.459,3.402 2.459,3.402 -0.826,-1.443 0.213,-6.207 0.087,-5.954 -0.219,0.449 -0.705,0.457 -0.705,0.457 -1.048,-2.066 0.376,-6.238 0.691,-7.102 2.273,0.013 4.454,0.624 6.359,1.76 -0.645,0.352 -4.374,2.586 -4.544,7.211 0,0 0.453,-0.164 0.828,0.157 0.009,0.006 -0.105,0.061 -0.11,0.065 -1.748,1.165 -2.606,3.405 -2.606,3.405 1.072,-1.279 6.225,-1.959 5.938,-1.98 -0.503,-0.043 -0.686,-0.484 -0.686,-0.484 1.569,-1.695 5.656,-1.916 6.555,-1.943 0.519,1.391 0.792,2.877 0.792,4.408 0,0.887 -0.093,1.76 -0.271,2.607 -0.747,-0.682 -3.938,-3.26 -8.263,-2.094 0,0 0.294,0.377 0.096,0.826 -0.004,0.01 -0.09,-0.082 -0.097,-0.084 -1.648,-1.297 -4.064,-1.256 -4.064,-1.256 1.56,0.625 3.743,5.088 3.681,4.811 -0.111,-0.484 0.264,-0.789 0.264,-0.789 2.079,0.957 3.564,4.865 3.904,5.832 -1.768,1.412 -3.858,2.313 -6.094,2.623 0.416,-0.965 1.808,-4.832 -0.753,-8.43 0,0 -0.261,0.4 -0.756,0.367 -0.011,0 0.046,-0.113 0.049,-0.117 0.682,-1.967 -0.295,-4.297 -0.295,-4.297 -0.071,1.656 -3.477,5.291 -3.234,5.141 0.426,-0.268 0.843,-0.021 0.843,-0.021 -0.211,2.264 -3.473,4.967 -4.254,5.584 C 5.455,24.992 4.695,24.394 4.003,23.701 2.876,22.575 1.992,21.271 1.37,19.854 Z"
   id="path103" />
&#10;		</g>
&#10;	</g>
&#10;	<g
   id="g114">&#10;		<path
   fill="#333333"
   d="m 44.844,20.521 c -1.573,1.574 -3.492,2.359 -5.758,2.359 -2.165,0 -4.024,-0.734 -5.581,-2.207 v 10.984 h -2.562 v -17.07 c 0,-2.249 0.794,-4.138 2.384,-5.669 1.59,-1.53 3.51,-2.295 5.759,-2.295 2.266,0 4.185,0.79 5.758,2.371 1.573,1.581 2.358,3.505 2.358,5.771 0,2.266 -0.785,4.184 -2.358,5.756 z M 43.03,10.82 C 41.956,9.746 40.641,9.209 39.086,9.209 c -1.573,0 -2.892,0.533 -3.958,1.599 -1.064,1.065 -1.598,2.384 -1.598,3.957 0,1.556 0.537,2.87 1.611,3.944 1.073,1.074 2.389,1.611 3.944,1.611 1.555,0 2.87,-0.537 3.944,-1.611 1.073,-1.074 1.61,-2.389 1.61,-3.944 0,-1.555 -0.535,-2.87 -1.609,-3.945 z"
   id="path105" />
&#10;		<path
   fill="#333333"
   d="m 48.496,14.714 c 0,-2.266 0.79,-4.185 2.372,-5.758 1.581,-1.573 3.504,-2.358 5.771,-2.358 2.267,0 4.189,0.785 5.771,2.358 1.582,1.573 2.372,3.492 2.372,5.758 0,0.423 -0.034,0.846 -0.102,1.269 H 51.235 c 0.287,1.266 0.939,2.301 1.953,3.105 1.016,0.805 2.165,1.207 3.45,1.207 1.487,0 2.765,-0.518 3.83,-1.549 l 2.004,1.625 c -1.589,1.656 -3.534,2.484 -5.834,2.484 -2.282,0 -4.21,-0.785 -5.783,-2.357 -1.573,-1.574 -2.359,-3.502 -2.359,-5.784 z M 62.067,13.496 C 61.779,12.228 61.128,11.187 60.114,10.377 59.098,9.564 57.94,9.158 56.638,9.158 c -1.302,0 -2.46,0.406 -3.476,1.219 -1.014,0.811 -1.666,1.852 -1.953,3.119 z"
   id="path106" />
&#10;		<path
   fill="#333333"
   d="m 79.862,20.521 c -1.572,1.574 -3.492,2.359 -5.758,2.359 -2.164,0 -4.024,-0.734 -5.58,-2.207 v 10.984 h -2.563 v -17.07 c 0,-2.249 0.795,-4.138 2.385,-5.669 1.59,-1.53 3.509,-2.295 5.758,-2.295 2.266,0 4.186,0.79 5.758,2.371 1.573,1.581 2.359,3.505 2.359,5.771 10e-4,2.266 -0.785,4.184 -2.359,5.756 z M 78.05,10.82 C 76.976,9.746 75.66,9.209 74.105,9.209 c -1.572,0 -2.892,0.533 -3.957,1.599 -1.064,1.065 -1.598,2.384 -1.598,3.957 0,1.556 0.537,2.87 1.61,3.944 1.073,1.074 2.389,1.611 3.944,1.611 1.555,0 2.871,-0.537 3.945,-1.611 1.072,-1.074 1.609,-2.389 1.609,-3.944 0,-1.555 -0.536,-2.87 -1.608,-3.945 z"
   id="path107" />
&#10;		<path
   fill="#333333"
   d="m 97.361,20.521 c -1.574,1.574 -3.492,2.359 -5.759,2.359 -2.166,0 -4.025,-0.734 -5.581,-2.207 V 31.657 H 83.46 v -17.07 c 0,-2.249 0.794,-4.138 2.384,-5.669 1.589,-1.53 3.509,-2.295 5.759,-2.295 2.267,0 4.185,0.79 5.759,2.371 1.572,1.581 2.357,3.505 2.357,5.771 0,2.266 -0.785,4.184 -2.358,5.756 z M 95.547,10.82 C 94.473,9.746 93.158,9.209 91.603,9.209 c -1.573,0 -2.893,0.533 -3.958,1.599 -1.065,1.066 -1.598,2.384 -1.598,3.957 0,1.556 0.536,2.87 1.61,3.944 1.074,1.074 2.389,1.611 3.945,1.611 1.556,0 2.87,-0.537 3.944,-1.611 1.074,-1.074 1.611,-2.389 1.611,-3.944 0,-1.555 -0.536,-2.87 -1.61,-3.945 z"
   id="path108" />
&#10;		<path
   fill="#333333"
   d="m 101.014,14.714 c 0,-2.266 0.789,-4.185 2.371,-5.758 1.582,-1.573 3.504,-2.358 5.771,-2.358 2.266,0 4.189,0.785 5.77,2.358 1.582,1.573 2.371,3.492 2.371,5.758 0,0.423 -0.033,0.846 -0.102,1.269 h -13.443 c 0.287,1.266 0.939,2.301 1.953,3.105 1.016,0.805 2.166,1.207 3.451,1.207 1.486,0 2.764,-0.518 3.83,-1.549 l 2.004,1.625 c -1.59,1.656 -3.535,2.484 -5.834,2.484 -2.283,0 -4.211,-0.785 -5.783,-2.357 -1.574,-1.574 -2.359,-3.502 -2.359,-5.784 z m 13.57,-1.218 c -0.287,-1.268 -0.939,-2.309 -1.953,-3.119 -1.016,-0.813 -2.174,-1.219 -3.475,-1.219 -1.303,0 -2.461,0.406 -3.477,1.219 -1.014,0.811 -1.666,1.852 -1.953,3.119 z"
   id="path109" />
&#10;		<path
   fill="#333333"
   d="m 127.336,9.209 c -1.578,0 -2.91,0.535 -3.998,1.605 -1.088,1.07 -1.633,2.38 -1.633,3.93 v 8.111 h -2.588 V 6.647 h 2.588 v 2.156 c 1.57,-1.437 3.447,-2.156 5.631,-2.156 z"
   id="path110" />
&#10;		<path
   fill="#333333"
   d="m 145.576,22.855 h -2.639 l 0.076,-8.061 c 0.018,-1.551 -0.516,-2.868 -1.598,-3.955 -1.082,-1.087 -2.4,-1.631 -3.957,-1.631 -1.557,0 -2.871,0.535 -3.943,1.605 -1.074,1.07 -1.611,2.38 -1.611,3.93 v 8.111 h -2.588 V 6.647 h 2.588 v 2.156 c 1.555,-1.437 3.412,-2.156 5.574,-2.156 2.941,0 5.221,1.235 6.844,3.704 0.742,-1.168 1.719,-2.076 2.926,-2.728 1.209,-0.651 2.514,-0.977 3.916,-0.977 2.264,0 4.186,0.786 5.766,2.359 1.58,1.573 2.369,3.492 2.369,5.758 v 8.091 h -2.588 v -8.091 c 0,-1.573 -0.533,-2.892 -1.602,-3.957 -1.066,-1.065 -2.389,-1.599 -3.965,-1.599 -1.561,0 -2.877,0.535 -3.953,1.605 -1.078,1.07 -1.615,2.38 -1.615,3.93 v 0.076 z"
   id="path111" />
&#10;		<path
   fill="#333333"
   d="m 164.056,2.606 h -2.588 V 0.028 h 2.588 z m 0,20.249 h -2.588 V 6.647 h 2.588 z"
   id="path112" />
&#10;		<path
   fill="#333333"
   d="m 182.549,14.739 v 8.116 h -2.637 l 0.076,-8.061 c 0.016,-1.551 -0.516,-2.868 -1.598,-3.955 -1.084,-1.087 -2.402,-1.631 -3.957,-1.631 -1.557,0 -2.871,0.535 -3.945,1.605 -1.074,1.07 -1.611,2.38 -1.611,3.93 v 8.111 h -2.586 V 6.647 h 2.586 v 2.156 c 1.553,-1.437 3.41,-2.156 5.57,-2.156 2.262,0 4.178,0.784 5.748,2.353 1.569,1.567 2.354,3.48 2.354,5.739 z"
   id="path113" />
&#10;		<path
   fill="#333333"
   d="M 185.57,22.848 V 9.133 h -2.586 v -2.51 h 2.586 V 0 h 2.588 c -0.018,0.034 0,4.531 0,6.623 h 3.045 v 2.51 h -3.045 l -0.031,13.727 c -0.994,-10e-4 -1.604,-0.012 -2.557,-0.012 z"
   id="path114" />
&#10;	</g>
&#10;</g>
  </g>
</svg>
