<?xml version="1.0" encoding="UTF-8"?>
<svg version="1.1" xmlns="http://www.w3.org/2000/svg" width="600" height="394">
<path d="M0 0 C3.74011805 2.64617048 6.79970107 5.726967 10 9 C10.70640625 9.6496875 11.4128125 10.299375 12.140625 10.96875 C17.67304144 16.17141976 21.08275367 21.01367946 24 28 C24.38027344 28.82628906 24.76054687 29.65257812 25.15234375 30.50390625 C27.72168472 36.34664247 28.7809518 41.63764533 29 48 C29.02835937 48.81339844 29.05671875 49.62679687 29.0859375 50.46484375 C29.12571352 52.98266568 29.08068944 55.48325796 29 58 C28.97486328 59.31291016 28.97486328 59.31291016 28.94921875 60.65234375 C28.57159177 68.17251535 26.23040003 74.24977104 23 81 C22.5978125 81.95132813 22.195625 82.90265625 21.78125 83.8828125 C19.38280859 88.08008496 16.29612117 91.1787125 12.875 94.5625 C12.24851562 95.20896484 11.62203125 95.85542969 10.9765625 96.52148438 C6.14064651 101.35248582 0.60929924 105.94138297 -6.20361328 107.50610352 C-6.7964209 107.66908936 -7.38922852 107.8320752 -8 108 C-8.33 108.66 -8.66 109.32 -9 110 C-10.875 110.5625 -10.875 110.5625 -13 111 C-14.485 111.495 -14.485 111.495 -16 112 C-20.1810529 112.22824606 -24.36248195 112.22833151 -28.54931641 112.24023438 C-30.59710432 112.24986876 -32.64385681 112.28086998 -34.69140625 112.3125 C-42.14405786 112.3418123 -48.10514766 111.89188067 -55 109 C-55 108.34 -55 107.68 -55 107 C-55.71671875 106.74089844 -56.4334375 106.48179687 -57.171875 106.21484375 C-71.06691853 100.24611649 -80.42957499 87.66123903 -86 74 C-88.57261382 67.21042125 -88.36744037 60.44677181 -88.375 53.25 C-88.39949219 52.03828125 -88.42398437 50.8265625 -88.44921875 49.578125 C-88.49993103 33.89112606 -82.02829624 20.65071315 -71.0625 9.5625 C-70.58490234 9.0785376 -70.10730469 8.5945752 -69.61523438 8.09594727 C-50.35641133 -10.49398713 -23.17978106 -10.88335559 0 0 Z M-63 24 C-70.22167766 34.1328662 -73.7353982 46.59700697 -72 59 C-70.59651353 61.33859493 -70.59651353 61.33859493 -69 63 C-64.69279798 58.60343694 -64.06701616 54.58177155 -63.125 48.75 C-61.91915312 42.13031215 -60.59823186 37.45966297 -56.328125 32.1328125 C-53.70463664 27.91979884 -53.47670708 22.85748078 -53 18 C-57.07515868 18 -60.19739397 21.29655508 -63 24 Z M-3 19 C-4.24548066 20.93225711 -4.24548066 20.93225711 -3.4765625 22.8828125 C-3.05503906 23.99269531 -3.05503906 23.99269531 -2.625 25.125 C-1.54195737 28.16922793 -0.78906418 30.90759003 -0.5 34.125 C-0.05817049 37.54917868 0.70812433 39.92769597 2.19140625 43.0078125 C3.20957245 45.51633792 3.72071131 48.04721198 4.3125 50.6875 C5.2633334 54.40904148 5.92681809 56.54432879 9.1875 58.6875 C10.115625 59.120625 11.04375 59.55375 12 60 C12.85306219 45.94817002 10.42416495 31.97419207 1 21 C-1.09690964 19.704114 -1.09690964 19.704114 -3 19 Z " fill="#929290" transform="translate(434,140)"/>
<path d="M0 0 C11.5638524 0.22821152 22.19304623 5.21099486 30.35375977 13.45532227 C33.89918622 17.81950186 36.69500226 21.77015472 37.35375977 27.45532227 C36.41625977 31.20532227 36.41625977 31.20532227 34.35375977 34.45532227 C31.64163298 35.59303647 29.2650766 35.75588332 26.35375977 35.45532227 C23.11135924 33.96557067 22.43182708 32.6147097 20.85375977 29.39282227 C19.28160253 26.31401434 18.54137683 25.55450056 15.35375977 24.45532227 C15.35375977 23.79532227 15.35375977 23.13532227 15.35375977 22.45532227 C14.46688477 22.16657227 13.58000977 21.87782227 12.66625977 21.58032227 C9.35375977 20.45532227 9.35375977 20.45532227 7.02563477 19.40844727 C-0.99476193 16.54737008 -10.37181603 18.14467471 -18.16186523 21.06079102 C-21.52143817 22.94658903 -22.91134909 24.78794068 -24.23608398 28.36938477 C-25.21484338 33.34707541 -23.91681292 38.02493654 -21.64624023 42.45532227 C-19.19489718 44.34516739 -19.19489718 44.34516739 -16.27124023 45.76782227 C-15.31475586 46.27958008 -14.35827148 46.79133789 -13.37280273 47.31860352 C-10.52324555 48.71185771 -10.52324555 48.71185771 -6.64624023 48.45532227 C-6.64624023 49.11532227 -6.64624023 49.77532227 -6.64624023 50.45532227 C-5.37393555 50.15368164 -5.37393555 50.15368164 -4.07592773 49.84594727 C-0.11556217 49.39488057 2.43183224 50.03833786 6.22875977 51.20532227 C7.45079102 51.57915039 8.67282227 51.95297852 9.93188477 52.33813477 C15.21716178 54.06369324 20.44765753 55.79785022 25.35375977 58.45532227 C25.35375977 59.11532227 25.35375977 59.77532227 25.35375977 60.45532227 C26.46750977 60.82657227 26.46750977 60.82657227 27.60375977 61.20532227 C32.26659101 63.32479101 34.73985438 66.43128365 36.60375977 71.14282227 C39.41968647 79.45651064 40.49618762 91.0139958 36.66625977 99.14282227 C35.54516602 100.89672852 35.54516602 100.89672852 34.35375977 102.45532227 C33.61125977 103.48657227 32.86875977 104.51782227 32.10375977 105.58032227 C27.55366305 110.33724156 23.09516047 114.63818279 16.35375977 115.45532227 C16.02375977 116.11532227 15.69375977 116.77532227 15.35375977 117.45532227 C14.36375977 116.96032227 14.36375977 116.96032227 13.35375977 116.45532227 C13.02375977 117.11532227 12.69375977 117.77532227 12.35375977 118.45532227 C9.32876276 118.9098243 6.39781042 119.2309156 3.35375977 119.45532227 C2.53472168 119.52251465 1.71568359 119.58970703 0.87182617 119.65893555 C-12.3821998 120.58881542 -20.84023043 119.40390397 -31.64624023 111.45532227 C-33.21825195 110.45952148 -33.21825195 110.45952148 -34.82202148 109.44360352 C-37.47555932 107.57548351 -39.05167587 106.02284673 -40.89624023 103.39282227 C-41.61553711 102.38541992 -41.61553711 102.38541992 -42.34936523 101.35766602 C-45.11332737 97.30329986 -46.05059371 95.40865237 -45.64624023 90.45532227 C-44.71429035 87.87193788 -44.17043636 86.73930632 -41.72827148 85.41625977 C-35.80024168 83.88578736 -35.80024168 83.88578736 -32.53295898 85.49829102 C-28.73559856 88.55662063 -27.44910788 90.63811642 -26.64624023 95.45532227 C-24.44691088 96.62045839 -24.44691088 96.62045839 -21.64624023 97.45532227 C-19.89815267 98.44510701 -18.19336941 99.48836653 -16.48999023 100.55297852 C-9.14573728 104.1473057 1.81688456 103.58228557 9.41625977 101.14282227 C15.33988789 98.95600123 15.33988789 98.95600123 19.35375977 94.45532227 C19.63705971 92.357758 19.85738349 90.25142944 20.04125977 88.14282227 C20.14825195 87.01231445 20.25524414 85.88180664 20.36547852 84.71704102 C20.35022786 80.47227469 19.6922497 77.79073521 16.65454102 74.76000977 C10.28392726 70.17917551 3.80936045 66.19553176 -4.27124023 66.58032227 C-9.60473531 66.6267678 -13.74767661 65.46784403 -18.64624023 63.45532227 C-19.44545898 63.14208008 -20.24467773 62.82883789 -21.06811523 62.50610352 C-25.40431017 60.7135262 -28.56126361 59.09118757 -31.64624023 55.45532227 C-32.45061523 54.73344727 -33.25499023 54.01157227 -34.08374023 53.26782227 C-39.30537859 47.53675578 -43.33639527 40.34345866 -43.64624023 32.45532227 C-42.68410582 24.81291368 -39.83735755 19.06315771 -34.64624023 13.45532227 C-34.10483398 12.83786133 -33.56342773 12.22040039 -33.00561523 11.58422852 C-27.75371812 6.27524557 -21.73448937 4.45501672 -14.74389648 2.40063477 C-9.5815491 0.82523998 -5.65088483 0.04096064 0 0 Z " fill="#000000" transform="translate(523.646240234375,132.544677734375)"/>
<path d="M0 0 C1.18466846 1.40658982 2.42060919 2.76978756 3.66796875 4.12109375 C8.03468877 10.5152195 7.78289109 18.34104964 7.79296875 25.80859375 C7.81746094 26.77152344 7.84195313 27.73445313 7.8671875 28.7265625 C7.89153452 34.62665749 7.34943058 38.01061065 3.41796875 42.68359375 C2.83015625 43.48023438 2.24234375 44.276875 1.63671875 45.09765625 C0.7859375 46.19207031 0.7859375 46.19207031 -0.08203125 47.30859375 C-0.9328125 48.41074219 -0.9328125 48.41074219 -1.80078125 49.53515625 C-7.15886644 55.997759 -13.1754742 60.18892473 -21.58203125 61.68359375 C-31.24096556 62.14958904 -40.95116171 61.42176126 -50.58203125 60.68359375 C-50.5663208 61.68737061 -50.55061035 62.69114746 -50.53442383 63.7253418 C-50.47998011 67.4619133 -50.44562899 71.19844996 -50.41723633 74.93530273 C-50.40218249 76.55027164 -50.38173477 78.16519988 -50.35571289 79.7800293 C-50.31917839 82.1060593 -50.3022711 84.43154716 -50.2890625 86.7578125 C-50.27357864 87.47571457 -50.25809479 88.19361664 -50.24214172 88.93327332 C-50.24066511 93.36670344 -50.84531702 96.16258488 -53.58203125 99.68359375 C-56.7160401 101.25059817 -60.2135822 101.53523936 -63.58203125 100.68359375 C-66.83949559 97.73255367 -67.85168046 95.40139232 -68.08996582 91.12976074 C-68.11369037 89.27220275 -68.11534291 87.41428348 -68.09960938 85.55664062 C-68.10661865 84.53981705 -68.11362793 83.52299347 -68.12084961 82.47535706 C-68.13844102 79.11740738 -68.12680224 75.76030186 -68.11328125 72.40234375 C-68.11597582 70.06734048 -68.11985795 67.7323383 -68.12487793 65.39733887 C-68.13077456 60.50485546 -68.12220437 55.61266427 -68.10351562 50.72021484 C-68.08072641 44.44860321 -68.09384855 38.17767629 -68.11780548 31.90608978 C-68.13225875 27.08480672 -68.12765953 22.26368602 -68.11729431 17.44239807 C-68.11462574 15.12992777 -68.11790132 12.81744272 -68.12721252 10.50498962 C-68.13736992 7.27311143 -68.12188713 4.04234245 -68.09960938 0.81054688 C-68.1077063 -0.14544907 -68.11580322 -1.10144501 -68.12414551 -2.08641052 C-68.07055955 -6.28202338 -67.93102025 -8.71404127 -65.79367065 -12.40316772 C-62.4878397 -15.26296626 -59.11468568 -15.13858255 -54.93359375 -15.19921875 C-53.66012589 -15.23968826 -53.66012589 -15.23968826 -52.3609314 -15.28097534 C-50.56074326 -15.33128341 -48.76017079 -15.36915456 -46.95947266 -15.39550781 C-44.2490887 -15.44070492 -41.54458477 -15.53961014 -38.8359375 -15.64453125 C-22.04428674 -16.12177537 -11.09734099 -13.26545902 0 0 Z M-50.58203125 1.68359375 C-50.58203125 16.20359375 -50.58203125 30.72359375 -50.58203125 45.68359375 C-46.99328125 45.76609375 -43.40453125 45.84859375 -39.70703125 45.93359375 C-38.59730957 45.97000977 -37.48758789 46.00642578 -36.34423828 46.04394531 C-28.41960121 46.13104467 -22.59653398 44.19084511 -15.58203125 40.68359375 C-15.58203125 40.02359375 -15.58203125 39.36359375 -15.58203125 38.68359375 C-14.958125 38.43738281 -14.33421875 38.19117188 -13.69140625 37.9375 C-10.46128242 36.01737084 -10.13630533 33.66431918 -9.12109375 30.18359375 C-7.31855111 21.82397573 -8.85638088 15.06410327 -13.33203125 7.87109375 C-16.23977812 5.04411763 -18.78598214 4.08953786 -22.58203125 2.68359375 C-23.24203125 2.35359375 -23.90203125 2.02359375 -24.58203125 1.68359375 C-26.54139165 1.5984917 -28.50365919 1.57641719 -30.46484375 1.5859375 C-31.51559082 1.58843506 -32.56633789 1.59093262 -33.64892578 1.59350586 C-35.65768799 1.60716187 -35.65768799 1.60716187 -37.70703125 1.62109375 C-44.08015625 1.65203125 -44.08015625 1.65203125 -50.58203125 1.68359375 Z " fill="#010101" transform="translate(112.58203125,150.31640625)"/>
<path d="M0 0 C4.61255522 -0.18088452 7.80119536 0.1215874 12 2 C13.11375 2.185625 13.11375 2.185625 14.25 2.375 C18.43918427 3.32708733 22.13295239 5.16331935 26 7 C27.7634375 7.7425 27.7634375 7.7425 29.5625 8.5 C36.16987363 12.38125444 41.14689982 21.46117865 43.4140625 28.66015625 C43.60742188 29.43230469 43.80078125 30.20445312 44 31 C44.27585937 32.09183594 44.55171875 33.18367188 44.8359375 34.30859375 C47.54185195 46.63415818 50.8995245 67.07649783 45.08691406 78.84936523 C43.8677863 80.70078545 42.57111269 82.42888731 41 84 C35.89622321 84.68050357 35.89622321 84.68050357 33 84 C30.7334701 81.98710559 29.23120105 79.76428313 28 77 C28 76.01 28 75.02 28 74 C27.46632813 74.45890625 26.93265625 74.9178125 26.3828125 75.390625 C16.09857839 83.85999427 7.38189263 86.22629028 -6 85 C-9.75 83.9375 -9.75 83.9375 -13 82 C-14.34384766 81.23429687 -14.34384766 81.23429687 -15.71484375 80.453125 C-21.14332108 77.228852 -24.89879501 74.62811276 -28 69 C-29.03475399 67.72353183 -30.07699422 66.4531108 -31.125 65.1875 C-38.08805994 55.79791917 -37.13485064 41.35731562 -35.5625 30.1875 C-33.27021378 21.62070769 -25.02761902 12.50776279 -17.6875 7.9375 C-8.59313241 3 -8.59313241 3 -3 3 C-2.67 2.34 -2.34 1.68 -2 1 C-1.34 1.33 -0.68 1.66 0 2 C0 1.34 0 0.68 0 0 Z M-11 22 C-11 22.66 -11 23.32 -11 24 C-11.90492188 24.36351562 -11.90492188 24.36351562 -12.828125 24.734375 C-17.05006874 27.19464437 -18.53366179 31.50284462 -20 36 C-21.30793659 44.99984943 -20.38631048 53.47462843 -15 61 C-12.50268258 63.13778145 -9.94622023 64.57619901 -7 66 C-6.01 66.66 -5.02 67.32 -4 68 C3.47467752 70.19843456 11.12063933 69.60693752 18 66 C24.46325809 61.64973013 26.63298453 56.58027862 29.3125 49.5625 C30.8320264 41.68859046 29.02138538 33.90967322 25 27 C19.74269078 20.66977053 14.03325667 17.53014413 6 16 C-0.06012258 16 -5.83172164 19.23127945 -11 22 Z " fill="#000000" transform="translate(284,167)"/>
<path d="M0 0 C3.00301787 0.97924496 4.01305127 1.46220643 5.875 3.9375 C6.28045654 6.47998047 6.28045654 6.47998047 6.32324219 9.5546875 C6.34626404 10.70598145 6.36928589 11.85727539 6.39300537 13.04345703 C6.40253235 14.28724121 6.41205933 15.53102539 6.421875 16.8125 C6.44219788 18.08851074 6.46252075 19.36452148 6.48345947 20.67919922 C6.52370498 23.37940464 6.5584582 26.07897743 6.58349609 28.77929688 C6.6157482 32.23973443 6.66537839 35.69963358 6.72141647 39.15975952 C6.7739001 42.46058974 6.81670083 45.7615304 6.859375 49.0625 C6.8769989 50.30628418 6.8946228 51.55006836 6.91278076 52.83154297 C6.92840057 54.55848389 6.92840057 54.55848389 6.94433594 56.3203125 C6.95527283 57.33496582 6.96620972 58.34961914 6.97747803 59.39501953 C6.875 61.9375 6.875 61.9375 5.875 64.9375 C11.5479946 60.74005702 16.82163222 56.23597924 21.98681641 51.42871094 C26.87931109 46.89043102 31.91487704 42.52690916 36.97509766 38.17724609 C37.58401855 37.65340332 38.19293945 37.12956055 38.8203125 36.58984375 C39.36187988 36.12570068 39.90344727 35.66155762 40.46142578 35.18334961 C41.63936303 34.14517797 42.76474406 33.04775594 43.875 31.9375 C45.75 32.1875 45.75 32.1875 47.875 32.9375 C48.57625 33.14375 49.2775 33.35 50 33.5625 C53.02560758 35.78127889 53.25751628 38.35609441 53.875 41.9375 C53.25 44.25 53.25 44.25 51.875 45.9375 C50.54166667 46.60416667 49.20833333 47.27083333 47.875 47.9375 C46.60695434 49.9710948 46.60695434 49.9710948 45.875 51.9375 C45.215 51.9375 44.555 51.9375 43.875 51.9375 C43.875 52.5975 43.875 53.2575 43.875 53.9375 C43.215 53.9375 42.555 53.9375 41.875 53.9375 C41.875 54.5975 41.875 55.2575 41.875 55.9375 C39.895 56.4325 39.895 56.4325 37.875 56.9375 C37.875 57.5975 37.875 58.2575 37.875 58.9375 C36.23046875 60.59375 36.23046875 60.59375 34.0625 62.4375 C33.35480469 63.0459375 32.64710938 63.654375 31.91796875 64.28125 C29.875 65.9375 29.875 65.9375 26.875 67.9375 C26.2381794 70.31886336 26.2381794 70.31886336 26.875 72.9375 C28.85263152 75.40897013 28.85263152 75.40897013 31.5 77.6875 C35.45923516 81.44127696 38.43702117 85.02125615 41.30078125 89.6328125 C43.82289095 93.32523117 46.87608196 96.51008782 49.921875 99.7734375 C52.99187104 103.17499311 54.13130291 105.09504961 54 109.625 C53.98195313 110.43324219 53.96390625 111.24148437 53.9453125 112.07421875 C53.92210937 112.68910156 53.89890625 113.30398437 53.875 113.9375 C50.06340999 116.06489908 47.28213912 117.53305934 42.875 116.9375 C41.885 116.2775 40.895 115.6175 39.875 114.9375 C39.875 114.2775 39.875 113.6175 39.875 112.9375 C39.215 112.9375 38.555 112.9375 37.875 112.9375 C36.69140625 111.2578125 36.69140625 111.2578125 35.4375 109.0625 C33.70169206 106.02619645 32.88845998 104.94647332 29.875 102.9375 C29.545 101.9475 29.215 100.9575 28.875 99.9375 C27.885 99.6075 26.895 99.2775 25.875 98.9375 C24.81157202 97.31057078 23.8219337 95.63487867 22.875 93.9375 C21.56672121 91.98299479 20.23254297 90.04561477 18.875 88.125 C18.194375 87.14917969 17.51375 86.17335938 16.8125 85.16796875 C16.173125 84.43191406 15.53375 83.69585937 14.875 82.9375 C11.17387774 82.9375 9.73099835 83.6038235 6.875 85.9375 C6.30394789 88.95530174 6.30394789 88.95530174 6.625 92.375 C6.66367188 93.62023437 6.70234375 94.86546875 6.7421875 96.1484375 C6.78601563 97.39882812 6.82984375 98.64921875 6.875 99.9375 C6.8988486 110.35933846 6.8988486 110.35933846 4.6484375 113.828125 C2.33672676 115.98572169 0.39443285 116.90039765 -2.75 117.125 C-6.16944448 115.41527776 -7.26591255 113.24686781 -9.125 109.9375 C-9.67089844 106.62841797 -9.67089844 106.62841797 -9.734375 102.9296875 C-9.75104721 102.23513458 -9.76771942 101.54058167 -9.78489685 100.82498169 C-9.83487061 98.48738238 -9.85558097 96.15053951 -9.875 93.8125 C-9.90174381 92.14060859 -9.92952689 90.46873354 -9.95825195 88.796875 C-10.03209217 83.96976829 -10.0718351 79.14286241 -10.10284424 74.31530762 C-10.12683917 70.65710576 -10.15691405 66.99897682 -10.18701172 63.34082031 C-10.2460553 55.8836102 -10.28046113 48.42642875 -10.30488586 40.96903229 C-10.31248418 38.94172065 -10.32300008 36.91444118 -10.33410645 34.887146 C-10.35190762 31.0496969 -10.35573852 27.21248542 -10.35546875 23.375 C-10.36259384 22.2223465 -10.36971893 21.06969299 -10.37705994 19.8821106 C-10.33926595 6.3977955 -10.33926595 6.3977955 -5.875 1.4375 C-3.125 -0.0625 -3.125 -0.0625 0 0 Z " fill="#000000" transform="translate(186.125,135.0625)"/>
<path d="M0 0 C3.74011805 2.64617048 6.79970107 5.726967 10 9 C10.70640625 9.6496875 11.4128125 10.299375 12.140625 10.96875 C17.67304144 16.17141976 21.08275367 21.01367946 24 28 C24.38027344 28.82628906 24.76054687 29.65257812 25.15234375 30.50390625 C27.72168472 36.34664247 28.7809518 41.63764533 29 48 C29.02835937 48.81339844 29.05671875 49.62679687 29.0859375 50.46484375 C29.12571352 52.98266568 29.08068944 55.48325796 29 58 C28.97486328 59.31291016 28.97486328 59.31291016 28.94921875 60.65234375 C28.57159177 68.17251535 26.23040003 74.24977104 23 81 C22.5978125 81.95132813 22.195625 82.90265625 21.78125 83.8828125 C19.38280859 88.08008496 16.29612117 91.1787125 12.875 94.5625 C12.24851562 95.20896484 11.62203125 95.85542969 10.9765625 96.52148438 C6.14064651 101.35248582 0.60929924 105.94138297 -6.20361328 107.50610352 C-6.7964209 107.66908936 -7.38922852 107.8320752 -8 108 C-8.33 108.66 -8.66 109.32 -9 110 C-10.875 110.5625 -10.875 110.5625 -13 111 C-14.485 111.495 -14.485 111.495 -16 112 C-20.1810529 112.22824606 -24.36248195 112.22833151 -28.54931641 112.24023438 C-30.59710432 112.24986876 -32.64385681 112.28086998 -34.69140625 112.3125 C-42.14405786 112.3418123 -48.10514766 111.89188067 -55 109 C-55 108.34 -55 107.68 -55 107 C-55.71671875 106.74089844 -56.4334375 106.48179687 -57.171875 106.21484375 C-71.06691853 100.24611649 -80.42957499 87.66123903 -86 74 C-88.57261382 67.21042125 -88.36744037 60.44677181 -88.375 53.25 C-88.39949219 52.03828125 -88.42398437 50.8265625 -88.44921875 49.578125 C-88.49993103 33.89112606 -82.02829624 20.65071315 -71.0625 9.5625 C-70.58490234 9.0785376 -70.10730469 8.5945752 -69.61523438 8.09594727 C-50.35641133 -10.49398713 -23.17978106 -10.88335559 0 0 Z M-49.3359375 10.78125 C-51.04146354 12.88909368 -51.04146354 12.88909368 -51.9609375 15.1171875 C-53.31593735 17.57248798 -54.81379042 18.27431238 -57.25 19.625 C-65.49382756 24.93121967 -68.69478464 33.44917586 -71.31640625 42.59765625 C-72.41228879 48.05202021 -72.53078249 53.46593996 -72 59 C-71.67 59.33 -71.34 59.66 -71 60 C-70.625 62.25 -70.625 62.25 -71 65 C-73.28554977 67.60298724 -75.72883284 69.77164871 -78.375 72 C-79.179375 72.99 -79.179375 72.99 -80 74 C-78.98936935 83.43255273 -72.79812859 91.02842504 -65.7890625 96.92578125 C-51.0167745 107.9118946 -35.71465022 110.86934368 -17.6484375 108.57421875 C-2.30559889 105.27490121 10.12087245 95.04290952 18.625 82.1640625 C19.305625 81.09285156 19.305625 81.09285156 20 80 C20.99 78.515 20.99 78.515 22 77 C22.08369687 73.98691272 21.38825594 72.43951712 19.40234375 70.19140625 C18.15281828 68.95727535 16.8835346 67.74277481 15.59375 66.55078125 C12.81090412 63.84296307 12.88392947 61.66616864 12.76123047 57.8972168 C12.29790865 44.7968692 10.13053303 31.07965289 1 21 C-0.66054241 20.31822209 -2.32724694 19.65124452 -4 19 C-5.7734375 17.08203125 -5.7734375 17.08203125 -7.375 14.8125 C-13.58810748 6.49711261 -18.49091807 1.28438973 -29.0703125 -0.3125 C-38.31253851 -0.89240438 -43.66896462 4.1885963 -49.3359375 10.78125 Z " fill="#010100" transform="translate(434,140)"/>
<path d="M0 0 C9.06651051 7.28338439 16.8559171 17.09776528 18.2265625 28.9609375 C18.33097656 29.97027344 18.33097656 29.97027344 18.4375 31 C18.74874355 33.95398428 19.24376523 35.54847178 20.5 38.375 C22.37881323 42.9154653 22.71598443 47.13256082 23 52 C21.948125 52.391875 20.89625 52.78375 19.8125 53.1875 C14.94610064 55.27730456 12.07474286 58.64889469 8.8125 62.75 C7 65 7 65 5 66 C3.22649415 65.96287347 1.45414853 65.84766976 -0.3125 65.6875 C-1.25738281 65.60886719 -2.20226562 65.53023438 -3.17578125 65.44921875 C-6.03488617 64.99445102 -8.3309652 64.08654964 -11 63 C-14.37932259 63.31435559 -15.57479454 63.57479454 -18 66 C-19.9375 65.875 -19.9375 65.875 -22 65 C-22.4125 64.34 -22.825 63.68 -23.25 63 C-25.64275412 60.26542386 -27.60394198 60.7808245 -31.05859375 60.5390625 C-33.6273282 59.82581229 -34.19084903 58.84295653 -35.5 56.5625 C-37 53 -37 53 -37 51 C-38.299375 51.185625 -39.59875 51.37125 -40.9375 51.5625 C-43.15234375 51.87890625 -43.15234375 51.87890625 -45 52 C-46 51 -46 51 -46.25 48 C-46.13555609 41.78188077 -44.02818415 36.31310414 -40.5 31.25 C-38.16521704 27.77900219 -37.36639348 24.65807564 -36.5625 20.5625 C-34.61708191 11.17232555 -29.84440621 4.48364889 -22 -1 C-15.23575795 -4.81572629 -6.61612686 -3.61973221 0 0 Z " fill="#F7BE04" transform="translate(416,143)"/>
<path d="M0 0 C3.12292881 0.03910644 3.95959266 0.14456828 6.5625 2.0625 C9.70216975 6.40973504 10.4372103 9.26887133 10.43041992 14.68579102 C10.43349655 15.97715469 10.43657318 17.26851837 10.43974304 18.59901428 C10.43284539 20.00481342 10.42557843 21.41061079 10.41796875 22.81640625 C10.41677611 24.26081806 10.41632396 25.70523066 10.4165802 27.14964294 C10.41501774 30.17329785 10.40674575 33.19683396 10.39331055 36.22045898 C10.37630586 40.096509 10.37249681 43.97242874 10.37325573 47.8485117 C10.37298386 50.82961775 10.36750022 53.81069533 10.36025429 56.79179192 C10.35707223 58.22113772 10.35510129 59.65048674 10.35436058 61.07983589 C10.35219301 63.07610357 10.34265005 65.07235914 10.33276367 67.06860352 C10.32704597 68.77259056 10.32704597 68.77259056 10.32121277 70.51100159 C10.1875 73.3125 10.1875 73.3125 9.1875 76.3125 C8.5275 76.3125 7.8675 76.3125 7.1875 76.3125 C6.960625 76.93125 6.73375 77.55 6.5 78.1875 C4.76601288 80.99490771 3.34179646 81.48637474 0.1875 82.3125 C-1.875 82.375 -1.875 82.375 -3.8125 81.3125 C-9.16466195 74.64183442 -8.37704773 67.06852829 -8.30859375 58.9296875 C-8.30874891 57.42709279 -8.31024068 55.92449769 -8.31300354 54.42190552 C-8.31438343 51.28320477 -8.30189607 48.14496329 -8.27905273 45.00634766 C-8.25061967 40.99025378 -8.25342396 36.97491937 -8.26614285 32.95876884 C-8.27310706 29.86001127 -8.26530318 26.7614283 -8.25288582 23.66269302 C-8.24838196 22.18197423 -8.24802519 20.70123664 -8.25195122 19.2205162 C-8.25487215 17.1503649 -8.23831838 15.08125046 -8.21655273 13.01123047 C-8.21114975 11.83543427 -8.20574677 10.65963806 -8.20018005 9.44821167 C-7.49920938 3.77847986 -5.68359013 0.46586804 0 0 Z " fill="#000000" transform="translate(142.8125,169.6875)"/>
<path d="M0 0 C3.96574277 3.25697172 5.89413811 6.40528457 8.1484375 11.0078125 C9.97558841 12.82687867 11.85355789 14.53227429 13.8203125 16.19921875 C15.1484375 18.0078125 15.1484375 18.0078125 15.0546875 20.37890625 C12.60080914 27.4972689 7.78246906 34.05669386 2.1484375 39.0078125 C1.1584375 38.6778125 0.1684375 38.3478125 -0.8515625 38.0078125 C-1.04492188 36.80125 -1.23828125 35.5946875 -1.4375 34.3515625 C-1.70034384 32.73695034 -1.96337467 31.12236862 -2.2265625 29.5078125 C-2.35289062 28.71632812 -2.47921875 27.92484375 -2.609375 27.109375 C-3.44857374 21.99026271 -4.56432958 17.03217325 -5.8515625 12.0078125 C-6.24780727 10.01191293 -6.62579394 8.01220428 -6.9765625 6.0078125 C-7.22792969 4.5846875 -7.22792969 4.5846875 -7.484375 3.1328125 C-7.60554688 2.4315625 -7.72671875 1.7303125 -7.8515625 1.0078125 C-2.98868946 -1.60153401 -2.98868946 -1.60153401 0 0 Z " fill="#B4ACA8" transform="translate(440.8515625,194.9921875)"/>
<path d="M0 0 C2.77123297 3.52940047 2.67224929 6.87813031 2.55859375 11.23046875 C2.1875 13.5 2.1875 13.5 0.1875 16.5 C-0.4725 16.5 -1.1325 16.5 -1.8125 16.5 C-1.8125 17.16 -1.8125 17.82 -1.8125 18.5 C-5.46862044 20.83991708 -8.54457376 20.87437949 -12.8125 20.5 C-15.625 19.0625 -15.625 19.0625 -17.8125 17.5 C-18.4725 17.17 -19.1325 16.84 -19.8125 16.5 C-21.56694426 12.11388935 -21.79791103 6.86222363 -19.9765625 2.49609375 C-17.80004549 -1.00240171 -15.79657691 -2.87784077 -11.8125 -4.0625 C-6.48135042 -4.95269196 -4.01145998 -3.5657422 0 0 Z " fill="#4B616D" transform="translate(573.8125,125.5)"/>
<path d="M0 0 C1.28583984 0.00580078 1.28583984 0.00580078 2.59765625 0.01171875 C4.9375 0.3125 4.9375 0.3125 7.9375 2.3125 C9.49652261 5.99746253 9.52163342 10.38712343 8.9375 14.3125 C7.14386089 17.1225346 5.91869065 18.82190468 2.9375 20.3125 C-1.65398587 20.77164859 -4.73229448 21.03380538 -8.5 18.1875 C-11.37079846 14.96660417 -12.14995867 13.5979747 -12.0625 9.3125 C-9.7399301 3.07823342 -6.80546358 -0.13344046 0 0 Z " fill="#000000" transform="translate(144.0625,137.6875)"/>
<path d="M0 0 C1.11246094 -0.0103125 2.22492188 -0.020625 3.37109375 -0.03125 C7.19319437 0.60498707 8.8645546 1.75766427 11.5625 4.5 C12.43080297 8.26264621 12.25151861 10.39363298 10.1953125 13.6953125 C7.58259539 16.93508171 5.33408878 19.13028037 1.5625 20.9375 C-3.15830956 20.24904861 -5.51220845 17.08875974 -8.4375 13.5 C-10.76499345 10.00875983 -10.94049316 8.60777749 -10.4375 4.5 C-7.36183072 0.40157805 -5.01625885 -0.04639315 0 0 Z " fill="#FBFBFB" transform="translate(421.4375,218.5)"/>
<path d="M0 0 C3.42370314 1.23836071 5.46553117 2.37241627 7.9375 5.0625 C8.82124321 8.43679227 8.3239225 10.34278808 6.6875 13.390625 C5.63294858 15.10954382 4.56081806 16.81778388 3.47265625 18.515625 C1.42297794 21.91610911 0.19032338 25.30402987 -1.0625 29.0625 C-4.0625 28.0625 -4.0625 28.0625 -5.44921875 25.47265625 C-10.79962391 11.70299493 -10.79962391 11.70299493 -9.0625 5.0625 C-6.77882868 1.54736086 -4.2617734 0.08697497 0 0 Z " fill="#B39B99" transform="translate(406.0625,166.9375)"/>
<path d="M0 0 C1 3 1 3 -0.48828125 6.70703125 C-3.00873396 11.43139461 -6.37910877 14.97096946 -10.1875 18.6875 C-10.80947266 19.32494141 -11.43144531 19.96238281 -12.07226562 20.61914062 C-16.89064859 25.39806907 -22.44561226 29.9531013 -29.20385742 31.5065918 C-29.79658447 31.6694165 -30.38931152 31.83224121 -31 32 C-31.495 32.99 -31.495 32.99 -32 34 C-33.875 34.5625 -33.875 34.5625 -36 35 C-37.485 35.495 -37.485 35.495 -39 36 C-41.2838517 36.08378628 -43.570101 36.10729915 -45.85546875 36.09765625 C-46.84792351 36.09553383 -46.84792351 36.09553383 -47.86042786 36.09336853 C-49.96949828 36.08777996 -52.07846177 36.07522965 -54.1875 36.0625 C-55.61913909 36.05748352 -57.05077985 36.05292087 -58.48242188 36.04882812 C-61.98831588 36.0378143 -65.4941475 36.02055755 -69 36 C-69 35.34 -69 34.68 -69 34 C-67.68 34 -66.36 34 -65 34 C-65 33.34 -65 32.68 -65 32 C-64.14003418 32.02356567 -64.14003418 32.02356567 -63.26269531 32.04760742 C-42.8055931 32.53380209 -27.86777985 30.06281376 -12.328125 15.55078125 C-8.91518472 11.81143561 -6.24456924 7.70839926 -3.59375 3.40625 C-2 1 -2 1 0 0 Z " fill="#151515" transform="translate(457,216)"/>
<path d="M0 0 C1.03335057 3.18608918 0.93857633 5.1622712 0.0390625 8.37109375 C-0.29738281 9.60375977 -0.29738281 9.60375977 -0.640625 10.86132812 C-0.88296875 11.71146484 -1.1253125 12.56160156 -1.375 13.4375 C-1.84236708 15.12335983 -2.30854811 16.809549 -2.7734375 18.49609375 C-2.9909668 19.27968262 -3.20849609 20.06327148 -3.43261719 20.87060547 C-4.0613451 23.23022889 -4.57534129 25.59524663 -5 28 C-8.82391023 26.54249246 -10.03163711 24.75128879 -11.8125 21.125 C-12.25207031 20.26132813 -12.69164062 19.39765625 -13.14453125 18.5078125 C-14.0886212 15.74020635 -14.17710399 14.64848397 -13 12 C-11.53792251 10.76535679 -10.07067441 9.53500517 -8.5546875 8.3671875 C-6.1881814 6.28608917 -4.7247359 3.61684067 -3 1 C-2.01 0.67 -1.02 0.34 0 0 Z " fill="#B0AAA5" transform="translate(368,201)"/>
<path d="M0 0 C2.77123297 3.52940047 2.67224929 6.87813031 2.55859375 11.23046875 C2.1875 13.5 2.1875 13.5 0.1875 16.5 C-0.4725 16.5 -1.1325 16.5 -1.8125 16.5 C-1.8125 17.16 -1.8125 17.82 -1.8125 18.5 C-5.46862044 20.83991708 -8.54457376 20.87437949 -12.8125 20.5 C-15.625 19.0625 -15.625 19.0625 -17.8125 17.5 C-18.4725 17.17 -19.1325 16.84 -19.8125 16.5 C-21.56694426 12.11388935 -21.79791103 6.86222363 -19.9765625 2.49609375 C-17.80004549 -1.00240171 -15.79657691 -2.87784077 -11.8125 -4.0625 C-6.48135042 -4.95269196 -4.01145998 -3.5657422 0 0 Z M-16.8125 0.5 C-17.18613628 5.29020873 -16.3927199 9.3215892 -13.25 13 C-12.445625 13.825 -11.64125 14.65 -10.8125 15.5 C-10.8125 15.83 -10.8125 16.16 -10.8125 16.5 C-12.1325 16.83 -13.4525 17.16 -14.8125 17.5 C-13.25299449 19.05950551 -11.72372869 18.78196698 -9.5625 18.875 C-6.02868871 18.80736725 -4.87840505 18.54035003 -1.75 16.625 C0.98393714 12.21542397 1.18192918 8.55501501 0.1875 3.5 C-1.47916667 0.16666667 -1.47916667 0.16666667 -4.8125 -1.5 C-11.38075043 -2.48940425 -11.38075043 -2.48940425 -16.8125 0.5 Z " fill="#374A52" transform="translate(573.8125,125.5)"/>
<path d="M0 0 C3.625 0.3125 3.625 0.3125 6.0625 1.375 C7.625 3.3125 7.625 3.3125 8.125 6.8125 C7.625 10.3125 7.625 10.3125 6.0625 12.25 C2.69110977 13.71958036 0.26037875 13.77518457 -3.375 13.3125 C-5.375 11.75 -5.375 11.75 -6.375 9.3125 C-5.9216795 0.54830366 -5.9216795 0.54830366 0 0 Z " fill="#F15505" transform="translate(386.375,174.6875)"/>
<path d="M0 0 C6.07803338 -0.66305819 6.07803338 -0.66305819 8.7109375 1.23046875 C10.38184661 3.52417126 10.30951505 4.8811539 10.1875 7.6875 C10.16042969 8.49574219 10.13335937 9.30398437 10.10546875 10.13671875 C10.07066406 10.75160156 10.03585937 11.36648437 10 12 C6.78173668 13.71504054 4.69116133 14.47322581 1 14 C-0.8125 13 -0.8125 13 -2 11 C-2.59473663 6.53947531 -2.53637054 3.80455581 0 0 Z " fill="#F15806" transform="translate(420,176)"/>
<path d="M0 0 C3.96 0 7.92 0 12 0 C13 5 13 5 12.00390625 6.80078125 C10.66927083 8.20052083 9.33463542 9.60026042 8 11 C5.02545866 10.67842796 3.40664722 10.37860258 1.1875 8.3125 C0 6 0 6 0 0 Z " fill="#F7F8F8" transform="translate(558,129)"/>
<path d="M0 0 C3.13421352 2.78596758 4.74783122 4.34546404 5.3828125 8.51171875 C5.47283099 12.9161949 5.49729488 15.25405768 3 19 C2.34 19 1.68 19 1 19 C1 19.66 1 20.32 1 21 C0.01 20.67 -0.98 20.34 -2 20 C-1.34 19.54625 -0.68 19.0925 0 18.625 C2.65887235 15.13523004 2.58258822 12.64690636 2.3671875 8.3515625 C2.10786538 5.86341504 2.10786538 5.86341504 0.625 3.375 C-3.47825332 1.22567683 -7.46682493 1.72755542 -12 2 C-12.99 2 -13.98 2 -15 2 C-10.37484319 -2.09148487 -5.44686365 -3.21225292 0 0 Z " fill="#253337" transform="translate(571,123)"/>
<path d="M0 0 C1.37478516 0.01740234 1.37478516 0.01740234 2.77734375 0.03515625 C3.69644531 0.04417969 4.61554687 0.05320312 5.5625 0.0625 C6.27277344 0.07410156 6.98304688 0.08570312 7.71484375 0.09765625 C7.71484375 0.75765625 7.71484375 1.41765625 7.71484375 2.09765625 C3.25984375 2.59265625 3.25984375 2.59265625 -1.28515625 3.09765625 C1.68484375 3.42765625 4.65484375 3.75765625 7.71484375 4.09765625 C7.71484375 4.42765625 7.71484375 4.75765625 7.71484375 5.09765625 C3.75484375 5.09765625 -0.20515625 5.09765625 -4.28515625 5.09765625 C-3.0432556 0.13005366 -3.0432556 0.13005366 0 0 Z " fill="#5C7681" transform="translate(561.28515625,123.90234375)"/>
<path d="M0 0 C0 3 0 3 -1.4375 5.1875 C-5.17473012 7.83090667 -8.56064182 7.34148909 -13 7 C-13.33 6.34 -13.66 5.68 -14 5 C-12.02 5 -10.04 5 -8 5 C-8.66 4.34 -9.32 3.68 -10 3 C-8.35 2.34 -6.7 1.68 -5 1 C-4.67 1.99 -4.34 2.98 -4 4 C-2.68 2.68 -1.36 1.36 0 0 Z " fill="#536C77" transform="translate(573,137)"/>
<path d="M0 0 C0.33 0.99 0.66 1.98 1 3 C0.01 2.67 -0.98 2.34 -2 2 C-3.66538961 1.93152181 -5.3333526 1.91517883 -7 1.9375 C-7.86625 1.94652344 -8.7325 1.95554687 -9.625 1.96484375 C-10.40875 1.97644531 -11.1925 1.98804687 -12 2 C-12.99 2 -13.98 2 -15 2 C-10.35527524 -2.10879498 -5.51245538 -3.1499745 0 0 Z " fill="#1B282C" transform="translate(571,123)"/>
<path d="M0 0 C-0.66 1.32 -1.32 2.64 -2 4 C-4.31 3.67 -6.62 3.34 -9 3 C-7.14340032 -0.71319936 -3.69365381 -0.09982848 0 0 Z " fill="#111010" transform="translate(423,247)"/>
<path d="M0 0 C0.99 0.33 1.98 0.66 3 1 C2.67 3.31 2.34 5.62 2 8 C1.34 8 0.68 8 0 8 C0 5.36 0 2.72 0 0 Z " fill="#60511E" transform="translate(386,162)"/>
<path d="M0 0 C0.66 0.99 1.32 1.98 2 3 C0.60667426 6.36720387 -0.9789286 7.9859524 -4 10 C-3.71125 9.46375 -3.4225 8.9275 -3.125 8.375 C-1.83288192 5.64719516 -0.91441408 2.87387282 0 0 Z " fill="#F3BE27" transform="translate(414,174)"/>
<path d="" fill="#20282B" transform="translate(0,0)"/>
</svg>
