<?xml version="1.0" encoding="UTF-8"?>
<!DOCTYPE svg PUBLIC "-//W3C//DTD SVG 1.1//EN" "http://www.w3.org/Graphics/SVG/1.1/DTD/svg11.dtd">
<svg xmlns="http://www.w3.org/2000/svg" version="1.1" width="192px" height="160px" style="shape-rendering:geometricPrecision; text-rendering:geometricPrecision; image-rendering:optimizeQuality; fill-rule:evenodd; clip-rule:evenodd" xmlns:xlink="http://www.w3.org/1999/xlink">
<g><path style="opacity:1" fill="#2d2d2d" d="M -0.5,-0.5 C 63.5,-0.5 127.5,-0.5 191.5,-0.5C 191.5,52.8333 191.5,106.167 191.5,159.5C 127.5,159.5 63.5,159.5 -0.5,159.5C -0.5,106.167 -0.5,52.8333 -0.5,-0.5 Z"/></g>
<g><path style="opacity:1" fill="#f3f3f3" d="M 123.5,59.5 C 140.986,57.485 148.486,65.1516 146,82.5C 141.552,91.3275 134.386,94.8275 124.5,93C 119.572,91.0732 116.406,87.5732 115,82.5C 112.285,72.6248 115.118,64.9581 123.5,59.5 Z"/></g>
<g><path style="opacity:1" fill="#f1f1f1" d="M 158.5,59.5 C 163.547,59.3375 168.547,59.6708 173.5,60.5C 173.709,62.7144 172.876,64.381 171,65.5C 167.545,64.4496 164.045,64.2829 160.5,65C 157.527,66.2242 156.86,68.2242 158.5,71C 162.688,73.0623 167.021,74.729 171.5,76C 177.462,83.1444 176.128,88.8111 167.5,93C 162.311,93.9849 157.311,93.4849 152.5,91.5C 151.548,89.9547 151.215,88.288 151.5,86.5C 156.481,87.3316 161.481,87.4983 166.5,87C 169.167,85 169.167,83 166.5,81C 162.783,79.8202 159.116,78.4869 155.5,77C 151.87,73.9502 150.703,70.1169 152,65.5C 153.494,62.6865 155.66,60.6865 158.5,59.5 Z"/></g>
<g><path style="opacity:1" fill="#f2f2f2" d="M 20.5,82.5 C 19.5206,85.6248 19.1872,88.9581 19.5,92.5C 17.8333,92.5 16.1667,92.5 14.5,92.5C 14.5,81.5 14.5,70.5 14.5,59.5C 19.5111,59.3341 24.5111,59.5007 29.5,60C 39.8873,64.6715 41.2207,71.3381 33.5,80C 29.4136,82.0532 25.0803,82.8866 20.5,82.5 Z"/></g>
<g><path style="opacity:1" fill="#303030" d="M 20.5,65.5 C 23.1873,65.3359 25.854,65.5026 28.5,66C 32.0725,69.0055 32.4059,72.3389 29.5,76C 26.5184,76.498 23.5184,76.6646 20.5,76.5C 20.5,72.8333 20.5,69.1667 20.5,65.5 Z"/></g>
<g><path style="opacity:1" fill="#323232" d="M 126.5,64.5 C 136.808,64.3072 141.308,69.3072 140,79.5C 137.832,86.8358 132.999,89.3358 125.5,87C 120.979,82.3767 119.479,76.8767 121,70.5C 122.36,67.9774 124.193,65.9774 126.5,64.5 Z"/></g>
<g><path style="opacity:1" fill="#f2f2f2" d="M 109.5,82.5 C 104.5,82.5 99.5,82.5 94.5,82.5C 94.2627,83.791 94.596,84.791 95.5,85.5C 95.9528,86.4584 96.6195,87.2917 97.5,88C 100.146,88.4974 102.813,88.6641 105.5,88.5C 107.446,89.0347 108.446,90.368 108.5,92.5C 93.7235,96.2203 87.2235,90.5536 89,75.5C 91.2685,71.7001 94.6018,69.7001 99,69.5C 107.68,69.4929 111.18,73.8262 109.5,82.5 Z"/></g>
<g><path style="opacity:1" fill="#cccccc" d="M 48.5,70.5 C 46.8333,70.5 45.1667,70.5 43.5,70.5C 43.5,76.1667 43.5,81.8333 43.5,87.5C 42.5104,81.69 42.1771,75.69 42.5,69.5C 44.7354,69.2053 46.7354,69.5386 48.5,70.5 Z"/></g>
<g><path style="opacity:1" fill="#f9f9f9" d="M 48.5,70.5 C 48.3341,75.5111 48.5007,80.5111 49,85.5C 51.5851,87.7355 54.4185,88.0688 57.5,86.5C 58.4881,81.3595 58.8214,76.0262 58.5,70.5C 60.1667,70.5 61.8333,70.5 63.5,70.5C 63.5,77.8333 63.5,85.1667 63.5,92.5C 61.2776,92.822 59.4443,92.1554 58,90.5C 51.6748,95.315 46.8415,94.315 43.5,87.5C 43.5,81.8333 43.5,76.1667 43.5,70.5C 45.1667,70.5 46.8333,70.5 48.5,70.5 Z"/></g>
<g><path style="opacity:1" fill="#cccccc" d="M 63.5,70.5 C 61.8333,70.5 60.1667,70.5 58.5,70.5C 58.8214,76.0262 58.4881,81.3595 57.5,86.5C 57.5,80.8333 57.5,75.1667 57.5,69.5C 59.7354,69.2053 61.7354,69.5386 63.5,70.5 Z"/></g>
<g><path style="opacity:1" fill="#f4f4f4" d="M 76.5,77.5 C 75.5128,82.3054 75.1795,87.3054 75.5,92.5C 73.8333,92.5 72.1667,92.5 70.5,92.5C 70.5,84.8333 70.5,77.1667 70.5,69.5C 72.1667,69.5 73.8333,69.5 75.5,69.5C 75.3505,70.552 75.5172,71.552 76,72.5C 78.9836,69.8999 82.4836,68.8999 86.5,69.5C 86.1667,71.5 85.8333,73.5 85.5,75.5C 82.1226,75.0679 79.1226,75.7345 76.5,77.5 Z"/></g>
<g><path style="opacity:1" fill="#2e2e2e" d="M 103.5,76.5 C 102.666,77.7479 101.333,78.4146 99.5,78.5C 97.6672,78.4146 96.3339,77.7479 95.5,76.5C 96.3121,75.0069 97.6455,74.3402 99.5,74.5C 101.355,74.3402 102.688,75.0069 103.5,76.5 Z"/></g>
<g><path style="opacity:1" fill="#c6c6c6" d="M 76.5,77.5 C 76.5,82.8333 76.5,88.1667 76.5,93.5C 74.2646,93.7947 72.2646,93.4614 70.5,92.5C 72.1667,92.5 73.8333,92.5 75.5,92.5C 75.1795,87.3054 75.5128,82.3054 76.5,77.5 Z"/></g>
<g><path style="opacity:1" fill="#818181" d="M 95.5,76.5 C 96.3339,77.7479 97.6672,78.4146 99.5,78.5C 101.333,78.4146 102.666,77.7479 103.5,76.5C 104.404,77.209 104.737,78.209 104.5,79.5C 101.167,79.5 97.8333,79.5 94.5,79.5C 94.2627,78.209 94.596,77.209 95.5,76.5 Z"/></g>
<g><path style="opacity:1" fill="#8e8e8e" d="M 109.5,82.5 C 104.579,82.8616 99.9126,83.8616 95.5,85.5C 94.596,84.791 94.2627,83.791 94.5,82.5C 99.5,82.5 104.5,82.5 109.5,82.5 Z"/></g>
<g><path style="opacity:1" fill="#bababa" d="M 20.5,82.5 C 20.5,86.1667 20.5,89.8333 20.5,93.5C 18.2646,93.7947 16.2646,93.4614 14.5,92.5C 16.1667,92.5 17.8333,92.5 19.5,92.5C 19.1872,88.9581 19.5206,85.6248 20.5,82.5 Z"/></g>
<g><path style="opacity:1" fill="#b1b1b1" d="M 105.5,88.5 C 106.386,87.2241 107.386,87.2241 108.5,88.5C 109.705,89.9948 109.705,91.3281 108.5,92.5C 108.446,90.368 107.446,89.0347 105.5,88.5 Z"/></g>
</svg>
