<?xml version="1.0" encoding="UTF-8"?>
<svg version="1.1" xmlns="http://www.w3.org/2000/svg" width="810" height="1035">
<path d="M0 0 C4.88637671 1.91737173 8.54029818 2.8634986 13.59375 1.41015625 C22.82947747 0.35867085 29.33047326 0.68349168 37.34375 5.41015625 C44.47274949 9.59617911 50.31610069 10.11141162 58.50488281 9.46484375 C67.4140378 8.85517449 73.64692993 12.13736682 80.40625 17.84765625 C81.29957031 18.58886719 82.19289063 19.33007812 83.11328125 20.09375 C85.59375 22.41015625 85.59375 22.41015625 87.4453125 25.17578125 C89.48864595 27.77188896 89.48864595 27.77188896 93.09765625 27.8359375 C94.45077711 27.80887508 95.80370716 27.770576 97.15625 27.72265625 C105.71236866 27.86364872 110.26585644 30.59634562 116.59375 36.41015625 C118.07294922 37.67472656 118.07294922 37.67472656 119.58203125 38.96484375 C139.00965404 55.79676061 152.39599084 78.59670188 161.71875 102.34765625 C162.01410645 103.09885742 162.30946289 103.85005859 162.61376953 104.62402344 C163.93140071 108.12430785 164.59375 110.62413288 164.59375 114.41015625 C165.25375 114.41015625 165.91375 114.41015625 166.59375 114.41015625 C166.96306641 112.49396484 166.96306641 112.49396484 167.33984375 110.5390625 C168.53197196 105.20003859 170.46914291 100.34902467 172.65625 95.34765625 C173.25070923 93.97891357 173.25070923 93.97891357 173.85717773 92.58251953 C183.49237752 70.81628933 197.09998938 50.61942499 215.59375 35.41015625 C216.72490234 34.38535156 216.72490234 34.38535156 217.87890625 33.33984375 C223.0689539 29.05957073 226.77907299 28.14430233 233.40625 28.28515625 C238.25460192 28.35112796 241.43212265 27.97383514 245.125 24.65234375 C247.36098289 22.3693671 249.4729456 19.97753295 251.609375 17.6015625 C255.64973787 13.13528876 259.61560008 10.55842034 265.59375 9.41015625 C269.67743975 9.31382971 273.75579866 9.53171695 277.83496094 9.71557617 C285.24589533 9.85703255 290.08207332 7.7664957 296.49047852 4.27441406 C304.68202233 -0.02412846 312.6776944 0.28780808 321.65625 2.28515625 C327.26922921 2.46334607 331.43755317 0.19527048 336.421875 -2.14453125 C343.2583603 -5.25967849 350.15212859 -5.35411838 357.59375 -4.58984375 C360.38225259 -3.47971114 362.83112889 -2.14291125 365.42578125 -0.64453125 C369.81398992 1.49027297 373.68791521 -0.31485819 378.09375 -1.65234375 C388.03087845 -4.1849582 398.61302905 -3.65028477 407.59375 1.41015625 C408.97433594 2.46783203 408.97433594 2.46783203 410.3828125 3.546875 C414.23620108 5.78296545 417.11465514 5.7565162 421.40625 5.47265625 C430.60083681 5.17449883 437.29840886 6.75626687 444.59375 12.41015625 C444.92375 13.07015625 445.25375 13.73015625 445.59375 14.41015625 C446.5070105 14.43203003 446.5070105 14.43203003 447.4387207 14.4543457 C476.36610425 15.22877097 476.36610425 15.22877097 487.59375 23.41015625 C488.61027574 24.64675457 489.61024893 25.89713382 490.59375 27.16015625 C493.62183335 30.45771775 496.23165589 30.82805939 500.64135742 31.04492188 C502.15315213 31.08012158 503.66504414 31.11136203 505.17700195 31.13867188 C514.12773951 31.33403884 521.27619507 33.94218335 527.59375 40.41015625 C532.44588914 47.19691035 533.50145322 54.24082731 532.59375 62.41015625 C531.86369222 64.63230291 531.09079849 66.84071979 530.28125 69.03515625 C528.70607708 73.38074968 528.70607708 73.38074968 529.37109375 77.76953125 C530.68806204 79.79997557 530.68806204 79.79997557 532.20703125 81.65234375 C535.41316758 85.71646022 536.05758553 91.11013647 535.91015625 96.171875 C535.03997483 102.32760284 532.90382511 108.1643747 528.71875 112.78515625 C526.7543562 115.25400163 526.57888801 116.18635217 526.79296875 119.41015625 C527.2052495 121.67901336 527.63524964 123.94471514 528.08203125 126.20703125 C529.47026593 134.89674454 525.20861681 142.27430125 520.59375 149.41015625 C519.71460938 150.34988281 518.83546875 151.28960937 517.9296875 152.2578125 C515.15931704 155.9964228 514.9708828 158.69351741 515.03125 163.16015625 C514.69782236 174.97591388 511.1413492 182.24653123 502.59375 190.41015625 C501.871875 190.86132812 501.15 191.3125 500.40625 191.77734375 C497.78366145 194.13993429 497.91808041 196.13948324 497.59375 199.59765625 C496.01535486 211.58815376 489.98109099 219.20253523 480.6328125 226.82421875 C473.11252208 232.41015625 473.11252208 232.41015625 470.59375 232.41015625 C470.51898437 233.02761719 470.44421875 233.64507812 470.3671875 234.28125 C468.87345957 243.90261518 464.34964138 250.67613653 456.8671875 256.83984375 C450.71164358 261.0916112 444.07348394 263.91150732 436.59375 264.41015625 C436.3875 265.56515625 436.18125 266.72015625 435.96875 267.91015625 C433.99969932 275.59624372 428.99753659 280.87502806 422.3828125 285.0234375 C416.71509261 287.84142148 410.64637168 289.60792634 404.59375 291.41015625 C409.08779682 294.60357305 413.59432062 297.77082003 418.2109375 300.78515625 C426.06442273 305.91514112 433.5089396 311.2328616 440.59375 317.41015625 C441.08472168 317.83409668 441.57569336 318.25803711 442.08154297 318.69482422 C449.36385104 325.01632031 455.75044099 331.71232187 461.59375 339.41015625 C462.38265625 340.39886719 463.1715625 341.38757813 463.984375 342.40625 C485.26368558 369.82366144 493.1050915 405.6413919 494.11132812 439.68164062 C494.46007082 448.67657021 495.91260523 457.14238547 501.59375 464.41015625 C504.19195593 466.58929671 506.88940666 468.4835172 509.6953125 470.38671875 C514.37422893 473.65313211 518.4553063 477.49505713 522.59375 481.41015625 C523.40585937 482.1578125 524.21796875 482.90546875 525.0546875 483.67578125 C549.51762044 506.98116216 563.33639646 539.74174662 569.59375 572.41015625 C569.770271 573.30903564 569.94679199 574.20791504 570.12866211 575.1340332 C570.682744 579.03703837 570.79270706 582.89012884 570.83203125 586.82421875 C570.84679001 588.02914978 570.84679001 588.02914978 570.86184692 589.25842285 C571.1825731 622.22128441 571.1825731 622.22128441 566.59375 637.41015625 C566.24763672 638.64693115 566.24763672 638.64693115 565.89453125 639.90869141 C560.24017993 659.93451901 550.80242498 680.05386582 536.640625 695.546875 C530.70437764 702.28118139 528.79180105 708.34898704 526.96875 717.03515625 C524.01689713 730.0027746 519.9536676 742.35860092 515.40625 754.84765625 C511.13774808 766.61903541 507.38471242 778.06304813 505.14501953 790.41772461 C502.22858066 806.40938772 496.43883252 821.22257759 488.59375 835.41015625 C488.0059375 836.4878125 487.418125 837.56546875 486.8125 838.67578125 C468.83960118 870.53682916 440.22545769 897.31086948 406.69140625 912.0234375 C399.38648592 915.2936099 393.20793786 918.97189973 386.84375 923.84765625 C362.27655271 942.26460607 335.40834508 958.77752208 306.515625 969.44018555 C298.38712532 972.46175452 292.62856279 975.23644163 286.7890625 981.91015625 C282.90149359 986.33728099 278.23857502 989.8128111 273.59375 993.41015625 C273.03558594 993.84473145 272.47742188 994.27930664 271.90234375 994.72705078 C262.61742384 1001.9075589 253.01430603 1008.01168733 242.59375 1013.41015625 C241.02947266 1014.22419922 241.02947266 1014.22419922 239.43359375 1015.0546875 C220.0699875 1024.52411559 198.42672069 1030.43438131 176.8359375 1030.6484375 C176.01852585 1030.65818604 175.2011142 1030.66793457 174.3589325 1030.67797852 C157.07171311 1030.84185104 140.42297199 1030.85769512 123.59375 1026.41015625 C122.86365723 1026.23355469 122.13356445 1026.05695313 121.38134766 1025.875 C93.12475747 1019.02184092 67.58445922 1003.20329727 46.59375 983.41015625 C45.16410498 982.10980086 43.7273252 980.81721536 42.28125 979.53515625 C41.70761719 979.02210938 41.13398438 978.5090625 40.54296875 977.98046875 C35.17922138 973.65937367 29.78041451 971.12990405 23.40625 968.72265625 C-4.34658219 957.88612739 -30.0126795 943.08446727 -53.62182617 924.89868164 C-61.44665622 918.89392025 -69.02808584 914.41857223 -78.12158203 910.59814453 C-97.03144779 902.60738085 -112.69275992 889.46033325 -127.40625 875.41015625 C-128.06109375 874.80816406 -128.7159375 874.20617187 -129.390625 873.5859375 C-135.45493231 867.85372321 -140.43772748 861.08655393 -145.40625 854.41015625 C-145.83341309 853.83797363 -146.26057617 853.26579102 -146.70068359 852.67626953 C-161.70669522 832.24767099 -170.01729244 809.04691945 -175.15625 784.47265625 C-177.71187899 772.25954895 -181.60382016 760.84048023 -185.94140625 749.16015625 C-188.26559205 742.88584056 -190.34199948 736.56304955 -192.28125 730.16015625 C-192.57040283 729.21672363 -192.85955566 728.27329102 -193.1574707 727.30126953 C-194.37759946 723.23129178 -195.49912538 719.20842587 -196.265625 715.02734375 C-198.37102067 703.77469306 -203.69842468 697.07110262 -210.85107422 688.36621094 C-214.55682571 683.70522492 -217.50595106 678.60212609 -220.40625 673.41015625 C-220.72899902 672.84103516 -221.05174805 672.27191406 -221.38427734 671.68554688 C-240.92196978 636.77845684 -245.22843339 594.25944947 -234.69091797 555.79931641 C-229.27298682 536.83481078 -220.97884253 518.4278821 -209.40625 502.41015625 C-208.99294434 501.83749023 -208.57963867 501.26482422 -208.15380859 500.67480469 C-199.41893095 488.75016917 -189.73335837 478.24472488 -177.53125 469.84765625 C-170.80941093 465.07125453 -165.79955935 460.61455844 -163.40625 452.41015625 C-162.67343172 446.81873007 -162.64194031 441.20144445 -162.56640625 435.5703125 C-162.11212758 407.73582028 -154.62248361 380.78583843 -141.40625 356.41015625 C-140.91382813 355.4975 -140.42140625 354.58484375 -139.9140625 353.64453125 C-124.74596449 327.07893587 -99.7485932 307.16456331 -73.40625 292.41015625 C-76.60484973 290.27775643 -79.3772968 289.38889622 -83.03125 288.22265625 C-92.49629994 284.94526073 -98.31462752 281.12514209 -102.96875 272.09765625 C-105.40625 266.83292048 -105.40625 266.83292048 -105.40625 264.41015625 C-106.31375 264.36890625 -107.22125 264.32765625 -108.15625 264.28515625 C-117.71590756 262.8724943 -127.26680377 256.72978233 -133.40625 249.41015625 C-136.179232 244.7353209 -138.14911208 240.24226391 -138.90625 234.84765625 C-139.07125 234.04328125 -139.23625 233.23890625 -139.40625 232.41015625 C-141.06756344 231.73025929 -142.73544338 231.06637835 -144.40625 230.41015625 C-154.67023975 223.24958523 -163.03564622 214.7109229 -166.40625 202.41015625 C-166.52371977 200.8498513 -166.60845403 199.28664674 -166.65625 197.72265625 C-166.8602666 194.88135195 -167.09957495 193.7508242 -169.02734375 191.609375 C-170.4243013 190.46064809 -171.83914116 189.33338141 -173.26953125 188.2265625 C-178.40122986 183.86414961 -181.74866239 177.88909244 -183.40625 171.41015625 C-183.34711462 168.99098164 -183.21800557 166.57283632 -183.03125 164.16015625 C-182.9040277 156.94382495 -184.50043938 153.79768666 -189.36328125 148.625 C-194.87513485 142.64943405 -196.54956479 135.89380267 -196.53125 127.97265625 C-196.53382813 126.86019531 -196.53640625 125.74773437 -196.5390625 124.6015625 C-196.40625 121.41015625 -196.40625 121.41015625 -195.7265625 118.76171875 C-195.16833183 116.36708445 -195.16833183 116.36708445 -196.515625 114.3046875 C-197.05703125 113.61761719 -197.5984375 112.93054688 -198.15625 112.22265625 C-203.27345399 105.00608652 -205.17765317 98.02822673 -204.14453125 89.203125 C-203.29167536 85.9767125 -201.90699254 83.61875084 -200.15625 80.78515625 C-197.90946958 77.21432031 -197.90946958 77.21432031 -197.64453125 73.17578125 C-198.20532335 71.71931646 -198.80897565 70.27879803 -199.44921875 68.85546875 C-202.21736198 61.78258034 -202.2935561 53.41835239 -199.40234375 46.40234375 C-195.10885327 37.8153628 -189.49203636 34.4387517 -180.40625 31.41015625 C-178.43901533 31.39161687 -176.47171636 31.37490822 -174.50439453 31.37402344 C-167.33504838 31.42021726 -167.33504838 31.42021726 -160.89453125 28.7421875 C-159.65363792 27.35561277 -158.45083091 25.9339817 -157.2890625 24.48046875 C-151.86012033 18.51088503 -141.70291029 15.72489837 -133.81787109 15.25634766 C-130.02764819 15.18860522 -126.24187027 15.14924054 -122.45117188 15.1953125 C-117.45956309 15.10574602 -114.3004994 14.84584853 -110.46484375 11.48046875 C-109.95880615 10.95211426 -109.45276855 10.42375977 -108.93139648 9.87939453 C-104.235899 5.3560227 -98.09905627 5.31928665 -91.95263672 5.40771484 C-90.44557678 5.45033423 -88.93895955 5.51631467 -87.43408203 5.60791016 C-83.73803567 5.75906215 -81.76457071 5.65363058 -78.6640625 3.546875 C-77.91898438 2.84175781 -77.17390625 2.13664063 -76.40625 1.41015625 C-67.82114052 -3.6472537 -57.80310042 -4.02874409 -48.2109375 -1.87109375 C-46.36865756 -1.32895142 -44.52972872 -0.77521327 -42.6953125 -0.20703125 C-39.53583603 0.64484125 -37.50433501 0.44285125 -34.40625 -0.58984375 C-33.23947511 -1.27716007 -32.07282074 -1.964681 -30.90625 -2.65234375 C-20.61835732 -7.93268261 -9.88235364 -4.20176681 0 0 Z " fill="#000000" transform="translate(239.40625,4.58984375)"/>
<path d="M0 0 C13.38072954 5.89818793 24.48839354 12.43754908 35.22265625 22.53125 C36.87267046 24.21233759 36.87267046 24.21233759 39 24 C42.37388043 19.09923649 42.37388043 19.09923649 42.8125 13.3125 C42.21423339 10.87341307 41.61034385 8.43606806 41 6 C52.90837728 11.56955113 62.75271667 20.90891314 71 31 C72.99983534 30.20882096 72.99983534 30.20882096 75 29 C76.00259507 25.99221479 76.30314642 23.46179353 76.5625 20.3125 C76.64628906 19.31863281 76.73007812 18.32476562 76.81640625 17.30078125 C76.87699219 16.54152344 76.93757812 15.78226563 77 15 C80.12324544 16.38629244 82.24190707 17.99511571 84.64453125 20.4140625 C85.32193359 21.09339844 85.99933594 21.77273437 86.69726562 22.47265625 C87.74430664 23.53806641 87.74430664 23.53806641 88.8125 24.625 C89.49892578 25.31207031 90.18535156 25.99914062 90.89257812 26.70703125 C96.51616895 32.37850507 101.81232676 38.27292399 106.8125 44.5 C107.8953125 45.7375 107.8953125 45.7375 109 47 C109.66 47 110.32 47 111 47 C112.32 42.71 113.64 38.42 115 34 C134.93504677 43.96752338 150.65673058 77.32250669 157.57421875 97.421875 C160.73207226 107.10124047 162.18070944 115.72990533 162.1875 125.875 C162.19974609 126.83019531 162.21199219 127.78539062 162.22460938 128.76953125 C162.25195901 142.06145283 157.4446739 155.36520065 148.15234375 165.12109375 C134.48283652 177.05400297 134.48283652 177.05400297 127 178 C124.02622899 176.55673409 121.63970775 174.49939449 119.125 172.375 C117.60740669 171.15545832 116.08916255 169.93672615 114.5703125 168.71875 C113.4241748 167.78289062 113.4241748 167.78289062 112.25488281 166.828125 C62.98850052 126.88586963 3.46324148 99.72453862 -55.5703125 77.703125 C-56.26373245 77.44335373 -56.9571524 77.18358246 -57.67158508 76.91593933 C-60.75118063 75.77552386 -63.78607513 74.69285884 -67 74 C-66.36312256 74.32572998 -65.72624512 74.65145996 -65.07006836 74.98706055 C-49.49890832 82.96966454 -34.1511603 91.24526331 -19 100 C-17.83223826 100.67260288 -16.6644306 101.34512602 -15.49658203 102.01757812 C-0.04729792 110.92311188 15.19790792 120.04308114 30 130 C30.89799316 130.60054199 31.79598633 131.20108398 32.72119141 131.81982422 C48.29791184 142.25179177 63.52759333 153.06942424 78 165 C78.9796875 165.80566406 79.959375 166.61132812 80.96875 167.44140625 C87.13660802 172.56217822 93.12134904 177.8621621 99 183.3125 C99.93428833 184.17415771 99.93428833 184.17415771 100.88745117 185.05322266 C104.56435664 188.49524104 108.03540589 191.91733039 111 196 C110.30463409 210.37089539 99.92392611 223.44362671 90 233 C89.36707031 233.65226563 88.73414063 234.30453125 88.08203125 234.9765625 C60.63958851 261.51031508 17.53138035 262.43778594 -18 262 C-15.44886868 259.9453976 -12.89961171 257.92699033 -10.25 256 C-7.82640534 253.84569364 -7.5843547 253.04880712 -7 250 C-12.4386812 248.5687681 -17.56755217 247.82264836 -23.1875 247.5 C-51.15152926 245.84847074 -51.15152926 245.84847074 -58 239 C-57.38511719 238.68546875 -56.77023438 238.3709375 -56.13671875 238.046875 C-55.32847656 237.61890625 -54.52023438 237.1909375 -53.6875 236.75 C-52.48673828 236.12351562 -52.48673828 236.12351562 -51.26171875 235.484375 C-48.85437838 233.90442795 -47.65502938 232.32328652 -46 230 C-46.60875977 229.89260498 -47.21751953 229.78520996 -47.84472656 229.67456055 C-54.01607084 228.52231589 -59.83862595 226.91510149 -65.75 224.8125 C-66.60964355 224.50860352 -67.46928711 224.20470703 -68.35498047 223.89160156 C-88.20109688 216.69835467 -88.20109688 216.69835467 -92 211 C-91.26394531 210.87882813 -90.52789062 210.75765625 -89.76953125 210.6328125 C-88.30580078 210.38144531 -88.30580078 210.38144531 -86.8125 210.125 C-85.84957031 209.96257812 -84.88664062 209.80015625 -83.89453125 209.6328125 C-81.06524192 209.01426342 -78.61030692 208.25183458 -76 207 C-75.67 206.34 -75.34 205.68 -75 205 C-75.57041016 204.87633057 -76.14082031 204.75266113 -76.72851562 204.62524414 C-88.78046539 201.30784911 -101.01049527 193.34388248 -111 186 C-111.89847656 185.34644531 -112.79695313 184.69289062 -113.72265625 184.01953125 C-118.30049651 180.58791992 -118.30049651 180.58791992 -120 179 C-120 178.34 -120 177.68 -120 177 C-119.03578125 176.95101562 -118.0715625 176.90203125 -117.078125 176.8515625 C-115.18320313 176.73941406 -115.18320313 176.73941406 -113.25 176.625 C-111.37054688 176.52058594 -111.37054688 176.52058594 -109.453125 176.4140625 C-106.39001879 176.04676696 -104.58025734 175.60288714 -102 174 C-103.47146484 173.03513672 -103.47146484 173.03513672 -104.97265625 172.05078125 C-112.37178688 167.12510859 -119.46510845 162.01222025 -126.1875 156.1875 C-126.79795166 155.6613208 -127.40840332 155.1351416 -128.03735352 154.59301758 C-131.83515827 151.23990085 -134.66414931 148.00302083 -138 144 C-131.73 143.67 -125.46 143.34 -119 143 C-121.475 140.525 -121.475 140.525 -124 138 C-127.66666667 134.33333333 -131.33333333 130.66666667 -135 127 C-135.85207031 126.154375 -136.70414063 125.30875 -137.58203125 124.4375 C-139.83539493 122.16593468 -142.03384847 119.86610071 -144.1875 117.5 C-144.86167969 116.7678125 -145.53585938 116.035625 -146.23046875 115.28125 C-148.05434368 112.92994105 -149.03806462 110.80194509 -150 108 C-149.05125 108.165 -148.1025 108.33 -147.125 108.5 C-138.15679719 109.85306702 -138.15679719 109.85306702 -130 107 C-131.40630792 103.75840901 -133.05153085 101.78304521 -135.66796875 99.42578125 C-136.39693359 98.75740234 -137.12589844 98.08902344 -137.87695312 97.40039062 C-139.39685056 96.02695837 -140.91765908 94.65453358 -142.43945312 93.28320312 C-155.07869145 81.68523422 -155.07869145 81.68523422 -157 74 C-150.4 74 -143.8 74 -137 74 C-141.21135057 61.90586503 -145.94765993 49.96290217 -153.76953125 39.671875 C-155 38 -155 38 -155 36 C-132.725 35.505 -132.725 35.505 -110 35 C-113.50970966 29.31051721 -113.50970966 29.31051721 -116.75 26.25 C-117.4925 25.5075 -118.235 24.765 -119 24 C-119 23.34 -119 22.68 -119 22 C-102.71914685 16.57304895 -82.82447142 22.68892555 -67 27 C-66.19868174 24.20270059 -66.19868174 24.20270059 -66 21 C-67.29590413 18.68542442 -67.29590413 18.68542442 -69.3125 16.8125 C-71.50036555 14.56250439 -73.24546364 12.63180454 -75 10 C-69.22458461 10.65779219 -63.56603367 11.56897451 -57.875 12.75 C-57.05185303 12.91975342 -56.22870605 13.08950684 -55.38061523 13.2644043 C-48.91012881 14.66317398 -42.92441114 16.64931561 -36.78515625 19.14453125 C-33.94118321 20.01806575 -32.72463961 20.07015965 -30 19 C-30.41259591 13.81629498 -31.76337152 11.67746622 -35.5625 8.1875 C-37.05077598 6.80138337 -38.53255653 5.40815283 -40 4 C-40 3.67 -40 3.34 -40 3 C-33.12951544 3.40981522 -27.1708748 4.60113093 -20.75 7.0625 C-19.93732666 7.36615479 -19.12465332 7.66980957 -18.28735352 7.98266602 C-11.65534467 10.55016831 -5.63888841 13.7763195 0.41015625 17.49609375 C2.78911806 19.16738899 2.78911806 19.16738899 5 19 C6.6289159 15.74216821 6.70136279 12.50681395 6 9 C4.6048593 6.90525522 3.09426609 5.21882968 1.3125 3.4453125 C0 2 0 2 0 0 Z " fill="#74A827" transform="translate(221,26)"/>
<path d="M0 0 C0.99 0.495 0.99 0.495 2 1 C1.566875 1.49628906 1.13375 1.99257813 0.6875 2.50390625 C-2.22872333 6.06142869 -3.90181986 8.14443017 -4.4375 12.8125 C-4.09790328 16.01343771 -4.09790328 16.01343771 -3 19 C-1.86304688 18.33613281 -0.72609375 17.67226563 0.4453125 16.98828125 C13.20652183 9.64676724 26.27521308 3.32371839 41 1 C41.99 1.33 42.98 1.66 44 2 C43.37351562 2.54269531 42.74703125 3.08539062 42.1015625 3.64453125 C40.87566406 4.71767578 40.87566406 4.71767578 39.625 5.8125 C38.40683594 6.87404297 38.40683594 6.87404297 37.1640625 7.95703125 C34.03053193 10.91521985 33.02335267 12.31109624 32.875 16.6875 C32.91625 17.780625 32.9575 18.87375 33 20 C33.75539063 19.69707031 34.51078125 19.39414062 35.2890625 19.08203125 C42.89059291 16.18917717 50.50867484 14.0099523 58.4375 12.1875 C59.37223145 11.96876221 60.30696289 11.75002441 61.27001953 11.5246582 C66.2985259 10.40556109 70.84970832 9.75204923 76 10 C75.59007812 10.45890625 75.18015625 10.9178125 74.7578125 11.390625 C74.21898437 12.00421875 73.68015625 12.6178125 73.125 13.25 C72.59132813 13.85328125 72.05765625 14.4565625 71.5078125 15.078125 C68.90700144 18.39314843 67.87654871 19.93008884 68.375 24.25 C68.58125 25.1575 68.7875 26.065 69 27 C70.00417969 26.66226563 71.00835938 26.32453125 72.04296875 25.9765625 C88.14538917 20.67183946 105.11254443 17.65462449 122 21 C120.53417985 24.42280517 118.61937745 26.56480483 115.9375 29.125 C113.08428067 31.77905 113.08428067 31.77905 111 35 C126.51 35 142.02 35 158 35 C156.2283065 38.54338701 154.29667002 41.77775121 152.1875 45.125 C146.53818586 54.2452098 142.54710052 62.54348207 140 73 C146.27 73 152.54 73 159 73 C156.00242678 84.99029287 144.59997843 93.50873131 135.375 100.9375 C132.76784804 102.84822092 132.76784804 102.84822092 132 106 C137.7266505 109.817767 145.57671885 107.91761159 152 107 C147.7776194 118.96694803 136.21612666 128.55044182 126.62890625 136.39453125 C124.63961949 138.18227135 124.63961949 138.18227135 123 142 C131.415 142.495 131.415 142.495 140 143 C130.14103939 155.32370076 117.94870968 164.20899213 105 173 C107.93447357 175.93447357 111.18259456 175.46158423 115.125 175.625 C116.25615234 175.68300781 116.25615234 175.68300781 117.41015625 175.7421875 C119.27303184 175.83651031 121.13648255 175.91934662 123 176 C112.94752936 189.73196348 92.94860476 197.73016182 78 205 C81.3899808 208.06273018 84.27315343 208.60550995 88.75 209.1875 C89.92046875 209.34605469 91.0909375 209.50460938 92.296875 209.66796875 C93.18890625 209.77753906 94.0809375 209.88710937 95 210 C91.7120789 213.84433852 87.95885435 215.61117828 83.375 217.5 C82.65715332 217.80333252 81.93930664 218.10666504 81.19970703 218.41918945 C79.77437033 219.01920453 78.34716419 219.61480147 76.91796875 220.20556641 C75.34594154 220.85670904 73.78123747 221.52550576 72.21875 222.19921875 C56.09041502 229 56.09041502 229 48 229 C51.32364676 234.34673609 55.19945661 235.47549821 61 237 C61 237.66 61 238.32 61 239 C59.59102187 239.6421449 58.17205307 240.2623545 56.75 240.875 C55.56664062 241.39707031 55.56664062 241.39707031 54.359375 241.9296875 C44.00667228 245.22810674 32.76550579 245.76044628 22.0078125 246.85546875 C20.90179687 246.97535156 19.79578125 247.09523438 18.65625 247.21875 C17.66431641 247.32123047 16.67238281 247.42371094 15.65039062 247.52929688 C13.07446496 247.9867752 11.25234887 248.698821 9 250 C10.08270519 253.66033603 10.08270519 253.66033603 12.8125 256.125 C13.534375 256.41375 14.25625 256.7025 15 257 C16.68991979 257.9601817 18.36209288 258.95355934 20 260 C20 260.33 20 260.66 20 261 C-15.96875002 261.86208287 -53.64945874 259.35043061 -83 236 C-83.82886719 235.34644531 -84.65773438 234.69289063 -85.51171875 234.01953125 C-96.52241426 224.7624534 -104.85404901 211.98662885 -108.82519531 198.11816406 C-109 195 -109 195 -107.36035156 192.53393555 C-106.5453418 191.742854 -105.73033203 190.95177246 -104.890625 190.13671875 C-103.98957031 189.24919922 -103.08851563 188.36167969 -102.16015625 187.44726562 C-101.1901435 186.52730227 -100.22009129 185.60738053 -99.25 184.6875 C-98.33605469 183.78837891 -97.42210937 182.88925781 -96.48046875 181.96289062 C-90.27564986 175.92824609 -83.76565202 170.3914411 -77 165 C-75.75785621 163.98591442 -74.51680022 162.97049338 -73.27734375 161.953125 C-29.77585718 126.61495928 19.82540228 99.47134419 69 73 C59.96799016 75.46178093 51.27738774 78.80110393 42.5625 82.1875 C41.78487305 82.48901978 41.00724609 82.79053955 40.20605469 83.10119629 C9.20539199 95.17084226 -21.17409376 109.37677342 -50 126 C-50.7724707 126.44537109 -51.54494141 126.89074219 -52.34082031 127.34960938 C-76.51750308 141.38257547 -101.04109269 156.7458808 -121.7734375 175.62109375 C-124 177 -124 177 -126.4296875 176.94140625 C-138.77789579 172.41873422 -148.97539836 162.18795424 -154.78515625 150.6328125 C-163.80409612 131.0869428 -160.4767144 111.16428918 -153.4609375 91.6171875 C-146.30375517 72.7095042 -134.83284315 54.90138468 -121.0078125 40.18359375 C-118.90608376 37.96249641 -118.90608376 37.96249641 -116.8671875 35.22265625 C-116.25101562 34.48917969 -115.63484375 33.75570312 -115 33 C-114.34 33 -113.68 33 -113 33 C-112.32968281 34.9570868 -111.66385317 36.91571113 -111 38.875 C-110.62875 39.96554688 -110.2575 41.05609375 -109.875 42.1796875 C-109 45 -109 45 -109 47 C-103.75195964 42.89418019 -99.39286311 38.2703045 -95.125 33.1875 C-81.77829544 17.32127525 -81.77829544 17.32127525 -74 13 C-74.03480469 13.72445312 -74.06960938 14.44890625 -74.10546875 15.1953125 C-74.26631949 20.93998168 -74.23466184 25.01322966 -71 30 C-68.00711395 30.344736 -68.00711395 30.344736 -66.45703125 28.53125 C-65.91433594 27.8609375 -65.37164063 27.190625 -64.8125 26.5 C-57.68544967 18.06632377 -50.39392131 11.88685735 -41 6 C-40.01 6.495 -40.01 6.495 -39 7 C-39.33 7.66 -39.66 8.32 -40 9 C-40.52200618 15.26407421 -39.92142038 18.09822453 -36 23 C-30.79198925 19.16924059 -30.79198925 19.16924059 -25.76953125 15.1015625 C-18.25061628 8.7287468 -9.40944027 3.13648009 0 0 Z " fill="#74A827" transform="translate(589,27)"/>
<path d="M0 0 C3.42408452 2.91072852 6.73430571 5.91310379 10 9 C10.81082031 9.74636719 11.62164063 10.49273437 12.45703125 11.26171875 C35.94386643 33.63893967 52.34188352 67.76114536 53.3359375 100.25 C53.71036864 132.02170296 47.7542852 159.42262126 25.46142578 183.51367188 C8.99349792 200.26220927 -14.35759257 209.95647625 -37.73828125 210.43139648 C-73.43108636 210.50226054 -103.87327508 196.13698389 -129.125 171.3125 C-153.90751612 146.34168031 -170.03399713 112.15493228 -170.32958984 76.71386719 C-170.3239502 75.55016602 -170.31831055 74.38646484 -170.3125 73.1875 C-170.30686035 71.96063477 -170.3012207 70.73376953 -170.29541016 69.46972656 C-169.9564458 44.09102863 -161.164236 19.89007326 -144 1 C-143.44957031 0.36835938 -142.89914062 -0.26328125 -142.33203125 -0.9140625 C-104.71478647 -41.59641611 -39.3074684 -32.70881958 0 0 Z " fill="#BB1041" transform="translate(598,447)"/>
<path d="M0 0 C0.65677734 0.21962402 1.31355469 0.43924805 1.99023438 0.66552734 C15.31845028 5.27688118 25.82572137 12.26808131 36 22 C36.68835938 22.61359375 37.37671875 23.2271875 38.0859375 23.859375 C54.76195284 39.28304136 64.43984309 63.96898963 65.34364319 86.3302002 C65.45633656 90.17857927 65.49110002 94.02512409 65.5 97.875 C65.50458221 98.6122229 65.50916443 99.3494458 65.5138855 100.10900879 C65.59574518 133.33941625 51.37856838 164.06444855 30 189 C29.27941406 189.8559375 28.55882812 190.711875 27.81640625 191.59375 C7.89303331 214.60684388 -22.96982586 231.76096574 -53.59179688 234.20703125 C-80.394056 235.59369654 -104.59953375 229.10406621 -125.33984375 211.4375 C-139.79240253 198.19462676 -148.52371434 182.48731922 -154.25 163.9375 C-154.50861816 163.11048584 -154.76723633 162.28347168 -155.03369141 161.43139648 C-156.75751974 155.62224449 -157.63839388 150.04310289 -158 144 C-158.05559082 143.07437256 -158.11118164 142.14874512 -158.16845703 141.19506836 C-159.22892137 118.90868972 -155.72668501 97.22067232 -146 77 C-145.67660645 76.32710938 -145.35321289 75.65421875 -145.02001953 74.9609375 C-137.46368701 59.46076823 -128.00441566 46.34690969 -116 34 C-115.46068848 33.43949951 -114.92137695 32.87899902 -114.36572266 32.30151367 C-85.87294473 3.13489312 -39.69622363 -13.30245792 0 0 Z " fill="#BB1041" transform="translate(317,429)"/>
<path d="M0 0 C21.99712971 17.36774753 39.93966674 41.72584047 43.48828125 70.1875 C46.46325865 101.14782776 39.4504103 128.72848898 19.83398438 153.0090332 C0.93162808 175.72821144 -27.63005861 191.29639909 -57.13671875 194.625 C-80.42286267 196.08466034 -102.64244848 194.5079403 -124.125 184.875 C-124.79225098 184.58109375 -125.45950195 184.2871875 -126.14697266 183.984375 C-136.20581756 179.48304787 -144.72534907 173.98323173 -153.125 166.875 C-154.08148438 166.08222656 -155.03796875 165.28945313 -156.0234375 164.47265625 C-175.17190291 147.925593 -188.88867757 123.26228201 -191.125 97.875 C-192.68492768 69.03435686 -186.92358219 41.87032492 -167.625 19.58984375 C-166.8 18.69394531 -165.975 17.79804687 -165.125 16.875 C-164.64546875 16.35309082 -164.1659375 15.83118164 -163.671875 15.29345703 C-144.3734605 -5.47305024 -120.61912838 -16.63027997 -93.125 -22.125 C-92.18527344 -22.32222656 -91.24554688 -22.51945313 -90.27734375 -22.72265625 C-58.40885956 -26.79013317 -26.12533613 -18.53157176 0 0 Z " fill="#BB1041" transform="translate(481.125,664.125)"/>
<path d="M0 0 C14.39932049 11.25679777 19.10127719 34.28709996 21.60522461 51.42578125 C22.32258546 57.92062528 22.39537623 64.41144701 22.375 70.9375 C22.3737915 71.65788452 22.37258301 72.37826904 22.37133789 73.1204834 C22.19290532 112.52579354 6.7572295 142.91078543 -20 171 C-20.78761719 171.85207031 -21.57523438 172.70414063 -22.38671875 173.58203125 C-40.47401961 192.56622306 -66.06382076 206.81674528 -92 211 C-93.63775391 211.27263672 -93.63775391 211.27263672 -95.30859375 211.55078125 C-111.22866898 213.4881449 -130.70655223 213.26595449 -144 203 C-151.97802449 196.0293839 -155.93576741 186.41051287 -157 176 C-159.19075913 143.4296711 -150.34116947 113.44539994 -135 85 C-134.68063477 84.39607422 -134.36126953 83.79214844 -134.03222656 83.16992188 C-127.02354562 69.9779478 -118.12343456 58.93330933 -108 48 C-107.1234375 47.0203125 -106.246875 46.040625 -105.34375 45.03125 C-99.57550444 38.592729 -93.54829579 32.65191524 -87 27 C-85.92879158 26.04397167 -84.85853145 25.08688006 -83.7890625 24.12890625 C-61.96263923 4.75667251 -29.0080644 -17.9894973 0 0 Z " fill="#BB1041" transform="translate(691,688)"/>
<path d="M0 0 C1.175625 0.41378906 2.35125 0.82757812 3.5625 1.25390625 C44.29812579 16.25539656 78.34994426 51.40754229 96.5378418 90.18310547 C107.33716165 113.84729381 115.84161051 145.30404111 107.265625 170.94140625 C103.7133242 179.52613318 99.60313154 186.51679398 90.90625 190.37109375 C75.59745996 196.45668259 59.06046132 196.70263205 43 193 C42.09121094 192.82855469 41.18242187 192.65710938 40.24609375 192.48046875 C8.12573342 185.70678732 -22.5870533 160.62351275 -40.61328125 133.88671875 C-51.56433579 116.59909303 -58.54077118 96.09763224 -62 76 C-62.30550781 74.42025391 -62.30550781 74.42025391 -62.6171875 72.80859375 C-66.17389017 52.17484607 -65.93653079 28.02884789 -54 10 C-41.52494085 -5.98284534 -17.89498437 -6.44316693 0 0 Z " fill="#BB1041" transform="translate(159,702)"/>
<path d="M0 0 C1.0521167 0.28955566 1.0521167 0.28955566 2.12548828 0.58496094 C21.54624026 5.93302241 39.99265291 15.54022194 55 29 C55.85722656 29.75925781 56.71445312 30.51851563 57.59765625 31.30078125 C67.13240672 40.26249163 75.01118372 52.08177766 75.5 65.4375 C75.02499013 78.47728711 69.00408383 87.44661223 59.75 96.1875 C42.80463362 110.6182083 19.56629615 116.25792896 -2 119 C-2.64786972 119.08365814 -3.29573944 119.16731628 -3.96324158 119.25350952 C-9.41818596 119.91544148 -14.79276367 120.17395408 -20.28515625 120.203125 C-21.57419106 120.21167511 -21.57419106 120.21167511 -22.88926697 120.22039795 C-24.69854528 120.22978237 -26.50784018 120.23635558 -28.31713867 120.24023438 C-31.03140514 120.24988939 -33.74489645 120.28095517 -36.45898438 120.3125 C-47.36877696 120.37900566 -57.36232779 119.48154135 -68 117 C-68.91144775 116.80116211 -69.82289551 116.60232422 -70.76196289 116.39746094 C-82.07733857 113.85447246 -92.62954597 110.18380446 -103 105 C-104.06863281 104.46632813 -105.13726562 103.93265625 -106.23828125 103.3828125 C-119.19706943 96.35716599 -132.93457412 84.63578314 -137.578125 70.203125 C-139.3048221 61.18592905 -138.99238317 52.55499789 -134.03515625 44.69140625 C-115.93677866 20.75708349 -89.09916184 4.73101824 -60 -2 C-58.95070313 -2.24363281 -57.90140625 -2.48726563 -56.8203125 -2.73828125 C-38.25239222 -6.14162823 -18.05082454 -5.44978827 0 0 Z " fill="#BB1041" transform="translate(437,295)"/>
<path d="M0 0 C0.90753525 -0.00095673 1.8150705 -0.00191345 2.75010681 -0.00289917 C4.66372751 -0.00357642 6.57735057 -0.00175406 8.4909668 0.00244141 C11.36968365 0.00775225 14.24824135 0.00250349 17.12695312 -0.00390625 C30.99772568 -0.01042151 44.8121474 0.08090964 58.46484375 2.8203125 C59.77799561 3.07868896 59.77799561 3.07868896 61.11767578 3.34228516 C82.60605569 7.73807109 108.8874973 13.20902239 122.33984375 32.1328125 C124.09730461 37.40519508 124.17772875 41.07355908 122.09375 46.1953125 C118.15732303 53.90452745 113.3929222 59.99942787 107.33984375 66.1328125 C106.25123047 67.32970703 106.25123047 67.32970703 105.140625 68.55078125 C82.85762271 92.34706043 46.84844228 109.09292306 14.32421875 110.50390625 C-26.8888079 111.31831506 -63.25739275 94.89702855 -93.02734375 66.87109375 C-99.15587242 60.49706022 -105.86978196 52.97281031 -106.03515625 43.6953125 C-105.90597434 39.09795627 -104.67767511 36.69193731 -101.66015625 33.1328125 C-101.22058594 32.59140625 -100.78101563 32.05 -100.328125 31.4921875 C-81.63561891 10.4808642 -43.81451461 4.67337925 -17.66015625 1.1328125 C-16.43240479 0.95556641 -15.20465332 0.77832031 -13.93969727 0.59570312 C-9.28910914 0.02227203 -4.68076247 -0.01111787 0 0 Z " fill="#BB1041" transform="translate(395.66015625,892.8671875)"/>
<path d="M0 0 C7.19201563 6.86510583 9.91996027 15.06192653 11.75 24.625 C11.91846436 25.31408447 12.08692871 26.00316895 12.26049805 26.71313477 C14.44622011 36.5805259 14.10092491 46.63638592 14.0625 56.6875 C14.06067719 57.66787231 14.05885437 58.64824463 14.05697632 59.6583252 C13.9818973 83.62785155 11.13610073 106.25584608 5.75 129.625 C5.43995028 131.02861185 5.13003899 132.43225429 4.8203125 133.8359375 C-0.13850695 155.1193661 -6.67829904 181.97122749 -24.25 196.625 C-28.32528227 198.88045795 -32.67829932 199.56229895 -37.25 198.625 C-39.79923903 197.14661727 -41.64633466 195.22789626 -43.625 193.0625 C-44.45680786 192.18501099 -44.45680786 192.18501099 -45.30541992 191.28979492 C-58.64468809 176.80392875 -67.53497001 158.69012125 -72.25 139.625 C-72.54777344 138.47386719 -72.84554687 137.32273437 -73.15234375 136.13671875 C-80.28217821 103.44462063 -74.77389728 67.89209301 -56.92578125 39.5703125 C-52.88757578 33.45722798 -48.22069161 27.99217218 -43.25 22.625 C-42.14205078 21.41263672 -42.14205078 21.41263672 -41.01171875 20.17578125 C-35.01131128 13.89016245 -28.24683627 8.73464888 -21.25 3.625 C-20.50492188 3.05007813 -19.75984375 2.47515625 -18.9921875 1.8828125 C-12.96091972 -2.43918911 -6.83342082 -2.89106265 0 0 Z " fill="#BB1041" transform="translate(108.25,493.375)"/>
<path d="M0 0 C27.24674237 13.80457685 47.31413557 39.69946305 57.25 68.125 C67.99705277 102.34951997 64.48827186 139.65160634 48.11791992 171.52319336 C42.74796265 181.45793434 34.37259687 194.81370157 24 200 C19.27943464 200.67299303 15.82361012 200.39709774 11.5 198.3125 C-6.5640512 183.34275387 -13.07242575 153.78935626 -18 132 C-18.16741699 131.27232422 -18.33483398 130.54464844 -18.50732422 129.79492188 C-21.35922459 117.29476138 -23.43608555 104.72484327 -25 92 C-25.12487541 91.05074898 -25.12487541 91.05074898 -25.25227356 90.08232117 C-25.99559472 84.05899797 -26.19203837 78.10053834 -26.23828125 72.03515625 C-26.25038887 70.48688393 -26.25038887 70.48688393 -26.26274109 68.90733337 C-26.27650402 66.72982421 -26.2872606 64.55229417 -26.29516602 62.37475586 C-26.30663802 60.18263266 -26.32701308 57.99053632 -26.35668945 55.79858398 C-26.88199581 16.87602427 -26.88199581 16.87602427 -14.375 3.2265625 C-10.008371 -0.43251088 -5.49707358 -1.52289298 0 0 Z " fill="#BB1041" transform="translate(704,489)"/>
<path d="M0 0 C26.56907641 24.61982997 39.53556893 58.06824737 41.09375 93.96484375 C41.13496487 95.68468591 41.16659871 97.40479104 41.1875 99.125 C41.20151855 99.91664551 41.21553711 100.70829102 41.22998047 101.52392578 C41.2023567 104.75874007 41.01847089 107.16844192 39.5078125 110.05859375 C37.1909915 112.11383819 35.17433479 112.11402273 32.15625 111.93359375 C4.29433012 107.5221231 -22.35758992 81.2523999 -43.35839844 64.05517578 C-44.97482209 62.73606017 -46.60004521 61.42774325 -48.2265625 60.12109375 C-54.08617315 55.40132091 -59.66520132 50.4615922 -65.16796875 45.3359375 C-67.42524899 43.24212866 -69.72766012 41.20797496 -72.05078125 39.1875 C-124.12793152 -6.21751567 -124.12793152 -6.21751567 -127.0625 -25.5625 C-127.10375 -26.51125 -127.145 -27.46 -127.1875 -28.4375 C-97.29165575 -55.24826941 -24.30494241 -21.23878045 0 0 Z " fill="#BA1041" transform="translate(648.1875,347.4375)"/>
<path d="M0 0 C1.23979614 0.10501831 1.23979614 0.10501831 2.50463867 0.2121582 C6.71784687 0.65618971 9.6679881 1.16348294 12.75 4.1875 C12.3587656 24.92292315 -14.18103916 45.20136978 -28 59.0625 C-28.49550354 59.56068237 -28.99100708 60.05886475 -29.50152588 60.57214355 C-35.23801152 66.33212091 -41.06845177 71.90515119 -47.25 77.1875 C-48.85768373 78.64195517 -50.46239715 80.09970895 -52.0625 81.5625 C-57.31137226 86.29365345 -62.75562076 90.74626785 -68.25 95.1875 C-69.48120087 96.19832767 -70.71162618 97.21010049 -71.94140625 98.22265625 C-127.40355896 143.7926377 -127.40355896 143.7926377 -148.3125 144.625 C-149.611875 144.480625 -150.91125 144.33625 -152.25 144.1875 C-155.15086116 139.83620825 -154.59127348 135.93709886 -154.5625 130.8125 C-154.55758545 129.78825928 -154.5526709 128.76401855 -154.54760742 127.70874023 C-154.00156469 91.30869189 -140.59840502 59.0204002 -114.72485352 33.2980957 C-94.94031186 14.19244818 -69.04114987 4.32524426 -42.25 0.1875 C-41.17621094 0.001875 -40.10242188 -0.18375 -38.99609375 -0.375 C-26.18400584 -1.87130224 -12.81753961 -1.18130153 0 0 Z " fill="#BA1041" transform="translate(265.25,311.8125)"/>
<path d="M0 0 C-4.95 2.475 -4.95 2.475 -10 5 C-9.67 3.68 -9.34 2.36 -9 1 C-5.31975221 -1.08878929 -4.24507101 -1.06126775 0 0 Z " fill="#121A06" transform="translate(660,100)"/>
</svg>
