<?xml version="1.0" encoding="UTF-8"?>
<!DOCTYPE svg PUBLIC "-//W3C//DTD SVG 1.1//EN" "http://www.w3.org/Graphics/SVG/1.1/DTD/svg11.dtd">
<svg xmlns="http://www.w3.org/2000/svg" version="1.1" width="160px" height="160px" style="shape-rendering:geometricPrecision; text-rendering:geometricPrecision; image-rendering:optimizeQuality; fill-rule:evenodd; clip-rule:evenodd" xmlns:xlink="http://www.w3.org/1999/xlink">
<g><path style="opacity:0.097" fill="#070707" d="M 86.5,159.5 C 81.8333,159.5 77.1667,159.5 72.5,159.5C 72.631,158.761 72.4643,158.094 72,157.5C 69.9361,158.591 67.7695,158.758 65.5,158C 56.6977,155.621 48.0311,152.621 39.5,149C 9.51437,128.177 -1.6523,99.0104 6,61.5C 17.8498,25.7643 42.3498,7.76425 79.5,7.5C 88.738,6.93995 97.738,8.10661 106.5,11C 145.955,28.6791 161.455,59.5124 153,103.5C 151.443,110.175 149.11,116.508 146,122.5C 142.315,126.524 138.981,130.857 136,135.5C 130.154,140.237 124.654,144.737 119.5,149C 110.969,152.621 102.302,155.621 93.5,158C 91.2305,158.758 89.0639,158.591 87,157.5C 86.5357,158.094 86.369,158.761 86.5,159.5 Z"/></g>
<g><path style="opacity:0.978" fill="#ece9e9" d="M 93.5,147.5 C 86.2015,148.35 78.8681,148.683 71.5,148.5C 38.1404,142.975 17.9738,123.641 11,90.5C 6.93196,59.1437 18.0986,34.9771 44.5,18C 48.9531,16.2737 53.2864,14.2737 57.5,12C 88.3125,3.84258 114.146,11.6759 135,35.5C 149.447,57.2549 152.447,80.5882 144,105.5C 134.547,128.318 117.713,142.318 93.5,147.5 Z"/></g>
<g><path style="opacity:1" fill="#4d1113" d="M 127.5,36.5 C 122.199,34.3822 117.532,31.2156 113.5,27C 109.607,26.0536 105.941,24.5536 102.5,22.5C 98.5475,21.5062 94.5475,20.8396 90.5,20.5C 82.4929,19.205 74.4929,19.205 66.5,20.5C 63.9407,20.1984 61.6074,20.5318 59.5,21.5C 55.6404,22.6441 51.6404,23.3107 47.5,23.5C 49.428,21.5259 51.7613,20.0259 54.5,19C 82.8356,9.04337 107.169,14.8767 127.5,36.5 Z"/></g>
<g><path style="opacity:1" fill="#ba8585" d="M 90.5,20.5 C 93.318,22.0722 96.318,23.4055 99.5,24.5C 99.5,25.5 99.5,26.5 99.5,27.5C 85.8293,27.6666 72.1626,27.4999 58.5,27C 57.944,26.6174 57.6107,26.1174 57.5,25.5C 59.8197,22.5155 62.8197,20.8489 66.5,20.5C 74.4929,19.205 82.4929,19.205 90.5,20.5 Z"/></g>
<g><path style="opacity:1" fill="#5f0506" d="M 90.5,20.5 C 94.5475,20.8396 98.5475,21.5062 102.5,22.5C 105.941,24.5536 109.607,26.0536 113.5,27C 117.532,31.2156 122.199,34.3822 127.5,36.5C 131.99,40.3261 135.323,44.9927 137.5,50.5C 137.963,53.4824 138.296,56.4824 138.5,59.5C 135.445,53.7319 132.112,48.0653 128.5,42.5C 123.5,38.6667 118.5,34.8333 113.5,31C 110.745,29.0468 107.745,27.8801 104.5,27.5C 102.668,26.7515 101.001,25.7515 99.5,24.5C 96.318,23.4055 93.318,22.0722 90.5,20.5 Z"/></g>
<g><path style="opacity:1" fill="#b37878" d="M 99.5,24.5 C 101.001,25.7515 102.668,26.7515 104.5,27.5C 105.833,29.1667 107.167,30.8333 108.5,32.5C 99.8445,34.1983 90.8445,35.1983 81.5,35.5C 72.9344,34.2597 64.2678,34.2597 55.5,35.5C 53.1807,34.9361 50.8474,34.4361 48.5,34C 49.2524,33.3292 49.5858,32.4959 49.5,31.5C 51.4426,28.5293 54.1092,26.5293 57.5,25.5C 57.6107,26.1174 57.944,26.6174 58.5,27C 72.1626,27.4999 85.8293,27.6666 99.5,27.5C 99.5,26.5 99.5,25.5 99.5,24.5 Z"/></g>
<g><path style="opacity:1" fill="#710303" d="M 104.5,27.5 C 107.745,27.8801 110.745,29.0468 113.5,31C 118.5,34.8333 123.5,38.6667 128.5,42.5C 132.112,48.0653 135.445,53.7319 138.5,59.5C 140.957,62.082 142.623,65.082 143.5,68.5C 146.181,92.288 138.848,112.455 121.5,129C 118.778,131.358 115.778,133.191 112.5,134.5C 108.599,130.046 105.099,125.046 102,119.5C 99.2625,117.574 96.7625,115.574 94.5,113.5C 99.508,107.492 103.508,100.825 106.5,93.5C 104.473,90.8061 102.139,88.4728 99.5,86.5C 102.862,85.0998 106.029,85.4331 109,87.5C 108.837,92.4764 108.337,97.4764 107.5,102.5C 107.678,106.218 108.511,106.218 110,102.5C 112.797,96.0084 113.964,89.3417 113.5,82.5C 109.107,81.7769 104.774,80.7769 100.5,79.5C 103.919,77.4593 107.586,75.9593 111.5,75C 114.231,72.1034 115.231,68.6034 114.5,64.5C 115.88,65.7065 117.047,65.3731 118,63.5C 118.841,56.924 118.341,50.5907 116.5,44.5C 116.34,42.847 115.674,41.5137 114.5,40.5C 113.471,37.1092 111.471,34.4426 108.5,32.5C 107.167,30.8333 105.833,29.1667 104.5,27.5 Z"/></g>
<g><path style="opacity:1" fill="#700303" d="M 66.5,20.5 C 62.8197,20.8489 59.8197,22.5155 57.5,25.5C 54.1092,26.5293 51.4426,28.5293 49.5,31.5C 46.1848,34.1251 43.8514,37.4584 42.5,41.5C 41.0687,42.7804 40.4021,44.4471 40.5,46.5C 39.596,47.209 39.2627,48.209 39.5,49.5C 38.3483,54.9846 38.1816,60.6513 39,66.5C 39.3742,67.4162 39.8742,68.2496 40.5,69C 42.4727,69.4955 44.4727,69.6621 46.5,69.5C 46.2627,70.791 46.596,71.791 47.5,72.5C 51.0805,75.3155 55.0805,77.4821 59.5,79C 54.633,80.7335 49.633,81.9001 44.5,82.5C 43.3356,89.4763 43.1689,96.4763 44,103.5C 44.3333,103.833 44.6667,104.167 45,104.5C 45.9688,98.3425 47.4688,92.3425 49.5,86.5C 61.761,84.2525 62.4276,85.7525 51.5,91C 50.371,99.6302 52.5377,107.464 58,114.5C 56.219,108.343 55.5524,102.01 56,95.5C 58.7929,92.0076 62.2929,89.341 66.5,87.5C 67.568,89.1875 67.4014,90.8541 66,92.5C 64.6934,99.3682 65.8601,105.702 69.5,111.5C 60.8538,115.314 54.6871,121.647 51,130.5C 50.5065,132.134 50.3398,133.801 50.5,135.5C 49.5,135.5 48.5,135.5 47.5,135.5C 28.5378,124.326 17.7044,107.659 15,85.5C 14.2153,79.7507 14.3819,74.084 15.5,68.5C 16.1667,68.5 16.5,68.1667 16.5,67.5C 18.5894,63.4353 20.4227,59.1019 22,54.5C 28.2233,44.8967 35.7233,36.3967 44.5,29C 49.6802,26.6433 54.6802,24.1433 59.5,21.5C 61.6074,20.5318 63.9407,20.1984 66.5,20.5 Z"/></g>
<g><path style="opacity:1" fill="#540d0e" d="M 59.5,21.5 C 54.6802,24.1433 49.6802,26.6433 44.5,29C 35.7233,36.3967 28.2233,44.8967 22,54.5C 20.4227,59.1019 18.5894,63.4353 16.5,67.5C 16.9926,65.1944 17.3259,62.861 17.5,60.5C 22.4358,43.913 32.4358,31.5796 47.5,23.5C 51.6404,23.3107 55.6404,22.6441 59.5,21.5 Z"/></g>
<g><path style="opacity:1" fill="#a86464" d="M 49.5,31.5 C 49.5858,32.4959 49.2524,33.3292 48.5,34C 50.8474,34.4361 53.1807,34.9361 55.5,35.5C 64.2678,34.2597 72.9344,34.2597 81.5,35.5C 90.8445,35.1983 99.8445,34.1983 108.5,32.5C 111.471,34.4426 113.471,37.1092 114.5,40.5C 114.5,41.8333 114.5,43.1667 114.5,44.5C 90.3602,45.0109 66.3602,45.0109 42.5,44.5C 42.5,43.5 42.5,42.5 42.5,41.5C 43.8514,37.4584 46.1848,34.1251 49.5,31.5 Z"/></g>
<g><path style="opacity:1" fill="#9c4f4f" d="M 114.5,40.5 C 115.674,41.5137 116.34,42.847 116.5,44.5C 116.5,46.5 116.5,48.5 116.5,50.5C 111.849,50.3209 107.349,50.3209 103,50.5C 101.654,48.6583 99.8211,47.6583 97.5,47.5C 97.44,46.9569 97.1067,46.6236 96.5,46.5C 95.5713,47.6888 95.238,49.0222 95.5,50.5C 87.6484,50.8254 79.9818,50.492 72.5,49.5C 74.0948,47.6262 73.7615,46.7929 71.5,47C 68.6352,50.6919 65.6352,54.1919 62.5,57.5C 61.1529,56.8288 59.9862,56.8288 59,57.5C 58.5172,56.552 58.3505,55.552 58.5,54.5C 58.6495,53.448 58.4828,52.448 58,51.5C 57.2917,52.3805 56.4584,53.0472 55.5,53.5C 50.5,53.5 45.5,53.5 40.5,53.5C 40.5,51.1667 40.5,48.8333 40.5,46.5C 40.4021,44.4471 41.0687,42.7804 42.5,41.5C 42.5,42.5 42.5,43.5 42.5,44.5C 66.3602,45.0109 90.3602,45.0109 114.5,44.5C 114.5,43.1667 114.5,41.8333 114.5,40.5 Z"/></g>
<g><path style="opacity:1" fill="#903c3b" d="M 116.5,44.5 C 118.341,50.5907 118.841,56.924 118,63.5C 117.047,65.3731 115.88,65.7065 114.5,64.5C 114.553,59.9929 113.22,55.9929 110.5,52.5C 110.44,51.9569 110.107,51.6236 109.5,51.5C 109.131,56.9001 108.131,61.9001 106.5,66.5C 105.374,59.2485 102.374,52.9152 97.5,47.5C 99.8211,47.6583 101.654,48.6583 103,50.5C 107.349,50.3209 111.849,50.3209 116.5,50.5C 116.5,48.5 116.5,46.5 116.5,44.5 Z"/></g>
<g><path style="opacity:1" fill="#090101" d="M 72.5,49.5 C 69.6769,50.9923 68.0102,53.3257 67.5,56.5C 64.6573,59.1924 63.4906,62.5257 64,66.5C 66.5313,69.8881 69.698,72.2214 73.5,73.5C 73.8225,68.5109 76.4891,65.8442 81.5,65.5C 83.5122,65.8396 85.5122,66.1729 87.5,66.5C 87.1253,69.3965 87.6253,72.0632 89,74.5C 93.1745,71.8422 97.0078,68.8422 100.5,65.5C 101.732,59.467 100.399,53.8004 96.5,48.5C 96.6236,47.8933 96.9569,47.56 97.5,47.5C 102.374,52.9152 105.374,59.2485 106.5,66.5C 95.3737,74.6274 96.0404,75.9608 108.5,70.5C 109.167,64.3465 109.833,58.3465 110.5,52.5C 113.22,55.9929 114.553,59.9929 114.5,64.5C 115.231,68.6034 114.231,72.1034 111.5,75C 107.586,75.9593 103.919,77.4593 100.5,79.5C 104.774,80.7769 109.107,81.7769 113.5,82.5C 113.964,89.3417 112.797,96.0084 110,102.5C 108.511,106.218 107.678,106.218 107.5,102.5C 108.337,97.4764 108.837,92.4764 109,87.5C 106.029,85.4331 102.862,85.0998 99.5,86.5C 102.139,88.4728 104.473,90.8061 106.5,93.5C 103.508,100.825 99.508,107.492 94.5,113.5C 91.005,115.865 90.6717,115.198 93.5,111.5C 96.0289,106.574 98.3623,101.574 100.5,96.5C 98.1736,92.7284 95.0069,89.7284 91,87.5C 90.2953,94.5387 88.462,101.205 85.5,107.5C 83.3702,109.127 81.3702,110.96 79.5,113C 75.8513,113.963 72.518,113.463 69.5,111.5C 65.8601,105.702 64.6934,99.3682 66,92.5C 67.4014,90.8541 67.568,89.1875 66.5,87.5C 62.2929,89.341 58.7929,92.0076 56,95.5C 55.5524,102.01 56.219,108.343 58,114.5C 52.5377,107.464 50.371,99.6302 51.5,91C 62.4276,85.7525 61.761,84.2525 49.5,86.5C 47.4688,92.3425 45.9688,98.3425 45,104.5C 44.6667,104.167 44.3333,103.833 44,103.5C 43.1689,96.4763 43.3356,89.4763 44.5,82.5C 49.633,81.9001 54.633,80.7335 59.5,79C 55.0805,77.4821 51.0805,75.3155 47.5,72.5C 48.371,68.3144 49.7043,64.3144 51.5,60.5C 53.0828,58.3374 54.4161,56.0041 55.5,53.5C 56.4584,53.0472 57.2917,52.3805 58,51.5C 58.4828,52.448 58.6495,53.448 58.5,54.5C 56.3523,57.4026 54.8523,60.7359 54,64.5C 53.2419,66.7695 53.4086,68.9361 54.5,71C 56.9398,72.3034 59.4398,73.47 62,74.5C 62.5,74.1667 63,73.8333 63.5,73.5C 61.2962,71.1332 59.2962,68.6332 57.5,66C 58.5414,62.7433 60.2081,59.91 62.5,57.5C 65.6352,54.1919 68.6352,50.6919 71.5,47C 73.7615,46.7929 74.0948,47.6262 72.5,49.5 Z"/></g>
<g><path style="opacity:1" fill="#8f3d3d" d="M 97.5,47.5 C 96.9569,47.56 96.6236,47.8933 96.5,48.5C 100.399,53.8004 101.732,59.467 100.5,65.5C 101.124,61.9866 100.124,59.1533 97.5,57C 87.2956,56.5658 77.2956,56.3992 67.5,56.5C 68.0102,53.3257 69.6769,50.9923 72.5,49.5C 79.9818,50.492 87.6484,50.8254 95.5,50.5C 95.238,49.0222 95.5713,47.6888 96.5,46.5C 97.1067,46.6236 97.44,46.9569 97.5,47.5 Z"/></g>
<g><path style="opacity:1" fill="#8f3737" d="M 40.5,46.5 C 40.5,48.8333 40.5,51.1667 40.5,53.5C 45.5,53.5 50.5,53.5 55.5,53.5C 54.4161,56.0041 53.0828,58.3374 51.5,60.5C 47.8183,60.6653 44.1516,60.4986 40.5,60C 39.5442,56.6064 39.2108,53.1064 39.5,49.5C 39.2627,48.209 39.596,47.209 40.5,46.5 Z"/></g>
<g><path style="opacity:1" fill="#692f2c" d="M 137.5,50.5 C 139.684,54.0054 141.351,57.8387 142.5,62C 143.287,64.0989 143.62,66.2655 143.5,68.5C 142.623,65.082 140.957,62.082 138.5,59.5C 138.296,56.4824 137.963,53.4824 137.5,50.5 Z"/></g>
<g><path style="opacity:1" fill="#852928" d="M 67.5,56.5 C 77.2956,56.3992 87.2956,56.5658 97.5,57C 100.124,59.1533 101.124,61.9866 100.5,65.5C 97.0078,68.8422 93.1745,71.8422 89,74.5C 87.6253,72.0632 87.1253,69.3965 87.5,66.5C 85.5122,66.1729 83.5122,65.8396 81.5,65.5C 76.4891,65.8442 73.8225,68.5109 73.5,73.5C 69.698,72.2214 66.5313,69.8881 64,66.5C 63.4906,62.5257 64.6573,59.1924 67.5,56.5 Z"/></g>
<g><path style="opacity:1" fill="#802222" d="M 39.5,49.5 C 39.2108,53.1064 39.5442,56.6064 40.5,60C 44.1516,60.4986 47.8183,60.6653 51.5,60.5C 49.7043,64.3144 48.371,68.3144 47.5,72.5C 46.596,71.791 46.2627,70.791 46.5,69.5C 44.4727,69.6621 42.4727,69.4955 40.5,69C 39.8742,68.2496 39.3742,67.4162 39,66.5C 38.1816,60.6513 38.3483,54.9846 39.5,49.5 Z"/></g>
<g><path style="opacity:0.937" fill="#88605f" d="M 17.5,60.5 C 17.3259,62.861 16.9926,65.1944 16.5,67.5C 16.5,68.1667 16.1667,68.5 15.5,68.5C 15.2938,65.5049 15.9605,62.8383 17.5,60.5 Z"/></g>
<g><path style="opacity:1" fill="#6f1b1b" d="M 58.5,54.5 C 58.3505,55.552 58.5172,56.552 59,57.5C 59.9862,56.8288 61.1529,56.8288 62.5,57.5C 60.2081,59.91 58.5414,62.7433 57.5,66C 59.2962,68.6332 61.2962,71.1332 63.5,73.5C 63,73.8333 62.5,74.1667 62,74.5C 59.4398,73.47 56.9398,72.3034 54.5,71C 53.4086,68.9361 53.2419,66.7695 54,64.5C 54.8523,60.7359 56.3523,57.4026 58.5,54.5 Z"/></g>
<g><path style="opacity:1" fill="#681616" d="M 110.5,52.5 C 109.833,58.3465 109.167,64.3465 108.5,70.5C 96.0404,75.9608 95.3737,74.6274 106.5,66.5C 108.131,61.9001 109.131,56.9001 109.5,51.5C 110.107,51.6236 110.44,51.9569 110.5,52.5 Z"/></g>
<g><path style="opacity:1" fill="#6d0202" d="M 93.5,111.5 C 90.0058,111.468 87.3392,110.135 85.5,107.5C 88.462,101.205 90.2953,94.5387 91,87.5C 95.0069,89.7284 98.1736,92.7284 100.5,96.5C 98.3623,101.574 96.0289,106.574 93.5,111.5 Z"/></g>
<g><path style="opacity:1" fill="#832525" d="M 85.5,107.5 C 87.3392,110.135 90.0058,111.468 93.5,111.5C 90.6717,115.198 91.005,115.865 94.5,113.5C 96.7625,115.574 99.2625,117.574 102,119.5C 105.099,125.046 108.599,130.046 112.5,134.5C 110.819,136.008 108.819,137.008 106.5,137.5C 105.608,129.832 102.275,123.332 96.5,118C 91.219,116.202 85.5524,115.036 79.5,114.5C 77.1667,114.667 74.8333,114.833 72.5,115C 67.9757,117.094 63.6424,119.427 59.5,122C 55.1243,126.251 53.1243,131.417 53.5,137.5C 52.5,137.5 51.5,137.5 50.5,137.5C 49.2905,137.068 48.2905,136.401 47.5,135.5C 48.5,135.5 49.5,135.5 50.5,135.5C 50.3398,133.801 50.5065,132.134 51,130.5C 54.6871,121.647 60.8538,115.314 69.5,111.5C 72.518,113.463 75.8513,113.963 79.5,113C 81.3702,110.96 83.3702,109.127 85.5,107.5 Z"/></g>
<g><path style="opacity:1" fill="#9e5151" d="M 104.5,138.5 C 103.329,139.345 101.995,140.011 100.5,140.5C 99.1667,140.5 97.8333,140.5 96.5,140.5C 95.483,130.651 89.983,125.317 80,124.5C 69.6361,125.365 64.1361,131.031 63.5,141.5C 61.5648,140.85 59.5648,140.517 57.5,140.5C 54.904,139.945 52.5707,138.945 50.5,137.5C 51.5,137.5 52.5,137.5 53.5,137.5C 54.1499,137.804 54.8165,138.137 55.5,138.5C 62.4714,117.118 75.8048,111.952 95.5,123C 99.153,126.929 101.486,131.596 102.5,137C 102.836,138.03 103.503,138.53 104.5,138.5 Z"/></g>
<g><path style="opacity:1" fill="#8f3737" d="M 106.5,137.5 C 106.158,138.338 105.492,138.672 104.5,138.5C 103.503,138.53 102.836,138.03 102.5,137C 101.486,131.596 99.153,126.929 95.5,123C 75.8048,111.952 62.4714,117.118 55.5,138.5C 54.8165,138.137 54.1499,137.804 53.5,137.5C 53.1243,131.417 55.1243,126.251 59.5,122C 63.6424,119.427 67.9757,117.094 72.5,115C 74.8333,114.833 77.1667,114.667 79.5,114.5C 85.5524,115.036 91.219,116.202 96.5,118C 102.275,123.332 105.608,129.832 106.5,137.5 Z"/></g>
<g><path style="opacity:1" fill="#b07373" d="M 100.5,140.5 C 98.8984,142.074 96.8984,142.741 94.5,142.5C 92.5,142.5 90.5,142.5 88.5,142.5C 88.6633,140.143 88.4966,137.81 88,135.5C 81.8867,130.946 76.5534,131.613 72,137.5C 71.5065,139.134 71.3398,140.801 71.5,142.5C 68.7212,142.721 66.0545,142.388 63.5,141.5C 64.1361,131.031 69.6361,125.365 80,124.5C 89.983,125.317 95.483,130.651 96.5,140.5C 97.8333,140.5 99.1667,140.5 100.5,140.5 Z"/></g>
<g><path style="opacity:0.995" fill="#c49797" d="M 94.5,142.5 C 92.7078,143.309 90.7078,143.809 88.5,144C 81.5,144.667 74.5,144.667 67.5,144C 63.8909,143.299 60.5575,142.132 57.5,140.5C 59.5648,140.517 61.5648,140.85 63.5,141.5C 66.0545,142.388 68.7212,142.721 71.5,142.5C 71.3398,140.801 71.5065,139.134 72,137.5C 76.5534,131.613 81.8867,130.946 88,135.5C 88.4966,137.81 88.6633,140.143 88.5,142.5C 90.5,142.5 92.5,142.5 94.5,142.5 Z"/></g>
<g><path style="opacity:0.506" fill="#3d3d3d" d="M 93.5,147.5 C 92.7375,148.268 91.7375,148.768 90.5,149C 83.9863,149.82 77.6529,149.653 71.5,148.5C 78.8681,148.683 86.2015,148.35 93.5,147.5 Z"/></g>
</svg>
