<?xml version="1.0" encoding="UTF-8"?>
<!DOCTYPE svg PUBLIC "-//W3C//DTD SVG 1.1//EN" "http://www.w3.org/Graphics/SVG/1.1/DTD/svg11.dtd">
<svg xmlns="http://www.w3.org/2000/svg" version="1.1" width="161px" height="160px" style="shape-rendering:geometricPrecision; text-rendering:geometricPrecision; image-rendering:optimizeQuality; fill-rule:evenodd; clip-rule:evenodd" xmlns:xlink="http://www.w3.org/1999/xlink">
<g><path style="opacity:0.004" fill="#fefffe" d="M 143.5,-0.5 C 149.167,-0.5 154.833,-0.5 160.5,-0.5C 160.5,-0.166667 160.5,0.166667 160.5,0.5C 154.642,0.822197 148.975,0.488864 143.5,-0.5 Z"/></g>
<g><path style="opacity:0.935" fill="#7d7c7c" d="M 50.5,9.5 C 49.6733,12.1317 48.84,14.7983 48,17.5C 47.3379,25.3363 46.5045,33.003 45.5,40.5C 45.631,39.7611 45.4643,39.0944 45,38.5C 41.1709,43.4964 36.3376,47.163 30.5,49.5C 30.5,49.1667 30.5,48.8333 30.5,48.5C 32.9362,33.6151 39.2695,20.2818 49.5,8.5C 50.1067,8.62358 50.44,8.95691 50.5,9.5 Z"/></g>
<g><path style="opacity:0.929" fill="#4d4b4b" d="M 108.5,11.5 C 98.3062,17.3534 88.6395,24.0201 79.5,31.5C 74.3491,30.6733 69.0158,30.1733 63.5,30C 64.056,29.6174 64.3893,29.1174 64.5,28.5C 77.801,18.8517 92.4677,13.185 108.5,11.5 Z"/></g>
<g><path style="opacity:0.98" fill="#413f3f" d="M 136.5,37.5 C 135.167,37.8333 135.167,38.1667 136.5,38.5C 140.154,40.3311 143.487,42.6644 146.5,45.5C 145.667,45.8333 144.833,46.1667 144,46.5C 124.279,41.9873 104.779,42.654 85.5,48.5C 79.6739,46.6945 73.6739,46.3612 67.5,47.5C 72.827,41.1659 79.4937,36.8325 87.5,34.5C 88.1667,34.5 88.5,34.1667 88.5,33.5C 88.8333,33.5 89.1667,33.5 89.5,33.5C 105.821,31.5125 121.488,32.8458 136.5,37.5 Z"/></g>
<g><path style="opacity:0.32" fill="#0c0c0c" d="M 52.5,38.5 C 51.6618,38.8417 51.3284,39.5084 51.5,40.5C 48.7046,44.7586 47.038,49.4253 46.5,54.5C 46.185,58.3714 46.5184,62.0381 47.5,65.5C 49.8282,77.997 57.1615,85.1637 69.5,87C 62.4184,83.353 58.4184,77.5197 57.5,69.5C 56.9485,63.2001 57.9485,57.2001 60.5,51.5C 66.1305,44.2018 72.4639,37.5352 79.5,31.5C 88.6395,24.0201 98.3062,17.3534 108.5,11.5C 109.5,11.5 110.5,11.5 111.5,11.5C 112.608,13.6951 112.441,15.6951 111,17.5C 103.498,22.4887 96.3311,27.822 89.5,33.5C 89.1667,33.5 88.8333,33.5 88.5,33.5C 87.8333,33.5 87.5,33.8333 87.5,34.5C 79.4937,36.8325 72.827,41.1659 67.5,47.5C 61.1462,54.5354 59.1462,62.5354 61.5,71.5C 62.1335,74.6433 63.8002,77.1433 66.5,79C 67.4835,79.5908 68.1501,79.2575 68.5,78C 68.0109,76.8615 67.6775,75.6948 67.5,74.5C 66.0485,67.129 68.0485,60.9624 73.5,56C 77.4289,53.2119 81.4289,50.7119 85.5,48.5C 104.779,42.654 124.279,41.9873 144,46.5C 144.833,46.1667 145.667,45.8333 146.5,45.5C 143.487,42.6644 140.154,40.3311 136.5,38.5C 136.5,38.1667 136.5,37.8333 136.5,37.5C 143.139,39.3178 148.139,43.1512 151.5,49C 150.899,50.605 149.899,51.9384 148.5,53C 139.396,52.0511 130.229,51.2178 121,50.5C 118.639,50.5039 116.473,50.8373 114.5,51.5C 114.167,51.5 113.833,51.5 113.5,51.5C 101.089,48.2132 89.4222,50.0466 78.5,57C 71.3908,61.7465 69.7241,67.9131 73.5,75.5C 76.4538,68.2107 81.7872,63.8773 89.5,62.5C 95.5362,62.3599 101.536,62.6932 107.5,63.5C 110.5,64.8333 113.5,66.1667 116.5,67.5C 114.517,67.1568 113.183,67.8235 112.5,69.5C 111.167,68.8333 109.833,68.1667 108.5,67.5C 102.325,65.5824 95.9912,65.0824 89.5,66C 86.4605,67.0314 83.9605,68.8647 82,71.5C 81.4946,74.5139 82.3279,75.0139 84.5,73C 88.5,72.3333 92.5,72.3333 96.5,73C 99.0711,74.4538 101.738,75.6205 104.5,76.5C 108.67,80.0066 111.67,84.3399 113.5,89.5C 114.745,94.4768 115.745,99.4768 116.5,104.5C 115.842,105.398 115.176,106.398 114.5,107.5C 113.583,106.873 112.583,106.539 111.5,106.5C 111.666,102.486 111.499,98.4862 111,94.5C 110.768,93.2625 110.268,92.2625 109.5,91.5C 107.002,83.673 101.669,79.0064 93.5,77.5C 91.8295,77.6682 90.4961,78.3349 89.5,79.5C 87.8014,79.6204 86.1347,79.9537 84.5,80.5C 82.399,80.3684 80.899,79.3684 80,77.5C 78.9996,80.6399 76.8329,81.9732 73.5,81.5C 73.7733,83.451 73.1066,84.951 71.5,86C 73.6348,87.5557 73.9681,89.3891 72.5,91.5C 60.3392,91.7567 51.6725,86.4234 46.5,75.5C 42.8904,63.9511 42.557,52.2844 45.5,40.5C 46.5045,33.003 47.3379,25.3363 48,17.5C 48.84,14.7983 49.6733,12.1317 50.5,9.5C 51.8804,8.29354 53.0471,8.62688 54,10.5C 54.1667,11.8333 54.3333,13.1667 54.5,14.5C 53.5487,22.2007 52.882,30.2007 52.5,38.5 Z"/></g>
<g><path style="opacity:0.97" fill="#676565" d="M 64.5,28.5 C 64.3893,29.1174 64.056,29.6174 63.5,30C 69.0158,30.1733 74.3491,30.6733 79.5,31.5C 72.4639,37.5352 66.1305,44.2018 60.5,51.5C 59.6661,50.2521 58.3328,49.5854 56.5,49.5C 53.7737,49.6816 51.1071,50.1816 48.5,51C 47.9152,52.3024 47.2485,53.469 46.5,54.5C 47.038,49.4253 48.7046,44.7586 51.5,40.5C 52.3382,40.1583 52.6716,39.4916 52.5,38.5C 56.2272,34.7668 60.2272,31.4335 64.5,28.5 Z"/></g>
<g><path style="opacity:0.21" fill="#101010" d="M 30.5,48.5 C 30.5,48.8333 30.5,49.1667 30.5,49.5C 28.661,58.7231 29.4943,67.7231 33,76.5C 33.3768,77.9423 34.2101,78.9423 35.5,79.5C 43.3964,91.1133 54.3964,96.28 68.5,95C 71.1525,94.647 73.1525,93.4803 74.5,91.5C 76.3797,91.2291 77.713,91.8958 78.5,93.5C 72.2455,98.1135 65.2455,99.6135 57.5,98C 52.7102,96.4369 48.0436,94.6036 43.5,92.5C 41.1918,90.5293 38.8585,88.5293 36.5,86.5C 33.5657,82.938 30.899,79.2714 28.5,75.5C 25.5541,72.6869 22.2208,70.3535 18.5,68.5C 14.2079,65.5434 10.2079,62.2101 6.5,58.5C 6.43456,58.0618 6.60123,57.7284 7,57.5C 13.364,62.0295 19.864,66.3628 26.5,70.5C 27.2909,64.1769 27.9576,57.8436 28.5,51.5C 28.6399,49.9704 29.3065,48.9704 30.5,48.5 Z"/></g>
<g><path style="opacity:1" fill="#e9e9e9" d="M 113.5,51.5 C 113.586,52.4959 113.252,53.3292 112.5,54C 108.89,55.944 105.557,58.2774 102.5,61C 97.9805,61.1753 93.6472,61.6753 89.5,62.5C 81.7872,63.8773 76.4538,68.2107 73.5,75.5C 69.7241,67.9131 71.3908,61.7465 78.5,57C 89.4222,50.0466 101.089,48.2132 113.5,51.5 Z"/></g>
<g><path style="opacity:0.139" fill="#060606" d="M 115.5,51.5 C 121.866,52.3482 127.533,54.8482 132.5,59C 143.613,69.9277 152.946,82.0943 160.5,95.5C 160.5,97.8333 160.5,100.167 160.5,102.5C 158.119,103.83 155.786,103.664 153.5,102C 147.295,95.9636 140.628,90.4636 133.5,85.5C 133.167,86 132.833,86.5 132.5,87C 138.718,105.517 137.384,123.517 128.5,141C 126.215,142.954 124.048,142.787 122,140.5C 120.645,131.037 118.645,121.704 116,112.5C 111.656,125.356 103.822,135.522 92.5,143C 86.3246,146.588 79.9913,149.922 73.5,153C 71.1667,153.667 68.8333,153.667 66.5,153C 65.1991,151.384 65.1991,149.884 66.5,148.5C 75.8283,144.507 84.495,139.507 92.5,133.5C 95.1667,131.5 97.5,129.167 99.5,126.5C 102.55,124.451 104.883,121.784 106.5,118.5C 107.84,115.471 109.173,112.471 110.5,109.5C 110.557,108.391 110.89,107.391 111.5,106.5C 112.583,106.539 113.583,106.873 114.5,107.5C 115.176,106.398 115.842,105.398 116.5,104.5C 116.989,105.995 117.655,107.329 118.5,108.5C 118.873,111.574 119.539,114.574 120.5,117.5C 121.772,123.46 122.938,129.46 124,135.5C 129.871,122.939 132.038,109.939 130.5,96.5C 130.768,94.901 130.434,93.5676 129.5,92.5C 128.314,85.79 125.314,80.1233 120.5,75.5C 118.116,73.1153 115.45,71.1153 112.5,69.5C 113.183,67.8235 114.517,67.1568 116.5,67.5C 118.954,68.2271 121.287,69.2271 123.5,70.5C 126.601,73.9331 130.268,76.5998 134.5,78.5C 141.77,84.5963 148.937,90.9296 156,97.5C 151.941,88.5801 146.774,80.2468 140.5,72.5C 137.542,67.8744 133.876,63.8744 129.5,60.5C 127.469,58.4776 125.135,56.8109 122.5,55.5C 120.297,53.8998 117.964,52.5665 115.5,51.5 Z"/></g>
<g><path style="opacity:0.988" fill="#7e7c7c" d="M 60.5,51.5 C 57.9485,57.2001 56.9485,63.2001 57.5,69.5C 56.5269,67.0521 56.1936,64.3854 56.5,61.5C 53.5,61.5 50.5,61.5 47.5,61.5C 47.5,62.8333 47.5,64.1667 47.5,65.5C 46.5184,62.0381 46.185,58.3714 46.5,54.5C 47.2485,53.469 47.9152,52.3024 48.5,51C 51.1071,50.1816 53.7737,49.6816 56.5,49.5C 58.3328,49.5854 59.6661,50.2521 60.5,51.5 Z"/></g>
<g><path style="opacity:0.997" fill="#696868" d="M 85.5,48.5 C 81.4289,50.7119 77.4289,53.2119 73.5,56C 68.0485,60.9624 66.0485,67.129 67.5,74.5C 66.5233,71.7131 66.19,68.7131 66.5,65.5C 65.0695,65.5792 63.7362,65.2458 62.5,64.5C 61.5258,66.7427 61.1924,69.076 61.5,71.5C 59.1462,62.5354 61.1462,54.5354 67.5,47.5C 73.6739,46.3612 79.6739,46.6945 85.5,48.5 Z"/></g>
<g><path style="opacity:1" fill="#c6c5c5" d="M 113.5,51.5 C 113.833,51.5 114.167,51.5 114.5,51.5C 114.833,51.5 115.167,51.5 115.5,51.5C 117.964,52.5665 120.297,53.8998 122.5,55.5C 122.586,56.4959 122.252,57.3292 121.5,58C 118.476,59.5134 115.809,61.5134 113.5,64C 111.575,63.8651 109.575,63.6984 107.5,63.5C 101.536,62.6932 95.5362,62.3599 89.5,62.5C 93.6472,61.6753 97.9805,61.1753 102.5,61C 105.557,58.2774 108.89,55.944 112.5,54C 113.252,53.3292 113.586,52.4959 113.5,51.5 Z"/></g>
<g><path style="opacity:0.999" fill="#939292" d="M 45.5,40.5 C 42.557,52.2844 42.8904,63.9511 46.5,75.5C 45.0337,74.653 44.2004,73.3197 44,71.5C 41.8333,73 39.6667,74.5 37.5,76C 36.1772,76.8159 35.5106,77.9826 35.5,79.5C 34.2101,78.9423 33.3768,77.9423 33,76.5C 29.4943,67.7231 28.661,58.7231 30.5,49.5C 36.3376,47.163 41.1709,43.4964 45,38.5C 45.4643,39.0944 45.631,39.7611 45.5,40.5 Z"/></g>
<g><path style="opacity:0.119" fill="#0c0c0c" d="M 3.5,60.5 C 5.18052,63.9072 6.84719,67.2406 8.5,70.5C 9.65893,74.1513 11.3256,77.4846 13.5,80.5C 14.8109,83.1354 16.4776,85.4687 18.5,87.5C 20.4528,91.1203 23.1195,94.1203 26.5,96.5C 37.603,106.583 50.603,110.083 65.5,107C 72.0395,105.45 77.2062,101.95 81,96.5C 81.765,94.9343 81.5983,93.6009 80.5,92.5C 80.56,91.9569 80.8933,91.6236 81.5,91.5C 83.6263,92.3701 85.6263,93.3701 87.5,94.5C 87.5,95.1667 87.1667,95.5 86.5,95.5C 85.1667,95.8333 85.1667,96.1667 86.5,96.5C 85.3995,97.6049 84.7329,98.9382 84.5,100.5C 80.9934,104.67 76.6601,107.67 71.5,109.5C 67.8641,110.326 64.1974,110.992 60.5,111.5C 52.4356,111.486 44.4356,110.819 36.5,109.5C 27.7146,105.558 20.5479,99.5575 15,91.5C 8.93437,83.0337 4.76771,73.7004 2.5,63.5C 2.51954,62.2739 2.85287,61.2739 3.5,60.5 Z"/></g>
<g><path style="opacity:1" fill="#a7a6a6" d="M 122.5,55.5 C 125.135,56.8109 127.469,58.4776 129.5,60.5C 129.624,62.5816 130.624,64.0816 132.5,65C 130.066,67.8782 127.066,69.7115 123.5,70.5C 121.287,69.2271 118.954,68.2271 116.5,67.5C 113.5,66.1667 110.5,64.8333 107.5,63.5C 109.575,63.6984 111.575,63.8651 113.5,64C 115.809,61.5134 118.476,59.5134 121.5,58C 122.252,57.3292 122.586,56.4959 122.5,55.5 Z"/></g>
<g><path style="opacity:0.997" fill="#6d6b6b" d="M 6.5,58.5 C 10.2079,62.2101 14.2079,65.5434 18.5,68.5C 16.9397,68.4809 15.4397,68.1476 14,67.5C 11.5521,67.6995 9.7188,68.6995 8.5,70.5C 6.84719,67.2406 5.18052,63.9072 3.5,60.5C 3.40171,57.7524 4.40171,57.0857 6.5,58.5 Z"/></g>
<g><path style="opacity:0.999" fill="#cdcdcd" d="M 108.5,67.5 C 108.721,68.7348 109.388,69.7348 110.5,70.5C 108.764,72.9029 106.764,74.9029 104.5,76.5C 101.738,75.6205 99.0711,74.4538 96.5,73C 92.5,72.3333 88.5,72.3333 84.5,73C 82.3279,75.0139 81.4946,74.5139 82,71.5C 83.9605,68.8647 86.4605,67.0314 89.5,66C 95.9912,65.0824 102.325,65.5824 108.5,67.5 Z"/></g>
<g><path style="opacity:0.999" fill="#838181" d="M 129.5,60.5 C 133.876,63.8744 137.542,67.8744 140.5,72.5C 140.414,73.4959 140.748,74.3292 141.5,75C 139.473,76.8793 137.14,78.046 134.5,78.5C 130.268,76.5998 126.601,73.9331 123.5,70.5C 127.066,69.7115 130.066,67.8782 132.5,65C 130.624,64.0816 129.624,62.5816 129.5,60.5 Z"/></g>
<g><path style="opacity:1" fill="#a09f9f" d="M 67.5,74.5 C 67.6775,75.6948 68.0109,76.8615 68.5,78C 68.1501,79.2575 67.4835,79.5908 66.5,79C 63.8002,77.1433 62.1335,74.6433 61.5,71.5C 61.1924,69.076 61.5258,66.7427 62.5,64.5C 63.7362,65.2458 65.0695,65.5792 66.5,65.5C 66.19,68.7131 66.5233,71.7131 67.5,74.5 Z"/></g>
<g><path style="opacity:1" fill="#898787" d="M 18.5,68.5 C 22.2208,70.3535 25.5541,72.6869 28.5,75.5C 23.4632,75.9075 18.4632,76.5742 13.5,77.5C 13.5,78.5 13.5,79.5 13.5,80.5C 11.3256,77.4846 9.65893,74.1513 8.5,70.5C 9.7188,68.6995 11.5521,67.6995 14,67.5C 15.4397,68.1476 16.9397,68.4809 18.5,68.5 Z"/></g>
<g><path style="opacity:1" fill="#acabab" d="M 108.5,67.5 C 109.833,68.1667 111.167,68.8333 112.5,69.5C 115.45,71.1153 118.116,73.1153 120.5,75.5C 120.328,77.4918 120.995,79.1585 122.5,80.5C 120.457,84.5432 117.457,87.5432 113.5,89.5C 111.67,84.3399 108.67,80.0066 104.5,76.5C 106.764,74.9029 108.764,72.9029 110.5,70.5C 109.388,69.7348 108.721,68.7348 108.5,67.5 Z"/></g>
<g><path style="opacity:0.995" fill="#575555" d="M 140.5,72.5 C 146.774,80.2468 151.941,88.5801 156,97.5C 148.937,90.9296 141.77,84.5963 134.5,78.5C 137.14,78.046 139.473,76.8793 141.5,75C 140.748,74.3292 140.414,73.4959 140.5,72.5 Z"/></g>
<g><path style="opacity:1" fill="#959494" d="M 57.5,69.5 C 58.4184,77.5197 62.4184,83.353 69.5,87C 57.1615,85.1637 49.8282,77.997 47.5,65.5C 47.5,64.1667 47.5,62.8333 47.5,61.5C 50.5,61.5 53.5,61.5 56.5,61.5C 56.1936,64.3854 56.5269,67.0521 57.5,69.5 Z"/></g>
<g><path style="opacity:0.999" fill="#a1a0a0" d="M 28.5,75.5 C 30.899,79.2714 33.5657,82.938 36.5,86.5C 34.6064,85.9524 32.9397,84.9524 31.5,83.5C 26.8898,84.343 22.5565,85.6763 18.5,87.5C 16.4776,85.4687 14.8109,83.1354 13.5,80.5C 13.5,79.5 13.5,78.5 13.5,77.5C 18.4632,76.5742 23.4632,75.9075 28.5,75.5 Z"/></g>
<g><path style="opacity:1" fill="#a7a6a6" d="M 46.5,75.5 C 51.6725,86.4234 60.3392,91.7567 72.5,91.5C 73.1667,91.5 73.8333,91.5 74.5,91.5C 73.1525,93.4803 71.1525,94.647 68.5,95C 54.3964,96.28 43.3964,91.1133 35.5,79.5C 35.5106,77.9826 36.1772,76.8159 37.5,76C 39.6667,74.5 41.8333,73 44,71.5C 44.2004,73.3197 45.0337,74.653 46.5,75.5 Z"/></g>
<g><path style="opacity:1" fill="#cacaca" d="M 109.5,91.5 C 109.851,93.8695 110.018,96.2028 110,98.5C 107.07,96.7449 103.903,95.5783 100.5,95C 99.9152,93.6976 99.2485,92.531 98.5,91.5C 98.0209,85.6942 95.0209,82.0275 89.5,80.5C 89.5,80.1667 89.5,79.8333 89.5,79.5C 90.4961,78.3349 91.8295,77.6682 93.5,77.5C 101.669,79.0064 107.002,83.673 109.5,91.5 Z"/></g>
<g><path style="opacity:1" fill="#b9b8b8" d="M 36.5,86.5 C 38.8585,88.5293 41.1918,90.5293 43.5,92.5C 42.4168,92.4606 41.4168,92.1272 40.5,91.5C 36.5711,92.7528 32.5711,93.7528 28.5,94.5C 27.2867,94.7472 26.62,95.4138 26.5,96.5C 23.1195,94.1203 20.4528,91.1203 18.5,87.5C 22.5565,85.6763 26.8898,84.343 31.5,83.5C 32.9397,84.9524 34.6064,85.9524 36.5,86.5 Z"/></g>
<g><path style="opacity:1" fill="#848383" d="M 120.5,75.5 C 125.314,80.1233 128.314,85.79 129.5,92.5C 129.662,94.5273 129.495,96.5273 129,98.5C 125.694,102.194 122.194,105.527 118.5,108.5C 117.655,107.329 116.989,105.995 116.5,104.5C 115.745,99.4768 114.745,94.4768 113.5,89.5C 117.457,87.5432 120.457,84.5432 122.5,80.5C 120.995,79.1585 120.328,77.4918 120.5,75.5 Z"/></g>
<g><path style="opacity:0.874" fill="#bcbcbc" d="M 91.5,89.5 C 92.6737,90.5137 93.3404,91.847 93.5,93.5C 93.5,96.1667 93.5,98.8333 93.5,101.5C 90.2869,101.81 87.2869,101.477 84.5,100.5C 84.7329,98.9382 85.3995,97.6049 86.5,96.5C 86.5,96.1667 86.5,95.8333 86.5,95.5C 87.1667,95.5 87.5,95.1667 87.5,94.5C 87.3573,92.7376 87.6906,91.0709 88.5,89.5C 89.4246,88.4376 90.4246,88.4376 91.5,89.5 Z"/></g>
<g><path style="opacity:1" fill="#dddddd" d="M 43.5,92.5 C 48.0436,94.6036 52.7102,96.4369 57.5,98C 65.2455,99.6135 72.2455,98.1135 78.5,93.5C 79.1667,93.1667 79.8333,92.8333 80.5,92.5C 81.5983,93.6009 81.765,94.9343 81,96.5C 77.2062,101.95 72.0395,105.45 65.5,107C 50.603,110.083 37.603,106.583 26.5,96.5C 26.62,95.4138 27.2867,94.7472 28.5,94.5C 32.5711,93.7528 36.5711,92.7528 40.5,91.5C 41.4168,92.1272 42.4168,92.4606 43.5,92.5 Z"/></g>
<g><path style="opacity:0.997" fill="#6c6a6a" d="M 129.5,92.5 C 130.434,93.5676 130.768,94.901 130.5,96.5C 130.666,100.846 130.499,105.179 130,109.5C 126.962,112.203 124.295,115.203 122,118.5C 121.617,117.944 121.117,117.611 120.5,117.5C 119.539,114.574 118.873,111.574 118.5,108.5C 122.194,105.527 125.694,102.194 129,98.5C 129.495,96.5273 129.662,94.5273 129.5,92.5 Z"/></g>
<g><path style="opacity:0.988" fill="#a9a9a9" d="M 98.5,91.5 C 99.2485,92.531 99.9152,93.6976 100.5,95C 103.903,95.5783 107.07,96.7449 110,98.5C 110.018,96.2028 109.851,93.8695 109.5,91.5C 110.268,92.2625 110.768,93.2625 111,94.5C 111.499,98.4862 111.666,102.486 111.5,106.5C 110.89,107.391 110.557,108.391 110.5,109.5C 109.883,109.611 109.383,109.944 109,110.5C 105.785,108.539 102.285,107.373 98.5,107C 97.6634,105.989 97.33,104.822 97.5,103.5C 98.0209,99.5191 98.3542,95.5191 98.5,91.5 Z"/></g>
<g><path style="opacity:1" fill="#787676" d="M 93.5,93.5 C 95.1271,101.947 92.4605,108.947 85.5,114.5C 81.3951,114.766 77.3951,114.266 73.5,113C 72.0267,112.29 71.3601,111.124 71.5,109.5C 76.6601,107.67 80.9934,104.67 84.5,100.5C 87.2869,101.477 90.2869,101.81 93.5,101.5C 93.5,98.8333 93.5,96.1667 93.5,93.5 Z"/></g>
<g><path style="opacity:0.955" fill="#403e3e" d="M 36.5,109.5 C 44.4356,110.819 52.4356,111.486 60.5,111.5C 57.7131,112.477 54.7131,112.81 51.5,112.5C 53.3633,120.355 58.3633,124.022 66.5,123.5C 65.0484,124.302 63.3817,124.802 61.5,125C 44.1521,125.441 27.1521,123.275 10.5,118.5C 10.7911,117.351 11.6244,116.684 13,116.5C 21.2674,115.241 29.1007,112.907 36.5,109.5 Z"/></g>
<g><path style="opacity:0.999" fill="#5b5a5a" d="M 71.5,109.5 C 71.3601,111.124 72.0267,112.29 73.5,113C 77.3951,114.266 81.3951,114.766 85.5,114.5C 80.2816,119.587 73.9482,122.587 66.5,123.5C 58.3633,124.022 53.3633,120.355 51.5,112.5C 54.7131,112.81 57.7131,112.477 60.5,111.5C 64.1974,110.992 67.8641,110.326 71.5,109.5 Z"/></g>
<g><path style="opacity:1" fill="#929090" d="M 97.5,103.5 C 97.33,104.822 97.6634,105.989 98.5,107C 102.285,107.373 105.785,108.539 109,110.5C 109.383,109.944 109.883,109.611 110.5,109.5C 109.173,112.471 107.84,115.471 106.5,118.5C 102.518,117.508 98.5182,116.508 94.5,115.5C 93.2867,115.253 92.62,114.586 92.5,113.5C 94.1993,110.101 95.866,106.768 97.5,103.5 Z"/></g>
<g><path style="opacity:0.999" fill="#565454" d="M 130.5,96.5 C 132.038,109.939 129.871,122.939 124,135.5C 122.938,129.46 121.772,123.46 120.5,117.5C 121.117,117.611 121.617,117.944 122,118.5C 124.295,115.203 126.962,112.203 130,109.5C 130.499,105.179 130.666,100.846 130.5,96.5 Z"/></g>
<g><path style="opacity:0.268" fill="#070707" d="M 89.5,80.5 C 95.0209,82.0275 98.0209,85.6942 98.5,91.5C 98.3542,95.5191 98.0209,99.5191 97.5,103.5C 95.866,106.768 94.1993,110.101 92.5,113.5C 90.1956,116.141 87.8623,118.808 85.5,121.5C 84.5116,122.795 83.5116,124.128 82.5,125.5C 81.8333,125.5 81.5,125.833 81.5,126.5C 80.8333,126.5 80.5,126.833 80.5,127.5C 56.6045,133.759 33.1045,132.426 10,123.5C 9.22039,121.613 9.38705,119.946 10.5,118.5C 27.1521,123.275 44.1521,125.441 61.5,125C 63.3817,124.802 65.0484,124.302 66.5,123.5C 73.9482,122.587 80.2816,119.587 85.5,114.5C 92.4605,108.947 95.1271,101.947 93.5,93.5C 93.3404,91.847 92.6737,90.5137 91.5,89.5C 91.6107,88.8826 91.944,88.3826 92.5,88C 88.7068,86.4471 87.7068,83.9471 89.5,80.5 Z"/></g>
<g><path style="opacity:0.993" fill="#787676" d="M 92.5,113.5 C 92.62,114.586 93.2867,115.253 94.5,115.5C 98.5182,116.508 102.518,117.508 106.5,118.5C 104.883,121.784 102.55,124.451 99.5,126.5C 95.1421,125.494 90.8088,124.327 86.5,123C 85.944,122.617 85.6107,122.117 85.5,121.5C 87.8623,118.808 90.1956,116.141 92.5,113.5 Z"/></g>
<g><path style="opacity:0.999" fill="#646363" d="M 85.5,121.5 C 85.6107,122.117 85.944,122.617 86.5,123C 90.8088,124.327 95.1421,125.494 99.5,126.5C 97.5,129.167 95.1667,131.5 92.5,133.5C 87.8303,133.489 83.4969,132.489 79.5,130.5C 80.1098,129.609 80.4431,128.609 80.5,127.5C 81.1667,127.5 81.5,127.167 81.5,126.5C 82.1667,126.5 82.5,126.167 82.5,125.5C 83.5116,124.128 84.5116,122.795 85.5,121.5 Z"/></g>
<g><path style="opacity:0.913" fill="#424141" d="M 79.5,130.5 C 83.4969,132.489 87.8303,133.489 92.5,133.5C 84.495,139.507 75.8283,144.507 66.5,148.5C 70.8405,142.495 75.1738,136.495 79.5,130.5 Z"/></g>
</svg>
