<?xml version="1.0" encoding="UTF-8"?>
<!DOCTYPE svg PUBLIC "-//W3C//DTD SVG 1.1//EN" "http://www.w3.org/Graphics/SVG/1.1/DTD/svg11.dtd">
<svg xmlns="http://www.w3.org/2000/svg" version="1.1" width="160px" height="160px" style="shape-rendering:geometricPrecision; text-rendering:geometricPrecision; image-rendering:optimizeQuality; fill-rule:evenodd; clip-rule:evenodd" xmlns:xlink="http://www.w3.org/1999/xlink">
<g><path style="opacity:1" fill="#f1f0ec" d="M -0.5,-0.5 C 52.8333,-0.5 106.167,-0.5 159.5,-0.5C 159.5,52.8333 159.5,106.167 159.5,159.5C 106.167,159.5 52.8333,159.5 -0.5,159.5C -0.5,106.167 -0.5,52.8333 -0.5,-0.5 Z"/></g>
<g><path style="opacity:1" fill="#3f3f40" d="M 78.5,59.5 C 77.5806,62.0892 75.914,64.0892 73.5,65.5C 73.4142,64.5041 73.7476,63.6708 74.5,63C 66.122,57.1139 57.7886,57.1139 49.5,63C 51.9741,65.4277 51.4741,65.9277 48,64.5C 47.0853,65.3279 46.4186,66.3279 46,67.5C 45.2825,66.5494 44.4491,66.3828 43.5,67C 40.6378,72.8317 39.8045,78.9983 41,85.5C 41.972,87.3049 43.1387,88.9716 44.5,90.5C 45.7264,91.3629 47.0597,91.3629 48.5,90.5C 47.0892,92.914 45.0892,94.5806 42.5,95.5C 41.1964,94.0131 40.0298,92.3464 39,90.5C 38.8138,93.0356 38.3138,95.369 37.5,97.5C 37.3396,94.1165 37.673,90.7831 38.5,87.5C 38.5613,85.279 37.8946,84.9456 36.5,86.5C 36.5,82.1667 36.5,77.8333 36.5,73.5C 38.5195,72.4617 38.8528,71.1284 37.5,69.5C 37.5,67.1667 37.5,64.8333 37.5,62.5C 38.3091,64.2922 38.8091,66.2922 39,68.5C 45.6428,56.2656 55.8095,51.7656 69.5,55C 72.5266,56.5133 75.5266,58.0133 78.5,59.5 Z"/></g>
<g><path style="opacity:1" fill="#0b122d" d="M 37.5,62.5 C 37.5,64.8333 37.5,67.1667 37.5,69.5C 28.5337,69.4816 19.5337,68.6483 10.5,67C 11,66.5 11.5,66 12,65.5C 13.7261,66.5762 15.5594,66.7429 17.5,66C 16.376,65.7508 15.376,65.2508 14.5,64.5C 16.8493,63.4571 18.8493,62.1238 20.5,60.5C 26.494,58.9803 32.1607,59.647 37.5,62.5 Z"/></g>
<g><path style="opacity:1" fill="#09102b" d="M 138.5,60.5 C 144.768,60.794 149.101,63.794 151.5,69.5C 147.798,69.4613 143.798,69.628 139.5,70C 140.252,70.6708 140.586,71.5041 140.5,72.5C 138.112,69.9238 135.112,68.9238 131.5,69.5C 127.25,68.7275 122.917,68.2275 118.5,68C 124.014,62.4088 130.681,59.9088 138.5,60.5 Z"/></g>
<g><path style="opacity:1" fill="#5c5c5f" d="M 73.5,65.5 C 67.5357,73.1319 60.869,80.1319 53.5,86.5C 52.4937,86.0623 52.4937,85.3957 53.5,84.5C 58.5,80.1667 63.1667,75.5 67.5,70.5C 70.0256,68.7983 69.8589,67.1317 67,65.5C 63.8948,64.6328 60.7281,64.2994 57.5,64.5C 56.8333,68.5 56.1667,68.5 55.5,64.5C 53.0582,64.1192 52.3915,64.7859 53.5,66.5C 52.624,67.2508 51.624,67.7508 50.5,68C 51.6956,68.6543 51.6956,69.1543 50.5,69.5C 49.1521,67.5387 47.8187,67.3721 46.5,69C 47.3279,69.9147 48.3279,70.5814 49.5,71C 44.8218,71.1967 44.4884,72.1967 48.5,74C 47.5,74.3333 46.5,74.6667 45.5,75C 46.297,78.7454 46.797,82.5787 47,86.5C 48.1451,87.6364 49.3117,88.6364 50.5,89.5C 49.8333,89.8333 49.1667,90.1667 48.5,90.5C 47.0597,91.3629 45.7264,91.3629 44.5,90.5C 43.1387,88.9716 41.972,87.3049 41,85.5C 39.8045,78.9983 40.6378,72.8317 43.5,67C 44.4491,66.3828 45.2825,66.5494 46,67.5C 46.4186,66.3279 47.0853,65.3279 48,64.5C 51.4741,65.9277 51.9741,65.4277 49.5,63C 57.7886,57.1139 66.122,57.1139 74.5,63C 73.7476,63.6708 73.4142,64.5041 73.5,65.5 Z"/></g>
<g><path style="opacity:1" fill="#8f8f90" d="M 67.5,70.5 C 67.3893,69.8826 67.056,69.3826 66.5,69C 58.157,67.1603 53.157,70.3269 51.5,78.5C 51.361,80.8825 52.0277,82.8825 53.5,84.5C 52.4937,85.3957 52.4937,86.0623 53.5,86.5C 52.8333,87.8333 51.8333,88.8333 50.5,89.5C 49.3117,88.6364 48.1451,87.6364 47,86.5C 46.797,82.5787 46.297,78.7454 45.5,75C 46.5,74.6667 47.5,74.3333 48.5,74C 44.4884,72.1967 44.8218,71.1967 49.5,71C 48.3279,70.5814 47.3279,69.9147 46.5,69C 47.8187,67.3721 49.1521,67.5387 50.5,69.5C 51.6956,69.1543 51.6956,68.6543 50.5,68C 51.624,67.7508 52.624,67.2508 53.5,66.5C 52.3915,64.7859 53.0582,64.1192 55.5,64.5C 56.1667,68.5 56.8333,68.5 57.5,64.5C 60.7281,64.2994 63.8948,64.6328 67,65.5C 69.8589,67.1317 70.0256,68.7983 67.5,70.5 Z"/></g>
<g><path style="opacity:1" fill="#0d1530" d="M 114.5,71.5 C 114.158,72.3382 113.492,72.6716 112.5,72.5C 112.167,72.5 111.833,72.5 111.5,72.5C 112.091,71.8485 112.757,71.1818 113.5,70.5C 112.167,70.1667 110.833,69.8333 109.5,69.5C 102.191,70.3505 94.858,70.6838 87.5,70.5C 87.5,67.8333 87.5,65.1667 87.5,62.5C 91.5,62.5 95.5,62.5 99.5,62.5C 99.3691,63.3764 99.7025,64.0431 100.5,64.5C 104.501,61.074 109.167,59.7407 114.5,60.5C 114.5,64.1667 114.5,67.8333 114.5,71.5 Z"/></g>
<g><path style="opacity:1" fill="#181d35" d="M 20.5,60.5 C 18.8493,62.1238 16.8493,63.4571 14.5,64.5C 15.376,65.2508 16.376,65.7508 17.5,66C 15.5594,66.7429 13.7261,66.5762 12,65.5C 11.5,66 11,66.5 10.5,67C 19.5337,68.6483 28.5337,69.4816 37.5,69.5C 38.8528,71.1284 38.5195,72.4617 36.5,73.5C 35.9423,72.2101 34.9423,71.3768 33.5,71C 28.2948,69.7179 23.6282,70.5513 19.5,73.5C 19.6068,71.6214 19.1068,71.2881 18,72.5C 14.1953,71.2707 10.6953,70.2707 7.5,69.5C 10.2605,64.2821 14.5938,61.2821 20.5,60.5 Z"/></g>
<g><path style="opacity:1" fill="#ecebe8" d="M 36.5,73.5 C 36.5,77.8333 36.5,82.1667 36.5,86.5C 32.8277,88.8904 28.8277,89.7237 24.5,89C 21.921,87.9243 20.2543,86.091 19.5,83.5C 19.5,81.1667 19.5,78.8333 19.5,76.5C 19.5,75.5 19.5,74.5 19.5,73.5C 23.6282,70.5513 28.2948,69.7179 33.5,71C 34.9423,71.3768 35.9423,72.2101 36.5,73.5 Z"/></g>
<g><path style="opacity:1" fill="#343950" d="M 7.5,69.5 C 10.6953,70.2707 14.1953,71.2707 18,72.5C 19.1068,71.2881 19.6068,71.6214 19.5,73.5C 19.5,74.5 19.5,75.5 19.5,76.5C 18.6909,78.2922 18.1909,80.2922 18,82.5C 17.5045,80.5273 17.3379,78.5273 17.5,76.5C 13.8333,76.5 10.1667,76.5 6.5,76.5C 6.5,77.8333 6.5,79.1667 6.5,80.5C 5.59603,81.209 5.26269,82.209 5.5,83.5C 4.84761,82.5514 4.51428,81.3847 4.5,80C 4.69511,76.1397 5.69511,72.6397 7.5,69.5 Z"/></g>
<g><path style="opacity:1" fill="#25283e" d="M 138.5,60.5 C 130.681,59.9088 124.014,62.4088 118.5,68C 122.917,68.2275 127.25,68.7275 131.5,69.5C 130.524,70.8149 129.524,72.1482 128.5,73.5C 130.5,73.8333 132.5,74.1667 134.5,74.5C 136.952,74.4609 138.952,73.7943 140.5,72.5C 140.586,71.5041 140.252,70.6708 139.5,70C 143.798,69.628 147.798,69.4613 151.5,69.5C 154.09,73.6932 155.09,78.3599 154.5,83.5C 145.833,83.5 137.167,83.5 128.5,83.5C 132.812,82.6433 138.812,81.9767 146.5,81.5C 151.335,81.0335 153.335,78.3669 152.5,73.5C 148.894,73.7892 145.394,73.4558 142,72.5C 141.517,73.448 141.351,74.448 141.5,75.5C 134.749,75.7112 128.083,75.0445 121.5,73.5C 119.833,73.6667 118.167,73.8333 116.5,74C 115.663,75.0113 115.33,76.1779 115.5,77.5C 115.335,80.5184 115.502,83.5184 116,86.5C 116.671,87.2524 117.504,87.5858 118.5,87.5C 118.389,88.1174 118.056,88.6174 117.5,89C 118.849,89.7724 119.682,90.9391 120,92.5C 123.147,94.6497 126.313,96.6497 129.5,98.5C 116.756,95.1917 111.756,87.025 114.5,74C 113.584,73.7216 112.918,73.2216 112.5,72.5C 113.492,72.6716 114.158,72.3382 114.5,71.5C 119.849,61.8224 127.849,58.1557 138.5,60.5 Z"/></g>
<g><path style="opacity:1" fill="#e5e5e4" d="M 131.5,69.5 C 135.112,68.9238 138.112,69.9238 140.5,72.5C 138.952,73.7943 136.952,74.4609 134.5,74.5C 132.5,74.1667 130.5,73.8333 128.5,73.5C 129.524,72.1482 130.524,70.8149 131.5,69.5 Z"/></g>
<g><path style="opacity:1" fill="#48484a" d="M 82.5,63.5 C 83.5957,66.0316 84.9291,68.3649 86.5,70.5C 85.1667,76.8333 85.1667,83.1667 86.5,89.5C 82.6122,95.8859 77.2788,100.719 70.5,104C 60.9631,107.029 52.6297,105.196 45.5,98.5C 48.5,94.8333 51.8333,91.5 55.5,88.5C 55.2671,90.0618 54.6005,91.3951 53.5,92.5C 52.0384,93.4577 50.7051,94.6244 49.5,96C 50.1667,96.3333 50.8333,96.6667 51.5,97C 55.5635,97.7099 59.3969,98.8766 63,100.5C 63.49,99.2068 63.6567,97.8734 63.5,96.5C 66.2385,95.9648 68.0718,96.9648 69,99.5C 69.8699,98.8921 70.3699,98.0588 70.5,97C 68.9992,93.4555 69.4992,92.9555 72,95.5C 71.0425,93.2133 71.8758,91.5466 74.5,90.5C 77.8525,92.9762 78.1859,92.4762 75.5,89C 76.549,88.5078 77.549,88.6744 78.5,89.5C 79.6039,88.3687 79.2705,87.5354 77.5,87C 82.3787,86.8888 82.712,85.7222 78.5,83.5C 79.1368,81.6969 80.3035,80.3636 82,79.5C 82.6705,74.8449 81.3372,70.8449 78,67.5C 76.549,69.4641 74.7157,70.7974 72.5,71.5C 74.9626,67.6998 78.296,65.0332 82.5,63.5 Z"/></g>
<g><path style="opacity:1" fill="#1d2133" d="M 99.5,62.5 C 95.5,62.5 91.5,62.5 87.5,62.5C 87.5,65.1667 87.5,67.8333 87.5,70.5C 94.858,70.6838 102.191,70.3505 109.5,69.5C 110.833,69.8333 112.167,70.1667 113.5,70.5C 112.757,71.1818 112.091,71.8485 111.5,72.5C 107.247,71.8075 103.581,72.8075 100.5,75.5C 100.511,73.9826 101.177,72.8159 102.5,72C 97.5111,71.5007 92.5111,71.3341 87.5,71.5C 87.5,73.1667 87.5,74.8333 87.5,76.5C 87.5,79.1667 87.5,81.8333 87.5,84.5C 87.5,86.5 87.5,88.5 87.5,90.5C 87.1667,90.5 86.8333,90.5 86.5,90.5C 86.5,90.1667 86.5,89.8333 86.5,89.5C 85.1667,83.1667 85.1667,76.8333 86.5,70.5C 86.5,67.5 86.5,64.5 86.5,61.5C 91.0323,61.1818 95.3656,61.5151 99.5,62.5 Z"/></g>
<g><path style="opacity:1" fill="#3f455a" d="M 100.5,75.5 C 100.737,76.791 100.404,77.791 99.5,78.5C 99.1667,78.5 98.8333,78.5 98.5,78.5C 95.3157,76.5864 91.649,75.9197 87.5,76.5C 87.5,74.8333 87.5,73.1667 87.5,71.5C 92.5111,71.3341 97.5111,71.5007 102.5,72C 101.177,72.8159 100.511,73.9826 100.5,75.5 Z"/></g>
<g><path style="opacity:1" fill="#bfbfbf" d="M 67.5,70.5 C 63.1667,75.5 58.5,80.1667 53.5,84.5C 52.0277,82.8825 51.361,80.8825 51.5,78.5C 53.157,70.3269 58.157,67.1603 66.5,69C 67.056,69.3826 67.3893,69.8826 67.5,70.5 Z"/></g>
<g><path style="opacity:1" fill="#52586c" d="M 146.5,81.5 C 147.058,80.2101 148.058,79.3768 149.5,79C 138.091,78.8117 126.758,78.3117 115.5,77.5C 115.33,76.1779 115.663,75.0113 116.5,74C 118.167,73.8333 119.833,73.6667 121.5,73.5C 128.083,75.0445 134.749,75.7112 141.5,75.5C 141.351,74.448 141.517,73.448 142,72.5C 145.394,73.4558 148.894,73.7892 152.5,73.5C 153.335,78.3669 151.335,81.0335 146.5,81.5 Z"/></g>
<g><path style="opacity:1" fill="#787d8e" d="M 115.5,77.5 C 126.758,78.3117 138.091,78.8117 149.5,79C 148.058,79.3768 147.058,80.2101 146.5,81.5C 138.812,81.9767 132.812,82.6433 128.5,83.5C 128.5,83.8333 128.5,84.1667 128.5,84.5C 128.5,84.8333 128.5,85.1667 128.5,85.5C 125.209,86.2572 121.876,86.9239 118.5,87.5C 117.504,87.5858 116.671,87.2524 116,86.5C 115.502,83.5184 115.335,80.5184 115.5,77.5 Z"/></g>
<g><path style="opacity:1" fill="#6c7183" d="M 19.5,76.5 C 19.5,78.8333 19.5,81.1667 19.5,83.5C 14.9111,83.9375 10.5778,82.9375 6.5,80.5C 6.5,79.1667 6.5,77.8333 6.5,76.5C 10.1667,76.5 13.8333,76.5 17.5,76.5C 17.3379,78.5273 17.5045,80.5273 18,82.5C 18.1909,80.2922 18.6909,78.2922 19.5,76.5 Z"/></g>
<g><path style="opacity:1" fill="#777d8d" d="M 87.5,76.5 C 91.649,75.9197 95.3157,76.5864 98.5,78.5C 98.5,80.1667 98.5,81.8333 98.5,83.5C 94.9359,84.4227 91.2693,84.756 87.5,84.5C 87.5,81.8333 87.5,79.1667 87.5,76.5 Z"/></g>
<g><path style="opacity:1" fill="#b5b5b9" d="M 128.5,84.5 C 128.5,84.1667 128.5,83.8333 128.5,83.5C 137.167,83.5 145.833,83.5 154.5,83.5C 153.833,84.1667 153.167,84.8333 152.5,85.5C 151.833,85.5 151.167,85.5 150.5,85.5C 143.352,84.5084 136.019,84.175 128.5,84.5 Z"/></g>
<g><path style="opacity:1" fill="#ecebe8" d="M 128.5,84.5 C 136.019,84.175 143.352,84.5084 150.5,85.5C 144.665,89.1401 138.332,90.3068 131.5,89C 130.29,87.9609 129.29,86.7942 128.5,85.5C 128.5,85.1667 128.5,84.8333 128.5,84.5 Z"/></g>
<g><path style="opacity:1" fill="#7d7d7e" d="M 53.5,92.5 C 58.1365,93.8284 62.8032,93.8284 67.5,92.5C 69.1667,90.1667 71.1667,88.1667 73.5,86.5C 74.8806,81.7494 74.7139,77.0827 73,72.5C 71.955,73.3734 71.1217,74.3734 70.5,75.5C 69.0384,76.4577 67.7051,77.6244 66.5,79C 65.8333,79.6667 65.1667,79.6667 64.5,79C 67.0362,76.295 69.7029,73.795 72.5,71.5C 74.7157,70.7974 76.549,69.4641 78,67.5C 81.3372,70.8449 82.6705,74.8449 82,79.5C 80.3035,80.3636 79.1368,81.6969 78.5,83.5C 82.712,85.7222 82.3787,86.8888 77.5,87C 79.2705,87.5354 79.6039,88.3687 78.5,89.5C 77.549,88.6744 76.549,88.5078 75.5,89C 78.1859,92.4762 77.8525,92.9762 74.5,90.5C 71.8758,91.5466 71.0425,93.2133 72,95.5C 69.4992,92.9555 68.9992,93.4555 70.5,97C 70.3699,98.0588 69.8699,98.8921 69,99.5C 68.0718,96.9648 66.2385,95.9648 63.5,96.5C 63.6567,97.8734 63.49,99.2068 63,100.5C 59.3969,98.8766 55.5635,97.7099 51.5,97C 50.8333,96.6667 50.1667,96.3333 49.5,96C 50.7051,94.6244 52.0384,93.4577 53.5,92.5 Z"/></g>
<g><path style="opacity:1" fill="#a3a5b1" d="M 98.5,83.5 C 98.5,85.8333 98.5,88.1667 98.5,90.5C 94.8333,90.5 91.1667,90.5 87.5,90.5C 87.5,88.5 87.5,86.5 87.5,84.5C 91.2693,84.756 94.9359,84.4227 98.5,83.5 Z"/></g>
<g><path style="opacity:1" fill="#090f29" d="M 6.5,80.5 C 10.5778,82.9375 14.9111,83.9375 19.5,83.5C 20.2543,86.091 21.921,87.9243 24.5,89C 28.8277,89.7237 32.8277,88.8904 36.5,86.5C 37.8946,84.9456 38.5613,85.279 38.5,87.5C 37.673,90.7831 37.3396,94.1165 37.5,97.5C 26.9411,101.314 17.4411,99.6469 9,92.5C 6.71319,89.9278 5.54652,86.9278 5.5,83.5C 5.26269,82.209 5.59603,81.209 6.5,80.5 Z"/></g>
<g><path style="opacity:1" fill="#9d9d9d" d="M 53.5,92.5 C 54.6005,91.3951 55.2671,90.0618 55.5,88.5C 56.4577,87.0384 57.6244,85.7051 59,84.5C 59.6172,85.4491 59.4506,86.2825 58.5,87C 67.5622,88.4377 71.5622,84.6044 70.5,75.5C 71.1217,74.3734 71.955,73.3734 73,72.5C 74.7139,77.0827 74.8806,81.7494 73.5,86.5C 71.1667,88.1667 69.1667,90.1667 67.5,92.5C 62.8032,93.8284 58.1365,93.8284 53.5,92.5 Z"/></g>
<g><path style="opacity:1" fill="#bfbfbf" d="M 78.5,59.5 C 79.5,61.1667 80.8333,62.5 82.5,63.5C 78.296,65.0332 74.9626,67.6998 72.5,71.5C 69.7029,73.795 67.0362,76.295 64.5,79C 65.1667,79.6667 65.8333,79.6667 66.5,79C 67.7051,77.6244 69.0384,76.4577 70.5,75.5C 71.5622,84.6044 67.5622,88.4377 58.5,87C 59.4506,86.2825 59.6172,85.4491 59,84.5C 57.6244,85.7051 56.4577,87.0384 55.5,88.5C 51.8333,91.5 48.5,94.8333 45.5,98.5C 44.1667,97.8333 43.1667,96.8333 42.5,95.5C 45.0892,94.5806 47.0892,92.914 48.5,90.5C 49.1667,90.1667 49.8333,89.8333 50.5,89.5C 51.8333,88.8333 52.8333,87.8333 53.5,86.5C 60.869,80.1319 67.5357,73.1319 73.5,65.5C 75.914,64.0892 77.5806,62.0892 78.5,59.5 Z"/></g>
<g><path style="opacity:1" fill="#09102b" d="M 128.5,85.5 C 129.29,86.7942 130.29,87.9609 131.5,89C 138.332,90.3068 144.665,89.1401 150.5,85.5C 151.167,85.5 151.833,85.5 152.5,85.5C 152.5,89.1667 152.5,92.8333 152.5,96.5C 146.919,97.8824 141.253,98.8824 135.5,99.5C 133.41,99.4274 131.41,99.094 129.5,98.5C 126.313,96.6497 123.147,94.6497 120,92.5C 119.682,90.9391 118.849,89.7724 117.5,89C 118.056,88.6174 118.389,88.1174 118.5,87.5C 121.876,86.9239 125.209,86.2572 128.5,85.5 Z"/></g>
<g><path style="opacity:1" fill="#0a0f28" d="M 98.5,78.5 C 98.8333,78.5 99.1667,78.5 99.5,78.5C 99.5,85.5 99.5,92.5 99.5,99.5C 95.1667,99.5 90.8333,99.5 86.5,99.5C 86.5,96.5 86.5,93.5 86.5,90.5C 86.8333,90.5 87.1667,90.5 87.5,90.5C 91.1667,90.5 94.8333,90.5 98.5,90.5C 98.5,88.1667 98.5,85.8333 98.5,83.5C 98.5,81.8333 98.5,80.1667 98.5,78.5 Z"/></g>
</svg>
